M48
; DRILL file {KiCad (5.1.9)-1} date 10/12/21 13:38:07
; FORMAT={-:-/ absolute / inch / decimal}
; #@! TF.CreationDate,2021-10-12T13:38:07+01:00
; #@! TF.GenerationSoftware,Kicad,Pcbnew,(5.1.9)-1
; #@! TF.FileFunction,Plated,1,2,PTH
FMAT,2
INCH
T1C0.0118
T2C0.0157
T3C0.0472
%
G90
G05
T1
X4.8Y-1.875
X4.8Y-1.975
X4.8Y-2.075
X4.8Y-2.175
X4.8Y-2.275
X4.875Y-2.825
X4.9Y-1.875
X4.9Y-1.975
X4.9Y-2.075
X4.9Y-2.175
X4.9Y-2.275
X5.0Y-1.875
X5.0Y-1.975
X5.0Y-2.075
X5.0Y-2.175
X5.0Y-2.275
X5.025Y-2.925
X5.1Y-1.875
X5.1Y-2.275
X5.1Y-2.725
X5.175Y-2.925
X5.2Y-1.875
X5.2Y-2.025
X5.2Y-2.075
X5.2Y-2.125
X5.2Y-2.275
X5.25Y-2.025
X5.25Y-2.075
X5.25Y-2.125
X5.3Y-2.975
X5.36Y-2.9
X5.5Y-2.875
X5.6Y-2.075
X5.6Y-2.125
X5.6Y-2.175
X5.65Y-1.925
X5.65Y-2.075
X5.65Y-2.125
X5.65Y-2.175
X5.65Y-2.325
X5.65Y-3.0
X5.75Y-1.925
X5.75Y-2.325
X5.8Y-3.0
X5.85Y-1.925
X5.85Y-2.025
X5.85Y-2.125
X5.85Y-2.225
X5.85Y-2.325
X5.85Y-2.78
X5.9Y-2.77
X5.95Y-1.925
X5.95Y-2.025
X5.95Y-2.125
X5.95Y-2.225
X5.95Y-2.325
X6.05Y-1.925
X6.05Y-2.025
X6.05Y-2.225
X6.05Y-2.325
X6.05Y-2.77
X6.19Y-2.49
T2
X5.425Y-1.9
X5.425Y-2.3
T3
G00X4.61Y-2.112
M15
G01X4.61Y-2.238
M16
G05
G00X4.61Y-2.423
M15
G01X4.61Y-2.549
M16
G05
G00X6.4Y-2.112
M15
G01X6.4Y-2.238
M16
G05
G00X6.4Y-2.423
M15
G01X6.4Y-2.549
M16
G05
T0
M30
