%TF.GenerationSoftware,KiCad,Pcbnew,(5.1.9)-1*%
%TF.CreationDate,2021-09-02T18:26:23+01:00*%
%TF.ProjectId,InlinePowerpoleBOB,496e6c69-6e65-4506-9f77-6572706f6c65,rev?*%
%TF.SameCoordinates,Original*%
%TF.FileFunction,Legend,Bot*%
%TF.FilePolarity,Positive*%
%FSLAX46Y46*%
G04 Gerber Fmt 4.6, Leading zero omitted, Abs format (unit mm)*
G04 Created by KiCad (PCBNEW (5.1.9)-1) date 2021-09-02 18:26:23*
%MOMM*%
%LPD*%
G01*
G04 APERTURE LIST*
%ADD10C,0.150000*%
%ADD11C,0.125000*%
%ADD12C,0.010000*%
G04 APERTURE END LIST*
D10*
X163416400Y-70341980D02*
X163416400Y-69341980D01*
X162940209Y-69675314D02*
X162940209Y-70341980D01*
X162940209Y-69770552D02*
X162892590Y-69722933D01*
X162797352Y-69675314D01*
X162654495Y-69675314D01*
X162559257Y-69722933D01*
X162511638Y-69818171D01*
X162511638Y-70341980D01*
X161892590Y-70341980D02*
X161987828Y-70294361D01*
X162035447Y-70199123D01*
X162035447Y-69341980D01*
X161511638Y-70341980D02*
X161511638Y-69675314D01*
X161511638Y-69341980D02*
X161559257Y-69389600D01*
X161511638Y-69437219D01*
X161464019Y-69389600D01*
X161511638Y-69341980D01*
X161511638Y-69437219D01*
X161035447Y-69675314D02*
X161035447Y-70341980D01*
X161035447Y-69770552D02*
X160987828Y-69722933D01*
X160892590Y-69675314D01*
X160749733Y-69675314D01*
X160654495Y-69722933D01*
X160606876Y-69818171D01*
X160606876Y-70341980D01*
X159749733Y-70294361D02*
X159844971Y-70341980D01*
X160035447Y-70341980D01*
X160130685Y-70294361D01*
X160178304Y-70199123D01*
X160178304Y-69818171D01*
X160130685Y-69722933D01*
X160035447Y-69675314D01*
X159844971Y-69675314D01*
X159749733Y-69722933D01*
X159702114Y-69818171D01*
X159702114Y-69913409D01*
X160178304Y-70008647D01*
X158511638Y-70341980D02*
X158511638Y-69341980D01*
X158130685Y-69341980D01*
X158035447Y-69389600D01*
X157987828Y-69437219D01*
X157940209Y-69532457D01*
X157940209Y-69675314D01*
X157987828Y-69770552D01*
X158035447Y-69818171D01*
X158130685Y-69865790D01*
X158511638Y-69865790D01*
X157368780Y-70341980D02*
X157464019Y-70294361D01*
X157511638Y-70246742D01*
X157559257Y-70151504D01*
X157559257Y-69865790D01*
X157511638Y-69770552D01*
X157464019Y-69722933D01*
X157368780Y-69675314D01*
X157225923Y-69675314D01*
X157130685Y-69722933D01*
X157083066Y-69770552D01*
X157035447Y-69865790D01*
X157035447Y-70151504D01*
X157083066Y-70246742D01*
X157130685Y-70294361D01*
X157225923Y-70341980D01*
X157368780Y-70341980D01*
X156225923Y-70294361D02*
X156321161Y-70341980D01*
X156511638Y-70341980D01*
X156606876Y-70294361D01*
X156654495Y-70199123D01*
X156654495Y-69818171D01*
X156606876Y-69722933D01*
X156511638Y-69675314D01*
X156321161Y-69675314D01*
X156225923Y-69722933D01*
X156178304Y-69818171D01*
X156178304Y-69913409D01*
X156654495Y-70008647D01*
X155749733Y-70341980D02*
X155749733Y-69675314D01*
X155749733Y-69865790D02*
X155702114Y-69770552D01*
X155654495Y-69722933D01*
X155559257Y-69675314D01*
X155464019Y-69675314D01*
X155130685Y-69675314D02*
X155130685Y-70675314D01*
X155130685Y-69722933D02*
X155035447Y-69675314D01*
X154844971Y-69675314D01*
X154749733Y-69722933D01*
X154702114Y-69770552D01*
X154654495Y-69865790D01*
X154654495Y-70151504D01*
X154702114Y-70246742D01*
X154749733Y-70294361D01*
X154844971Y-70341980D01*
X155035447Y-70341980D01*
X155130685Y-70294361D01*
X154083066Y-70341980D02*
X154178304Y-70294361D01*
X154225923Y-70246742D01*
X154273542Y-70151504D01*
X154273542Y-69865790D01*
X154225923Y-69770552D01*
X154178304Y-69722933D01*
X154083066Y-69675314D01*
X153940209Y-69675314D01*
X153844971Y-69722933D01*
X153797352Y-69770552D01*
X153749733Y-69865790D01*
X153749733Y-70151504D01*
X153797352Y-70246742D01*
X153844971Y-70294361D01*
X153940209Y-70341980D01*
X154083066Y-70341980D01*
X153178304Y-70341980D02*
X153273542Y-70294361D01*
X153321161Y-70199123D01*
X153321161Y-69341980D01*
X152416400Y-70294361D02*
X152511638Y-70341980D01*
X152702114Y-70341980D01*
X152797352Y-70294361D01*
X152844971Y-70199123D01*
X152844971Y-69818171D01*
X152797352Y-69722933D01*
X152702114Y-69675314D01*
X152511638Y-69675314D01*
X152416400Y-69722933D01*
X152368780Y-69818171D01*
X152368780Y-69913409D01*
X152844971Y-70008647D01*
X151178304Y-69675314D02*
X151178304Y-70675314D01*
X151178304Y-69722933D02*
X151083066Y-69675314D01*
X150892590Y-69675314D01*
X150797352Y-69722933D01*
X150749733Y-69770552D01*
X150702114Y-69865790D01*
X150702114Y-70151504D01*
X150749733Y-70246742D01*
X150797352Y-70294361D01*
X150892590Y-70341980D01*
X151083066Y-70341980D01*
X151178304Y-70294361D01*
X150273542Y-70341980D02*
X150273542Y-69675314D01*
X150273542Y-69865790D02*
X150225923Y-69770552D01*
X150178304Y-69722933D01*
X150083066Y-69675314D01*
X149987828Y-69675314D01*
X149511638Y-70341980D02*
X149606876Y-70294361D01*
X149654495Y-70246742D01*
X149702114Y-70151504D01*
X149702114Y-69865790D01*
X149654495Y-69770552D01*
X149606876Y-69722933D01*
X149511638Y-69675314D01*
X149368780Y-69675314D01*
X149273542Y-69722933D01*
X149225923Y-69770552D01*
X149178304Y-69865790D01*
X149178304Y-70151504D01*
X149225923Y-70246742D01*
X149273542Y-70294361D01*
X149368780Y-70341980D01*
X149511638Y-70341980D01*
X148892590Y-69675314D02*
X148511638Y-69675314D01*
X148749733Y-69341980D02*
X148749733Y-70199123D01*
X148702114Y-70294361D01*
X148606876Y-70341980D01*
X148511638Y-70341980D01*
X147797352Y-70294361D02*
X147892590Y-70341980D01*
X148083066Y-70341980D01*
X148178304Y-70294361D01*
X148225923Y-70199123D01*
X148225923Y-69818171D01*
X148178304Y-69722933D01*
X148083066Y-69675314D01*
X147892590Y-69675314D01*
X147797352Y-69722933D01*
X147749733Y-69818171D01*
X147749733Y-69913409D01*
X148225923Y-70008647D01*
X146892590Y-70294361D02*
X146987828Y-70341980D01*
X147178304Y-70341980D01*
X147273542Y-70294361D01*
X147321161Y-70246742D01*
X147368780Y-70151504D01*
X147368780Y-69865790D01*
X147321161Y-69770552D01*
X147273542Y-69722933D01*
X147178304Y-69675314D01*
X146987828Y-69675314D01*
X146892590Y-69722933D01*
X146606876Y-69675314D02*
X146225923Y-69675314D01*
X146464019Y-69341980D02*
X146464019Y-70199123D01*
X146416400Y-70294361D01*
X146321161Y-70341980D01*
X146225923Y-70341980D01*
X145892590Y-70341980D02*
X145892590Y-69675314D01*
X145892590Y-69341980D02*
X145940209Y-69389600D01*
X145892590Y-69437219D01*
X145844971Y-69389600D01*
X145892590Y-69341980D01*
X145892590Y-69437219D01*
X145273542Y-70341980D02*
X145368780Y-70294361D01*
X145416400Y-70246742D01*
X145464019Y-70151504D01*
X145464019Y-69865790D01*
X145416400Y-69770552D01*
X145368780Y-69722933D01*
X145273542Y-69675314D01*
X145130685Y-69675314D01*
X145035447Y-69722933D01*
X144987828Y-69770552D01*
X144940209Y-69865790D01*
X144940209Y-70151504D01*
X144987828Y-70246742D01*
X145035447Y-70294361D01*
X145130685Y-70341980D01*
X145273542Y-70341980D01*
X144511638Y-69675314D02*
X144511638Y-70341980D01*
X144511638Y-69770552D02*
X144464019Y-69722933D01*
X144368780Y-69675314D01*
X144225923Y-69675314D01*
X144130685Y-69722933D01*
X144083066Y-69818171D01*
X144083066Y-70341980D01*
X142844971Y-70341980D02*
X142844971Y-69341980D01*
X142844971Y-69722933D02*
X142749733Y-69675314D01*
X142559257Y-69675314D01*
X142464019Y-69722933D01*
X142416400Y-69770552D01*
X142368780Y-69865790D01*
X142368780Y-70151504D01*
X142416400Y-70246742D01*
X142464019Y-70294361D01*
X142559257Y-70341980D01*
X142749733Y-70341980D01*
X142844971Y-70294361D01*
X142035447Y-69675314D02*
X141797352Y-70341980D01*
X141559257Y-69675314D02*
X141797352Y-70341980D01*
X141892590Y-70580076D01*
X141940209Y-70627695D01*
X142035447Y-70675314D01*
X139892590Y-69389600D02*
X139987828Y-69341980D01*
X140130685Y-69341980D01*
X140273542Y-69389600D01*
X140368780Y-69484838D01*
X140416400Y-69580076D01*
X140464019Y-69770552D01*
X140464019Y-69913409D01*
X140416400Y-70103885D01*
X140368780Y-70199123D01*
X140273542Y-70294361D01*
X140130685Y-70341980D01*
X140035447Y-70341980D01*
X139892590Y-70294361D01*
X139844971Y-70246742D01*
X139844971Y-69913409D01*
X140035447Y-69913409D01*
X138987828Y-70341980D02*
X138987828Y-69818171D01*
X139035447Y-69722933D01*
X139130685Y-69675314D01*
X139321161Y-69675314D01*
X139416400Y-69722933D01*
X138987828Y-70294361D02*
X139083066Y-70341980D01*
X139321161Y-70341980D01*
X139416400Y-70294361D01*
X139464019Y-70199123D01*
X139464019Y-70103885D01*
X139416400Y-70008647D01*
X139321161Y-69961028D01*
X139083066Y-69961028D01*
X138987828Y-69913409D01*
X138511638Y-70341980D02*
X138511638Y-69675314D01*
X138511638Y-69865790D02*
X138464019Y-69770552D01*
X138416400Y-69722933D01*
X138321161Y-69675314D01*
X138225923Y-69675314D01*
X137511638Y-70294361D02*
X137606876Y-70341980D01*
X137797352Y-70341980D01*
X137892590Y-70294361D01*
X137940209Y-70199123D01*
X137940209Y-69818171D01*
X137892590Y-69722933D01*
X137797352Y-69675314D01*
X137606876Y-69675314D01*
X137511638Y-69722933D01*
X137464019Y-69818171D01*
X137464019Y-69913409D01*
X137940209Y-70008647D01*
X137178304Y-69675314D02*
X136797352Y-69675314D01*
X137035447Y-69341980D02*
X137035447Y-70199123D01*
X136987828Y-70294361D01*
X136892590Y-70341980D01*
X136797352Y-70341980D01*
X136464019Y-70341980D02*
X136464019Y-69341980D01*
X136035447Y-70341980D02*
X136035447Y-69818171D01*
X136083066Y-69722933D01*
X136178304Y-69675314D01*
X136321161Y-69675314D01*
X136416400Y-69722933D01*
X136464019Y-69770552D01*
X134464019Y-69818171D02*
X134321161Y-69865790D01*
X134273542Y-69913409D01*
X134225923Y-70008647D01*
X134225923Y-70151504D01*
X134273542Y-70246742D01*
X134321161Y-70294361D01*
X134416400Y-70341980D01*
X134797352Y-70341980D01*
X134797352Y-69341980D01*
X134464019Y-69341980D01*
X134368780Y-69389600D01*
X134321161Y-69437219D01*
X134273542Y-69532457D01*
X134273542Y-69627695D01*
X134321161Y-69722933D01*
X134368780Y-69770552D01*
X134464019Y-69818171D01*
X134797352Y-69818171D01*
X133654495Y-70341980D02*
X133749733Y-70294361D01*
X133797352Y-70199123D01*
X133797352Y-69341980D01*
X132844971Y-70341980D02*
X132844971Y-69818171D01*
X132892590Y-69722933D01*
X132987828Y-69675314D01*
X133178304Y-69675314D01*
X133273542Y-69722933D01*
X132844971Y-70294361D02*
X132940209Y-70341980D01*
X133178304Y-70341980D01*
X133273542Y-70294361D01*
X133321161Y-70199123D01*
X133321161Y-70103885D01*
X133273542Y-70008647D01*
X133178304Y-69961028D01*
X132940209Y-69961028D01*
X132844971Y-69913409D01*
X131940209Y-70341980D02*
X131940209Y-69341980D01*
X131940209Y-70294361D02*
X132035447Y-70341980D01*
X132225923Y-70341980D01*
X132321161Y-70294361D01*
X132368780Y-70246742D01*
X132416400Y-70151504D01*
X132416400Y-69865790D01*
X132368780Y-69770552D01*
X132321161Y-69722933D01*
X132225923Y-69675314D01*
X132035447Y-69675314D01*
X131940209Y-69722933D01*
X131083066Y-70294361D02*
X131178304Y-70341980D01*
X131368780Y-70341980D01*
X131464019Y-70294361D01*
X131511638Y-70199123D01*
X131511638Y-69818171D01*
X131464019Y-69722933D01*
X131368780Y-69675314D01*
X131178304Y-69675314D01*
X131083066Y-69722933D01*
X131035447Y-69818171D01*
X131035447Y-69913409D01*
X131511638Y-70008647D01*
X130654495Y-70294361D02*
X130559257Y-70341980D01*
X130368780Y-70341980D01*
X130273542Y-70294361D01*
X130225923Y-70199123D01*
X130225923Y-70151504D01*
X130273542Y-70056266D01*
X130368780Y-70008647D01*
X130511638Y-70008647D01*
X130606876Y-69961028D01*
X130654495Y-69865790D01*
X130654495Y-69818171D01*
X130606876Y-69722933D01*
X130511638Y-69675314D01*
X130368780Y-69675314D01*
X130273542Y-69722933D01*
X129035447Y-70341980D02*
X129035447Y-69341980D01*
X128702114Y-70056266D01*
X128368780Y-69341980D01*
X128368780Y-70341980D01*
X127987828Y-69341980D02*
X127321161Y-69341980D01*
X127749733Y-70341980D01*
X126416400Y-69389600D02*
X126511638Y-69341980D01*
X126654495Y-69341980D01*
X126797352Y-69389600D01*
X126892590Y-69484838D01*
X126940209Y-69580076D01*
X126987828Y-69770552D01*
X126987828Y-69913409D01*
X126940209Y-70103885D01*
X126892590Y-70199123D01*
X126797352Y-70294361D01*
X126654495Y-70341980D01*
X126559257Y-70341980D01*
X126416400Y-70294361D01*
X126368780Y-70246742D01*
X126368780Y-69913409D01*
X126559257Y-69913409D01*
X125368780Y-70341980D02*
X125702114Y-69865790D01*
X125940209Y-70341980D02*
X125940209Y-69341980D01*
X125559257Y-69341980D01*
X125464019Y-69389600D01*
X125416400Y-69437219D01*
X125368780Y-69532457D01*
X125368780Y-69675314D01*
X125416400Y-69770552D01*
X125464019Y-69818171D01*
X125559257Y-69865790D01*
X125940209Y-69865790D01*
X124606876Y-69818171D02*
X124464019Y-69865790D01*
X124416400Y-69913409D01*
X124368780Y-70008647D01*
X124368780Y-70151504D01*
X124416400Y-70246742D01*
X124464019Y-70294361D01*
X124559257Y-70341980D01*
X124940209Y-70341980D01*
X124940209Y-69341980D01*
X124606876Y-69341980D01*
X124511638Y-69389600D01*
X124464019Y-69437219D01*
X124416400Y-69532457D01*
X124416400Y-69627695D01*
X124464019Y-69722933D01*
X124511638Y-69770552D01*
X124606876Y-69818171D01*
X124940209Y-69818171D01*
X162868780Y-73118171D02*
X162725923Y-73165790D01*
X162678304Y-73213409D01*
X162630685Y-73308647D01*
X162630685Y-73451504D01*
X162678304Y-73546742D01*
X162725923Y-73594361D01*
X162821161Y-73641980D01*
X163202114Y-73641980D01*
X163202114Y-72641980D01*
X162868780Y-72641980D01*
X162773542Y-72689600D01*
X162725923Y-72737219D01*
X162678304Y-72832457D01*
X162678304Y-72927695D01*
X162725923Y-73022933D01*
X162773542Y-73070552D01*
X162868780Y-73118171D01*
X163202114Y-73118171D01*
X161773542Y-73641980D02*
X161773542Y-73118171D01*
X161821161Y-73022933D01*
X161916400Y-72975314D01*
X162106876Y-72975314D01*
X162202114Y-73022933D01*
X161773542Y-73594361D02*
X161868780Y-73641980D01*
X162106876Y-73641980D01*
X162202114Y-73594361D01*
X162249733Y-73499123D01*
X162249733Y-73403885D01*
X162202114Y-73308647D01*
X162106876Y-73261028D01*
X161868780Y-73261028D01*
X161773542Y-73213409D01*
X161344971Y-73594361D02*
X161249733Y-73641980D01*
X161059257Y-73641980D01*
X160964019Y-73594361D01*
X160916400Y-73499123D01*
X160916400Y-73451504D01*
X160964019Y-73356266D01*
X161059257Y-73308647D01*
X161202114Y-73308647D01*
X161297352Y-73261028D01*
X161344971Y-73165790D01*
X161344971Y-73118171D01*
X161297352Y-73022933D01*
X161202114Y-72975314D01*
X161059257Y-72975314D01*
X160964019Y-73022933D01*
X160106876Y-73594361D02*
X160202114Y-73641980D01*
X160392590Y-73641980D01*
X160487828Y-73594361D01*
X160535447Y-73499123D01*
X160535447Y-73118171D01*
X160487828Y-73022933D01*
X160392590Y-72975314D01*
X160202114Y-72975314D01*
X160106876Y-73022933D01*
X160059257Y-73118171D01*
X160059257Y-73213409D01*
X160535447Y-73308647D01*
X159202114Y-73641980D02*
X159202114Y-72641980D01*
X159202114Y-73594361D02*
X159297352Y-73641980D01*
X159487828Y-73641980D01*
X159583066Y-73594361D01*
X159630685Y-73546742D01*
X159678304Y-73451504D01*
X159678304Y-73165790D01*
X159630685Y-73070552D01*
X159583066Y-73022933D01*
X159487828Y-72975314D01*
X159297352Y-72975314D01*
X159202114Y-73022933D01*
X157821161Y-73641980D02*
X157916400Y-73594361D01*
X157964019Y-73546742D01*
X158011638Y-73451504D01*
X158011638Y-73165790D01*
X157964019Y-73070552D01*
X157916400Y-73022933D01*
X157821161Y-72975314D01*
X157678304Y-72975314D01*
X157583066Y-73022933D01*
X157535447Y-73070552D01*
X157487828Y-73165790D01*
X157487828Y-73451504D01*
X157535447Y-73546742D01*
X157583066Y-73594361D01*
X157678304Y-73641980D01*
X157821161Y-73641980D01*
X157059257Y-72975314D02*
X157059257Y-73641980D01*
X157059257Y-73070552D02*
X157011638Y-73022933D01*
X156916400Y-72975314D01*
X156773542Y-72975314D01*
X156678304Y-73022933D01*
X156630685Y-73118171D01*
X156630685Y-73641980D01*
X155535447Y-72975314D02*
X155154495Y-72975314D01*
X155392590Y-72641980D02*
X155392590Y-73499123D01*
X155344971Y-73594361D01*
X155249733Y-73641980D01*
X155154495Y-73641980D01*
X154821161Y-73641980D02*
X154821161Y-72641980D01*
X154392590Y-73641980D02*
X154392590Y-73118171D01*
X154440209Y-73022933D01*
X154535447Y-72975314D01*
X154678304Y-72975314D01*
X154773542Y-73022933D01*
X154821161Y-73070552D01*
X153535447Y-73594361D02*
X153630685Y-73641980D01*
X153821161Y-73641980D01*
X153916400Y-73594361D01*
X153964019Y-73499123D01*
X153964019Y-73118171D01*
X153916400Y-73022933D01*
X153821161Y-72975314D01*
X153630685Y-72975314D01*
X153535447Y-73022933D01*
X153487828Y-73118171D01*
X153487828Y-73213409D01*
X153964019Y-73308647D01*
X151868780Y-73641980D02*
X151868780Y-72641980D01*
X151868780Y-73594361D02*
X151964019Y-73641980D01*
X152154495Y-73641980D01*
X152249733Y-73594361D01*
X152297352Y-73546742D01*
X152344971Y-73451504D01*
X152344971Y-73165790D01*
X152297352Y-73070552D01*
X152249733Y-73022933D01*
X152154495Y-72975314D01*
X151964019Y-72975314D01*
X151868780Y-73022933D01*
X151011638Y-73594361D02*
X151106876Y-73641980D01*
X151297352Y-73641980D01*
X151392590Y-73594361D01*
X151440209Y-73499123D01*
X151440209Y-73118171D01*
X151392590Y-73022933D01*
X151297352Y-72975314D01*
X151106876Y-72975314D01*
X151011638Y-73022933D01*
X150964019Y-73118171D01*
X150964019Y-73213409D01*
X151440209Y-73308647D01*
X150583066Y-73594361D02*
X150487828Y-73641980D01*
X150297352Y-73641980D01*
X150202114Y-73594361D01*
X150154495Y-73499123D01*
X150154495Y-73451504D01*
X150202114Y-73356266D01*
X150297352Y-73308647D01*
X150440209Y-73308647D01*
X150535447Y-73261028D01*
X150583066Y-73165790D01*
X150583066Y-73118171D01*
X150535447Y-73022933D01*
X150440209Y-72975314D01*
X150297352Y-72975314D01*
X150202114Y-73022933D01*
X149725923Y-73641980D02*
X149725923Y-72975314D01*
X149725923Y-72641980D02*
X149773542Y-72689600D01*
X149725923Y-72737219D01*
X149678304Y-72689600D01*
X149725923Y-72641980D01*
X149725923Y-72737219D01*
X148821161Y-72975314D02*
X148821161Y-73784838D01*
X148868780Y-73880076D01*
X148916400Y-73927695D01*
X149011638Y-73975314D01*
X149154495Y-73975314D01*
X149249733Y-73927695D01*
X148821161Y-73594361D02*
X148916400Y-73641980D01*
X149106876Y-73641980D01*
X149202114Y-73594361D01*
X149249733Y-73546742D01*
X149297352Y-73451504D01*
X149297352Y-73165790D01*
X149249733Y-73070552D01*
X149202114Y-73022933D01*
X149106876Y-72975314D01*
X148916400Y-72975314D01*
X148821161Y-73022933D01*
X148344971Y-72975314D02*
X148344971Y-73641980D01*
X148344971Y-73070552D02*
X148297352Y-73022933D01*
X148202114Y-72975314D01*
X148059257Y-72975314D01*
X147964019Y-73022933D01*
X147916400Y-73118171D01*
X147916400Y-73641980D01*
X146678304Y-73641980D02*
X146678304Y-72641980D01*
X146678304Y-73022933D02*
X146583066Y-72975314D01*
X146392590Y-72975314D01*
X146297352Y-73022933D01*
X146249733Y-73070552D01*
X146202114Y-73165790D01*
X146202114Y-73451504D01*
X146249733Y-73546742D01*
X146297352Y-73594361D01*
X146392590Y-73641980D01*
X146583066Y-73641980D01*
X146678304Y-73594361D01*
X145868780Y-72975314D02*
X145630685Y-73641980D01*
X145392590Y-72975314D02*
X145630685Y-73641980D01*
X145725923Y-73880076D01*
X145773542Y-73927695D01*
X145868780Y-73975314D01*
X143916400Y-73118171D02*
X143773542Y-73165790D01*
X143725923Y-73213409D01*
X143678304Y-73308647D01*
X143678304Y-73451504D01*
X143725923Y-73546742D01*
X143773542Y-73594361D01*
X143868780Y-73641980D01*
X144249733Y-73641980D01*
X144249733Y-72641980D01*
X143916400Y-72641980D01*
X143821161Y-72689600D01*
X143773542Y-72737219D01*
X143725923Y-72832457D01*
X143725923Y-72927695D01*
X143773542Y-73022933D01*
X143821161Y-73070552D01*
X143916400Y-73118171D01*
X144249733Y-73118171D01*
X142868780Y-73594361D02*
X142964019Y-73641980D01*
X143154495Y-73641980D01*
X143249733Y-73594361D01*
X143297352Y-73499123D01*
X143297352Y-73118171D01*
X143249733Y-73022933D01*
X143154495Y-72975314D01*
X142964019Y-72975314D01*
X142868780Y-73022933D01*
X142821161Y-73118171D01*
X142821161Y-73213409D01*
X143297352Y-73308647D01*
X142392590Y-73641980D02*
X142392590Y-72975314D01*
X142392590Y-73165790D02*
X142344971Y-73070552D01*
X142297352Y-73022933D01*
X142202114Y-72975314D01*
X142106876Y-72975314D01*
X141773542Y-72975314D02*
X141773542Y-73641980D01*
X141773542Y-73070552D02*
X141725923Y-73022933D01*
X141630685Y-72975314D01*
X141487828Y-72975314D01*
X141392590Y-73022933D01*
X141344971Y-73118171D01*
X141344971Y-73641980D01*
X140440209Y-73641980D02*
X140440209Y-73118171D01*
X140487828Y-73022933D01*
X140583066Y-72975314D01*
X140773542Y-72975314D01*
X140868780Y-73022933D01*
X140440209Y-73594361D02*
X140535447Y-73641980D01*
X140773542Y-73641980D01*
X140868780Y-73594361D01*
X140916400Y-73499123D01*
X140916400Y-73403885D01*
X140868780Y-73308647D01*
X140773542Y-73261028D01*
X140535447Y-73261028D01*
X140440209Y-73213409D01*
X139964019Y-73641980D02*
X139964019Y-72975314D01*
X139964019Y-73165790D02*
X139916400Y-73070552D01*
X139868780Y-73022933D01*
X139773542Y-72975314D01*
X139678304Y-72975314D01*
X138916400Y-73641980D02*
X138916400Y-72641980D01*
X138916400Y-73594361D02*
X139011638Y-73641980D01*
X139202114Y-73641980D01*
X139297352Y-73594361D01*
X139344971Y-73546742D01*
X139392590Y-73451504D01*
X139392590Y-73165790D01*
X139344971Y-73070552D01*
X139297352Y-73022933D01*
X139202114Y-72975314D01*
X139011638Y-72975314D01*
X138916400Y-73022933D01*
X137678304Y-73641980D02*
X137678304Y-72641980D01*
X137344971Y-73356266D01*
X137011638Y-72641980D01*
X137011638Y-73641980D01*
X136106876Y-73594361D02*
X136202114Y-73641980D01*
X136392590Y-73641980D01*
X136487828Y-73594361D01*
X136535447Y-73546742D01*
X136583066Y-73451504D01*
X136583066Y-73165790D01*
X136535447Y-73070552D01*
X136487828Y-73022933D01*
X136392590Y-72975314D01*
X136202114Y-72975314D01*
X136106876Y-73022933D01*
X135678304Y-73641980D02*
X135678304Y-72641980D01*
X135202114Y-72975314D02*
X135202114Y-73641980D01*
X135202114Y-73070552D02*
X135154495Y-73022933D01*
X135059257Y-72975314D01*
X134916400Y-72975314D01*
X134821161Y-73022933D01*
X134773542Y-73118171D01*
X134773542Y-73641980D01*
X134440209Y-72975314D02*
X134059257Y-72975314D01*
X134297352Y-72641980D02*
X134297352Y-73499123D01*
X134249733Y-73594361D01*
X134154495Y-73641980D01*
X134059257Y-73641980D01*
X133583066Y-73641980D02*
X133678304Y-73594361D01*
X133725923Y-73546742D01*
X133773542Y-73451504D01*
X133773542Y-73165790D01*
X133725923Y-73070552D01*
X133678304Y-73022933D01*
X133583066Y-72975314D01*
X133440209Y-72975314D01*
X133344971Y-73022933D01*
X133297352Y-73070552D01*
X133249733Y-73165790D01*
X133249733Y-73451504D01*
X133297352Y-73546742D01*
X133344971Y-73594361D01*
X133440209Y-73641980D01*
X133583066Y-73641980D01*
X132868780Y-73594361D02*
X132773542Y-73641980D01*
X132583066Y-73641980D01*
X132487828Y-73594361D01*
X132440209Y-73499123D01*
X132440209Y-73451504D01*
X132487828Y-73356266D01*
X132583066Y-73308647D01*
X132725923Y-73308647D01*
X132821161Y-73261028D01*
X132868780Y-73165790D01*
X132868780Y-73118171D01*
X132821161Y-73022933D01*
X132725923Y-72975314D01*
X132583066Y-72975314D01*
X132487828Y-73022933D01*
X132011638Y-73641980D02*
X132011638Y-72641980D01*
X131583066Y-73641980D02*
X131583066Y-73118171D01*
X131630685Y-73022933D01*
X131725923Y-72975314D01*
X131868780Y-72975314D01*
X131964019Y-73022933D01*
X132011638Y-73070552D01*
X129821161Y-72689600D02*
X129916400Y-72641980D01*
X130059257Y-72641980D01*
X130202114Y-72689600D01*
X130297352Y-72784838D01*
X130344971Y-72880076D01*
X130392590Y-73070552D01*
X130392590Y-73213409D01*
X130344971Y-73403885D01*
X130297352Y-73499123D01*
X130202114Y-73594361D01*
X130059257Y-73641980D01*
X129964019Y-73641980D01*
X129821161Y-73594361D01*
X129773542Y-73546742D01*
X129773542Y-73213409D01*
X129964019Y-73213409D01*
X129344971Y-73641980D02*
X129344971Y-72641980D01*
X129011638Y-73356266D01*
X128678304Y-72641980D01*
X128678304Y-73641980D01*
X127773542Y-72975314D02*
X127773542Y-73641980D01*
X128011638Y-72594361D02*
X128249733Y-73308647D01*
X127630685Y-73308647D01*
X127344971Y-72641980D02*
X127106876Y-73641980D01*
X126916400Y-72927695D01*
X126725923Y-73641980D01*
X126487828Y-72641980D01*
X126202114Y-72641980D02*
X125535447Y-72641980D01*
X126202114Y-73641980D01*
X125535447Y-73641980D01*
X124630685Y-72689600D02*
X124725923Y-72641980D01*
X124868780Y-72641980D01*
X125011638Y-72689600D01*
X125106876Y-72784838D01*
X125154495Y-72880076D01*
X125202114Y-73070552D01*
X125202114Y-73213409D01*
X125154495Y-73403885D01*
X125106876Y-73499123D01*
X125011638Y-73594361D01*
X124868780Y-73641980D01*
X124773542Y-73641980D01*
X124630685Y-73594361D01*
X124583066Y-73546742D01*
X124583066Y-73213409D01*
X124773542Y-73213409D01*
X157987828Y-74625314D02*
X157606876Y-74625314D01*
X157844971Y-75291980D02*
X157844971Y-74434838D01*
X157797352Y-74339600D01*
X157702114Y-74291980D01*
X157606876Y-74291980D01*
X156892590Y-75244361D02*
X156987828Y-75291980D01*
X157178304Y-75291980D01*
X157273542Y-75244361D01*
X157321161Y-75149123D01*
X157321161Y-74768171D01*
X157273542Y-74672933D01*
X157178304Y-74625314D01*
X156987828Y-74625314D01*
X156892590Y-74672933D01*
X156844971Y-74768171D01*
X156844971Y-74863409D01*
X157321161Y-74958647D01*
X155987828Y-75291980D02*
X155987828Y-74768171D01*
X156035447Y-74672933D01*
X156130685Y-74625314D01*
X156321161Y-74625314D01*
X156416400Y-74672933D01*
X155987828Y-75244361D02*
X156083066Y-75291980D01*
X156321161Y-75291980D01*
X156416400Y-75244361D01*
X156464019Y-75149123D01*
X156464019Y-75053885D01*
X156416400Y-74958647D01*
X156321161Y-74911028D01*
X156083066Y-74911028D01*
X155987828Y-74863409D01*
X155654495Y-74625314D02*
X155273542Y-74625314D01*
X155511638Y-74291980D02*
X155511638Y-75149123D01*
X155464019Y-75244361D01*
X155368780Y-75291980D01*
X155273542Y-75291980D01*
X154511638Y-74625314D02*
X154511638Y-75291980D01*
X154940209Y-74625314D02*
X154940209Y-75149123D01*
X154892590Y-75244361D01*
X154797352Y-75291980D01*
X154654495Y-75291980D01*
X154559257Y-75244361D01*
X154511638Y-75196742D01*
X154035447Y-75291980D02*
X154035447Y-74625314D01*
X154035447Y-74815790D02*
X153987828Y-74720552D01*
X153940209Y-74672933D01*
X153844971Y-74625314D01*
X153749733Y-74625314D01*
X153035447Y-75244361D02*
X153130685Y-75291980D01*
X153321161Y-75291980D01*
X153416400Y-75244361D01*
X153464019Y-75149123D01*
X153464019Y-74768171D01*
X153416400Y-74672933D01*
X153321161Y-74625314D01*
X153130685Y-74625314D01*
X153035447Y-74672933D01*
X152987828Y-74768171D01*
X152987828Y-74863409D01*
X153464019Y-74958647D01*
X152130685Y-75291980D02*
X152130685Y-74291980D01*
X152130685Y-75244361D02*
X152225923Y-75291980D01*
X152416400Y-75291980D01*
X152511638Y-75244361D01*
X152559257Y-75196742D01*
X152606876Y-75101504D01*
X152606876Y-74815790D01*
X152559257Y-74720552D01*
X152511638Y-74672933D01*
X152416400Y-74625314D01*
X152225923Y-74625314D01*
X152130685Y-74672933D01*
X150892590Y-75291980D02*
X150892590Y-74625314D01*
X150892590Y-74291980D02*
X150940209Y-74339600D01*
X150892590Y-74387219D01*
X150844971Y-74339600D01*
X150892590Y-74291980D01*
X150892590Y-74387219D01*
X150416400Y-74625314D02*
X150416400Y-75291980D01*
X150416400Y-74720552D02*
X150368780Y-74672933D01*
X150273542Y-74625314D01*
X150130685Y-74625314D01*
X150035447Y-74672933D01*
X149987828Y-74768171D01*
X149987828Y-75291980D01*
X148178304Y-75291980D02*
X148511638Y-74815790D01*
X148749733Y-75291980D02*
X148749733Y-74291980D01*
X148368780Y-74291980D01*
X148273542Y-74339600D01*
X148225923Y-74387219D01*
X148178304Y-74482457D01*
X148178304Y-74625314D01*
X148225923Y-74720552D01*
X148273542Y-74768171D01*
X148368780Y-74815790D01*
X148749733Y-74815790D01*
X147321161Y-75291980D02*
X147321161Y-74768171D01*
X147368780Y-74672933D01*
X147464019Y-74625314D01*
X147654495Y-74625314D01*
X147749733Y-74672933D01*
X147321161Y-75244361D02*
X147416400Y-75291980D01*
X147654495Y-75291980D01*
X147749733Y-75244361D01*
X147797352Y-75149123D01*
X147797352Y-75053885D01*
X147749733Y-74958647D01*
X147654495Y-74911028D01*
X147416400Y-74911028D01*
X147321161Y-74863409D01*
X146416400Y-75291980D02*
X146416400Y-74291980D01*
X146416400Y-75244361D02*
X146511638Y-75291980D01*
X146702114Y-75291980D01*
X146797352Y-75244361D01*
X146844971Y-75196742D01*
X146892590Y-75101504D01*
X146892590Y-74815790D01*
X146844971Y-74720552D01*
X146797352Y-74672933D01*
X146702114Y-74625314D01*
X146511638Y-74625314D01*
X146416400Y-74672933D01*
X145368780Y-75196742D02*
X145416400Y-75244361D01*
X145559257Y-75291980D01*
X145654495Y-75291980D01*
X145797352Y-75244361D01*
X145892590Y-75149123D01*
X145940209Y-75053885D01*
X145987828Y-74863409D01*
X145987828Y-74720552D01*
X145940209Y-74530076D01*
X145892590Y-74434838D01*
X145797352Y-74339600D01*
X145654495Y-74291980D01*
X145559257Y-74291980D01*
X145416400Y-74339600D01*
X145368780Y-74387219D01*
X144797352Y-75291980D02*
X144892590Y-75244361D01*
X144940209Y-75196742D01*
X144987828Y-75101504D01*
X144987828Y-74815790D01*
X144940209Y-74720552D01*
X144892590Y-74672933D01*
X144797352Y-74625314D01*
X144654495Y-74625314D01*
X144559257Y-74672933D01*
X144511638Y-74720552D01*
X144464019Y-74815790D01*
X144464019Y-75101504D01*
X144511638Y-75196742D01*
X144559257Y-75244361D01*
X144654495Y-75291980D01*
X144797352Y-75291980D01*
X144035447Y-75291980D02*
X144035447Y-74625314D01*
X144035447Y-74720552D02*
X143987828Y-74672933D01*
X143892590Y-74625314D01*
X143749733Y-74625314D01*
X143654495Y-74672933D01*
X143606876Y-74768171D01*
X143606876Y-75291980D01*
X143606876Y-74768171D02*
X143559257Y-74672933D01*
X143464019Y-74625314D01*
X143321161Y-74625314D01*
X143225923Y-74672933D01*
X143178304Y-74768171D01*
X143178304Y-75291980D01*
X141987828Y-75244361D02*
X141844971Y-75291980D01*
X141606876Y-75291980D01*
X141511638Y-75244361D01*
X141464019Y-75196742D01*
X141416400Y-75101504D01*
X141416400Y-75006266D01*
X141464019Y-74911028D01*
X141511638Y-74863409D01*
X141606876Y-74815790D01*
X141797352Y-74768171D01*
X141892590Y-74720552D01*
X141940209Y-74672933D01*
X141987828Y-74577695D01*
X141987828Y-74482457D01*
X141940209Y-74387219D01*
X141892590Y-74339600D01*
X141797352Y-74291980D01*
X141559257Y-74291980D01*
X141416400Y-74339600D01*
X140606876Y-75244361D02*
X140702114Y-75291980D01*
X140892590Y-75291980D01*
X140987828Y-75244361D01*
X141035447Y-75149123D01*
X141035447Y-74768171D01*
X140987828Y-74672933D01*
X140892590Y-74625314D01*
X140702114Y-74625314D01*
X140606876Y-74672933D01*
X140559257Y-74768171D01*
X140559257Y-74863409D01*
X141035447Y-74958647D01*
X140130685Y-74625314D02*
X140130685Y-75625314D01*
X140130685Y-74672933D02*
X140035447Y-74625314D01*
X139844971Y-74625314D01*
X139749733Y-74672933D01*
X139702114Y-74720552D01*
X139654495Y-74815790D01*
X139654495Y-75101504D01*
X139702114Y-75196742D01*
X139749733Y-75244361D01*
X139844971Y-75291980D01*
X140035447Y-75291980D01*
X140130685Y-75244361D01*
X139368780Y-74625314D02*
X138987828Y-74625314D01*
X139225923Y-74291980D02*
X139225923Y-75149123D01*
X139178304Y-75244361D01*
X139083066Y-75291980D01*
X138987828Y-75291980D01*
X138273542Y-75244361D02*
X138368780Y-75291980D01*
X138559257Y-75291980D01*
X138654495Y-75244361D01*
X138702114Y-75149123D01*
X138702114Y-74768171D01*
X138654495Y-74672933D01*
X138559257Y-74625314D01*
X138368780Y-74625314D01*
X138273542Y-74672933D01*
X138225923Y-74768171D01*
X138225923Y-74863409D01*
X138702114Y-74958647D01*
X137797352Y-75291980D02*
X137797352Y-74625314D01*
X137797352Y-74720552D02*
X137749733Y-74672933D01*
X137654495Y-74625314D01*
X137511638Y-74625314D01*
X137416400Y-74672933D01*
X137368780Y-74768171D01*
X137368780Y-75291980D01*
X137368780Y-74768171D02*
X137321161Y-74672933D01*
X137225923Y-74625314D01*
X137083066Y-74625314D01*
X136987828Y-74672933D01*
X136940209Y-74768171D01*
X136940209Y-75291980D01*
X136464019Y-75291980D02*
X136464019Y-74291980D01*
X136464019Y-74672933D02*
X136368780Y-74625314D01*
X136178304Y-74625314D01*
X136083066Y-74672933D01*
X136035447Y-74720552D01*
X135987828Y-74815790D01*
X135987828Y-75101504D01*
X136035447Y-75196742D01*
X136083066Y-75244361D01*
X136178304Y-75291980D01*
X136368780Y-75291980D01*
X136464019Y-75244361D01*
X135178304Y-75244361D02*
X135273542Y-75291980D01*
X135464019Y-75291980D01*
X135559257Y-75244361D01*
X135606876Y-75149123D01*
X135606876Y-74768171D01*
X135559257Y-74672933D01*
X135464019Y-74625314D01*
X135273542Y-74625314D01*
X135178304Y-74672933D01*
X135130685Y-74768171D01*
X135130685Y-74863409D01*
X135606876Y-74958647D01*
X134702114Y-75291980D02*
X134702114Y-74625314D01*
X134702114Y-74815790D02*
X134654495Y-74720552D01*
X134606876Y-74672933D01*
X134511638Y-74625314D01*
X134416400Y-74625314D01*
X133368780Y-74387219D02*
X133321161Y-74339600D01*
X133225923Y-74291980D01*
X132987828Y-74291980D01*
X132892590Y-74339600D01*
X132844971Y-74387219D01*
X132797352Y-74482457D01*
X132797352Y-74577695D01*
X132844971Y-74720552D01*
X133416400Y-75291980D01*
X132797352Y-75291980D01*
X132178304Y-74291980D02*
X132083066Y-74291980D01*
X131987828Y-74339600D01*
X131940209Y-74387219D01*
X131892590Y-74482457D01*
X131844971Y-74672933D01*
X131844971Y-74911028D01*
X131892590Y-75101504D01*
X131940209Y-75196742D01*
X131987828Y-75244361D01*
X132083066Y-75291980D01*
X132178304Y-75291980D01*
X132273542Y-75244361D01*
X132321161Y-75196742D01*
X132368780Y-75101504D01*
X132416400Y-74911028D01*
X132416400Y-74672933D01*
X132368780Y-74482457D01*
X132321161Y-74387219D01*
X132273542Y-74339600D01*
X132178304Y-74291980D01*
X131464019Y-74387219D02*
X131416400Y-74339600D01*
X131321161Y-74291980D01*
X131083066Y-74291980D01*
X130987828Y-74339600D01*
X130940209Y-74387219D01*
X130892590Y-74482457D01*
X130892590Y-74577695D01*
X130940209Y-74720552D01*
X131511638Y-75291980D01*
X130892590Y-75291980D01*
X129940209Y-75291980D02*
X130511638Y-75291980D01*
X130225923Y-75291980D02*
X130225923Y-74291980D01*
X130321161Y-74434838D01*
X130416400Y-74530076D01*
X130511638Y-74577695D01*
D11*
X133956142Y-66842047D02*
X133956142Y-66192047D01*
X133677571Y-66842047D02*
X133677571Y-66501571D01*
X133708523Y-66439666D01*
X133770428Y-66408714D01*
X133863285Y-66408714D01*
X133925190Y-66439666D01*
X133956142Y-66470619D01*
X133460904Y-66408714D02*
X133213285Y-66408714D01*
X133368047Y-66192047D02*
X133368047Y-66749190D01*
X133337095Y-66811095D01*
X133275190Y-66842047D01*
X133213285Y-66842047D01*
X133089476Y-66408714D02*
X132841857Y-66408714D01*
X132996619Y-66192047D02*
X132996619Y-66749190D01*
X132965666Y-66811095D01*
X132903761Y-66842047D01*
X132841857Y-66842047D01*
X132625190Y-66408714D02*
X132625190Y-67058714D01*
X132625190Y-66439666D02*
X132563285Y-66408714D01*
X132439476Y-66408714D01*
X132377571Y-66439666D01*
X132346619Y-66470619D01*
X132315666Y-66532523D01*
X132315666Y-66718238D01*
X132346619Y-66780142D01*
X132377571Y-66811095D01*
X132439476Y-66842047D01*
X132563285Y-66842047D01*
X132625190Y-66811095D01*
X132068047Y-66811095D02*
X132006142Y-66842047D01*
X131882333Y-66842047D01*
X131820428Y-66811095D01*
X131789476Y-66749190D01*
X131789476Y-66718238D01*
X131820428Y-66656333D01*
X131882333Y-66625380D01*
X131975190Y-66625380D01*
X132037095Y-66594428D01*
X132068047Y-66532523D01*
X132068047Y-66501571D01*
X132037095Y-66439666D01*
X131975190Y-66408714D01*
X131882333Y-66408714D01*
X131820428Y-66439666D01*
X131510904Y-66780142D02*
X131479952Y-66811095D01*
X131510904Y-66842047D01*
X131541857Y-66811095D01*
X131510904Y-66780142D01*
X131510904Y-66842047D01*
X131510904Y-66439666D02*
X131479952Y-66470619D01*
X131510904Y-66501571D01*
X131541857Y-66470619D01*
X131510904Y-66439666D01*
X131510904Y-66501571D01*
X130737095Y-66161095D02*
X131294238Y-66996809D01*
X130056142Y-66161095D02*
X130613285Y-66996809D01*
X129839476Y-66842047D02*
X129839476Y-66192047D01*
X129839476Y-66439666D02*
X129777571Y-66408714D01*
X129653761Y-66408714D01*
X129591857Y-66439666D01*
X129560904Y-66470619D01*
X129529952Y-66532523D01*
X129529952Y-66718238D01*
X129560904Y-66780142D01*
X129591857Y-66811095D01*
X129653761Y-66842047D01*
X129777571Y-66842047D01*
X129839476Y-66811095D01*
X129251380Y-66842047D02*
X129251380Y-66408714D01*
X129251380Y-66192047D02*
X129282333Y-66223000D01*
X129251380Y-66253952D01*
X129220428Y-66223000D01*
X129251380Y-66192047D01*
X129251380Y-66253952D01*
X129034714Y-66408714D02*
X128787095Y-66408714D01*
X128941857Y-66192047D02*
X128941857Y-66749190D01*
X128910904Y-66811095D01*
X128849000Y-66842047D01*
X128787095Y-66842047D01*
X128570428Y-66780142D02*
X128539476Y-66811095D01*
X128570428Y-66842047D01*
X128601380Y-66811095D01*
X128570428Y-66780142D01*
X128570428Y-66842047D01*
X128168047Y-66842047D02*
X128229952Y-66811095D01*
X128260904Y-66749190D01*
X128260904Y-66192047D01*
X127982333Y-66408714D02*
X127827571Y-66842047D01*
X127672809Y-66408714D02*
X127827571Y-66842047D01*
X127889476Y-66996809D01*
X127920428Y-67027761D01*
X127982333Y-67058714D01*
X126960904Y-66161095D02*
X127518047Y-66996809D01*
X126775190Y-66253952D02*
X126744238Y-66223000D01*
X126682333Y-66192047D01*
X126527571Y-66192047D01*
X126465666Y-66223000D01*
X126434714Y-66253952D01*
X126403761Y-66315857D01*
X126403761Y-66377761D01*
X126434714Y-66470619D01*
X126806142Y-66842047D01*
X126403761Y-66842047D01*
X126001380Y-66532523D02*
X126001380Y-66842047D01*
X126218047Y-66192047D02*
X126001380Y-66532523D01*
X125784714Y-66192047D01*
X125475190Y-66842047D02*
X125537095Y-66811095D01*
X125568047Y-66749190D01*
X125568047Y-66192047D01*
X125227571Y-66192047D02*
X125227571Y-66718238D01*
X125196619Y-66780142D01*
X125165666Y-66811095D01*
X125103761Y-66842047D01*
X124979952Y-66842047D01*
X124918047Y-66811095D01*
X124887095Y-66780142D01*
X124856142Y-66718238D01*
X124856142Y-66192047D01*
X124268047Y-66408714D02*
X124268047Y-67058714D01*
X124268047Y-66811095D02*
X124329952Y-66842047D01*
X124453761Y-66842047D01*
X124515666Y-66811095D01*
X124546619Y-66780142D01*
X124577571Y-66718238D01*
X124577571Y-66532523D01*
X124546619Y-66470619D01*
X124515666Y-66439666D01*
X124453761Y-66408714D01*
X124329952Y-66408714D01*
X124268047Y-66439666D01*
X123989476Y-66253952D02*
X123958523Y-66223000D01*
X123896619Y-66192047D01*
X123741857Y-66192047D01*
X123679952Y-66223000D01*
X123649000Y-66253952D01*
X123618047Y-66315857D01*
X123618047Y-66377761D01*
X123649000Y-66470619D01*
X124020428Y-66842047D01*
X123618047Y-66842047D01*
X123432333Y-66192047D02*
X123215666Y-66842047D01*
X122999000Y-66192047D01*
D12*
%TO.C,G\u002A\u002A\u002A*%
G36*
X126236916Y-56608359D02*
G01*
X126153392Y-56624225D01*
X126091100Y-56652986D01*
X126048614Y-56696056D01*
X126024510Y-56754848D01*
X126017338Y-56826137D01*
X126025305Y-56905528D01*
X126050100Y-56966874D01*
X126093070Y-57011594D01*
X126155557Y-57041109D01*
X126235466Y-57056489D01*
X126314200Y-57064718D01*
X126314200Y-56600281D01*
X126236916Y-56608359D01*
G37*
X126236916Y-56608359D02*
X126153392Y-56624225D01*
X126091100Y-56652986D01*
X126048614Y-56696056D01*
X126024510Y-56754848D01*
X126017338Y-56826137D01*
X126025305Y-56905528D01*
X126050100Y-56966874D01*
X126093070Y-57011594D01*
X126155557Y-57041109D01*
X126235466Y-57056489D01*
X126314200Y-57064718D01*
X126314200Y-56600281D01*
X126236916Y-56608359D01*
G36*
X125270912Y-58892495D02*
G01*
X125222586Y-58898092D01*
X125191936Y-58907987D01*
X125171296Y-58924800D01*
X125169312Y-58927178D01*
X125152174Y-58953493D01*
X125145800Y-58972450D01*
X125153258Y-58993493D01*
X125169312Y-59017721D01*
X125189320Y-59035451D01*
X125218496Y-59045978D01*
X125264507Y-59051919D01*
X125270912Y-59052404D01*
X125349000Y-59058052D01*
X125349000Y-58886847D01*
X125270912Y-58892495D01*
G37*
X125270912Y-58892495D02*
X125222586Y-58898092D01*
X125191936Y-58907987D01*
X125171296Y-58924800D01*
X125169312Y-58927178D01*
X125152174Y-58953493D01*
X125145800Y-58972450D01*
X125153258Y-58993493D01*
X125169312Y-59017721D01*
X125189320Y-59035451D01*
X125218496Y-59045978D01*
X125264507Y-59051919D01*
X125270912Y-59052404D01*
X125349000Y-59058052D01*
X125349000Y-58886847D01*
X125270912Y-58892495D01*
G36*
X125258996Y-59185026D02*
G01*
X125198248Y-59192499D01*
X125158799Y-59206317D01*
X125136812Y-59229183D01*
X125128447Y-59263801D01*
X125128020Y-59277250D01*
X125132962Y-59316031D01*
X125150344Y-59342229D01*
X125184005Y-59358546D01*
X125237784Y-59367685D01*
X125258996Y-59369473D01*
X125349000Y-59375912D01*
X125349000Y-59178587D01*
X125258996Y-59185026D01*
G37*
X125258996Y-59185026D02*
X125198248Y-59192499D01*
X125158799Y-59206317D01*
X125136812Y-59229183D01*
X125128447Y-59263801D01*
X125128020Y-59277250D01*
X125132962Y-59316031D01*
X125150344Y-59342229D01*
X125184005Y-59358546D01*
X125237784Y-59367685D01*
X125258996Y-59369473D01*
X125349000Y-59375912D01*
X125349000Y-59178587D01*
X125258996Y-59185026D01*
G36*
X131802867Y-58909227D02*
G01*
X131754743Y-58929211D01*
X131727629Y-58962701D01*
X131725982Y-58967021D01*
X131718495Y-59017378D01*
X131733475Y-59057620D01*
X131769582Y-59086475D01*
X131825470Y-59102667D01*
X131872346Y-59105800D01*
X131927600Y-59105800D01*
X131927600Y-58902600D01*
X131872346Y-58902600D01*
X131802867Y-58909227D01*
G37*
X131802867Y-58909227D02*
X131754743Y-58929211D01*
X131727629Y-58962701D01*
X131725982Y-58967021D01*
X131718495Y-59017378D01*
X131733475Y-59057620D01*
X131769582Y-59086475D01*
X131825470Y-59102667D01*
X131872346Y-59105800D01*
X131927600Y-59105800D01*
X131927600Y-58902600D01*
X131872346Y-58902600D01*
X131802867Y-58909227D01*
G36*
X128391655Y-55372043D02*
G01*
X128288664Y-55372251D01*
X128206282Y-55372737D01*
X128142115Y-55373617D01*
X128093768Y-55375005D01*
X128058844Y-55377016D01*
X128034950Y-55379765D01*
X128019690Y-55383366D01*
X128010668Y-55387934D01*
X128005490Y-55393585D01*
X128003716Y-55396622D01*
X127998497Y-55414307D01*
X127989302Y-55454093D01*
X127976718Y-55513095D01*
X127961334Y-55588428D01*
X127943737Y-55677206D01*
X127924514Y-55776543D01*
X127904254Y-55883554D01*
X127900909Y-55901447D01*
X127880497Y-56009042D01*
X127860886Y-56109077D01*
X127842678Y-56198727D01*
X127826474Y-56275170D01*
X127812875Y-56335582D01*
X127802482Y-56377138D01*
X127795897Y-56397016D01*
X127795181Y-56398054D01*
X127778338Y-56408109D01*
X127741569Y-56425777D01*
X127688645Y-56449514D01*
X127623331Y-56477776D01*
X127549396Y-56509019D01*
X127470607Y-56541700D01*
X127390733Y-56574273D01*
X127313540Y-56605196D01*
X127242796Y-56632924D01*
X127182269Y-56655913D01*
X127135727Y-56672619D01*
X127106937Y-56681498D01*
X127101038Y-56682522D01*
X127083003Y-56677031D01*
X127049096Y-56659379D01*
X126998484Y-56629038D01*
X126930336Y-56585485D01*
X126843820Y-56528192D01*
X126738103Y-56456636D01*
X126676698Y-56414600D01*
X126570313Y-56341547D01*
X126482876Y-56281603D01*
X126412384Y-56233519D01*
X126356833Y-56196045D01*
X126314219Y-56167933D01*
X126282539Y-56147934D01*
X126259789Y-56134799D01*
X126243964Y-56127279D01*
X126233061Y-56124125D01*
X126225076Y-56124087D01*
X126218005Y-56125918D01*
X126215059Y-56126869D01*
X126198828Y-56138110D01*
X126167899Y-56165079D01*
X126124661Y-56205345D01*
X126071499Y-56256480D01*
X126010802Y-56316052D01*
X125944957Y-56381632D01*
X125876350Y-56450789D01*
X125807370Y-56521094D01*
X125740403Y-56590116D01*
X125677838Y-56655425D01*
X125622060Y-56714591D01*
X125575459Y-56765184D01*
X125540420Y-56804774D01*
X125519331Y-56830931D01*
X125514100Y-56840398D01*
X125521088Y-56856400D01*
X125540997Y-56890797D01*
X125572245Y-56941130D01*
X125613250Y-57004941D01*
X125662429Y-57079773D01*
X125718201Y-57163168D01*
X125778983Y-57252667D01*
X125787150Y-57264594D01*
X125869127Y-57385078D01*
X125936710Y-57486346D01*
X125989754Y-57568163D01*
X126028109Y-57630298D01*
X126051630Y-57672519D01*
X126060168Y-57694592D01*
X126060200Y-57695334D01*
X126055190Y-57717823D01*
X126041210Y-57759146D01*
X126019838Y-57815663D01*
X125992652Y-57883729D01*
X125961229Y-57959703D01*
X125927146Y-58039943D01*
X125891982Y-58120806D01*
X125857313Y-58198649D01*
X125824718Y-58269830D01*
X125795774Y-58330706D01*
X125772058Y-58377636D01*
X125755148Y-58406977D01*
X125748564Y-58414883D01*
X125730399Y-58421111D01*
X125690236Y-58431172D01*
X125631082Y-58444432D01*
X125555944Y-58460257D01*
X125467827Y-58478013D01*
X125369739Y-58497065D01*
X125272314Y-58515369D01*
X125167540Y-58534924D01*
X125069818Y-58553511D01*
X124982175Y-58570528D01*
X124907638Y-58585372D01*
X124849236Y-58597441D01*
X124809994Y-58606134D01*
X124793375Y-58610648D01*
X124764800Y-58622655D01*
X124764800Y-59129568D01*
X124764864Y-59256754D01*
X124765121Y-59360886D01*
X124765673Y-59444312D01*
X124766622Y-59509378D01*
X124768067Y-59558431D01*
X124770110Y-59593818D01*
X124772852Y-59617885D01*
X124776394Y-59632979D01*
X124780837Y-59641446D01*
X124786282Y-59645634D01*
X124787025Y-59645968D01*
X124804270Y-59650427D01*
X124843541Y-59658932D01*
X124901891Y-59670896D01*
X124976372Y-59685731D01*
X125064038Y-59702850D01*
X125161941Y-59721667D01*
X125265706Y-59741326D01*
X125392845Y-59765502D01*
X125496813Y-59785882D01*
X125579485Y-59802895D01*
X125642736Y-59816966D01*
X125688441Y-59828523D01*
X125718476Y-59837993D01*
X125734716Y-59845803D01*
X125738004Y-59848863D01*
X125746594Y-59865806D01*
X125763219Y-59903240D01*
X125786569Y-59958042D01*
X125815334Y-60027084D01*
X125848202Y-60107242D01*
X125883863Y-60195390D01*
X125895733Y-60224980D01*
X125942440Y-60343092D01*
X125979053Y-60438928D01*
X126005885Y-60513382D01*
X126023249Y-60567349D01*
X126031459Y-60601723D01*
X126032010Y-60614140D01*
X126023663Y-60632438D01*
X126002446Y-60668918D01*
X125970050Y-60720951D01*
X125928167Y-60785909D01*
X125878489Y-60861162D01*
X125822708Y-60944083D01*
X125770250Y-61020822D01*
X125710866Y-61107659D01*
X125656352Y-61188534D01*
X125608345Y-61260927D01*
X125568485Y-61322316D01*
X125538411Y-61370181D01*
X125519762Y-61402000D01*
X125514101Y-61414825D01*
X125522830Y-61428396D01*
X125547727Y-61457724D01*
X125586850Y-61500753D01*
X125638259Y-61555426D01*
X125700016Y-61619687D01*
X125770179Y-61691479D01*
X125846808Y-61768747D01*
X125867497Y-61789424D01*
X125959439Y-61880879D01*
X126035244Y-61955594D01*
X126096504Y-62015017D01*
X126144811Y-62060596D01*
X126181758Y-62093779D01*
X126208937Y-62116015D01*
X126227941Y-62128751D01*
X126240362Y-62133435D01*
X126245322Y-62132981D01*
X126261239Y-62123873D01*
X126295481Y-62102044D01*
X126345472Y-62069209D01*
X126408637Y-62027083D01*
X126482404Y-61977381D01*
X126564196Y-61921819D01*
X126636768Y-61872184D01*
X126723193Y-61813364D01*
X126803774Y-61759420D01*
X126875945Y-61712001D01*
X126937139Y-61672758D01*
X126984788Y-61643340D01*
X127016325Y-61625397D01*
X127028508Y-61620400D01*
X127048057Y-61626186D01*
X127085202Y-61642108D01*
X127135309Y-61666007D01*
X127193747Y-61695724D01*
X127220291Y-61709757D01*
X127280699Y-61741027D01*
X127334650Y-61767017D01*
X127377567Y-61785667D01*
X127404875Y-61794918D01*
X127410747Y-61795482D01*
X127417634Y-61789646D01*
X127428451Y-61772851D01*
X127443776Y-61743787D01*
X127464186Y-61701145D01*
X127490258Y-61643615D01*
X127522570Y-61569886D01*
X127561698Y-61478649D01*
X127587673Y-61417200D01*
X126612650Y-61417200D01*
X126611852Y-61481306D01*
X126608776Y-61526788D01*
X126602406Y-61560391D01*
X126591723Y-61588860D01*
X126584606Y-61602978D01*
X126542422Y-61662031D01*
X126484504Y-61716953D01*
X126419854Y-61760035D01*
X126381368Y-61777065D01*
X126329572Y-61788466D01*
X126262984Y-61794130D01*
X126190165Y-61794249D01*
X126119677Y-61789010D01*
X126060081Y-61778605D01*
X126031625Y-61769327D01*
X125984000Y-61748696D01*
X125984000Y-61581872D01*
X126050675Y-61615969D01*
X126114450Y-61640049D01*
X126181667Y-61651173D01*
X126244940Y-61649091D01*
X126296885Y-61633552D01*
X126311157Y-61624788D01*
X126363259Y-61572055D01*
X126398007Y-61506918D01*
X126407866Y-61468695D01*
X126410139Y-61384965D01*
X126390158Y-61309076D01*
X126349217Y-61244494D01*
X126311157Y-61209611D01*
X126264988Y-61189253D01*
X126204877Y-61182440D01*
X126138210Y-61188921D01*
X126072374Y-61208448D01*
X126050675Y-61218430D01*
X125984000Y-61252527D01*
X125984000Y-61085703D01*
X126031625Y-61065214D01*
X126085963Y-61049624D01*
X126155798Y-61040494D01*
X126231996Y-61038082D01*
X126305424Y-61042650D01*
X126366946Y-61054456D01*
X126370616Y-61055575D01*
X126444323Y-61089776D01*
X126512832Y-61141549D01*
X126567784Y-61204024D01*
X126584606Y-61231421D01*
X126597774Y-61259837D01*
X126606130Y-61290082D01*
X126610692Y-61328901D01*
X126612480Y-61383040D01*
X126612650Y-61417200D01*
X127587673Y-61417200D01*
X127608220Y-61368593D01*
X127662712Y-61238409D01*
X127725752Y-61086786D01*
X127769522Y-60981102D01*
X127825772Y-60844776D01*
X127879063Y-60714945D01*
X127928606Y-60593573D01*
X127973613Y-60482627D01*
X128013295Y-60384068D01*
X128046863Y-60299863D01*
X128073529Y-60231976D01*
X128092503Y-60182371D01*
X128102998Y-60153012D01*
X128104900Y-60145797D01*
X128093813Y-60122586D01*
X128063547Y-60095108D01*
X128050925Y-60086465D01*
X128014793Y-60062221D01*
X127967248Y-60029028D01*
X127917224Y-59993147D01*
X127905629Y-59984674D01*
X127782233Y-59879037D01*
X127678523Y-59758937D01*
X127595173Y-59626758D01*
X127539280Y-59499500D01*
X125539500Y-59499500D01*
X125319744Y-59499500D01*
X125239397Y-59499319D01*
X125179800Y-59498424D01*
X125136304Y-59496289D01*
X125104259Y-59492385D01*
X125079015Y-59486184D01*
X125055924Y-59477159D01*
X125035183Y-59467206D01*
X124980772Y-59430984D01*
X124947140Y-59384809D01*
X124931679Y-59324243D01*
X124929948Y-59288030D01*
X124938479Y-59227304D01*
X124961660Y-59175028D01*
X124996016Y-59138049D01*
X125010148Y-59129938D01*
X125039655Y-59116494D01*
X124997478Y-59074317D01*
X124972023Y-59045573D01*
X124959499Y-59018470D01*
X124955528Y-58981561D01*
X124955348Y-58964195D01*
X124965410Y-58891476D01*
X124995382Y-58834330D01*
X125045113Y-58793044D01*
X125046814Y-58792104D01*
X125066381Y-58783506D01*
X125091816Y-58777070D01*
X125127182Y-58772383D01*
X125176547Y-58769034D01*
X125243975Y-58766613D01*
X125314075Y-58765059D01*
X125539500Y-58760843D01*
X125539500Y-59499500D01*
X127539280Y-59499500D01*
X127532859Y-59484883D01*
X127492255Y-59335693D01*
X127474037Y-59181573D01*
X127478879Y-59024903D01*
X127507456Y-58868068D01*
X127551584Y-58734740D01*
X127591333Y-58647644D01*
X127638039Y-58569177D01*
X127696381Y-58492587D01*
X127771038Y-58411126D01*
X127787400Y-58394594D01*
X127899946Y-58294532D01*
X128017169Y-58216402D01*
X128144843Y-58156757D01*
X128238250Y-58125668D01*
X128329047Y-58106764D01*
X128435040Y-58096315D01*
X128547476Y-58094320D01*
X128657600Y-58100780D01*
X128756658Y-58115695D01*
X128797050Y-58125668D01*
X128946669Y-58181447D01*
X129084837Y-58258192D01*
X129209495Y-58353701D01*
X129318583Y-58465774D01*
X129410038Y-58592208D01*
X129481802Y-58730802D01*
X129531813Y-58879354D01*
X129541308Y-58920833D01*
X129561680Y-59080414D01*
X129557640Y-59238713D01*
X129530150Y-59393246D01*
X129480171Y-59541532D01*
X129408662Y-59681087D01*
X129316585Y-59809429D01*
X129204900Y-59924075D01*
X129129672Y-59984674D01*
X129080401Y-60020261D01*
X129031424Y-60054689D01*
X128991676Y-60081700D01*
X128984375Y-60086465D01*
X128949059Y-60114263D01*
X128931524Y-60139332D01*
X128930400Y-60145797D01*
X128935152Y-60161402D01*
X128948879Y-60198489D01*
X128970795Y-60255096D01*
X129000109Y-60329257D01*
X129036034Y-60419008D01*
X129077781Y-60522384D01*
X129124560Y-60637422D01*
X129175584Y-60762156D01*
X129230062Y-60894622D01*
X129265779Y-60981102D01*
X129334426Y-61146718D01*
X129394166Y-61290081D01*
X129445577Y-61412500D01*
X129489235Y-61515287D01*
X129525718Y-61599750D01*
X129555603Y-61667201D01*
X129579467Y-61718948D01*
X129597886Y-61756302D01*
X129611439Y-61780573D01*
X129620702Y-61793070D01*
X129624554Y-61795482D01*
X129643585Y-61790996D01*
X129680229Y-61776209D01*
X129729911Y-61753180D01*
X129788055Y-61723969D01*
X129815010Y-61709757D01*
X129875607Y-61678202D01*
X129929865Y-61651536D01*
X129973152Y-61631919D01*
X130000838Y-61621508D01*
X130006793Y-61620400D01*
X130022748Y-61627383D01*
X130056979Y-61647232D01*
X130106919Y-61678299D01*
X130170002Y-61718932D01*
X130243660Y-61767482D01*
X130325327Y-61822299D01*
X130398533Y-61872184D01*
X130485054Y-61931325D01*
X130565699Y-61986037D01*
X130637892Y-62034606D01*
X130699061Y-62075316D01*
X130746629Y-62106453D01*
X130778022Y-62126300D01*
X130789979Y-62132981D01*
X130799212Y-62132437D01*
X130814071Y-62124711D01*
X130836148Y-62108355D01*
X130867037Y-62081921D01*
X130908330Y-62043961D01*
X130961618Y-61993027D01*
X131028496Y-61927671D01*
X131110554Y-61846445D01*
X131167804Y-61789424D01*
X131245794Y-61711073D01*
X131317820Y-61637663D01*
X131381943Y-61571252D01*
X131436222Y-61513895D01*
X131478717Y-61467649D01*
X131507489Y-61434571D01*
X131520597Y-61416716D01*
X131521200Y-61414825D01*
X131514206Y-61399560D01*
X131494315Y-61365987D01*
X131463167Y-61316625D01*
X131429706Y-61265220D01*
X131102100Y-61265220D01*
X131095123Y-61327480D01*
X131072696Y-61377941D01*
X131032576Y-61418623D01*
X130972519Y-61451545D01*
X130890282Y-61478725D01*
X130855237Y-61487396D01*
X130795189Y-61502438D01*
X130755511Y-61515918D01*
X130731475Y-61530163D01*
X130718350Y-61547499D01*
X130714907Y-61556406D01*
X130715108Y-61592995D01*
X130737765Y-61624360D01*
X130777490Y-61645549D01*
X130828587Y-61652538D01*
X130893639Y-61646740D01*
X130965350Y-61629274D01*
X131021798Y-61608014D01*
X131056038Y-61593250D01*
X131079268Y-61583950D01*
X131084665Y-61582300D01*
X131088403Y-61593612D01*
X131089875Y-61622257D01*
X131089389Y-61660301D01*
X131087254Y-61699808D01*
X131083775Y-61732841D01*
X131079262Y-61751466D01*
X131078052Y-61752915D01*
X131032043Y-61771764D01*
X130968168Y-61785240D01*
X130893427Y-61793152D01*
X130814820Y-61795305D01*
X130739347Y-61791510D01*
X130674008Y-61781572D01*
X130625850Y-61765327D01*
X130571139Y-61723320D01*
X130535363Y-61664828D01*
X130519099Y-61590915D01*
X130518109Y-61565794D01*
X130523065Y-61501181D01*
X130540244Y-61450213D01*
X130572495Y-61410052D01*
X130622668Y-61377857D01*
X130693613Y-61350792D01*
X130749490Y-61335288D01*
X130803054Y-61321453D01*
X130848835Y-61309009D01*
X130880121Y-61299809D01*
X130888394Y-61296939D01*
X130914031Y-61277000D01*
X130919522Y-61250569D01*
X130907266Y-61222848D01*
X130879665Y-61199041D01*
X130839118Y-61184349D01*
X130836209Y-61183852D01*
X130796305Y-61182642D01*
X130741600Y-61187448D01*
X130681582Y-61196847D01*
X130625737Y-61209420D01*
X130590925Y-61220613D01*
X130578962Y-61222691D01*
X130572247Y-61213726D01*
X130569317Y-61188838D01*
X130568700Y-61146656D01*
X130568700Y-61063894D01*
X130659613Y-61048560D01*
X130719565Y-61041609D01*
X130789693Y-61038072D01*
X130854917Y-61038705D01*
X130855497Y-61038735D01*
X130913834Y-61043266D01*
X130955158Y-61050933D01*
X130987833Y-61063815D01*
X131010249Y-61077189D01*
X131061231Y-61124532D01*
X131091668Y-61185982D01*
X131102091Y-61262628D01*
X131102100Y-61265220D01*
X131429706Y-61265220D01*
X131422400Y-61253997D01*
X131373654Y-61180623D01*
X131318567Y-61099023D01*
X131265051Y-61020822D01*
X131205319Y-60933351D01*
X131150211Y-60851248D01*
X131101417Y-60777142D01*
X131060632Y-60713661D01*
X131029545Y-60663435D01*
X131009850Y-60629092D01*
X131003291Y-60614140D01*
X131005610Y-60592252D01*
X131016876Y-60551363D01*
X131037402Y-60490579D01*
X131067501Y-60409005D01*
X131107487Y-60305748D01*
X131139568Y-60224980D01*
X131175850Y-60134924D01*
X131209761Y-60051850D01*
X131239991Y-59978885D01*
X131265229Y-59919153D01*
X131284165Y-59875781D01*
X131295486Y-59851894D01*
X131297297Y-59848863D01*
X131307987Y-59841657D01*
X131331636Y-59832980D01*
X131370119Y-59822407D01*
X131425310Y-59809510D01*
X131499086Y-59793863D01*
X131593321Y-59775038D01*
X131709891Y-59752608D01*
X131769595Y-59741326D01*
X131874710Y-59721410D01*
X131972497Y-59702611D01*
X132060007Y-59685518D01*
X132134295Y-59670717D01*
X132192411Y-59658795D01*
X132231410Y-59650340D01*
X132248275Y-59645968D01*
X132253851Y-59642144D01*
X132258411Y-59634329D01*
X132262059Y-59620176D01*
X132264894Y-59597338D01*
X132267017Y-59563469D01*
X132268531Y-59516221D01*
X132268797Y-59499500D01*
X132118100Y-59499500D01*
X131927600Y-59499500D01*
X131927600Y-59245500D01*
X131822825Y-59245429D01*
X131739842Y-59242336D01*
X131676040Y-59232250D01*
X131625824Y-59213764D01*
X131583598Y-59185473D01*
X131583368Y-59185279D01*
X131539079Y-59133772D01*
X131514608Y-59069215D01*
X131508500Y-59004199D01*
X131517530Y-58926749D01*
X131545405Y-58864696D01*
X131583368Y-58823120D01*
X131612258Y-58802020D01*
X131644510Y-58786356D01*
X131684297Y-58775375D01*
X131735794Y-58768328D01*
X131803177Y-58764466D01*
X131890620Y-58763036D01*
X131918075Y-58762970D01*
X132118100Y-58762900D01*
X132118100Y-59499500D01*
X132268797Y-59499500D01*
X132269534Y-59453249D01*
X132270130Y-59372205D01*
X132270418Y-59270744D01*
X132270500Y-59146517D01*
X132270500Y-58622655D01*
X132241925Y-58610648D01*
X132223127Y-58605620D01*
X132182364Y-58596657D01*
X132122664Y-58584361D01*
X132047054Y-58569336D01*
X131958562Y-58552182D01*
X131860214Y-58533503D01*
X131762987Y-58515369D01*
X131658328Y-58495682D01*
X131560849Y-58476701D01*
X131473555Y-58459062D01*
X131399453Y-58443398D01*
X131341549Y-58430344D01*
X131302850Y-58420534D01*
X131286737Y-58414883D01*
X131275084Y-58398897D01*
X131255602Y-58362960D01*
X131229869Y-58310713D01*
X131199462Y-58245800D01*
X131165958Y-58171862D01*
X131130936Y-58092543D01*
X131095972Y-58011484D01*
X131062644Y-57932328D01*
X131032531Y-57858718D01*
X131007208Y-57794296D01*
X130988254Y-57742704D01*
X130977247Y-57707585D01*
X130975100Y-57695334D01*
X130982646Y-57674597D01*
X131005183Y-57633697D01*
X131042565Y-57572868D01*
X131094645Y-57492341D01*
X131161274Y-57392349D01*
X131242306Y-57273124D01*
X131248150Y-57264594D01*
X131309466Y-57174483D01*
X131365977Y-57090158D01*
X131416101Y-57014077D01*
X131458255Y-56948698D01*
X131490857Y-56896478D01*
X131512326Y-56859876D01*
X131521079Y-56841349D01*
X131521200Y-56840398D01*
X131512509Y-56826269D01*
X131488024Y-56796831D01*
X131450135Y-56754515D01*
X131401228Y-56701750D01*
X131343690Y-56640967D01*
X131279910Y-56574596D01*
X131221936Y-56515000D01*
X131025900Y-56515000D01*
X131025900Y-57251600D01*
X130835400Y-57251600D01*
X130835400Y-57203313D01*
X126504700Y-57203313D01*
X126285625Y-57198344D01*
X126203906Y-57196197D01*
X126142961Y-57193628D01*
X126098167Y-57190074D01*
X126064900Y-57184971D01*
X126038536Y-57177754D01*
X126014449Y-57167861D01*
X126007210Y-57164401D01*
X125932654Y-57116907D01*
X125871411Y-57055803D01*
X125836921Y-57002247D01*
X125821657Y-56954010D01*
X125813020Y-56889966D01*
X125811003Y-56818828D01*
X125815601Y-56749307D01*
X125826808Y-56690115D01*
X125837147Y-56662276D01*
X125883811Y-56593263D01*
X125947539Y-56534121D01*
X126008265Y-56497855D01*
X126033279Y-56487800D01*
X126060848Y-56480365D01*
X126095572Y-56475027D01*
X126142048Y-56471267D01*
X126204874Y-56468564D01*
X126285625Y-56466464D01*
X126504700Y-56461686D01*
X126504700Y-57203313D01*
X130835400Y-57203313D01*
X130835400Y-56946800D01*
X130530600Y-56946800D01*
X130530600Y-56807100D01*
X130835400Y-56807100D01*
X130835400Y-56654700D01*
X130505200Y-56654700D01*
X130505200Y-56515000D01*
X131025900Y-56515000D01*
X131221936Y-56515000D01*
X131212273Y-56505067D01*
X131143168Y-56434810D01*
X131074981Y-56366256D01*
X131010101Y-56301834D01*
X130950914Y-56243974D01*
X130899808Y-56195107D01*
X130859169Y-56157662D01*
X130831386Y-56134070D01*
X130820242Y-56126869D01*
X130812801Y-56124672D01*
X130805084Y-56123973D01*
X130795085Y-56126020D01*
X130780801Y-56132063D01*
X130760228Y-56143349D01*
X130731360Y-56161128D01*
X130692195Y-56186649D01*
X130640728Y-56221159D01*
X130574954Y-56265908D01*
X130492869Y-56322145D01*
X130392469Y-56391118D01*
X130357213Y-56415349D01*
X130241516Y-56494350D01*
X130145447Y-56558797D01*
X130068188Y-56609206D01*
X130008921Y-56646095D01*
X129966829Y-56669980D01*
X129941095Y-56681377D01*
X129934273Y-56682562D01*
X129914027Y-56677445D01*
X129874431Y-56663848D01*
X129819260Y-56643314D01*
X129752287Y-56617391D01*
X129677287Y-56587624D01*
X129598032Y-56555557D01*
X129518296Y-56522737D01*
X129441853Y-56490710D01*
X129372478Y-56461019D01*
X129313943Y-56435212D01*
X129270022Y-56414833D01*
X129244489Y-56401428D01*
X129240232Y-56398327D01*
X129234281Y-56382462D01*
X129224435Y-56344425D01*
X129211298Y-56287044D01*
X129195471Y-56213145D01*
X129177558Y-56125554D01*
X129158162Y-56027100D01*
X129137884Y-55920609D01*
X129134346Y-55901660D01*
X129114025Y-55793684D01*
X129094637Y-55692905D01*
X129076769Y-55602213D01*
X129061009Y-55524495D01*
X129060989Y-55524400D01*
X128892300Y-55524400D01*
X128892300Y-56172100D01*
X128740487Y-56172100D01*
X128737019Y-55947300D01*
X128733550Y-55722501D01*
X128663162Y-55880625D01*
X128592774Y-56038750D01*
X128467927Y-56038750D01*
X128397539Y-55880625D01*
X128327150Y-55722501D01*
X128323682Y-55947300D01*
X128320214Y-56172100D01*
X128168400Y-56172100D01*
X128168400Y-55524400D01*
X128274480Y-55524399D01*
X128380559Y-55524399D01*
X128447638Y-55673624D01*
X128473643Y-55731269D01*
X128496376Y-55781273D01*
X128513558Y-55818651D01*
X128522909Y-55838416D01*
X128523388Y-55839349D01*
X128531542Y-55834945D01*
X128547753Y-55809537D01*
X128570606Y-55765689D01*
X128598683Y-55705967D01*
X128605790Y-55690124D01*
X128679520Y-55524400D01*
X128892300Y-55524400D01*
X129060989Y-55524400D01*
X129047943Y-55462639D01*
X129038160Y-55419534D01*
X129032246Y-55398068D01*
X129031698Y-55396835D01*
X129027509Y-55390588D01*
X129020685Y-55385487D01*
X129008829Y-55381415D01*
X128989545Y-55378256D01*
X128960437Y-55375895D01*
X128919108Y-55374217D01*
X128863163Y-55373104D01*
X128790204Y-55372443D01*
X128697837Y-55372116D01*
X128583664Y-55372008D01*
X128517651Y-55372000D01*
X128391655Y-55372043D01*
G37*
X128391655Y-55372043D02*
X128288664Y-55372251D01*
X128206282Y-55372737D01*
X128142115Y-55373617D01*
X128093768Y-55375005D01*
X128058844Y-55377016D01*
X128034950Y-55379765D01*
X128019690Y-55383366D01*
X128010668Y-55387934D01*
X128005490Y-55393585D01*
X128003716Y-55396622D01*
X127998497Y-55414307D01*
X127989302Y-55454093D01*
X127976718Y-55513095D01*
X127961334Y-55588428D01*
X127943737Y-55677206D01*
X127924514Y-55776543D01*
X127904254Y-55883554D01*
X127900909Y-55901447D01*
X127880497Y-56009042D01*
X127860886Y-56109077D01*
X127842678Y-56198727D01*
X127826474Y-56275170D01*
X127812875Y-56335582D01*
X127802482Y-56377138D01*
X127795897Y-56397016D01*
X127795181Y-56398054D01*
X127778338Y-56408109D01*
X127741569Y-56425777D01*
X127688645Y-56449514D01*
X127623331Y-56477776D01*
X127549396Y-56509019D01*
X127470607Y-56541700D01*
X127390733Y-56574273D01*
X127313540Y-56605196D01*
X127242796Y-56632924D01*
X127182269Y-56655913D01*
X127135727Y-56672619D01*
X127106937Y-56681498D01*
X127101038Y-56682522D01*
X127083003Y-56677031D01*
X127049096Y-56659379D01*
X126998484Y-56629038D01*
X126930336Y-56585485D01*
X126843820Y-56528192D01*
X126738103Y-56456636D01*
X126676698Y-56414600D01*
X126570313Y-56341547D01*
X126482876Y-56281603D01*
X126412384Y-56233519D01*
X126356833Y-56196045D01*
X126314219Y-56167933D01*
X126282539Y-56147934D01*
X126259789Y-56134799D01*
X126243964Y-56127279D01*
X126233061Y-56124125D01*
X126225076Y-56124087D01*
X126218005Y-56125918D01*
X126215059Y-56126869D01*
X126198828Y-56138110D01*
X126167899Y-56165079D01*
X126124661Y-56205345D01*
X126071499Y-56256480D01*
X126010802Y-56316052D01*
X125944957Y-56381632D01*
X125876350Y-56450789D01*
X125807370Y-56521094D01*
X125740403Y-56590116D01*
X125677838Y-56655425D01*
X125622060Y-56714591D01*
X125575459Y-56765184D01*
X125540420Y-56804774D01*
X125519331Y-56830931D01*
X125514100Y-56840398D01*
X125521088Y-56856400D01*
X125540997Y-56890797D01*
X125572245Y-56941130D01*
X125613250Y-57004941D01*
X125662429Y-57079773D01*
X125718201Y-57163168D01*
X125778983Y-57252667D01*
X125787150Y-57264594D01*
X125869127Y-57385078D01*
X125936710Y-57486346D01*
X125989754Y-57568163D01*
X126028109Y-57630298D01*
X126051630Y-57672519D01*
X126060168Y-57694592D01*
X126060200Y-57695334D01*
X126055190Y-57717823D01*
X126041210Y-57759146D01*
X126019838Y-57815663D01*
X125992652Y-57883729D01*
X125961229Y-57959703D01*
X125927146Y-58039943D01*
X125891982Y-58120806D01*
X125857313Y-58198649D01*
X125824718Y-58269830D01*
X125795774Y-58330706D01*
X125772058Y-58377636D01*
X125755148Y-58406977D01*
X125748564Y-58414883D01*
X125730399Y-58421111D01*
X125690236Y-58431172D01*
X125631082Y-58444432D01*
X125555944Y-58460257D01*
X125467827Y-58478013D01*
X125369739Y-58497065D01*
X125272314Y-58515369D01*
X125167540Y-58534924D01*
X125069818Y-58553511D01*
X124982175Y-58570528D01*
X124907638Y-58585372D01*
X124849236Y-58597441D01*
X124809994Y-58606134D01*
X124793375Y-58610648D01*
X124764800Y-58622655D01*
X124764800Y-59129568D01*
X124764864Y-59256754D01*
X124765121Y-59360886D01*
X124765673Y-59444312D01*
X124766622Y-59509378D01*
X124768067Y-59558431D01*
X124770110Y-59593818D01*
X124772852Y-59617885D01*
X124776394Y-59632979D01*
X124780837Y-59641446D01*
X124786282Y-59645634D01*
X124787025Y-59645968D01*
X124804270Y-59650427D01*
X124843541Y-59658932D01*
X124901891Y-59670896D01*
X124976372Y-59685731D01*
X125064038Y-59702850D01*
X125161941Y-59721667D01*
X125265706Y-59741326D01*
X125392845Y-59765502D01*
X125496813Y-59785882D01*
X125579485Y-59802895D01*
X125642736Y-59816966D01*
X125688441Y-59828523D01*
X125718476Y-59837993D01*
X125734716Y-59845803D01*
X125738004Y-59848863D01*
X125746594Y-59865806D01*
X125763219Y-59903240D01*
X125786569Y-59958042D01*
X125815334Y-60027084D01*
X125848202Y-60107242D01*
X125883863Y-60195390D01*
X125895733Y-60224980D01*
X125942440Y-60343092D01*
X125979053Y-60438928D01*
X126005885Y-60513382D01*
X126023249Y-60567349D01*
X126031459Y-60601723D01*
X126032010Y-60614140D01*
X126023663Y-60632438D01*
X126002446Y-60668918D01*
X125970050Y-60720951D01*
X125928167Y-60785909D01*
X125878489Y-60861162D01*
X125822708Y-60944083D01*
X125770250Y-61020822D01*
X125710866Y-61107659D01*
X125656352Y-61188534D01*
X125608345Y-61260927D01*
X125568485Y-61322316D01*
X125538411Y-61370181D01*
X125519762Y-61402000D01*
X125514101Y-61414825D01*
X125522830Y-61428396D01*
X125547727Y-61457724D01*
X125586850Y-61500753D01*
X125638259Y-61555426D01*
X125700016Y-61619687D01*
X125770179Y-61691479D01*
X125846808Y-61768747D01*
X125867497Y-61789424D01*
X125959439Y-61880879D01*
X126035244Y-61955594D01*
X126096504Y-62015017D01*
X126144811Y-62060596D01*
X126181758Y-62093779D01*
X126208937Y-62116015D01*
X126227941Y-62128751D01*
X126240362Y-62133435D01*
X126245322Y-62132981D01*
X126261239Y-62123873D01*
X126295481Y-62102044D01*
X126345472Y-62069209D01*
X126408637Y-62027083D01*
X126482404Y-61977381D01*
X126564196Y-61921819D01*
X126636768Y-61872184D01*
X126723193Y-61813364D01*
X126803774Y-61759420D01*
X126875945Y-61712001D01*
X126937139Y-61672758D01*
X126984788Y-61643340D01*
X127016325Y-61625397D01*
X127028508Y-61620400D01*
X127048057Y-61626186D01*
X127085202Y-61642108D01*
X127135309Y-61666007D01*
X127193747Y-61695724D01*
X127220291Y-61709757D01*
X127280699Y-61741027D01*
X127334650Y-61767017D01*
X127377567Y-61785667D01*
X127404875Y-61794918D01*
X127410747Y-61795482D01*
X127417634Y-61789646D01*
X127428451Y-61772851D01*
X127443776Y-61743787D01*
X127464186Y-61701145D01*
X127490258Y-61643615D01*
X127522570Y-61569886D01*
X127561698Y-61478649D01*
X127587673Y-61417200D01*
X126612650Y-61417200D01*
X126611852Y-61481306D01*
X126608776Y-61526788D01*
X126602406Y-61560391D01*
X126591723Y-61588860D01*
X126584606Y-61602978D01*
X126542422Y-61662031D01*
X126484504Y-61716953D01*
X126419854Y-61760035D01*
X126381368Y-61777065D01*
X126329572Y-61788466D01*
X126262984Y-61794130D01*
X126190165Y-61794249D01*
X126119677Y-61789010D01*
X126060081Y-61778605D01*
X126031625Y-61769327D01*
X125984000Y-61748696D01*
X125984000Y-61581872D01*
X126050675Y-61615969D01*
X126114450Y-61640049D01*
X126181667Y-61651173D01*
X126244940Y-61649091D01*
X126296885Y-61633552D01*
X126311157Y-61624788D01*
X126363259Y-61572055D01*
X126398007Y-61506918D01*
X126407866Y-61468695D01*
X126410139Y-61384965D01*
X126390158Y-61309076D01*
X126349217Y-61244494D01*
X126311157Y-61209611D01*
X126264988Y-61189253D01*
X126204877Y-61182440D01*
X126138210Y-61188921D01*
X126072374Y-61208448D01*
X126050675Y-61218430D01*
X125984000Y-61252527D01*
X125984000Y-61085703D01*
X126031625Y-61065214D01*
X126085963Y-61049624D01*
X126155798Y-61040494D01*
X126231996Y-61038082D01*
X126305424Y-61042650D01*
X126366946Y-61054456D01*
X126370616Y-61055575D01*
X126444323Y-61089776D01*
X126512832Y-61141549D01*
X126567784Y-61204024D01*
X126584606Y-61231421D01*
X126597774Y-61259837D01*
X126606130Y-61290082D01*
X126610692Y-61328901D01*
X126612480Y-61383040D01*
X126612650Y-61417200D01*
X127587673Y-61417200D01*
X127608220Y-61368593D01*
X127662712Y-61238409D01*
X127725752Y-61086786D01*
X127769522Y-60981102D01*
X127825772Y-60844776D01*
X127879063Y-60714945D01*
X127928606Y-60593573D01*
X127973613Y-60482627D01*
X128013295Y-60384068D01*
X128046863Y-60299863D01*
X128073529Y-60231976D01*
X128092503Y-60182371D01*
X128102998Y-60153012D01*
X128104900Y-60145797D01*
X128093813Y-60122586D01*
X128063547Y-60095108D01*
X128050925Y-60086465D01*
X128014793Y-60062221D01*
X127967248Y-60029028D01*
X127917224Y-59993147D01*
X127905629Y-59984674D01*
X127782233Y-59879037D01*
X127678523Y-59758937D01*
X127595173Y-59626758D01*
X127539280Y-59499500D01*
X125539500Y-59499500D01*
X125319744Y-59499500D01*
X125239397Y-59499319D01*
X125179800Y-59498424D01*
X125136304Y-59496289D01*
X125104259Y-59492385D01*
X125079015Y-59486184D01*
X125055924Y-59477159D01*
X125035183Y-59467206D01*
X124980772Y-59430984D01*
X124947140Y-59384809D01*
X124931679Y-59324243D01*
X124929948Y-59288030D01*
X124938479Y-59227304D01*
X124961660Y-59175028D01*
X124996016Y-59138049D01*
X125010148Y-59129938D01*
X125039655Y-59116494D01*
X124997478Y-59074317D01*
X124972023Y-59045573D01*
X124959499Y-59018470D01*
X124955528Y-58981561D01*
X124955348Y-58964195D01*
X124965410Y-58891476D01*
X124995382Y-58834330D01*
X125045113Y-58793044D01*
X125046814Y-58792104D01*
X125066381Y-58783506D01*
X125091816Y-58777070D01*
X125127182Y-58772383D01*
X125176547Y-58769034D01*
X125243975Y-58766613D01*
X125314075Y-58765059D01*
X125539500Y-58760843D01*
X125539500Y-59499500D01*
X127539280Y-59499500D01*
X127532859Y-59484883D01*
X127492255Y-59335693D01*
X127474037Y-59181573D01*
X127478879Y-59024903D01*
X127507456Y-58868068D01*
X127551584Y-58734740D01*
X127591333Y-58647644D01*
X127638039Y-58569177D01*
X127696381Y-58492587D01*
X127771038Y-58411126D01*
X127787400Y-58394594D01*
X127899946Y-58294532D01*
X128017169Y-58216402D01*
X128144843Y-58156757D01*
X128238250Y-58125668D01*
X128329047Y-58106764D01*
X128435040Y-58096315D01*
X128547476Y-58094320D01*
X128657600Y-58100780D01*
X128756658Y-58115695D01*
X128797050Y-58125668D01*
X128946669Y-58181447D01*
X129084837Y-58258192D01*
X129209495Y-58353701D01*
X129318583Y-58465774D01*
X129410038Y-58592208D01*
X129481802Y-58730802D01*
X129531813Y-58879354D01*
X129541308Y-58920833D01*
X129561680Y-59080414D01*
X129557640Y-59238713D01*
X129530150Y-59393246D01*
X129480171Y-59541532D01*
X129408662Y-59681087D01*
X129316585Y-59809429D01*
X129204900Y-59924075D01*
X129129672Y-59984674D01*
X129080401Y-60020261D01*
X129031424Y-60054689D01*
X128991676Y-60081700D01*
X128984375Y-60086465D01*
X128949059Y-60114263D01*
X128931524Y-60139332D01*
X128930400Y-60145797D01*
X128935152Y-60161402D01*
X128948879Y-60198489D01*
X128970795Y-60255096D01*
X129000109Y-60329257D01*
X129036034Y-60419008D01*
X129077781Y-60522384D01*
X129124560Y-60637422D01*
X129175584Y-60762156D01*
X129230062Y-60894622D01*
X129265779Y-60981102D01*
X129334426Y-61146718D01*
X129394166Y-61290081D01*
X129445577Y-61412500D01*
X129489235Y-61515287D01*
X129525718Y-61599750D01*
X129555603Y-61667201D01*
X129579467Y-61718948D01*
X129597886Y-61756302D01*
X129611439Y-61780573D01*
X129620702Y-61793070D01*
X129624554Y-61795482D01*
X129643585Y-61790996D01*
X129680229Y-61776209D01*
X129729911Y-61753180D01*
X129788055Y-61723969D01*
X129815010Y-61709757D01*
X129875607Y-61678202D01*
X129929865Y-61651536D01*
X129973152Y-61631919D01*
X130000838Y-61621508D01*
X130006793Y-61620400D01*
X130022748Y-61627383D01*
X130056979Y-61647232D01*
X130106919Y-61678299D01*
X130170002Y-61718932D01*
X130243660Y-61767482D01*
X130325327Y-61822299D01*
X130398533Y-61872184D01*
X130485054Y-61931325D01*
X130565699Y-61986037D01*
X130637892Y-62034606D01*
X130699061Y-62075316D01*
X130746629Y-62106453D01*
X130778022Y-62126300D01*
X130789979Y-62132981D01*
X130799212Y-62132437D01*
X130814071Y-62124711D01*
X130836148Y-62108355D01*
X130867037Y-62081921D01*
X130908330Y-62043961D01*
X130961618Y-61993027D01*
X131028496Y-61927671D01*
X131110554Y-61846445D01*
X131167804Y-61789424D01*
X131245794Y-61711073D01*
X131317820Y-61637663D01*
X131381943Y-61571252D01*
X131436222Y-61513895D01*
X131478717Y-61467649D01*
X131507489Y-61434571D01*
X131520597Y-61416716D01*
X131521200Y-61414825D01*
X131514206Y-61399560D01*
X131494315Y-61365987D01*
X131463167Y-61316625D01*
X131429706Y-61265220D01*
X131102100Y-61265220D01*
X131095123Y-61327480D01*
X131072696Y-61377941D01*
X131032576Y-61418623D01*
X130972519Y-61451545D01*
X130890282Y-61478725D01*
X130855237Y-61487396D01*
X130795189Y-61502438D01*
X130755511Y-61515918D01*
X130731475Y-61530163D01*
X130718350Y-61547499D01*
X130714907Y-61556406D01*
X130715108Y-61592995D01*
X130737765Y-61624360D01*
X130777490Y-61645549D01*
X130828587Y-61652538D01*
X130893639Y-61646740D01*
X130965350Y-61629274D01*
X131021798Y-61608014D01*
X131056038Y-61593250D01*
X131079268Y-61583950D01*
X131084665Y-61582300D01*
X131088403Y-61593612D01*
X131089875Y-61622257D01*
X131089389Y-61660301D01*
X131087254Y-61699808D01*
X131083775Y-61732841D01*
X131079262Y-61751466D01*
X131078052Y-61752915D01*
X131032043Y-61771764D01*
X130968168Y-61785240D01*
X130893427Y-61793152D01*
X130814820Y-61795305D01*
X130739347Y-61791510D01*
X130674008Y-61781572D01*
X130625850Y-61765327D01*
X130571139Y-61723320D01*
X130535363Y-61664828D01*
X130519099Y-61590915D01*
X130518109Y-61565794D01*
X130523065Y-61501181D01*
X130540244Y-61450213D01*
X130572495Y-61410052D01*
X130622668Y-61377857D01*
X130693613Y-61350792D01*
X130749490Y-61335288D01*
X130803054Y-61321453D01*
X130848835Y-61309009D01*
X130880121Y-61299809D01*
X130888394Y-61296939D01*
X130914031Y-61277000D01*
X130919522Y-61250569D01*
X130907266Y-61222848D01*
X130879665Y-61199041D01*
X130839118Y-61184349D01*
X130836209Y-61183852D01*
X130796305Y-61182642D01*
X130741600Y-61187448D01*
X130681582Y-61196847D01*
X130625737Y-61209420D01*
X130590925Y-61220613D01*
X130578962Y-61222691D01*
X130572247Y-61213726D01*
X130569317Y-61188838D01*
X130568700Y-61146656D01*
X130568700Y-61063894D01*
X130659613Y-61048560D01*
X130719565Y-61041609D01*
X130789693Y-61038072D01*
X130854917Y-61038705D01*
X130855497Y-61038735D01*
X130913834Y-61043266D01*
X130955158Y-61050933D01*
X130987833Y-61063815D01*
X131010249Y-61077189D01*
X131061231Y-61124532D01*
X131091668Y-61185982D01*
X131102091Y-61262628D01*
X131102100Y-61265220D01*
X131429706Y-61265220D01*
X131422400Y-61253997D01*
X131373654Y-61180623D01*
X131318567Y-61099023D01*
X131265051Y-61020822D01*
X131205319Y-60933351D01*
X131150211Y-60851248D01*
X131101417Y-60777142D01*
X131060632Y-60713661D01*
X131029545Y-60663435D01*
X131009850Y-60629092D01*
X131003291Y-60614140D01*
X131005610Y-60592252D01*
X131016876Y-60551363D01*
X131037402Y-60490579D01*
X131067501Y-60409005D01*
X131107487Y-60305748D01*
X131139568Y-60224980D01*
X131175850Y-60134924D01*
X131209761Y-60051850D01*
X131239991Y-59978885D01*
X131265229Y-59919153D01*
X131284165Y-59875781D01*
X131295486Y-59851894D01*
X131297297Y-59848863D01*
X131307987Y-59841657D01*
X131331636Y-59832980D01*
X131370119Y-59822407D01*
X131425310Y-59809510D01*
X131499086Y-59793863D01*
X131593321Y-59775038D01*
X131709891Y-59752608D01*
X131769595Y-59741326D01*
X131874710Y-59721410D01*
X131972497Y-59702611D01*
X132060007Y-59685518D01*
X132134295Y-59670717D01*
X132192411Y-59658795D01*
X132231410Y-59650340D01*
X132248275Y-59645968D01*
X132253851Y-59642144D01*
X132258411Y-59634329D01*
X132262059Y-59620176D01*
X132264894Y-59597338D01*
X132267017Y-59563469D01*
X132268531Y-59516221D01*
X132268797Y-59499500D01*
X132118100Y-59499500D01*
X131927600Y-59499500D01*
X131927600Y-59245500D01*
X131822825Y-59245429D01*
X131739842Y-59242336D01*
X131676040Y-59232250D01*
X131625824Y-59213764D01*
X131583598Y-59185473D01*
X131583368Y-59185279D01*
X131539079Y-59133772D01*
X131514608Y-59069215D01*
X131508500Y-59004199D01*
X131517530Y-58926749D01*
X131545405Y-58864696D01*
X131583368Y-58823120D01*
X131612258Y-58802020D01*
X131644510Y-58786356D01*
X131684297Y-58775375D01*
X131735794Y-58768328D01*
X131803177Y-58764466D01*
X131890620Y-58763036D01*
X131918075Y-58762970D01*
X132118100Y-58762900D01*
X132118100Y-59499500D01*
X132268797Y-59499500D01*
X132269534Y-59453249D01*
X132270130Y-59372205D01*
X132270418Y-59270744D01*
X132270500Y-59146517D01*
X132270500Y-58622655D01*
X132241925Y-58610648D01*
X132223127Y-58605620D01*
X132182364Y-58596657D01*
X132122664Y-58584361D01*
X132047054Y-58569336D01*
X131958562Y-58552182D01*
X131860214Y-58533503D01*
X131762987Y-58515369D01*
X131658328Y-58495682D01*
X131560849Y-58476701D01*
X131473555Y-58459062D01*
X131399453Y-58443398D01*
X131341549Y-58430344D01*
X131302850Y-58420534D01*
X131286737Y-58414883D01*
X131275084Y-58398897D01*
X131255602Y-58362960D01*
X131229869Y-58310713D01*
X131199462Y-58245800D01*
X131165958Y-58171862D01*
X131130936Y-58092543D01*
X131095972Y-58011484D01*
X131062644Y-57932328D01*
X131032531Y-57858718D01*
X131007208Y-57794296D01*
X130988254Y-57742704D01*
X130977247Y-57707585D01*
X130975100Y-57695334D01*
X130982646Y-57674597D01*
X131005183Y-57633697D01*
X131042565Y-57572868D01*
X131094645Y-57492341D01*
X131161274Y-57392349D01*
X131242306Y-57273124D01*
X131248150Y-57264594D01*
X131309466Y-57174483D01*
X131365977Y-57090158D01*
X131416101Y-57014077D01*
X131458255Y-56948698D01*
X131490857Y-56896478D01*
X131512326Y-56859876D01*
X131521079Y-56841349D01*
X131521200Y-56840398D01*
X131512509Y-56826269D01*
X131488024Y-56796831D01*
X131450135Y-56754515D01*
X131401228Y-56701750D01*
X131343690Y-56640967D01*
X131279910Y-56574596D01*
X131221936Y-56515000D01*
X131025900Y-56515000D01*
X131025900Y-57251600D01*
X130835400Y-57251600D01*
X130835400Y-57203313D01*
X126504700Y-57203313D01*
X126285625Y-57198344D01*
X126203906Y-57196197D01*
X126142961Y-57193628D01*
X126098167Y-57190074D01*
X126064900Y-57184971D01*
X126038536Y-57177754D01*
X126014449Y-57167861D01*
X126007210Y-57164401D01*
X125932654Y-57116907D01*
X125871411Y-57055803D01*
X125836921Y-57002247D01*
X125821657Y-56954010D01*
X125813020Y-56889966D01*
X125811003Y-56818828D01*
X125815601Y-56749307D01*
X125826808Y-56690115D01*
X125837147Y-56662276D01*
X125883811Y-56593263D01*
X125947539Y-56534121D01*
X126008265Y-56497855D01*
X126033279Y-56487800D01*
X126060848Y-56480365D01*
X126095572Y-56475027D01*
X126142048Y-56471267D01*
X126204874Y-56468564D01*
X126285625Y-56466464D01*
X126504700Y-56461686D01*
X126504700Y-57203313D01*
X130835400Y-57203313D01*
X130835400Y-56946800D01*
X130530600Y-56946800D01*
X130530600Y-56807100D01*
X130835400Y-56807100D01*
X130835400Y-56654700D01*
X130505200Y-56654700D01*
X130505200Y-56515000D01*
X131025900Y-56515000D01*
X131221936Y-56515000D01*
X131212273Y-56505067D01*
X131143168Y-56434810D01*
X131074981Y-56366256D01*
X131010101Y-56301834D01*
X130950914Y-56243974D01*
X130899808Y-56195107D01*
X130859169Y-56157662D01*
X130831386Y-56134070D01*
X130820242Y-56126869D01*
X130812801Y-56124672D01*
X130805084Y-56123973D01*
X130795085Y-56126020D01*
X130780801Y-56132063D01*
X130760228Y-56143349D01*
X130731360Y-56161128D01*
X130692195Y-56186649D01*
X130640728Y-56221159D01*
X130574954Y-56265908D01*
X130492869Y-56322145D01*
X130392469Y-56391118D01*
X130357213Y-56415349D01*
X130241516Y-56494350D01*
X130145447Y-56558797D01*
X130068188Y-56609206D01*
X130008921Y-56646095D01*
X129966829Y-56669980D01*
X129941095Y-56681377D01*
X129934273Y-56682562D01*
X129914027Y-56677445D01*
X129874431Y-56663848D01*
X129819260Y-56643314D01*
X129752287Y-56617391D01*
X129677287Y-56587624D01*
X129598032Y-56555557D01*
X129518296Y-56522737D01*
X129441853Y-56490710D01*
X129372478Y-56461019D01*
X129313943Y-56435212D01*
X129270022Y-56414833D01*
X129244489Y-56401428D01*
X129240232Y-56398327D01*
X129234281Y-56382462D01*
X129224435Y-56344425D01*
X129211298Y-56287044D01*
X129195471Y-56213145D01*
X129177558Y-56125554D01*
X129158162Y-56027100D01*
X129137884Y-55920609D01*
X129134346Y-55901660D01*
X129114025Y-55793684D01*
X129094637Y-55692905D01*
X129076769Y-55602213D01*
X129061009Y-55524495D01*
X129060989Y-55524400D01*
X128892300Y-55524400D01*
X128892300Y-56172100D01*
X128740487Y-56172100D01*
X128737019Y-55947300D01*
X128733550Y-55722501D01*
X128663162Y-55880625D01*
X128592774Y-56038750D01*
X128467927Y-56038750D01*
X128397539Y-55880625D01*
X128327150Y-55722501D01*
X128323682Y-55947300D01*
X128320214Y-56172100D01*
X128168400Y-56172100D01*
X128168400Y-55524400D01*
X128274480Y-55524399D01*
X128380559Y-55524399D01*
X128447638Y-55673624D01*
X128473643Y-55731269D01*
X128496376Y-55781273D01*
X128513558Y-55818651D01*
X128522909Y-55838416D01*
X128523388Y-55839349D01*
X128531542Y-55834945D01*
X128547753Y-55809537D01*
X128570606Y-55765689D01*
X128598683Y-55705967D01*
X128605790Y-55690124D01*
X128679520Y-55524400D01*
X128892300Y-55524400D01*
X129060989Y-55524400D01*
X129047943Y-55462639D01*
X129038160Y-55419534D01*
X129032246Y-55398068D01*
X129031698Y-55396835D01*
X129027509Y-55390588D01*
X129020685Y-55385487D01*
X129008829Y-55381415D01*
X128989545Y-55378256D01*
X128960437Y-55375895D01*
X128919108Y-55374217D01*
X128863163Y-55373104D01*
X128790204Y-55372443D01*
X128697837Y-55372116D01*
X128583664Y-55372008D01*
X128517651Y-55372000D01*
X128391655Y-55372043D01*
G36*
X125535065Y-62913134D02*
G01*
X125459112Y-62929606D01*
X125403296Y-62955664D01*
X125361524Y-62981480D01*
X125386307Y-63015315D01*
X125408952Y-63044306D01*
X125440015Y-63081787D01*
X125459871Y-63104860D01*
X125508651Y-63160570D01*
X125548845Y-63139785D01*
X125599504Y-63123617D01*
X125657787Y-63119727D01*
X125712862Y-63127957D01*
X125746575Y-63142656D01*
X125768739Y-63157751D01*
X125786307Y-63172540D01*
X125799875Y-63190059D01*
X125810038Y-63213342D01*
X125817392Y-63245425D01*
X125822530Y-63289342D01*
X125826050Y-63348130D01*
X125828546Y-63424824D01*
X125830612Y-63522457D01*
X125831600Y-63576200D01*
X125837950Y-63925450D01*
X125942725Y-63929138D01*
X126047500Y-63932827D01*
X126047500Y-62914772D01*
X125837950Y-62922150D01*
X125831600Y-62971873D01*
X125826567Y-63002372D01*
X125820252Y-63011322D01*
X125809541Y-63002509D01*
X125807948Y-63000602D01*
X125756742Y-62957106D01*
X125690068Y-62927571D01*
X125614113Y-62912685D01*
X125535065Y-62913134D01*
G37*
X125535065Y-62913134D02*
X125459112Y-62929606D01*
X125403296Y-62955664D01*
X125361524Y-62981480D01*
X125386307Y-63015315D01*
X125408952Y-63044306D01*
X125440015Y-63081787D01*
X125459871Y-63104860D01*
X125508651Y-63160570D01*
X125548845Y-63139785D01*
X125599504Y-63123617D01*
X125657787Y-63119727D01*
X125712862Y-63127957D01*
X125746575Y-63142656D01*
X125768739Y-63157751D01*
X125786307Y-63172540D01*
X125799875Y-63190059D01*
X125810038Y-63213342D01*
X125817392Y-63245425D01*
X125822530Y-63289342D01*
X125826050Y-63348130D01*
X125828546Y-63424824D01*
X125830612Y-63522457D01*
X125831600Y-63576200D01*
X125837950Y-63925450D01*
X125942725Y-63929138D01*
X126047500Y-63932827D01*
X126047500Y-62914772D01*
X125837950Y-62922150D01*
X125831600Y-62971873D01*
X125826567Y-63002372D01*
X125820252Y-63011322D01*
X125809541Y-63002509D01*
X125807948Y-63000602D01*
X125756742Y-62957106D01*
X125690068Y-62927571D01*
X125614113Y-62912685D01*
X125535065Y-62913134D01*
G36*
X129876082Y-62915971D02*
G01*
X129803639Y-62936753D01*
X129787650Y-62944282D01*
X129716785Y-62989717D01*
X129664066Y-63046275D01*
X129626406Y-63112650D01*
X129618025Y-63131812D01*
X129611370Y-63150930D01*
X129606203Y-63173166D01*
X129602284Y-63201684D01*
X129599374Y-63239646D01*
X129597233Y-63290216D01*
X129595623Y-63356556D01*
X129594304Y-63441829D01*
X129593036Y-63549199D01*
X129592978Y-63554504D01*
X129588805Y-63932859D01*
X129694578Y-63929154D01*
X129800350Y-63925450D01*
X129806700Y-63582550D01*
X129808772Y-63478721D01*
X129810856Y-63397150D01*
X129813202Y-63334693D01*
X129816058Y-63288210D01*
X129819673Y-63254557D01*
X129824297Y-63230594D01*
X129830177Y-63213179D01*
X129836997Y-63200096D01*
X129877241Y-63153572D01*
X129930812Y-63127007D01*
X129996616Y-63119000D01*
X130065012Y-63126701D01*
X130117394Y-63151429D01*
X130158538Y-63195616D01*
X130164249Y-63204417D01*
X130173186Y-63219601D01*
X130180178Y-63235142D01*
X130185510Y-63254291D01*
X130189467Y-63280299D01*
X130192332Y-63316416D01*
X130194391Y-63365892D01*
X130195927Y-63431978D01*
X130197224Y-63517925D01*
X130198147Y-63592075D01*
X130202244Y-63931800D01*
X130403600Y-63931800D01*
X130403600Y-62915800D01*
X130200400Y-62915800D01*
X130200400Y-62966600D01*
X130197762Y-63002809D01*
X130188103Y-63015135D01*
X130168807Y-63004579D01*
X130149901Y-62985969D01*
X130097329Y-62947053D01*
X130029672Y-62921897D01*
X129953675Y-62911277D01*
X129876082Y-62915971D01*
G37*
X129876082Y-62915971D02*
X129803639Y-62936753D01*
X129787650Y-62944282D01*
X129716785Y-62989717D01*
X129664066Y-63046275D01*
X129626406Y-63112650D01*
X129618025Y-63131812D01*
X129611370Y-63150930D01*
X129606203Y-63173166D01*
X129602284Y-63201684D01*
X129599374Y-63239646D01*
X129597233Y-63290216D01*
X129595623Y-63356556D01*
X129594304Y-63441829D01*
X129593036Y-63549199D01*
X129592978Y-63554504D01*
X129588805Y-63932859D01*
X129694578Y-63929154D01*
X129800350Y-63925450D01*
X129806700Y-63582550D01*
X129808772Y-63478721D01*
X129810856Y-63397150D01*
X129813202Y-63334693D01*
X129816058Y-63288210D01*
X129819673Y-63254557D01*
X129824297Y-63230594D01*
X129830177Y-63213179D01*
X129836997Y-63200096D01*
X129877241Y-63153572D01*
X129930812Y-63127007D01*
X129996616Y-63119000D01*
X130065012Y-63126701D01*
X130117394Y-63151429D01*
X130158538Y-63195616D01*
X130164249Y-63204417D01*
X130173186Y-63219601D01*
X130180178Y-63235142D01*
X130185510Y-63254291D01*
X130189467Y-63280299D01*
X130192332Y-63316416D01*
X130194391Y-63365892D01*
X130195927Y-63431978D01*
X130197224Y-63517925D01*
X130198147Y-63592075D01*
X130202244Y-63931800D01*
X130403600Y-63931800D01*
X130403600Y-62915800D01*
X130200400Y-62915800D01*
X130200400Y-62966600D01*
X130197762Y-63002809D01*
X130188103Y-63015135D01*
X130168807Y-63004579D01*
X130149901Y-62985969D01*
X130097329Y-62947053D01*
X130029672Y-62921897D01*
X129953675Y-62911277D01*
X129876082Y-62915971D01*
G36*
X123981371Y-62925304D02*
G01*
X123890319Y-62965766D01*
X123813935Y-63023449D01*
X123765722Y-63074811D01*
X123731144Y-63128401D01*
X123708048Y-63189916D01*
X123694278Y-63265054D01*
X123687766Y-63357125D01*
X123682559Y-63500000D01*
X124307600Y-63500000D01*
X124307600Y-63535409D01*
X124299083Y-63578772D01*
X124277170Y-63628906D01*
X124247320Y-63675563D01*
X124215696Y-63707983D01*
X124176074Y-63725874D01*
X124121437Y-63736847D01*
X124061443Y-63740010D01*
X124005752Y-63734469D01*
X123985721Y-63729250D01*
X123944790Y-63711794D01*
X123901799Y-63687875D01*
X123894585Y-63683149D01*
X123848620Y-63651957D01*
X123779660Y-63710871D01*
X123745724Y-63741197D01*
X123721106Y-63765740D01*
X123710763Y-63779528D01*
X123710700Y-63780018D01*
X123719685Y-63793548D01*
X123742396Y-63815924D01*
X123755563Y-63827230D01*
X123847654Y-63887146D01*
X123950175Y-63925433D01*
X124058550Y-63940950D01*
X124168200Y-63932560D01*
X124174250Y-63931367D01*
X124272501Y-63899605D01*
X124355264Y-63847903D01*
X124421797Y-63777005D01*
X124471354Y-63687653D01*
X124496958Y-63608887D01*
X124505670Y-63554870D01*
X124510674Y-63485081D01*
X124511899Y-63408888D01*
X124509273Y-63335658D01*
X124505311Y-63298797D01*
X124307600Y-63298797D01*
X124307600Y-63334900D01*
X123885674Y-63334900D01*
X123894397Y-63287275D01*
X123918358Y-63214256D01*
X123959164Y-63158589D01*
X124014747Y-63122120D01*
X124083037Y-63106698D01*
X124096952Y-63106300D01*
X124154860Y-63112493D01*
X124204056Y-63128904D01*
X124205882Y-63129862D01*
X124244774Y-63161885D01*
X124278643Y-63208997D01*
X124301426Y-63261130D01*
X124307600Y-63298797D01*
X124505311Y-63298797D01*
X124502727Y-63274758D01*
X124499611Y-63258592D01*
X124464848Y-63150837D01*
X124413791Y-63062031D01*
X124346894Y-62992660D01*
X124264613Y-62943211D01*
X124178080Y-62916199D01*
X124078283Y-62908489D01*
X123981371Y-62925304D01*
G37*
X123981371Y-62925304D02*
X123890319Y-62965766D01*
X123813935Y-63023449D01*
X123765722Y-63074811D01*
X123731144Y-63128401D01*
X123708048Y-63189916D01*
X123694278Y-63265054D01*
X123687766Y-63357125D01*
X123682559Y-63500000D01*
X124307600Y-63500000D01*
X124307600Y-63535409D01*
X124299083Y-63578772D01*
X124277170Y-63628906D01*
X124247320Y-63675563D01*
X124215696Y-63707983D01*
X124176074Y-63725874D01*
X124121437Y-63736847D01*
X124061443Y-63740010D01*
X124005752Y-63734469D01*
X123985721Y-63729250D01*
X123944790Y-63711794D01*
X123901799Y-63687875D01*
X123894585Y-63683149D01*
X123848620Y-63651957D01*
X123779660Y-63710871D01*
X123745724Y-63741197D01*
X123721106Y-63765740D01*
X123710763Y-63779528D01*
X123710700Y-63780018D01*
X123719685Y-63793548D01*
X123742396Y-63815924D01*
X123755563Y-63827230D01*
X123847654Y-63887146D01*
X123950175Y-63925433D01*
X124058550Y-63940950D01*
X124168200Y-63932560D01*
X124174250Y-63931367D01*
X124272501Y-63899605D01*
X124355264Y-63847903D01*
X124421797Y-63777005D01*
X124471354Y-63687653D01*
X124496958Y-63608887D01*
X124505670Y-63554870D01*
X124510674Y-63485081D01*
X124511899Y-63408888D01*
X124509273Y-63335658D01*
X124505311Y-63298797D01*
X124307600Y-63298797D01*
X124307600Y-63334900D01*
X123885674Y-63334900D01*
X123894397Y-63287275D01*
X123918358Y-63214256D01*
X123959164Y-63158589D01*
X124014747Y-63122120D01*
X124083037Y-63106698D01*
X124096952Y-63106300D01*
X124154860Y-63112493D01*
X124204056Y-63128904D01*
X124205882Y-63129862D01*
X124244774Y-63161885D01*
X124278643Y-63208997D01*
X124301426Y-63261130D01*
X124307600Y-63298797D01*
X124505311Y-63298797D01*
X124502727Y-63274758D01*
X124499611Y-63258592D01*
X124464848Y-63150837D01*
X124413791Y-63062031D01*
X124346894Y-62992660D01*
X124264613Y-62943211D01*
X124178080Y-62916199D01*
X124078283Y-62908489D01*
X123981371Y-62925304D01*
G36*
X124896739Y-62907773D02*
G01*
X124848677Y-62916154D01*
X124828222Y-62921172D01*
X124745552Y-62950513D01*
X124668186Y-62992900D01*
X124605616Y-63043025D01*
X124600054Y-63048773D01*
X124580716Y-63071134D01*
X124577934Y-63085796D01*
X124590692Y-63103400D01*
X124594437Y-63107566D01*
X124619768Y-63132413D01*
X124653825Y-63162099D01*
X124665488Y-63171563D01*
X124712225Y-63208628D01*
X124770749Y-63167376D01*
X124809344Y-63143238D01*
X124845812Y-63129691D01*
X124891643Y-63123076D01*
X124914511Y-63121586D01*
X124995713Y-63125426D01*
X125060358Y-63147395D01*
X125110870Y-63188745D01*
X125144664Y-63240385D01*
X125160274Y-63275036D01*
X125169841Y-63308753D01*
X125174766Y-63349597D01*
X125176448Y-63405628D01*
X125176528Y-63423800D01*
X125175512Y-63486284D01*
X125171414Y-63531392D01*
X125162946Y-63567084D01*
X125148817Y-63601320D01*
X125147257Y-63604533D01*
X125105918Y-63662307D01*
X125049658Y-63703108D01*
X124983163Y-63726112D01*
X124911117Y-63730497D01*
X124838206Y-63715437D01*
X124769114Y-63680109D01*
X124759076Y-63672788D01*
X124713459Y-63637994D01*
X124666105Y-63675548D01*
X124631636Y-63704521D01*
X124601942Y-63732177D01*
X124594557Y-63739900D01*
X124578357Y-63760324D01*
X124579470Y-63775145D01*
X124594557Y-63793578D01*
X124644943Y-63837997D01*
X124710687Y-63879694D01*
X124781951Y-63912738D01*
X124805947Y-63921027D01*
X124863438Y-63936174D01*
X124914695Y-63941929D01*
X124970952Y-63938854D01*
X125019669Y-63931688D01*
X125096689Y-63909148D01*
X125174467Y-63870156D01*
X125241733Y-63820633D01*
X125254742Y-63808163D01*
X125309447Y-63735623D01*
X125350147Y-63645732D01*
X125375697Y-63543045D01*
X125384953Y-63432113D01*
X125377252Y-63320746D01*
X125350777Y-63205634D01*
X125307531Y-63109543D01*
X125247246Y-63032190D01*
X125169657Y-62973289D01*
X125074496Y-62932556D01*
X124997054Y-62914662D01*
X124941593Y-62907453D01*
X124896739Y-62907773D01*
G37*
X124896739Y-62907773D02*
X124848677Y-62916154D01*
X124828222Y-62921172D01*
X124745552Y-62950513D01*
X124668186Y-62992900D01*
X124605616Y-63043025D01*
X124600054Y-63048773D01*
X124580716Y-63071134D01*
X124577934Y-63085796D01*
X124590692Y-63103400D01*
X124594437Y-63107566D01*
X124619768Y-63132413D01*
X124653825Y-63162099D01*
X124665488Y-63171563D01*
X124712225Y-63208628D01*
X124770749Y-63167376D01*
X124809344Y-63143238D01*
X124845812Y-63129691D01*
X124891643Y-63123076D01*
X124914511Y-63121586D01*
X124995713Y-63125426D01*
X125060358Y-63147395D01*
X125110870Y-63188745D01*
X125144664Y-63240385D01*
X125160274Y-63275036D01*
X125169841Y-63308753D01*
X125174766Y-63349597D01*
X125176448Y-63405628D01*
X125176528Y-63423800D01*
X125175512Y-63486284D01*
X125171414Y-63531392D01*
X125162946Y-63567084D01*
X125148817Y-63601320D01*
X125147257Y-63604533D01*
X125105918Y-63662307D01*
X125049658Y-63703108D01*
X124983163Y-63726112D01*
X124911117Y-63730497D01*
X124838206Y-63715437D01*
X124769114Y-63680109D01*
X124759076Y-63672788D01*
X124713459Y-63637994D01*
X124666105Y-63675548D01*
X124631636Y-63704521D01*
X124601942Y-63732177D01*
X124594557Y-63739900D01*
X124578357Y-63760324D01*
X124579470Y-63775145D01*
X124594557Y-63793578D01*
X124644943Y-63837997D01*
X124710687Y-63879694D01*
X124781951Y-63912738D01*
X124805947Y-63921027D01*
X124863438Y-63936174D01*
X124914695Y-63941929D01*
X124970952Y-63938854D01*
X125019669Y-63931688D01*
X125096689Y-63909148D01*
X125174467Y-63870156D01*
X125241733Y-63820633D01*
X125254742Y-63808163D01*
X125309447Y-63735623D01*
X125350147Y-63645732D01*
X125375697Y-63543045D01*
X125384953Y-63432113D01*
X125377252Y-63320746D01*
X125350777Y-63205634D01*
X125307531Y-63109543D01*
X125247246Y-63032190D01*
X125169657Y-62973289D01*
X125074496Y-62932556D01*
X124997054Y-62914662D01*
X124941593Y-62907453D01*
X124896739Y-62907773D01*
G36*
X126857702Y-63263642D02*
G01*
X126856493Y-63367312D01*
X126855198Y-63448674D01*
X126853574Y-63510818D01*
X126851382Y-63556834D01*
X126848380Y-63589813D01*
X126844327Y-63612847D01*
X126838982Y-63629026D01*
X126832105Y-63641440D01*
X126827766Y-63647537D01*
X126784791Y-63694651D01*
X126738813Y-63720881D01*
X126682179Y-63730309D01*
X126672257Y-63730527D01*
X126601805Y-63721809D01*
X126546714Y-63693517D01*
X126504624Y-63644273D01*
X126495175Y-63627193D01*
X126486458Y-63608956D01*
X126479720Y-63590603D01*
X126474706Y-63568721D01*
X126471163Y-63539896D01*
X126468836Y-63500715D01*
X126467471Y-63447762D01*
X126466814Y-63377626D01*
X126466611Y-63286893D01*
X126466600Y-63243309D01*
X126466600Y-62915800D01*
X126263400Y-62915800D01*
X126263400Y-63931800D01*
X126466600Y-63931800D01*
X126466600Y-63831917D01*
X126529678Y-63874365D01*
X126612871Y-63917571D01*
X126699060Y-63938645D01*
X126783642Y-63936609D01*
X126803150Y-63932583D01*
X126891076Y-63898720D01*
X126964525Y-63844289D01*
X127021920Y-63770604D01*
X127040529Y-63734950D01*
X127048907Y-63715884D01*
X127055507Y-63697192D01*
X127060543Y-63675695D01*
X127064227Y-63648216D01*
X127066770Y-63611576D01*
X127068385Y-63562598D01*
X127069284Y-63498104D01*
X127069679Y-63414916D01*
X127069782Y-63309856D01*
X127069785Y-63296800D01*
X127069850Y-62922150D01*
X126965652Y-62918470D01*
X126861454Y-62914791D01*
X126857702Y-63263642D01*
G37*
X126857702Y-63263642D02*
X126856493Y-63367312D01*
X126855198Y-63448674D01*
X126853574Y-63510818D01*
X126851382Y-63556834D01*
X126848380Y-63589813D01*
X126844327Y-63612847D01*
X126838982Y-63629026D01*
X126832105Y-63641440D01*
X126827766Y-63647537D01*
X126784791Y-63694651D01*
X126738813Y-63720881D01*
X126682179Y-63730309D01*
X126672257Y-63730527D01*
X126601805Y-63721809D01*
X126546714Y-63693517D01*
X126504624Y-63644273D01*
X126495175Y-63627193D01*
X126486458Y-63608956D01*
X126479720Y-63590603D01*
X126474706Y-63568721D01*
X126471163Y-63539896D01*
X126468836Y-63500715D01*
X126467471Y-63447762D01*
X126466814Y-63377626D01*
X126466611Y-63286893D01*
X126466600Y-63243309D01*
X126466600Y-62915800D01*
X126263400Y-62915800D01*
X126263400Y-63931800D01*
X126466600Y-63931800D01*
X126466600Y-63831917D01*
X126529678Y-63874365D01*
X126612871Y-63917571D01*
X126699060Y-63938645D01*
X126783642Y-63936609D01*
X126803150Y-63932583D01*
X126891076Y-63898720D01*
X126964525Y-63844289D01*
X127021920Y-63770604D01*
X127040529Y-63734950D01*
X127048907Y-63715884D01*
X127055507Y-63697192D01*
X127060543Y-63675695D01*
X127064227Y-63648216D01*
X127066770Y-63611576D01*
X127068385Y-63562598D01*
X127069284Y-63498104D01*
X127069679Y-63414916D01*
X127069782Y-63309856D01*
X127069785Y-63296800D01*
X127069850Y-62922150D01*
X126965652Y-62918470D01*
X126861454Y-62914791D01*
X126857702Y-63263642D01*
G36*
X127586028Y-62914019D02*
G01*
X127498163Y-62939445D01*
X127416443Y-62984865D01*
X127350751Y-63043814D01*
X127314403Y-63088186D01*
X127287474Y-63132259D01*
X127268671Y-63180892D01*
X127256702Y-63238948D01*
X127250274Y-63311288D01*
X127248095Y-63402773D01*
X127248065Y-63430150D01*
X127248658Y-63507134D01*
X127250458Y-63564244D01*
X127254074Y-63606999D01*
X127260117Y-63640917D01*
X127269197Y-63671519D01*
X127277044Y-63692314D01*
X127314506Y-63759308D01*
X127369313Y-63823354D01*
X127433866Y-63876696D01*
X127486192Y-63905920D01*
X127556572Y-63926974D01*
X127638327Y-63936918D01*
X127719435Y-63934530D01*
X127739321Y-63931671D01*
X127832948Y-63903178D01*
X127915588Y-63853403D01*
X127983523Y-63785207D01*
X128030219Y-63707822D01*
X128048668Y-63649692D01*
X128061521Y-63573567D01*
X128068716Y-63486240D01*
X128069728Y-63423315D01*
X127863322Y-63423315D01*
X127860415Y-63515996D01*
X127850986Y-63587087D01*
X127833368Y-63639927D01*
X127805898Y-63677857D01*
X127766910Y-63704218D01*
X127714742Y-63722350D01*
X127714259Y-63722473D01*
X127640028Y-63730302D01*
X127572901Y-63715230D01*
X127534383Y-63693190D01*
X127501777Y-63664934D01*
X127478663Y-63633364D01*
X127463542Y-63593638D01*
X127454911Y-63540916D01*
X127451270Y-63470357D01*
X127450850Y-63423800D01*
X127451376Y-63354732D01*
X127453422Y-63305571D01*
X127457691Y-63270839D01*
X127464888Y-63245057D01*
X127475716Y-63222744D01*
X127476937Y-63220643D01*
X127522699Y-63164640D01*
X127581039Y-63130672D01*
X127651498Y-63119004D01*
X127652952Y-63119000D01*
X127726346Y-63128445D01*
X127783836Y-63157288D01*
X127826772Y-63206283D01*
X127835025Y-63221055D01*
X127847773Y-63249110D01*
X127856088Y-63277981D01*
X127860857Y-63313996D01*
X127862965Y-63363485D01*
X127863322Y-63423315D01*
X128069728Y-63423315D01*
X128070192Y-63394507D01*
X128065886Y-63305161D01*
X128055736Y-63224997D01*
X128039681Y-63160810D01*
X128035312Y-63149417D01*
X127988184Y-63066850D01*
X127925027Y-63000856D01*
X127849538Y-62952006D01*
X127765411Y-62920870D01*
X127676342Y-62908018D01*
X127586028Y-62914019D01*
G37*
X127586028Y-62914019D02*
X127498163Y-62939445D01*
X127416443Y-62984865D01*
X127350751Y-63043814D01*
X127314403Y-63088186D01*
X127287474Y-63132259D01*
X127268671Y-63180892D01*
X127256702Y-63238948D01*
X127250274Y-63311288D01*
X127248095Y-63402773D01*
X127248065Y-63430150D01*
X127248658Y-63507134D01*
X127250458Y-63564244D01*
X127254074Y-63606999D01*
X127260117Y-63640917D01*
X127269197Y-63671519D01*
X127277044Y-63692314D01*
X127314506Y-63759308D01*
X127369313Y-63823354D01*
X127433866Y-63876696D01*
X127486192Y-63905920D01*
X127556572Y-63926974D01*
X127638327Y-63936918D01*
X127719435Y-63934530D01*
X127739321Y-63931671D01*
X127832948Y-63903178D01*
X127915588Y-63853403D01*
X127983523Y-63785207D01*
X128030219Y-63707822D01*
X128048668Y-63649692D01*
X128061521Y-63573567D01*
X128068716Y-63486240D01*
X128069728Y-63423315D01*
X127863322Y-63423315D01*
X127860415Y-63515996D01*
X127850986Y-63587087D01*
X127833368Y-63639927D01*
X127805898Y-63677857D01*
X127766910Y-63704218D01*
X127714742Y-63722350D01*
X127714259Y-63722473D01*
X127640028Y-63730302D01*
X127572901Y-63715230D01*
X127534383Y-63693190D01*
X127501777Y-63664934D01*
X127478663Y-63633364D01*
X127463542Y-63593638D01*
X127454911Y-63540916D01*
X127451270Y-63470357D01*
X127450850Y-63423800D01*
X127451376Y-63354732D01*
X127453422Y-63305571D01*
X127457691Y-63270839D01*
X127464888Y-63245057D01*
X127475716Y-63222744D01*
X127476937Y-63220643D01*
X127522699Y-63164640D01*
X127581039Y-63130672D01*
X127651498Y-63119004D01*
X127652952Y-63119000D01*
X127726346Y-63128445D01*
X127783836Y-63157288D01*
X127826772Y-63206283D01*
X127835025Y-63221055D01*
X127847773Y-63249110D01*
X127856088Y-63277981D01*
X127860857Y-63313996D01*
X127862965Y-63363485D01*
X127863322Y-63423315D01*
X128069728Y-63423315D01*
X128070192Y-63394507D01*
X128065886Y-63305161D01*
X128055736Y-63224997D01*
X128039681Y-63160810D01*
X128035312Y-63149417D01*
X127988184Y-63066850D01*
X127925027Y-63000856D01*
X127849538Y-62952006D01*
X127765411Y-62920870D01*
X127676342Y-62908018D01*
X127586028Y-62914019D01*
G36*
X128546362Y-62911875D02*
G01*
X128473950Y-62922863D01*
X128406847Y-62938470D01*
X128360537Y-62954608D01*
X128312487Y-62978094D01*
X128269409Y-63003172D01*
X128236834Y-63026218D01*
X128220295Y-63043609D01*
X128219287Y-63047124D01*
X128226947Y-63061428D01*
X128247167Y-63088951D01*
X128275673Y-63123895D01*
X128277454Y-63125985D01*
X128335707Y-63194171D01*
X128406207Y-63154384D01*
X128468837Y-63127654D01*
X128539667Y-63111054D01*
X128610748Y-63105361D01*
X128674130Y-63111351D01*
X128712780Y-63124460D01*
X128752355Y-63155429D01*
X128772920Y-63193871D01*
X128773937Y-63233954D01*
X128754873Y-63269848D01*
X128727994Y-63290039D01*
X128696692Y-63300632D01*
X128650074Y-63310069D01*
X128598211Y-63316313D01*
X128598003Y-63316329D01*
X128492490Y-63327029D01*
X128408805Y-63341940D01*
X128343526Y-63362528D01*
X128293230Y-63390261D01*
X128254495Y-63426605D01*
X128223898Y-63473027D01*
X128221462Y-63477682D01*
X128198827Y-63542737D01*
X128190019Y-63616710D01*
X128195378Y-63689406D01*
X128212568Y-63745261D01*
X128255885Y-63808159D01*
X128318935Y-63860476D01*
X128397739Y-63900742D01*
X128488322Y-63927490D01*
X128586707Y-63939250D01*
X128688916Y-63934552D01*
X128714500Y-63930652D01*
X128764419Y-63918251D01*
X128822358Y-63898586D01*
X128864960Y-63880766D01*
X128911417Y-63856704D01*
X128957884Y-63828759D01*
X128999030Y-63800633D01*
X129029521Y-63776026D01*
X129044025Y-63758641D01*
X129044540Y-63756107D01*
X129035588Y-63744204D01*
X129012132Y-63720673D01*
X128979016Y-63690340D01*
X128974808Y-63686634D01*
X128905235Y-63625618D01*
X128848107Y-63664923D01*
X128770762Y-63709031D01*
X128691876Y-63733489D01*
X128601650Y-63741291D01*
X128598196Y-63741300D01*
X128515844Y-63735322D01*
X128455566Y-63717224D01*
X128416983Y-63686758D01*
X128399715Y-63643676D01*
X128399415Y-63611793D01*
X128407057Y-63580723D01*
X128425170Y-63557234D01*
X128457128Y-63539757D01*
X128506305Y-63526726D01*
X128576077Y-63516572D01*
X128612494Y-63512772D01*
X128715997Y-63499031D01*
X128797774Y-63478979D01*
X128861062Y-63451008D01*
X128909097Y-63413506D01*
X128945116Y-63364864D01*
X128957197Y-63341250D01*
X128971929Y-63295732D01*
X128980254Y-63243717D01*
X128980922Y-63228423D01*
X128970919Y-63137658D01*
X128940075Y-63061383D01*
X128888460Y-62999670D01*
X128816143Y-62952588D01*
X128723194Y-62920210D01*
X128668305Y-62909449D01*
X128614380Y-62906929D01*
X128546362Y-62911875D01*
G37*
X128546362Y-62911875D02*
X128473950Y-62922863D01*
X128406847Y-62938470D01*
X128360537Y-62954608D01*
X128312487Y-62978094D01*
X128269409Y-63003172D01*
X128236834Y-63026218D01*
X128220295Y-63043609D01*
X128219287Y-63047124D01*
X128226947Y-63061428D01*
X128247167Y-63088951D01*
X128275673Y-63123895D01*
X128277454Y-63125985D01*
X128335707Y-63194171D01*
X128406207Y-63154384D01*
X128468837Y-63127654D01*
X128539667Y-63111054D01*
X128610748Y-63105361D01*
X128674130Y-63111351D01*
X128712780Y-63124460D01*
X128752355Y-63155429D01*
X128772920Y-63193871D01*
X128773937Y-63233954D01*
X128754873Y-63269848D01*
X128727994Y-63290039D01*
X128696692Y-63300632D01*
X128650074Y-63310069D01*
X128598211Y-63316313D01*
X128598003Y-63316329D01*
X128492490Y-63327029D01*
X128408805Y-63341940D01*
X128343526Y-63362528D01*
X128293230Y-63390261D01*
X128254495Y-63426605D01*
X128223898Y-63473027D01*
X128221462Y-63477682D01*
X128198827Y-63542737D01*
X128190019Y-63616710D01*
X128195378Y-63689406D01*
X128212568Y-63745261D01*
X128255885Y-63808159D01*
X128318935Y-63860476D01*
X128397739Y-63900742D01*
X128488322Y-63927490D01*
X128586707Y-63939250D01*
X128688916Y-63934552D01*
X128714500Y-63930652D01*
X128764419Y-63918251D01*
X128822358Y-63898586D01*
X128864960Y-63880766D01*
X128911417Y-63856704D01*
X128957884Y-63828759D01*
X128999030Y-63800633D01*
X129029521Y-63776026D01*
X129044025Y-63758641D01*
X129044540Y-63756107D01*
X129035588Y-63744204D01*
X129012132Y-63720673D01*
X128979016Y-63690340D01*
X128974808Y-63686634D01*
X128905235Y-63625618D01*
X128848107Y-63664923D01*
X128770762Y-63709031D01*
X128691876Y-63733489D01*
X128601650Y-63741291D01*
X128598196Y-63741300D01*
X128515844Y-63735322D01*
X128455566Y-63717224D01*
X128416983Y-63686758D01*
X128399715Y-63643676D01*
X128399415Y-63611793D01*
X128407057Y-63580723D01*
X128425170Y-63557234D01*
X128457128Y-63539757D01*
X128506305Y-63526726D01*
X128576077Y-63516572D01*
X128612494Y-63512772D01*
X128715997Y-63499031D01*
X128797774Y-63478979D01*
X128861062Y-63451008D01*
X128909097Y-63413506D01*
X128945116Y-63364864D01*
X128957197Y-63341250D01*
X128971929Y-63295732D01*
X128980254Y-63243717D01*
X128980922Y-63228423D01*
X128970919Y-63137658D01*
X128940075Y-63061383D01*
X128888460Y-62999670D01*
X128816143Y-62952588D01*
X128723194Y-62920210D01*
X128668305Y-62909449D01*
X128614380Y-62906929D01*
X128546362Y-62911875D01*
G36*
X130926356Y-62914812D02*
G01*
X130836281Y-62938645D01*
X130753132Y-62982211D01*
X130697523Y-63028277D01*
X130643570Y-63094491D01*
X130605070Y-63171355D01*
X130580866Y-63262391D01*
X130569802Y-63371124D01*
X130568796Y-63420625D01*
X130568700Y-63500000D01*
X131204851Y-63500000D01*
X131196374Y-63547625D01*
X131173357Y-63620470D01*
X131134242Y-63678085D01*
X131083053Y-63715898D01*
X131008914Y-63738234D01*
X130928673Y-63738630D01*
X130847673Y-63717823D01*
X130771254Y-63676550D01*
X130765022Y-63672033D01*
X130750278Y-63663370D01*
X130735414Y-63663480D01*
X130714802Y-63674694D01*
X130682816Y-63699340D01*
X130666242Y-63712932D01*
X130593391Y-63773050D01*
X130651272Y-63826253D01*
X130695934Y-63860870D01*
X130747127Y-63891455D01*
X130775509Y-63904283D01*
X130846858Y-63924065D01*
X130927384Y-63935548D01*
X131005871Y-63937670D01*
X131062327Y-63931381D01*
X131149811Y-63903261D01*
X131229201Y-63858722D01*
X131276259Y-63819095D01*
X131329006Y-63748576D01*
X131367680Y-63661770D01*
X131392341Y-63563495D01*
X131403049Y-63458570D01*
X131399865Y-63351812D01*
X131397093Y-63334900D01*
X131203065Y-63334900D01*
X130784600Y-63334900D01*
X130784600Y-63298797D01*
X130794529Y-63249739D01*
X130820272Y-63197846D01*
X130855767Y-63153191D01*
X130886319Y-63129862D01*
X130944708Y-63110205D01*
X131009542Y-63106644D01*
X131070748Y-63118941D01*
X131103397Y-63135042D01*
X131148667Y-63179487D01*
X131181616Y-63241983D01*
X131195614Y-63293625D01*
X131203065Y-63334900D01*
X131397093Y-63334900D01*
X131382850Y-63248039D01*
X131352063Y-63152069D01*
X131307566Y-63068720D01*
X131266216Y-63018369D01*
X131193287Y-62962490D01*
X131109344Y-62926656D01*
X131018871Y-62910790D01*
X130926356Y-62914812D01*
G37*
X130926356Y-62914812D02*
X130836281Y-62938645D01*
X130753132Y-62982211D01*
X130697523Y-63028277D01*
X130643570Y-63094491D01*
X130605070Y-63171355D01*
X130580866Y-63262391D01*
X130569802Y-63371124D01*
X130568796Y-63420625D01*
X130568700Y-63500000D01*
X131204851Y-63500000D01*
X131196374Y-63547625D01*
X131173357Y-63620470D01*
X131134242Y-63678085D01*
X131083053Y-63715898D01*
X131008914Y-63738234D01*
X130928673Y-63738630D01*
X130847673Y-63717823D01*
X130771254Y-63676550D01*
X130765022Y-63672033D01*
X130750278Y-63663370D01*
X130735414Y-63663480D01*
X130714802Y-63674694D01*
X130682816Y-63699340D01*
X130666242Y-63712932D01*
X130593391Y-63773050D01*
X130651272Y-63826253D01*
X130695934Y-63860870D01*
X130747127Y-63891455D01*
X130775509Y-63904283D01*
X130846858Y-63924065D01*
X130927384Y-63935548D01*
X131005871Y-63937670D01*
X131062327Y-63931381D01*
X131149811Y-63903261D01*
X131229201Y-63858722D01*
X131276259Y-63819095D01*
X131329006Y-63748576D01*
X131367680Y-63661770D01*
X131392341Y-63563495D01*
X131403049Y-63458570D01*
X131399865Y-63351812D01*
X131397093Y-63334900D01*
X131203065Y-63334900D01*
X130784600Y-63334900D01*
X130784600Y-63298797D01*
X130794529Y-63249739D01*
X130820272Y-63197846D01*
X130855767Y-63153191D01*
X130886319Y-63129862D01*
X130944708Y-63110205D01*
X131009542Y-63106644D01*
X131070748Y-63118941D01*
X131103397Y-63135042D01*
X131148667Y-63179487D01*
X131181616Y-63241983D01*
X131195614Y-63293625D01*
X131203065Y-63334900D01*
X131397093Y-63334900D01*
X131382850Y-63248039D01*
X131352063Y-63152069D01*
X131307566Y-63068720D01*
X131266216Y-63018369D01*
X131193287Y-62962490D01*
X131109344Y-62926656D01*
X131018871Y-62910790D01*
X130926356Y-62914812D01*
G36*
X132867439Y-62912261D02*
G01*
X132779635Y-62935420D01*
X132698996Y-62977087D01*
X132629168Y-63036531D01*
X132573801Y-63113016D01*
X132554646Y-63152630D01*
X132540060Y-63204298D01*
X132529947Y-63274364D01*
X132524302Y-63356222D01*
X132523120Y-63443269D01*
X132526393Y-63528899D01*
X132534118Y-63606509D01*
X132546287Y-63669493D01*
X132555116Y-63696094D01*
X132600860Y-63776122D01*
X132664000Y-63844060D01*
X132739221Y-63894951D01*
X132791200Y-63916271D01*
X132866831Y-63932205D01*
X132949246Y-63937624D01*
X133020811Y-63932032D01*
X133112204Y-63903240D01*
X133195522Y-63850765D01*
X133227129Y-63822443D01*
X133274426Y-63767083D01*
X133309061Y-63704564D01*
X133332332Y-63630672D01*
X133345540Y-63541188D01*
X133349984Y-63431898D01*
X133350000Y-63423800D01*
X133140450Y-63423800D01*
X133138864Y-63505778D01*
X133133095Y-63567353D01*
X133121630Y-63613380D01*
X133102956Y-63648715D01*
X133075558Y-63678213D01*
X133056341Y-63693621D01*
X133000174Y-63720853D01*
X132934203Y-63730226D01*
X132866737Y-63721691D01*
X132806083Y-63695195D01*
X132806011Y-63695149D01*
X132774043Y-63665408D01*
X132751182Y-63622144D01*
X132736539Y-63562257D01*
X132729223Y-63482646D01*
X132727979Y-63423315D01*
X132728476Y-63356704D01*
X132730853Y-63309144D01*
X132735996Y-63274307D01*
X132744791Y-63245864D01*
X132756275Y-63221055D01*
X132795917Y-63168463D01*
X132848188Y-63134130D01*
X132908057Y-63118062D01*
X132970491Y-63120266D01*
X133030458Y-63140746D01*
X133082927Y-63179509D01*
X133114364Y-63220643D01*
X133125566Y-63242911D01*
X133133072Y-63268138D01*
X133137586Y-63301802D01*
X133139809Y-63349383D01*
X133140447Y-63416360D01*
X133140450Y-63423800D01*
X133350000Y-63423800D01*
X133346428Y-63315271D01*
X133334747Y-63226843D01*
X133313509Y-63154104D01*
X133281268Y-63092642D01*
X133236577Y-63038049D01*
X133217336Y-63019387D01*
X133137356Y-62961175D01*
X133049948Y-62924405D01*
X132958760Y-62908345D01*
X132867439Y-62912261D01*
G37*
X132867439Y-62912261D02*
X132779635Y-62935420D01*
X132698996Y-62977087D01*
X132629168Y-63036531D01*
X132573801Y-63113016D01*
X132554646Y-63152630D01*
X132540060Y-63204298D01*
X132529947Y-63274364D01*
X132524302Y-63356222D01*
X132523120Y-63443269D01*
X132526393Y-63528899D01*
X132534118Y-63606509D01*
X132546287Y-63669493D01*
X132555116Y-63696094D01*
X132600860Y-63776122D01*
X132664000Y-63844060D01*
X132739221Y-63894951D01*
X132791200Y-63916271D01*
X132866831Y-63932205D01*
X132949246Y-63937624D01*
X133020811Y-63932032D01*
X133112204Y-63903240D01*
X133195522Y-63850765D01*
X133227129Y-63822443D01*
X133274426Y-63767083D01*
X133309061Y-63704564D01*
X133332332Y-63630672D01*
X133345540Y-63541188D01*
X133349984Y-63431898D01*
X133350000Y-63423800D01*
X133140450Y-63423800D01*
X133138864Y-63505778D01*
X133133095Y-63567353D01*
X133121630Y-63613380D01*
X133102956Y-63648715D01*
X133075558Y-63678213D01*
X133056341Y-63693621D01*
X133000174Y-63720853D01*
X132934203Y-63730226D01*
X132866737Y-63721691D01*
X132806083Y-63695195D01*
X132806011Y-63695149D01*
X132774043Y-63665408D01*
X132751182Y-63622144D01*
X132736539Y-63562257D01*
X132729223Y-63482646D01*
X132727979Y-63423315D01*
X132728476Y-63356704D01*
X132730853Y-63309144D01*
X132735996Y-63274307D01*
X132744791Y-63245864D01*
X132756275Y-63221055D01*
X132795917Y-63168463D01*
X132848188Y-63134130D01*
X132908057Y-63118062D01*
X132970491Y-63120266D01*
X133030458Y-63140746D01*
X133082927Y-63179509D01*
X133114364Y-63220643D01*
X133125566Y-63242911D01*
X133133072Y-63268138D01*
X133137586Y-63301802D01*
X133139809Y-63349383D01*
X133140447Y-63416360D01*
X133140450Y-63423800D01*
X133350000Y-63423800D01*
X133346428Y-63315271D01*
X133334747Y-63226843D01*
X133313509Y-63154104D01*
X133281268Y-63092642D01*
X133236577Y-63038049D01*
X133217336Y-63019387D01*
X133137356Y-62961175D01*
X133049948Y-62924405D01*
X132958760Y-62908345D01*
X132867439Y-62912261D01*
G36*
X125702943Y-64526333D02*
G01*
X125629754Y-64564622D01*
X125624284Y-64574488D01*
X125630149Y-64591952D01*
X125649328Y-64620622D01*
X125683801Y-64664107D01*
X125685384Y-64666033D01*
X125758711Y-64755166D01*
X125808439Y-64729247D01*
X125872079Y-64709060D01*
X125936116Y-64711553D01*
X125995012Y-64734995D01*
X126043229Y-64777652D01*
X126063356Y-64809002D01*
X126070187Y-64824996D01*
X126075480Y-64845066D01*
X126079425Y-64872431D01*
X126082211Y-64910312D01*
X126084028Y-64961931D01*
X126085066Y-65030507D01*
X126085515Y-65119262D01*
X126085581Y-65185925D01*
X126085600Y-65519300D01*
X126288800Y-65519300D01*
X126288800Y-64516000D01*
X126085600Y-64516000D01*
X126085600Y-64606192D01*
X126041176Y-64572308D01*
X125964025Y-64528725D01*
X125878331Y-64506467D01*
X125789500Y-64505637D01*
X125702943Y-64526333D01*
G37*
X125702943Y-64526333D02*
X125629754Y-64564622D01*
X125624284Y-64574488D01*
X125630149Y-64591952D01*
X125649328Y-64620622D01*
X125683801Y-64664107D01*
X125685384Y-64666033D01*
X125758711Y-64755166D01*
X125808439Y-64729247D01*
X125872079Y-64709060D01*
X125936116Y-64711553D01*
X125995012Y-64734995D01*
X126043229Y-64777652D01*
X126063356Y-64809002D01*
X126070187Y-64824996D01*
X126075480Y-64845066D01*
X126079425Y-64872431D01*
X126082211Y-64910312D01*
X126084028Y-64961931D01*
X126085066Y-65030507D01*
X126085515Y-65119262D01*
X126085581Y-65185925D01*
X126085600Y-65519300D01*
X126288800Y-65519300D01*
X126288800Y-64516000D01*
X126085600Y-64516000D01*
X126085600Y-64606192D01*
X126041176Y-64572308D01*
X125964025Y-64528725D01*
X125878331Y-64506467D01*
X125789500Y-64505637D01*
X125702943Y-64526333D01*
G36*
X127868035Y-64858327D02*
G01*
X127839251Y-64946140D01*
X127812654Y-65025003D01*
X127789292Y-65091983D01*
X127770216Y-65144148D01*
X127756474Y-65178565D01*
X127749118Y-65192302D01*
X127748488Y-65192293D01*
X127743009Y-65177907D01*
X127731961Y-65142339D01*
X127716314Y-65088948D01*
X127697039Y-65021095D01*
X127675104Y-64942142D01*
X127654128Y-64865250D01*
X127630689Y-64778851D01*
X127609216Y-64700170D01*
X127590661Y-64632650D01*
X127575973Y-64579738D01*
X127566103Y-64544878D01*
X127562160Y-64531875D01*
X127547865Y-64523031D01*
X127512025Y-64517824D01*
X127452866Y-64516006D01*
X127448133Y-64516000D01*
X127393273Y-64516984D01*
X127360517Y-64520272D01*
X127346630Y-64526367D01*
X127346116Y-64531875D01*
X127351687Y-64548529D01*
X127363619Y-64585314D01*
X127380600Y-64638146D01*
X127401316Y-64702941D01*
X127424455Y-64775616D01*
X127424688Y-64776350D01*
X127453049Y-64865486D01*
X127486229Y-64969583D01*
X127521283Y-65079416D01*
X127555270Y-65185761D01*
X127579711Y-65262125D01*
X127662093Y-65519300D01*
X127845229Y-65519300D01*
X127945785Y-65181972D01*
X127972286Y-65093839D01*
X127996750Y-65013939D01*
X128018174Y-64945434D01*
X128035554Y-64891487D01*
X128047886Y-64855260D01*
X128054167Y-64839914D01*
X128054430Y-64839646D01*
X128059982Y-64849992D01*
X128071629Y-64881695D01*
X128088384Y-64931718D01*
X128109260Y-64997027D01*
X128133268Y-65074584D01*
X128159422Y-65161355D01*
X128163119Y-65173798D01*
X128263719Y-65512950D01*
X128355944Y-65516685D01*
X128409060Y-65517272D01*
X128440516Y-65513466D01*
X128453745Y-65504822D01*
X128454091Y-65503985D01*
X128460823Y-65483911D01*
X128473861Y-65443801D01*
X128492212Y-65386787D01*
X128514882Y-65315998D01*
X128540878Y-65234566D01*
X128569207Y-65145620D01*
X128598875Y-65052291D01*
X128628889Y-64957710D01*
X128658256Y-64865007D01*
X128685982Y-64777313D01*
X128711074Y-64697758D01*
X128732539Y-64629473D01*
X128749383Y-64575588D01*
X128760614Y-64539234D01*
X128765237Y-64523542D01*
X128765300Y-64523184D01*
X128753576Y-64519929D01*
X128722302Y-64517443D01*
X128677325Y-64516118D01*
X128657947Y-64516000D01*
X128550594Y-64516000D01*
X128539343Y-64557275D01*
X128532939Y-64580882D01*
X128520981Y-64625070D01*
X128504536Y-64685898D01*
X128484667Y-64759423D01*
X128462441Y-64841704D01*
X128446671Y-64900102D01*
X128423983Y-64983210D01*
X128403216Y-65057535D01*
X128385334Y-65119765D01*
X128371303Y-65166586D01*
X128362088Y-65194684D01*
X128358900Y-65201479D01*
X128353541Y-65189834D01*
X128341562Y-65157034D01*
X128324001Y-65106145D01*
X128301897Y-65040229D01*
X128276287Y-64962350D01*
X128248210Y-64875573D01*
X128243802Y-64861827D01*
X128135053Y-64522350D01*
X128057083Y-64518584D01*
X127979113Y-64514819D01*
X127868035Y-64858327D01*
G37*
X127868035Y-64858327D02*
X127839251Y-64946140D01*
X127812654Y-65025003D01*
X127789292Y-65091983D01*
X127770216Y-65144148D01*
X127756474Y-65178565D01*
X127749118Y-65192302D01*
X127748488Y-65192293D01*
X127743009Y-65177907D01*
X127731961Y-65142339D01*
X127716314Y-65088948D01*
X127697039Y-65021095D01*
X127675104Y-64942142D01*
X127654128Y-64865250D01*
X127630689Y-64778851D01*
X127609216Y-64700170D01*
X127590661Y-64632650D01*
X127575973Y-64579738D01*
X127566103Y-64544878D01*
X127562160Y-64531875D01*
X127547865Y-64523031D01*
X127512025Y-64517824D01*
X127452866Y-64516006D01*
X127448133Y-64516000D01*
X127393273Y-64516984D01*
X127360517Y-64520272D01*
X127346630Y-64526367D01*
X127346116Y-64531875D01*
X127351687Y-64548529D01*
X127363619Y-64585314D01*
X127380600Y-64638146D01*
X127401316Y-64702941D01*
X127424455Y-64775616D01*
X127424688Y-64776350D01*
X127453049Y-64865486D01*
X127486229Y-64969583D01*
X127521283Y-65079416D01*
X127555270Y-65185761D01*
X127579711Y-65262125D01*
X127662093Y-65519300D01*
X127845229Y-65519300D01*
X127945785Y-65181972D01*
X127972286Y-65093839D01*
X127996750Y-65013939D01*
X128018174Y-64945434D01*
X128035554Y-64891487D01*
X128047886Y-64855260D01*
X128054167Y-64839914D01*
X128054430Y-64839646D01*
X128059982Y-64849992D01*
X128071629Y-64881695D01*
X128088384Y-64931718D01*
X128109260Y-64997027D01*
X128133268Y-65074584D01*
X128159422Y-65161355D01*
X128163119Y-65173798D01*
X128263719Y-65512950D01*
X128355944Y-65516685D01*
X128409060Y-65517272D01*
X128440516Y-65513466D01*
X128453745Y-65504822D01*
X128454091Y-65503985D01*
X128460823Y-65483911D01*
X128473861Y-65443801D01*
X128492212Y-65386787D01*
X128514882Y-65315998D01*
X128540878Y-65234566D01*
X128569207Y-65145620D01*
X128598875Y-65052291D01*
X128628889Y-64957710D01*
X128658256Y-64865007D01*
X128685982Y-64777313D01*
X128711074Y-64697758D01*
X128732539Y-64629473D01*
X128749383Y-64575588D01*
X128760614Y-64539234D01*
X128765237Y-64523542D01*
X128765300Y-64523184D01*
X128753576Y-64519929D01*
X128722302Y-64517443D01*
X128677325Y-64516118D01*
X128657947Y-64516000D01*
X128550594Y-64516000D01*
X128539343Y-64557275D01*
X128532939Y-64580882D01*
X128520981Y-64625070D01*
X128504536Y-64685898D01*
X128484667Y-64759423D01*
X128462441Y-64841704D01*
X128446671Y-64900102D01*
X128423983Y-64983210D01*
X128403216Y-65057535D01*
X128385334Y-65119765D01*
X128371303Y-65166586D01*
X128362088Y-65194684D01*
X128358900Y-65201479D01*
X128353541Y-65189834D01*
X128341562Y-65157034D01*
X128324001Y-65106145D01*
X128301897Y-65040229D01*
X128276287Y-64962350D01*
X128248210Y-64875573D01*
X128243802Y-64861827D01*
X128135053Y-64522350D01*
X128057083Y-64518584D01*
X127979113Y-64514819D01*
X127868035Y-64858327D01*
G36*
X129786366Y-64523296D02*
G01*
X129759075Y-64534589D01*
X129723152Y-64552983D01*
X129698946Y-64568573D01*
X129692400Y-64576154D01*
X129700016Y-64590075D01*
X129720344Y-64618199D01*
X129749606Y-64655409D01*
X129762787Y-64671475D01*
X129833173Y-64756274D01*
X129873912Y-64731434D01*
X129933712Y-64708648D01*
X129996150Y-64708052D01*
X130055322Y-64727918D01*
X130105328Y-64766514D01*
X130133725Y-64807615D01*
X130142443Y-64825946D01*
X130149182Y-64844380D01*
X130154196Y-64866334D01*
X130157739Y-64895226D01*
X130160066Y-64934470D01*
X130161431Y-64987484D01*
X130162087Y-65057685D01*
X130162290Y-65148489D01*
X130162300Y-65191790D01*
X130162300Y-65519300D01*
X130365500Y-65519300D01*
X130365500Y-64516000D01*
X130162300Y-64516000D01*
X130162300Y-64619579D01*
X130111597Y-64576178D01*
X130040156Y-64531068D01*
X129958621Y-64506802D01*
X129872266Y-64504005D01*
X129786366Y-64523296D01*
G37*
X129786366Y-64523296D02*
X129759075Y-64534589D01*
X129723152Y-64552983D01*
X129698946Y-64568573D01*
X129692400Y-64576154D01*
X129700016Y-64590075D01*
X129720344Y-64618199D01*
X129749606Y-64655409D01*
X129762787Y-64671475D01*
X129833173Y-64756274D01*
X129873912Y-64731434D01*
X129933712Y-64708648D01*
X129996150Y-64708052D01*
X130055322Y-64727918D01*
X130105328Y-64766514D01*
X130133725Y-64807615D01*
X130142443Y-64825946D01*
X130149182Y-64844380D01*
X130154196Y-64866334D01*
X130157739Y-64895226D01*
X130160066Y-64934470D01*
X130161431Y-64987484D01*
X130162087Y-65057685D01*
X130162290Y-65148489D01*
X130162300Y-65191790D01*
X130162300Y-65519300D01*
X130365500Y-65519300D01*
X130365500Y-64516000D01*
X130162300Y-64516000D01*
X130162300Y-64619579D01*
X130111597Y-64576178D01*
X130040156Y-64531068D01*
X129958621Y-64506802D01*
X129872266Y-64504005D01*
X129786366Y-64523296D01*
G36*
X131830579Y-62913190D02*
G01*
X131751388Y-62934129D01*
X131680404Y-62973542D01*
X131621323Y-63030228D01*
X131577842Y-63102983D01*
X131564237Y-63141031D01*
X131555350Y-63187449D01*
X131548933Y-63252939D01*
X131544988Y-63331313D01*
X131543518Y-63416382D01*
X131544524Y-63501958D01*
X131548008Y-63581853D01*
X131553972Y-63649877D01*
X131562418Y-63699843D01*
X131564067Y-63705981D01*
X131599517Y-63785175D01*
X131653534Y-63850435D01*
X131722073Y-63899398D01*
X131801085Y-63929698D01*
X131886527Y-63938970D01*
X131949575Y-63931336D01*
X131994697Y-63916371D01*
X132045935Y-63892208D01*
X132076825Y-63873946D01*
X132143501Y-63829940D01*
X132143500Y-64218169D01*
X132143301Y-64331377D01*
X132142642Y-64421333D01*
X132141433Y-64490186D01*
X132139585Y-64540081D01*
X132137008Y-64573164D01*
X132133611Y-64591583D01*
X132129305Y-64597484D01*
X132127625Y-64597024D01*
X132107109Y-64583554D01*
X132077772Y-64562915D01*
X132073650Y-64559928D01*
X132000990Y-64521967D01*
X131919431Y-64504145D01*
X131834923Y-64505993D01*
X131753417Y-64527040D01*
X131680863Y-64566820D01*
X131650061Y-64593328D01*
X131624278Y-64619541D01*
X131603519Y-64643240D01*
X131587209Y-64667473D01*
X131574774Y-64695283D01*
X131565643Y-64729717D01*
X131559240Y-64773821D01*
X131554994Y-64830640D01*
X131552329Y-64903220D01*
X131550674Y-64994607D01*
X131549454Y-65107846D01*
X131549256Y-65128775D01*
X131545561Y-65519300D01*
X131749800Y-65519300D01*
X131749820Y-65185925D01*
X131750091Y-65075684D01*
X131751248Y-64987772D01*
X131753827Y-64919119D01*
X131758366Y-64866658D01*
X131765402Y-64827319D01*
X131775473Y-64798033D01*
X131789116Y-64775731D01*
X131806868Y-64757345D01*
X131827725Y-64740931D01*
X131883329Y-64714747D01*
X131946106Y-64708118D01*
X132009063Y-64719715D01*
X132065208Y-64748214D01*
X132107549Y-64792287D01*
X132108792Y-64794251D01*
X132117311Y-64808970D01*
X132123981Y-64824625D01*
X132129074Y-64844452D01*
X132132860Y-64871685D01*
X132135612Y-64909561D01*
X132137599Y-64961315D01*
X132139093Y-65030181D01*
X132140365Y-65119396D01*
X132141083Y-65179575D01*
X132145015Y-65519300D01*
X132346700Y-65519300D01*
X132346700Y-63449728D01*
X132144312Y-63449728D01*
X132137545Y-63530563D01*
X132121720Y-63602950D01*
X132096797Y-63660509D01*
X132084619Y-63677542D01*
X132042800Y-63709250D01*
X131986999Y-63727372D01*
X131925184Y-63731100D01*
X131865323Y-63719626D01*
X131830655Y-63703271D01*
X131802996Y-63682234D01*
X131782954Y-63656380D01*
X131769388Y-63621531D01*
X131761159Y-63573513D01*
X131757129Y-63508148D01*
X131756150Y-63430150D01*
X131756730Y-63354452D01*
X131758805Y-63299176D01*
X131762884Y-63259363D01*
X131769474Y-63230053D01*
X131779045Y-63206364D01*
X131812394Y-63159816D01*
X131858494Y-63131679D01*
X131920380Y-63120571D01*
X131965673Y-63121456D01*
X132011832Y-63126135D01*
X132041497Y-63134335D01*
X132063574Y-63149748D01*
X132081564Y-63169525D01*
X132110647Y-63220344D01*
X132130825Y-63288238D01*
X132142059Y-63366826D01*
X132144312Y-63449728D01*
X132346700Y-63449728D01*
X132346700Y-62915800D01*
X132143500Y-62915800D01*
X132143500Y-62965741D01*
X132143501Y-63015682D01*
X132080423Y-62973234D01*
X131998793Y-62931541D01*
X131914280Y-62911927D01*
X131830579Y-62913190D01*
G37*
X131830579Y-62913190D02*
X131751388Y-62934129D01*
X131680404Y-62973542D01*
X131621323Y-63030228D01*
X131577842Y-63102983D01*
X131564237Y-63141031D01*
X131555350Y-63187449D01*
X131548933Y-63252939D01*
X131544988Y-63331313D01*
X131543518Y-63416382D01*
X131544524Y-63501958D01*
X131548008Y-63581853D01*
X131553972Y-63649877D01*
X131562418Y-63699843D01*
X131564067Y-63705981D01*
X131599517Y-63785175D01*
X131653534Y-63850435D01*
X131722073Y-63899398D01*
X131801085Y-63929698D01*
X131886527Y-63938970D01*
X131949575Y-63931336D01*
X131994697Y-63916371D01*
X132045935Y-63892208D01*
X132076825Y-63873946D01*
X132143501Y-63829940D01*
X132143500Y-64218169D01*
X132143301Y-64331377D01*
X132142642Y-64421333D01*
X132141433Y-64490186D01*
X132139585Y-64540081D01*
X132137008Y-64573164D01*
X132133611Y-64591583D01*
X132129305Y-64597484D01*
X132127625Y-64597024D01*
X132107109Y-64583554D01*
X132077772Y-64562915D01*
X132073650Y-64559928D01*
X132000990Y-64521967D01*
X131919431Y-64504145D01*
X131834923Y-64505993D01*
X131753417Y-64527040D01*
X131680863Y-64566820D01*
X131650061Y-64593328D01*
X131624278Y-64619541D01*
X131603519Y-64643240D01*
X131587209Y-64667473D01*
X131574774Y-64695283D01*
X131565643Y-64729717D01*
X131559240Y-64773821D01*
X131554994Y-64830640D01*
X131552329Y-64903220D01*
X131550674Y-64994607D01*
X131549454Y-65107846D01*
X131549256Y-65128775D01*
X131545561Y-65519300D01*
X131749800Y-65519300D01*
X131749820Y-65185925D01*
X131750091Y-65075684D01*
X131751248Y-64987772D01*
X131753827Y-64919119D01*
X131758366Y-64866658D01*
X131765402Y-64827319D01*
X131775473Y-64798033D01*
X131789116Y-64775731D01*
X131806868Y-64757345D01*
X131827725Y-64740931D01*
X131883329Y-64714747D01*
X131946106Y-64708118D01*
X132009063Y-64719715D01*
X132065208Y-64748214D01*
X132107549Y-64792287D01*
X132108792Y-64794251D01*
X132117311Y-64808970D01*
X132123981Y-64824625D01*
X132129074Y-64844452D01*
X132132860Y-64871685D01*
X132135612Y-64909561D01*
X132137599Y-64961315D01*
X132139093Y-65030181D01*
X132140365Y-65119396D01*
X132141083Y-65179575D01*
X132145015Y-65519300D01*
X132346700Y-65519300D01*
X132346700Y-63449728D01*
X132144312Y-63449728D01*
X132137545Y-63530563D01*
X132121720Y-63602950D01*
X132096797Y-63660509D01*
X132084619Y-63677542D01*
X132042800Y-63709250D01*
X131986999Y-63727372D01*
X131925184Y-63731100D01*
X131865323Y-63719626D01*
X131830655Y-63703271D01*
X131802996Y-63682234D01*
X131782954Y-63656380D01*
X131769388Y-63621531D01*
X131761159Y-63573513D01*
X131757129Y-63508148D01*
X131756150Y-63430150D01*
X131756730Y-63354452D01*
X131758805Y-63299176D01*
X131762884Y-63259363D01*
X131769474Y-63230053D01*
X131779045Y-63206364D01*
X131812394Y-63159816D01*
X131858494Y-63131679D01*
X131920380Y-63120571D01*
X131965673Y-63121456D01*
X132011832Y-63126135D01*
X132041497Y-63134335D01*
X132063574Y-63149748D01*
X132081564Y-63169525D01*
X132110647Y-63220344D01*
X132130825Y-63288238D01*
X132142059Y-63366826D01*
X132144312Y-63449728D01*
X132346700Y-63449728D01*
X132346700Y-62915800D01*
X132143500Y-62915800D01*
X132143500Y-62965741D01*
X132143501Y-63015682D01*
X132080423Y-62973234D01*
X131998793Y-62931541D01*
X131914280Y-62911927D01*
X131830579Y-62913190D01*
G36*
X125114021Y-64510454D02*
G01*
X125019817Y-64536872D01*
X124938677Y-64584754D01*
X124871498Y-64653598D01*
X124826956Y-64726356D01*
X124808400Y-64766112D01*
X124795984Y-64800416D01*
X124788175Y-64836727D01*
X124783440Y-64882501D01*
X124780245Y-64945197D01*
X124779843Y-64955503D01*
X124774304Y-65100200D01*
X125403145Y-65100200D01*
X125396053Y-65153075D01*
X125375265Y-65217584D01*
X125334046Y-65272310D01*
X125276752Y-65313002D01*
X125209473Y-65335120D01*
X125153110Y-65335582D01*
X125088625Y-65322629D01*
X125027179Y-65299379D01*
X124983428Y-65271995D01*
X124946366Y-65240810D01*
X124877808Y-65299061D01*
X124843377Y-65329148D01*
X124817588Y-65353249D01*
X124805744Y-65366395D01*
X124805596Y-65366719D01*
X124812025Y-65381992D01*
X124835410Y-65405596D01*
X124870525Y-65433489D01*
X124912146Y-65461626D01*
X124955047Y-65485965D01*
X124967421Y-65491938D01*
X125030592Y-65512740D01*
X125106826Y-65525630D01*
X125186445Y-65529945D01*
X125259771Y-65525024D01*
X125304550Y-65514963D01*
X125386211Y-65481816D01*
X125449786Y-65440297D01*
X125502421Y-65384974D01*
X125532604Y-65341500D01*
X125570224Y-65262243D01*
X125595550Y-65166021D01*
X125607604Y-65058604D01*
X125605408Y-64945767D01*
X125603283Y-64924041D01*
X125602968Y-64922400D01*
X125403145Y-64922400D01*
X124981335Y-64922400D01*
X124989201Y-64881125D01*
X125013684Y-64806087D01*
X125053995Y-64749216D01*
X125108220Y-64712091D01*
X125174446Y-64696290D01*
X125212486Y-64696976D01*
X125281973Y-64715036D01*
X125338039Y-64752710D01*
X125377371Y-64806883D01*
X125396053Y-64869524D01*
X125403145Y-64922400D01*
X125602968Y-64922400D01*
X125580823Y-64807352D01*
X125541713Y-64708486D01*
X125486670Y-64628227D01*
X125416412Y-64567358D01*
X125331658Y-64526664D01*
X125233124Y-64506928D01*
X125220392Y-64506004D01*
X125114021Y-64510454D01*
G37*
X125114021Y-64510454D02*
X125019817Y-64536872D01*
X124938677Y-64584754D01*
X124871498Y-64653598D01*
X124826956Y-64726356D01*
X124808400Y-64766112D01*
X124795984Y-64800416D01*
X124788175Y-64836727D01*
X124783440Y-64882501D01*
X124780245Y-64945197D01*
X124779843Y-64955503D01*
X124774304Y-65100200D01*
X125403145Y-65100200D01*
X125396053Y-65153075D01*
X125375265Y-65217584D01*
X125334046Y-65272310D01*
X125276752Y-65313002D01*
X125209473Y-65335120D01*
X125153110Y-65335582D01*
X125088625Y-65322629D01*
X125027179Y-65299379D01*
X124983428Y-65271995D01*
X124946366Y-65240810D01*
X124877808Y-65299061D01*
X124843377Y-65329148D01*
X124817588Y-65353249D01*
X124805744Y-65366395D01*
X124805596Y-65366719D01*
X124812025Y-65381992D01*
X124835410Y-65405596D01*
X124870525Y-65433489D01*
X124912146Y-65461626D01*
X124955047Y-65485965D01*
X124967421Y-65491938D01*
X125030592Y-65512740D01*
X125106826Y-65525630D01*
X125186445Y-65529945D01*
X125259771Y-65525024D01*
X125304550Y-65514963D01*
X125386211Y-65481816D01*
X125449786Y-65440297D01*
X125502421Y-65384974D01*
X125532604Y-65341500D01*
X125570224Y-65262243D01*
X125595550Y-65166021D01*
X125607604Y-65058604D01*
X125605408Y-64945767D01*
X125603283Y-64924041D01*
X125602968Y-64922400D01*
X125403145Y-64922400D01*
X124981335Y-64922400D01*
X124989201Y-64881125D01*
X125013684Y-64806087D01*
X125053995Y-64749216D01*
X125108220Y-64712091D01*
X125174446Y-64696290D01*
X125212486Y-64696976D01*
X125281973Y-64715036D01*
X125338039Y-64752710D01*
X125377371Y-64806883D01*
X125396053Y-64869524D01*
X125403145Y-64922400D01*
X125602968Y-64922400D01*
X125580823Y-64807352D01*
X125541713Y-64708486D01*
X125486670Y-64628227D01*
X125416412Y-64567358D01*
X125331658Y-64526664D01*
X125233124Y-64506928D01*
X125220392Y-64506004D01*
X125114021Y-64510454D01*
G36*
X126863389Y-64506008D02*
G01*
X126782803Y-64515418D01*
X126741150Y-64524727D01*
X126673487Y-64553196D01*
X126612383Y-64596335D01*
X126563817Y-64648780D01*
X126533768Y-64705169D01*
X126531439Y-64712850D01*
X126527141Y-64742105D01*
X126523545Y-64794643D01*
X126520719Y-64868356D01*
X126518732Y-64961136D01*
X126517654Y-65070872D01*
X126517471Y-65141475D01*
X126517400Y-65519300D01*
X126720600Y-65519300D01*
X126720600Y-65440842D01*
X126759095Y-65473232D01*
X126798391Y-65499018D01*
X126841812Y-65517864D01*
X126844820Y-65518741D01*
X126907355Y-65528965D01*
X126981412Y-65530576D01*
X127055125Y-65523985D01*
X127116629Y-65509606D01*
X127117640Y-65509246D01*
X127198353Y-65468402D01*
X127260753Y-65411951D01*
X127303281Y-65342875D01*
X127324378Y-65264150D01*
X127323349Y-65217675D01*
X127126597Y-65217675D01*
X127116286Y-65267479D01*
X127086856Y-65304107D01*
X127047949Y-65321632D01*
X127012526Y-65329525D01*
X126993650Y-65333956D01*
X126956594Y-65337704D01*
X126907181Y-65336187D01*
X126854643Y-65330444D01*
X126808212Y-65321514D01*
X126777120Y-65310437D01*
X126775434Y-65309400D01*
X126744393Y-65278366D01*
X126726639Y-65232566D01*
X126720622Y-65167863D01*
X126720600Y-65162873D01*
X126720600Y-65100200D01*
X126880185Y-65100200D01*
X126966502Y-65101967D01*
X127030646Y-65108238D01*
X127075658Y-65120462D01*
X127104584Y-65140090D01*
X127120464Y-65168573D01*
X127126341Y-65207361D01*
X127126597Y-65217675D01*
X127323349Y-65217675D01*
X127322486Y-65178758D01*
X127312901Y-65136092D01*
X127278276Y-65060784D01*
X127222887Y-64999434D01*
X127152400Y-64955577D01*
X127125027Y-64944699D01*
X127094132Y-64936872D01*
X127054555Y-64931442D01*
X127001137Y-64927756D01*
X126928720Y-64925162D01*
X126907925Y-64924629D01*
X126720600Y-64920070D01*
X126720600Y-64846442D01*
X126724283Y-64792003D01*
X126736118Y-64756719D01*
X126742825Y-64747436D01*
X126782023Y-64719493D01*
X126837211Y-64701580D01*
X126901396Y-64693671D01*
X126967584Y-64695742D01*
X127028782Y-64707768D01*
X127077996Y-64729725D01*
X127099750Y-64748705D01*
X127110476Y-64757903D01*
X127124106Y-64757623D01*
X127145781Y-64745808D01*
X127180644Y-64720396D01*
X127191825Y-64711830D01*
X127227990Y-64682690D01*
X127254562Y-64658779D01*
X127266487Y-64644692D01*
X127266700Y-64643735D01*
X127256275Y-64624164D01*
X127229133Y-64598131D01*
X127191476Y-64570129D01*
X127149505Y-64544646D01*
X127109421Y-64526173D01*
X127100052Y-64523066D01*
X127032029Y-64509786D01*
X126949803Y-64504116D01*
X126863389Y-64506008D01*
G37*
X126863389Y-64506008D02*
X126782803Y-64515418D01*
X126741150Y-64524727D01*
X126673487Y-64553196D01*
X126612383Y-64596335D01*
X126563817Y-64648780D01*
X126533768Y-64705169D01*
X126531439Y-64712850D01*
X126527141Y-64742105D01*
X126523545Y-64794643D01*
X126520719Y-64868356D01*
X126518732Y-64961136D01*
X126517654Y-65070872D01*
X126517471Y-65141475D01*
X126517400Y-65519300D01*
X126720600Y-65519300D01*
X126720600Y-65440842D01*
X126759095Y-65473232D01*
X126798391Y-65499018D01*
X126841812Y-65517864D01*
X126844820Y-65518741D01*
X126907355Y-65528965D01*
X126981412Y-65530576D01*
X127055125Y-65523985D01*
X127116629Y-65509606D01*
X127117640Y-65509246D01*
X127198353Y-65468402D01*
X127260753Y-65411951D01*
X127303281Y-65342875D01*
X127324378Y-65264150D01*
X127323349Y-65217675D01*
X127126597Y-65217675D01*
X127116286Y-65267479D01*
X127086856Y-65304107D01*
X127047949Y-65321632D01*
X127012526Y-65329525D01*
X126993650Y-65333956D01*
X126956594Y-65337704D01*
X126907181Y-65336187D01*
X126854643Y-65330444D01*
X126808212Y-65321514D01*
X126777120Y-65310437D01*
X126775434Y-65309400D01*
X126744393Y-65278366D01*
X126726639Y-65232566D01*
X126720622Y-65167863D01*
X126720600Y-65162873D01*
X126720600Y-65100200D01*
X126880185Y-65100200D01*
X126966502Y-65101967D01*
X127030646Y-65108238D01*
X127075658Y-65120462D01*
X127104584Y-65140090D01*
X127120464Y-65168573D01*
X127126341Y-65207361D01*
X127126597Y-65217675D01*
X127323349Y-65217675D01*
X127322486Y-65178758D01*
X127312901Y-65136092D01*
X127278276Y-65060784D01*
X127222887Y-64999434D01*
X127152400Y-64955577D01*
X127125027Y-64944699D01*
X127094132Y-64936872D01*
X127054555Y-64931442D01*
X127001137Y-64927756D01*
X126928720Y-64925162D01*
X126907925Y-64924629D01*
X126720600Y-64920070D01*
X126720600Y-64846442D01*
X126724283Y-64792003D01*
X126736118Y-64756719D01*
X126742825Y-64747436D01*
X126782023Y-64719493D01*
X126837211Y-64701580D01*
X126901396Y-64693671D01*
X126967584Y-64695742D01*
X127028782Y-64707768D01*
X127077996Y-64729725D01*
X127099750Y-64748705D01*
X127110476Y-64757903D01*
X127124106Y-64757623D01*
X127145781Y-64745808D01*
X127180644Y-64720396D01*
X127191825Y-64711830D01*
X127227990Y-64682690D01*
X127254562Y-64658779D01*
X127266487Y-64644692D01*
X127266700Y-64643735D01*
X127256275Y-64624164D01*
X127229133Y-64598131D01*
X127191476Y-64570129D01*
X127149505Y-64544646D01*
X127109421Y-64526173D01*
X127100052Y-64523066D01*
X127032029Y-64509786D01*
X126949803Y-64504116D01*
X126863389Y-64506008D01*
G36*
X128879600Y-65519300D02*
G01*
X129082800Y-65519300D01*
X129082800Y-65474850D01*
X129086169Y-65441539D01*
X129097340Y-65432161D01*
X129117914Y-65446015D01*
X129127010Y-65455533D01*
X129160277Y-65480001D01*
X129210028Y-65502609D01*
X129267372Y-65520306D01*
X129323421Y-65530041D01*
X129346802Y-65530997D01*
X129397233Y-65526043D01*
X129447922Y-65514991D01*
X129458907Y-65511462D01*
X129526228Y-65476173D01*
X129587892Y-65423090D01*
X129635628Y-65359680D01*
X129643659Y-65344641D01*
X129653703Y-65322977D01*
X129661187Y-65301781D01*
X129666486Y-65277005D01*
X129669976Y-65244599D01*
X129672030Y-65200513D01*
X129673025Y-65140699D01*
X129673265Y-65078713D01*
X129474629Y-65078713D01*
X129465391Y-65164169D01*
X129445692Y-65229449D01*
X129414954Y-65276283D01*
X129372596Y-65306402D01*
X129360063Y-65311545D01*
X129293478Y-65326480D01*
X129230955Y-65319133D01*
X129189591Y-65302838D01*
X129153029Y-65281476D01*
X129126302Y-65255305D01*
X129107982Y-65220263D01*
X129096637Y-65172292D01*
X129090839Y-65107330D01*
X129089156Y-65021316D01*
X129089154Y-65017650D01*
X129089680Y-64946569D01*
X129091709Y-64895341D01*
X129095916Y-64858429D01*
X129102973Y-64830300D01*
X129113554Y-64805418D01*
X129115422Y-64801750D01*
X129153261Y-64753155D01*
X129204026Y-64721533D01*
X129262121Y-64706949D01*
X129321949Y-64709464D01*
X129377911Y-64729143D01*
X129424411Y-64766048D01*
X129446246Y-64798013D01*
X129459619Y-64837810D01*
X129468928Y-64898954D01*
X129473986Y-64971352D01*
X129474629Y-65078713D01*
X129673265Y-65078713D01*
X129673334Y-65061107D01*
X129673350Y-65024000D01*
X129672744Y-64920146D01*
X129670305Y-64837917D01*
X129665105Y-64773550D01*
X129656214Y-64723286D01*
X129642703Y-64683364D01*
X129623644Y-64650024D01*
X129598107Y-64619506D01*
X129565779Y-64588601D01*
X129501700Y-64541257D01*
X129433899Y-64513947D01*
X129354308Y-64503690D01*
X129335327Y-64503424D01*
X129279550Y-64509805D01*
X129220535Y-64526526D01*
X129167163Y-64550230D01*
X129128318Y-64577561D01*
X129122520Y-64583828D01*
X129103913Y-64600878D01*
X129094214Y-64604900D01*
X129090723Y-64592837D01*
X129087346Y-64559201D01*
X129084303Y-64507817D01*
X129081810Y-64442511D01*
X129080088Y-64367108D01*
X129079894Y-64354075D01*
X129076450Y-64103250D01*
X128978025Y-64099540D01*
X128879600Y-64095831D01*
X128879600Y-65519300D01*
G37*
X128879600Y-65519300D02*
X129082800Y-65519300D01*
X129082800Y-65474850D01*
X129086169Y-65441539D01*
X129097340Y-65432161D01*
X129117914Y-65446015D01*
X129127010Y-65455533D01*
X129160277Y-65480001D01*
X129210028Y-65502609D01*
X129267372Y-65520306D01*
X129323421Y-65530041D01*
X129346802Y-65530997D01*
X129397233Y-65526043D01*
X129447922Y-65514991D01*
X129458907Y-65511462D01*
X129526228Y-65476173D01*
X129587892Y-65423090D01*
X129635628Y-65359680D01*
X129643659Y-65344641D01*
X129653703Y-65322977D01*
X129661187Y-65301781D01*
X129666486Y-65277005D01*
X129669976Y-65244599D01*
X129672030Y-65200513D01*
X129673025Y-65140699D01*
X129673265Y-65078713D01*
X129474629Y-65078713D01*
X129465391Y-65164169D01*
X129445692Y-65229449D01*
X129414954Y-65276283D01*
X129372596Y-65306402D01*
X129360063Y-65311545D01*
X129293478Y-65326480D01*
X129230955Y-65319133D01*
X129189591Y-65302838D01*
X129153029Y-65281476D01*
X129126302Y-65255305D01*
X129107982Y-65220263D01*
X129096637Y-65172292D01*
X129090839Y-65107330D01*
X129089156Y-65021316D01*
X129089154Y-65017650D01*
X129089680Y-64946569D01*
X129091709Y-64895341D01*
X129095916Y-64858429D01*
X129102973Y-64830300D01*
X129113554Y-64805418D01*
X129115422Y-64801750D01*
X129153261Y-64753155D01*
X129204026Y-64721533D01*
X129262121Y-64706949D01*
X129321949Y-64709464D01*
X129377911Y-64729143D01*
X129424411Y-64766048D01*
X129446246Y-64798013D01*
X129459619Y-64837810D01*
X129468928Y-64898954D01*
X129473986Y-64971352D01*
X129474629Y-65078713D01*
X129673265Y-65078713D01*
X129673334Y-65061107D01*
X129673350Y-65024000D01*
X129672744Y-64920146D01*
X129670305Y-64837917D01*
X129665105Y-64773550D01*
X129656214Y-64723286D01*
X129642703Y-64683364D01*
X129623644Y-64650024D01*
X129598107Y-64619506D01*
X129565779Y-64588601D01*
X129501700Y-64541257D01*
X129433899Y-64513947D01*
X129354308Y-64503690D01*
X129335327Y-64503424D01*
X129279550Y-64509805D01*
X129220535Y-64526526D01*
X129167163Y-64550230D01*
X129128318Y-64577561D01*
X129122520Y-64583828D01*
X129103913Y-64600878D01*
X129094214Y-64604900D01*
X129090723Y-64592837D01*
X129087346Y-64559201D01*
X129084303Y-64507817D01*
X129081810Y-64442511D01*
X129080088Y-64367108D01*
X129079894Y-64354075D01*
X129076450Y-64103250D01*
X128978025Y-64099540D01*
X128879600Y-64095831D01*
X128879600Y-65519300D01*
G36*
X130961841Y-64505816D02*
G01*
X130895748Y-64509451D01*
X130847365Y-64514972D01*
X130809005Y-64523884D01*
X130772980Y-64537694D01*
X130754386Y-64546442D01*
X130684059Y-64591715D01*
X130633597Y-64650461D01*
X130606283Y-64706500D01*
X130600788Y-64729955D01*
X130596156Y-64769839D01*
X130592296Y-64827931D01*
X130589119Y-64906009D01*
X130586531Y-65005851D01*
X130584444Y-65129235D01*
X130584364Y-65135125D01*
X130579170Y-65519300D01*
X130797300Y-65519300D01*
X130797300Y-65440842D01*
X130835795Y-65473232D01*
X130875091Y-65499018D01*
X130918512Y-65517864D01*
X130921520Y-65518741D01*
X130980898Y-65528465D01*
X131052037Y-65530368D01*
X131122611Y-65524696D01*
X131174183Y-65513718D01*
X131256187Y-65477090D01*
X131322554Y-65424710D01*
X131369973Y-65359610D01*
X131386947Y-65318946D01*
X131397920Y-65248711D01*
X131395525Y-65221147D01*
X131203027Y-65221147D01*
X131189012Y-65264080D01*
X131157770Y-65300602D01*
X131111402Y-65325388D01*
X131095030Y-65329704D01*
X131055917Y-65334129D01*
X131003868Y-65335312D01*
X130947927Y-65333586D01*
X130897136Y-65329280D01*
X130860541Y-65322725D01*
X130855047Y-65320921D01*
X130828402Y-65298019D01*
X130808880Y-65255469D01*
X130798475Y-65198503D01*
X130797300Y-65169696D01*
X130797300Y-65098232D01*
X130967767Y-65102391D01*
X131037176Y-65104360D01*
X131086022Y-65106857D01*
X131119138Y-65110712D01*
X131141359Y-65116757D01*
X131157518Y-65125823D01*
X131170967Y-65137338D01*
X131197712Y-65177125D01*
X131203027Y-65221147D01*
X131395525Y-65221147D01*
X131391293Y-65172444D01*
X131369122Y-65098441D01*
X131333461Y-65034996D01*
X131310127Y-65008798D01*
X131276049Y-64980492D01*
X131239838Y-64959521D01*
X131196804Y-64944677D01*
X131142258Y-64934754D01*
X131071510Y-64928542D01*
X130984625Y-64924967D01*
X130797300Y-64919631D01*
X130797300Y-64850330D01*
X130799765Y-64806224D01*
X130806066Y-64769355D01*
X130811023Y-64755389D01*
X130839367Y-64726985D01*
X130886935Y-64706214D01*
X130948177Y-64695106D01*
X130979455Y-64693800D01*
X131050348Y-64696766D01*
X131102284Y-64706656D01*
X131141120Y-64724957D01*
X131159418Y-64739517D01*
X131191697Y-64769432D01*
X131267549Y-64710528D01*
X131303898Y-64681110D01*
X131330743Y-64657114D01*
X131343099Y-64643048D01*
X131343400Y-64641951D01*
X131334501Y-64629014D01*
X131311563Y-64605867D01*
X131289766Y-64586370D01*
X131236237Y-64548606D01*
X131175972Y-64523194D01*
X131104036Y-64508922D01*
X131015497Y-64504578D01*
X130961841Y-64505816D01*
G37*
X130961841Y-64505816D02*
X130895748Y-64509451D01*
X130847365Y-64514972D01*
X130809005Y-64523884D01*
X130772980Y-64537694D01*
X130754386Y-64546442D01*
X130684059Y-64591715D01*
X130633597Y-64650461D01*
X130606283Y-64706500D01*
X130600788Y-64729955D01*
X130596156Y-64769839D01*
X130592296Y-64827931D01*
X130589119Y-64906009D01*
X130586531Y-65005851D01*
X130584444Y-65129235D01*
X130584364Y-65135125D01*
X130579170Y-65519300D01*
X130797300Y-65519300D01*
X130797300Y-65440842D01*
X130835795Y-65473232D01*
X130875091Y-65499018D01*
X130918512Y-65517864D01*
X130921520Y-65518741D01*
X130980898Y-65528465D01*
X131052037Y-65530368D01*
X131122611Y-65524696D01*
X131174183Y-65513718D01*
X131256187Y-65477090D01*
X131322554Y-65424710D01*
X131369973Y-65359610D01*
X131386947Y-65318946D01*
X131397920Y-65248711D01*
X131395525Y-65221147D01*
X131203027Y-65221147D01*
X131189012Y-65264080D01*
X131157770Y-65300602D01*
X131111402Y-65325388D01*
X131095030Y-65329704D01*
X131055917Y-65334129D01*
X131003868Y-65335312D01*
X130947927Y-65333586D01*
X130897136Y-65329280D01*
X130860541Y-65322725D01*
X130855047Y-65320921D01*
X130828402Y-65298019D01*
X130808880Y-65255469D01*
X130798475Y-65198503D01*
X130797300Y-65169696D01*
X130797300Y-65098232D01*
X130967767Y-65102391D01*
X131037176Y-65104360D01*
X131086022Y-65106857D01*
X131119138Y-65110712D01*
X131141359Y-65116757D01*
X131157518Y-65125823D01*
X131170967Y-65137338D01*
X131197712Y-65177125D01*
X131203027Y-65221147D01*
X131395525Y-65221147D01*
X131391293Y-65172444D01*
X131369122Y-65098441D01*
X131333461Y-65034996D01*
X131310127Y-65008798D01*
X131276049Y-64980492D01*
X131239838Y-64959521D01*
X131196804Y-64944677D01*
X131142258Y-64934754D01*
X131071510Y-64928542D01*
X130984625Y-64924967D01*
X130797300Y-64919631D01*
X130797300Y-64850330D01*
X130799765Y-64806224D01*
X130806066Y-64769355D01*
X130811023Y-64755389D01*
X130839367Y-64726985D01*
X130886935Y-64706214D01*
X130948177Y-64695106D01*
X130979455Y-64693800D01*
X131050348Y-64696766D01*
X131102284Y-64706656D01*
X131141120Y-64724957D01*
X131159418Y-64739517D01*
X131191697Y-64769432D01*
X131267549Y-64710528D01*
X131303898Y-64681110D01*
X131330743Y-64657114D01*
X131343099Y-64643048D01*
X131343400Y-64641951D01*
X131334501Y-64629014D01*
X131311563Y-64605867D01*
X131289766Y-64586370D01*
X131236237Y-64548606D01*
X131175972Y-64523194D01*
X131104036Y-64508922D01*
X131015497Y-64504578D01*
X130961841Y-64505816D01*
%TO.C,J1*%
D10*
X114625428Y-51562047D02*
X114625428Y-52323952D01*
X115006380Y-51943000D02*
X114244476Y-51943000D01*
%TD*%
M02*
