%TF.GenerationSoftware,KiCad,Pcbnew,(5.1.9)-1*%
%TF.CreationDate,2021-09-02T19:00:15+01:00*%
%TF.ProjectId,InlinePowerpoleBOB,496e6c69-6e65-4506-9f77-6572706f6c65,rev?*%
%TF.SameCoordinates,Original*%
%TF.FileFunction,Copper,L1,Top*%
%TF.FilePolarity,Positive*%
%FSLAX46Y46*%
G04 Gerber Fmt 4.6, Leading zero omitted, Abs format (unit mm)*
G04 Created by KiCad (PCBNEW (5.1.9)-1) date 2021-09-02 19:00:15*
%MOMM*%
%LPD*%
G01*
G04 APERTURE LIST*
%TA.AperFunction,ComponentPad*%
%ADD10O,6.000000X5.500000*%
%TD*%
%TA.AperFunction,SMDPad,CuDef*%
%ADD11R,1.425000X0.300000*%
%TD*%
%TA.AperFunction,SMDPad,CuDef*%
%ADD12R,1.800000X3.150000*%
%TD*%
%TA.AperFunction,SMDPad,CuDef*%
%ADD13R,3.810000X3.910000*%
%TD*%
%TA.AperFunction,SMDPad,CuDef*%
%ADD14R,0.710000X0.610000*%
%TD*%
%TA.AperFunction,SMDPad,CuDef*%
%ADD15R,1.270000X0.610000*%
%TD*%
%TA.AperFunction,ViaPad*%
%ADD16C,0.500000*%
%TD*%
%TA.AperFunction,ViaPad*%
%ADD17C,0.800000*%
%TD*%
%TA.AperFunction,Conductor*%
%ADD18C,0.250000*%
%TD*%
%TA.AperFunction,Conductor*%
%ADD19C,0.254000*%
%TD*%
%TA.AperFunction,Conductor*%
%ADD20C,0.100000*%
%TD*%
G04 APERTURE END LIST*
D10*
%TO.P,J2,2*%
%TO.N,GND*%
X167640000Y-63145000D03*
%TO.P,J2,1*%
%TO.N,Net-(C3-Pad1)*%
X167640000Y-55245000D03*
%TD*%
%TO.P,J1,2*%
%TO.N,GND*%
X117094000Y-63145000D03*
%TO.P,J1,1*%
%TO.N,Net-(C2-Pad1)*%
X117094000Y-55245000D03*
%TD*%
D11*
%TO.P,IC1,10*%
%TO.N,Net-(IC1-Pad10)*%
X141912000Y-70120000D03*
%TO.P,IC1,9*%
%TO.N,Net-(IC1-Pad9)*%
X141912000Y-70620000D03*
%TO.P,IC1,8*%
%TO.N,Net-(C3-Pad1)*%
X141912000Y-71120000D03*
%TO.P,IC1,7*%
%TO.N,Net-(IC1-Pad7)*%
X141912000Y-71620000D03*
%TO.P,IC1,6*%
%TO.N,Net-(IC1-Pad6)*%
X141912000Y-72120000D03*
%TO.P,IC1,5*%
%TO.N,GND*%
X137488000Y-72120000D03*
%TO.P,IC1,4*%
%TO.N,Net-(C1-Pad1)*%
X137488000Y-71620000D03*
%TO.P,IC1,3*%
%TO.N,Net-(IC1-Pad3)*%
X137488000Y-71120000D03*
%TO.P,IC1,2*%
%TO.N,Net-(IC1-Pad2)*%
X137488000Y-70620000D03*
%TO.P,IC1,1*%
%TO.N,Net-(C2-Pad1)*%
X137488000Y-70120000D03*
%TD*%
D12*
%TO.P,C5,2*%
%TO.N,GND*%
X154940000Y-74940000D03*
%TO.P,C5,1*%
%TO.N,Net-(C3-Pad1)*%
X154940000Y-69840000D03*
%TD*%
D13*
%TO.P,Q2,3*%
%TO.N,Net-(IC1-Pad9)*%
X142930000Y-53975000D03*
D14*
X145190000Y-52070000D03*
X145190000Y-53340000D03*
X145190000Y-54610000D03*
X145190000Y-55880000D03*
D15*
%TO.P,Q2,2*%
%TO.N,Net-(IC1-Pad10)*%
X139570000Y-55880000D03*
%TO.P,Q2,1*%
%TO.N,Net-(Q1-Pad1)*%
X139570000Y-54610000D03*
X139570000Y-53340000D03*
X139570000Y-52070000D03*
%TD*%
D13*
%TO.P,Q1,3*%
%TO.N,Net-(C2-Pad1)*%
X132660000Y-52705000D03*
D14*
X130400000Y-54610000D03*
X130400000Y-53340000D03*
X130400000Y-52070000D03*
X130400000Y-50800000D03*
D15*
%TO.P,Q1,2*%
%TO.N,Net-(IC1-Pad10)*%
X136020000Y-50800000D03*
%TO.P,Q1,1*%
%TO.N,Net-(Q1-Pad1)*%
X136020000Y-52070000D03*
X136020000Y-53340000D03*
X136020000Y-54610000D03*
%TD*%
%TO.P,R7,2*%
%TO.N,Net-(IC1-Pad9)*%
%TA.AperFunction,SMDPad,CuDef*%
G36*
G01*
X155765000Y-52550600D02*
X155765000Y-55399400D01*
G75*
G02*
X155514400Y-55650000I-250600J0D01*
G01*
X154615600Y-55650000D01*
G75*
G02*
X154365000Y-55399400I0J250600D01*
G01*
X154365000Y-52550600D01*
G75*
G02*
X154615600Y-52300000I250600J0D01*
G01*
X155514400Y-52300000D01*
G75*
G02*
X155765000Y-52550600I0J-250600D01*
G01*
G37*
%TD.AperFunction*%
%TO.P,R7,1*%
%TO.N,Net-(C3-Pad1)*%
%TA.AperFunction,SMDPad,CuDef*%
G36*
G01*
X161865000Y-52550600D02*
X161865000Y-55399400D01*
G75*
G02*
X161614400Y-55650000I-250600J0D01*
G01*
X160715600Y-55650000D01*
G75*
G02*
X160465000Y-55399400I0J250600D01*
G01*
X160465000Y-52550600D01*
G75*
G02*
X160715600Y-52300000I250600J0D01*
G01*
X161614400Y-52300000D01*
G75*
G02*
X161865000Y-52550600I0J-250600D01*
G01*
G37*
%TD.AperFunction*%
%TD*%
%TO.P,R6,2*%
%TO.N,Net-(C4-Pad1)*%
%TA.AperFunction,SMDPad,CuDef*%
G36*
G01*
X144964999Y-71250000D02*
X145865001Y-71250000D01*
G75*
G02*
X146115000Y-71499999I0J-249999D01*
G01*
X146115000Y-72200001D01*
G75*
G02*
X145865001Y-72450000I-249999J0D01*
G01*
X144964999Y-72450000D01*
G75*
G02*
X144715000Y-72200001I0J249999D01*
G01*
X144715000Y-71499999D01*
G75*
G02*
X144964999Y-71250000I249999J0D01*
G01*
G37*
%TD.AperFunction*%
%TO.P,R6,1*%
%TO.N,Net-(IC1-Pad10)*%
%TA.AperFunction,SMDPad,CuDef*%
G36*
G01*
X144964999Y-69250000D02*
X145865001Y-69250000D01*
G75*
G02*
X146115000Y-69499999I0J-249999D01*
G01*
X146115000Y-70200001D01*
G75*
G02*
X145865001Y-70450000I-249999J0D01*
G01*
X144964999Y-70450000D01*
G75*
G02*
X144715000Y-70200001I0J249999D01*
G01*
X144715000Y-69499999D01*
G75*
G02*
X144964999Y-69250000I249999J0D01*
G01*
G37*
%TD.AperFunction*%
%TD*%
%TO.P,R5,2*%
%TO.N,Net-(IC1-Pad2)*%
%TA.AperFunction,SMDPad,CuDef*%
G36*
G01*
X127184999Y-67710000D02*
X128085001Y-67710000D01*
G75*
G02*
X128335000Y-67959999I0J-249999D01*
G01*
X128335000Y-68660001D01*
G75*
G02*
X128085001Y-68910000I-249999J0D01*
G01*
X127184999Y-68910000D01*
G75*
G02*
X126935000Y-68660001I0J249999D01*
G01*
X126935000Y-67959999D01*
G75*
G02*
X127184999Y-67710000I249999J0D01*
G01*
G37*
%TD.AperFunction*%
%TO.P,R5,1*%
%TO.N,Net-(C2-Pad1)*%
%TA.AperFunction,SMDPad,CuDef*%
G36*
G01*
X127184999Y-65710000D02*
X128085001Y-65710000D01*
G75*
G02*
X128335000Y-65959999I0J-249999D01*
G01*
X128335000Y-66660001D01*
G75*
G02*
X128085001Y-66910000I-249999J0D01*
G01*
X127184999Y-66910000D01*
G75*
G02*
X126935000Y-66660001I0J249999D01*
G01*
X126935000Y-65959999D01*
G75*
G02*
X127184999Y-65710000I249999J0D01*
G01*
G37*
%TD.AperFunction*%
%TD*%
%TO.P,R4,2*%
%TO.N,GND*%
%TA.AperFunction,SMDPad,CuDef*%
G36*
G01*
X127184999Y-72520000D02*
X128085001Y-72520000D01*
G75*
G02*
X128335000Y-72769999I0J-249999D01*
G01*
X128335000Y-73470001D01*
G75*
G02*
X128085001Y-73720000I-249999J0D01*
G01*
X127184999Y-73720000D01*
G75*
G02*
X126935000Y-73470001I0J249999D01*
G01*
X126935000Y-72769999D01*
G75*
G02*
X127184999Y-72520000I249999J0D01*
G01*
G37*
%TD.AperFunction*%
%TO.P,R4,1*%
%TO.N,Net-(IC1-Pad2)*%
%TA.AperFunction,SMDPad,CuDef*%
G36*
G01*
X127184999Y-70520000D02*
X128085001Y-70520000D01*
G75*
G02*
X128335000Y-70769999I0J-249999D01*
G01*
X128335000Y-71470001D01*
G75*
G02*
X128085001Y-71720000I-249999J0D01*
G01*
X127184999Y-71720000D01*
G75*
G02*
X126935000Y-71470001I0J249999D01*
G01*
X126935000Y-70769999D01*
G75*
G02*
X127184999Y-70520000I249999J0D01*
G01*
G37*
%TD.AperFunction*%
%TD*%
%TO.P,R3,2*%
%TO.N,Net-(IC1-Pad3)*%
%TA.AperFunction,SMDPad,CuDef*%
G36*
G01*
X130994999Y-67710000D02*
X131895001Y-67710000D01*
G75*
G02*
X132145000Y-67959999I0J-249999D01*
G01*
X132145000Y-68660001D01*
G75*
G02*
X131895001Y-68910000I-249999J0D01*
G01*
X130994999Y-68910000D01*
G75*
G02*
X130745000Y-68660001I0J249999D01*
G01*
X130745000Y-67959999D01*
G75*
G02*
X130994999Y-67710000I249999J0D01*
G01*
G37*
%TD.AperFunction*%
%TO.P,R3,1*%
%TO.N,Net-(C2-Pad1)*%
%TA.AperFunction,SMDPad,CuDef*%
G36*
G01*
X130994999Y-65710000D02*
X131895001Y-65710000D01*
G75*
G02*
X132145000Y-65959999I0J-249999D01*
G01*
X132145000Y-66660001D01*
G75*
G02*
X131895001Y-66910000I-249999J0D01*
G01*
X130994999Y-66910000D01*
G75*
G02*
X130745000Y-66660001I0J249999D01*
G01*
X130745000Y-65959999D01*
G75*
G02*
X130994999Y-65710000I249999J0D01*
G01*
G37*
%TD.AperFunction*%
%TD*%
%TO.P,R2,2*%
%TO.N,GND*%
%TA.AperFunction,SMDPad,CuDef*%
G36*
G01*
X130994999Y-72520000D02*
X131895001Y-72520000D01*
G75*
G02*
X132145000Y-72769999I0J-249999D01*
G01*
X132145000Y-73470001D01*
G75*
G02*
X131895001Y-73720000I-249999J0D01*
G01*
X130994999Y-73720000D01*
G75*
G02*
X130745000Y-73470001I0J249999D01*
G01*
X130745000Y-72769999D01*
G75*
G02*
X130994999Y-72520000I249999J0D01*
G01*
G37*
%TD.AperFunction*%
%TO.P,R2,1*%
%TO.N,Net-(IC1-Pad3)*%
%TA.AperFunction,SMDPad,CuDef*%
G36*
G01*
X130994999Y-70520000D02*
X131895001Y-70520000D01*
G75*
G02*
X132145000Y-70769999I0J-249999D01*
G01*
X132145000Y-71470001D01*
G75*
G02*
X131895001Y-71720000I-249999J0D01*
G01*
X130994999Y-71720000D01*
G75*
G02*
X130745000Y-71470001I0J249999D01*
G01*
X130745000Y-70769999D01*
G75*
G02*
X130994999Y-70520000I249999J0D01*
G01*
G37*
%TD.AperFunction*%
%TD*%
%TO.P,R1,2*%
%TO.N,Net-(IC1-Pad6)*%
%TA.AperFunction,SMDPad,CuDef*%
G36*
G01*
X136074999Y-67710000D02*
X136975001Y-67710000D01*
G75*
G02*
X137225000Y-67959999I0J-249999D01*
G01*
X137225000Y-68660001D01*
G75*
G02*
X136975001Y-68910000I-249999J0D01*
G01*
X136074999Y-68910000D01*
G75*
G02*
X135825000Y-68660001I0J249999D01*
G01*
X135825000Y-67959999D01*
G75*
G02*
X136074999Y-67710000I249999J0D01*
G01*
G37*
%TD.AperFunction*%
%TO.P,R1,1*%
%TO.N,Net-(C2-Pad1)*%
%TA.AperFunction,SMDPad,CuDef*%
G36*
G01*
X136074999Y-65710000D02*
X136975001Y-65710000D01*
G75*
G02*
X137225000Y-65959999I0J-249999D01*
G01*
X137225000Y-66660001D01*
G75*
G02*
X136975001Y-66910000I-249999J0D01*
G01*
X136074999Y-66910000D01*
G75*
G02*
X135825000Y-66660001I0J249999D01*
G01*
X135825000Y-65959999D01*
G75*
G02*
X136074999Y-65710000I249999J0D01*
G01*
G37*
%TD.AperFunction*%
%TD*%
%TO.P,C4,2*%
%TO.N,GND*%
%TA.AperFunction,SMDPad,CuDef*%
G36*
G01*
X144940000Y-75380000D02*
X145890000Y-75380000D01*
G75*
G02*
X146140000Y-75630000I0J-250000D01*
G01*
X146140000Y-76305000D01*
G75*
G02*
X145890000Y-76555000I-250000J0D01*
G01*
X144940000Y-76555000D01*
G75*
G02*
X144690000Y-76305000I0J250000D01*
G01*
X144690000Y-75630000D01*
G75*
G02*
X144940000Y-75380000I250000J0D01*
G01*
G37*
%TD.AperFunction*%
%TO.P,C4,1*%
%TO.N,Net-(C4-Pad1)*%
%TA.AperFunction,SMDPad,CuDef*%
G36*
G01*
X144940000Y-73305000D02*
X145890000Y-73305000D01*
G75*
G02*
X146140000Y-73555000I0J-250000D01*
G01*
X146140000Y-74230000D01*
G75*
G02*
X145890000Y-74480000I-250000J0D01*
G01*
X144940000Y-74480000D01*
G75*
G02*
X144690000Y-74230000I0J250000D01*
G01*
X144690000Y-73555000D01*
G75*
G02*
X144940000Y-73305000I250000J0D01*
G01*
G37*
%TD.AperFunction*%
%TD*%
%TO.P,C3,2*%
%TO.N,GND*%
%TA.AperFunction,SMDPad,CuDef*%
G36*
G01*
X161274998Y-70115000D02*
X162575002Y-70115000D01*
G75*
G02*
X162825000Y-70364998I0J-249998D01*
G01*
X162825000Y-71190002D01*
G75*
G02*
X162575002Y-71440000I-249998J0D01*
G01*
X161274998Y-71440000D01*
G75*
G02*
X161025000Y-71190002I0J249998D01*
G01*
X161025000Y-70364998D01*
G75*
G02*
X161274998Y-70115000I249998J0D01*
G01*
G37*
%TD.AperFunction*%
%TO.P,C3,1*%
%TO.N,Net-(C3-Pad1)*%
%TA.AperFunction,SMDPad,CuDef*%
G36*
G01*
X161274998Y-66990000D02*
X162575002Y-66990000D01*
G75*
G02*
X162825000Y-67239998I0J-249998D01*
G01*
X162825000Y-68065002D01*
G75*
G02*
X162575002Y-68315000I-249998J0D01*
G01*
X161274998Y-68315000D01*
G75*
G02*
X161025000Y-68065002I0J249998D01*
G01*
X161025000Y-67239998D01*
G75*
G02*
X161274998Y-66990000I249998J0D01*
G01*
G37*
%TD.AperFunction*%
%TD*%
%TO.P,C2,2*%
%TO.N,GND*%
%TA.AperFunction,SMDPad,CuDef*%
G36*
G01*
X123174998Y-69772500D02*
X124475002Y-69772500D01*
G75*
G02*
X124725000Y-70022498I0J-249998D01*
G01*
X124725000Y-70847502D01*
G75*
G02*
X124475002Y-71097500I-249998J0D01*
G01*
X123174998Y-71097500D01*
G75*
G02*
X122925000Y-70847502I0J249998D01*
G01*
X122925000Y-70022498D01*
G75*
G02*
X123174998Y-69772500I249998J0D01*
G01*
G37*
%TD.AperFunction*%
%TO.P,C2,1*%
%TO.N,Net-(C2-Pad1)*%
%TA.AperFunction,SMDPad,CuDef*%
G36*
G01*
X123174998Y-66647500D02*
X124475002Y-66647500D01*
G75*
G02*
X124725000Y-66897498I0J-249998D01*
G01*
X124725000Y-67722502D01*
G75*
G02*
X124475002Y-67972500I-249998J0D01*
G01*
X123174998Y-67972500D01*
G75*
G02*
X122925000Y-67722502I0J249998D01*
G01*
X122925000Y-66897498D01*
G75*
G02*
X123174998Y-66647500I249998J0D01*
G01*
G37*
%TD.AperFunction*%
%TD*%
%TO.P,C1,2*%
%TO.N,GND*%
%TA.AperFunction,SMDPad,CuDef*%
G36*
G01*
X134145000Y-73877500D02*
X135095000Y-73877500D01*
G75*
G02*
X135345000Y-74127500I0J-250000D01*
G01*
X135345000Y-74802500D01*
G75*
G02*
X135095000Y-75052500I-250000J0D01*
G01*
X134145000Y-75052500D01*
G75*
G02*
X133895000Y-74802500I0J250000D01*
G01*
X133895000Y-74127500D01*
G75*
G02*
X134145000Y-73877500I250000J0D01*
G01*
G37*
%TD.AperFunction*%
%TO.P,C1,1*%
%TO.N,Net-(C1-Pad1)*%
%TA.AperFunction,SMDPad,CuDef*%
G36*
G01*
X134145000Y-71802500D02*
X135095000Y-71802500D01*
G75*
G02*
X135345000Y-72052500I0J-250000D01*
G01*
X135345000Y-72727500D01*
G75*
G02*
X135095000Y-72977500I-250000J0D01*
G01*
X134145000Y-72977500D01*
G75*
G02*
X133895000Y-72727500I0J250000D01*
G01*
X133895000Y-72052500D01*
G75*
G02*
X134145000Y-71802500I250000J0D01*
G01*
G37*
%TD.AperFunction*%
%TD*%
D16*
%TO.N,GND*%
X131445000Y-74295000D03*
X127635000Y-74295000D03*
X134620000Y-75565000D03*
X136144000Y-73660000D03*
X143510000Y-76200000D03*
X147320000Y-76200000D03*
X123825000Y-71755000D03*
X153035000Y-74930000D03*
X156845000Y-74930000D03*
X161925000Y-72390000D03*
X129540000Y-69215000D03*
X139700000Y-73025000D03*
X149860000Y-71755000D03*
%TO.N,Net-(C2-Pad1)*%
X121920000Y-47625000D03*
X124460000Y-47625000D03*
X127000000Y-47625000D03*
X129540000Y-47625000D03*
X132080000Y-47625000D03*
X121920000Y-50165000D03*
X124460000Y-50165000D03*
X127000000Y-50165000D03*
X121920000Y-52705000D03*
X124460000Y-52705000D03*
X127000000Y-52705000D03*
X132080000Y-52705000D03*
X121920000Y-55245000D03*
X124460000Y-55245000D03*
X127000000Y-55245000D03*
X121920000Y-57785000D03*
X124460000Y-57785000D03*
X127000000Y-57785000D03*
X129540000Y-57785000D03*
X132080000Y-57785000D03*
X132080000Y-51435000D03*
X132080000Y-53975000D03*
X133350000Y-51435000D03*
X133350000Y-52705000D03*
X133350000Y-53975000D03*
%TO.N,Net-(C3-Pad1)*%
X161290000Y-50800000D03*
X161290000Y-57150000D03*
X163830000Y-50800000D03*
X163830000Y-57150000D03*
X160020000Y-50800000D03*
X160020000Y-57150000D03*
X160020000Y-53975000D03*
X163830000Y-53975000D03*
D17*
%TO.N,Net-(IC1-Pad10)*%
X137795000Y-48260000D03*
X137795000Y-58420000D03*
D16*
%TO.N,Net-(IC1-Pad9)*%
X143510000Y-48895000D03*
X146050000Y-48895000D03*
X148590000Y-48895000D03*
X151130000Y-48895000D03*
X153670000Y-48895000D03*
X148590000Y-51435000D03*
X151130000Y-51435000D03*
X153670000Y-51435000D03*
X148590000Y-53975000D03*
X151130000Y-53975000D03*
X148590000Y-56515000D03*
X151130000Y-56515000D03*
X153670000Y-56515000D03*
X143510000Y-59055000D03*
X146050000Y-59055000D03*
X148590000Y-59055000D03*
X151130000Y-59055000D03*
X153670000Y-59055000D03*
X156845000Y-52070000D03*
X158115000Y-52070000D03*
X156845000Y-53975000D03*
X158115000Y-53975000D03*
X156845000Y-55880000D03*
X158115000Y-55880000D03*
X143510000Y-53975000D03*
X143510000Y-52705000D03*
X143510000Y-55245000D03*
X142240000Y-55245000D03*
X142240000Y-53975000D03*
X142240000Y-52705000D03*
%TD*%
D18*
%TO.N,GND*%
X137488000Y-72120000D02*
X136540498Y-72120000D01*
X136144000Y-72516498D02*
X136144000Y-73660000D01*
X136540498Y-72120000D02*
X136144000Y-72516498D01*
%TO.N,Net-(C1-Pad1)*%
X135390000Y-71620000D02*
X134620000Y-72390000D01*
X137488000Y-71620000D02*
X135390000Y-71620000D01*
%TO.N,Net-(C2-Pad1)*%
X131694600Y-66310000D02*
X131445000Y-66310000D01*
X133715000Y-68330400D02*
X133715000Y-66310000D01*
X137488000Y-70120000D02*
X135504600Y-70120000D01*
X135504600Y-70120000D02*
X133715000Y-68330400D01*
X133715000Y-66310000D02*
X136525000Y-66310000D01*
X131445000Y-66310000D02*
X133715000Y-66310000D01*
%TO.N,Net-(C3-Pad1)*%
X159737500Y-69840000D02*
X161925000Y-67652500D01*
X154940000Y-69840000D02*
X159737500Y-69840000D01*
X146128180Y-74805010D02*
X148590000Y-72343190D01*
X144701820Y-74805010D02*
X146128180Y-74805010D01*
X144364990Y-74468180D02*
X144701820Y-74805010D01*
X144364990Y-72610490D02*
X144364990Y-74468180D01*
X142874500Y-71120000D02*
X144364990Y-72610490D01*
X141912000Y-71120000D02*
X142874500Y-71120000D01*
X148590000Y-72343190D02*
X148590000Y-70485000D01*
X154295000Y-70485000D02*
X154940000Y-69840000D01*
X148590000Y-70485000D02*
X154295000Y-70485000D01*
%TO.N,Net-(C4-Pad1)*%
X145415000Y-71850000D02*
X145415000Y-73892500D01*
%TO.N,Net-(IC1-Pad10)*%
X139970000Y-70120000D02*
X141912000Y-70120000D01*
X139570000Y-69720000D02*
X139970000Y-70120000D01*
X136020000Y-50800000D02*
X137160000Y-50800000D01*
X137795000Y-50165000D02*
X137795000Y-48260000D01*
X137160000Y-50800000D02*
X137795000Y-50165000D01*
X139440000Y-58420000D02*
X139570000Y-58550000D01*
X137795000Y-58420000D02*
X139440000Y-58420000D01*
X139570000Y-58550000D02*
X139570000Y-69720000D01*
X139570000Y-55880000D02*
X139570000Y-58550000D01*
X143144500Y-69850000D02*
X145415000Y-69850000D01*
X142874500Y-70120000D02*
X143144500Y-69850000D01*
X141912000Y-70120000D02*
X142874500Y-70120000D01*
%TO.N,Net-(IC1-Pad9)*%
X146103180Y-70775010D02*
X149860000Y-67018190D01*
X144726820Y-70775010D02*
X146103180Y-70775010D01*
X144571810Y-70620000D02*
X144726820Y-70775010D01*
X141912000Y-70620000D02*
X144571810Y-70620000D01*
X149860000Y-67018190D02*
X149860000Y-60550000D01*
%TO.N,Net-(IC1-Pad6)*%
X137139500Y-68310000D02*
X136525000Y-68310000D01*
X140949500Y-72120000D02*
X137139500Y-68310000D01*
X141912000Y-72120000D02*
X140949500Y-72120000D01*
%TO.N,Net-(IC1-Pad3)*%
X134255000Y-71120000D02*
X131445000Y-68310000D01*
X137488000Y-71120000D02*
X134255000Y-71120000D01*
X131445000Y-68310000D02*
X131445000Y-71120000D01*
%TO.N,Net-(IC1-Pad2)*%
X127635000Y-68310000D02*
X128635000Y-67310000D01*
X128635000Y-67310000D02*
X132058190Y-67310000D01*
X132058190Y-67310000D02*
X132715000Y-67966810D01*
X132715000Y-67966810D02*
X132715000Y-68580000D01*
X134755000Y-70620000D02*
X137488000Y-70620000D01*
X132715000Y-68580000D02*
X134755000Y-70620000D01*
X127635000Y-68310000D02*
X127635000Y-71120000D01*
%TD*%
D19*
%TO.N,Net-(C2-Pad1)*%
X134493000Y-50112065D02*
X132945750Y-50115000D01*
X132787000Y-50273750D01*
X132787000Y-52578000D01*
X132807000Y-52578000D01*
X132807000Y-52832000D01*
X132787000Y-52832000D01*
X132787000Y-55136250D01*
X132945750Y-55295000D01*
X134493000Y-55297935D01*
X134493000Y-67183000D01*
X133005992Y-67183000D01*
X132778582Y-66955591D01*
X132783072Y-66910000D01*
X132780000Y-66595750D01*
X132621250Y-66437000D01*
X131572000Y-66437000D01*
X131572000Y-66457000D01*
X131318000Y-66457000D01*
X131318000Y-66437000D01*
X130268750Y-66437000D01*
X130155750Y-66550000D01*
X128924250Y-66550000D01*
X128811250Y-66437000D01*
X127762000Y-66437000D01*
X127762000Y-66457000D01*
X127508000Y-66457000D01*
X127508000Y-66437000D01*
X126458750Y-66437000D01*
X126300000Y-66595750D01*
X126296928Y-66910000D01*
X126309188Y-67034482D01*
X126345498Y-67154180D01*
X126360903Y-67183000D01*
X125360000Y-67183000D01*
X125360000Y-67182998D01*
X125201252Y-67182998D01*
X125360000Y-67024250D01*
X125363072Y-66647500D01*
X125350812Y-66523018D01*
X125314502Y-66403320D01*
X125255537Y-66293006D01*
X125176185Y-66196315D01*
X125079494Y-66116963D01*
X124969180Y-66057998D01*
X124849482Y-66021688D01*
X124725000Y-66009428D01*
X124110750Y-66012500D01*
X123952000Y-66171250D01*
X123952000Y-67183000D01*
X123698000Y-67183000D01*
X123698000Y-66171250D01*
X123539250Y-66012500D01*
X122925000Y-66009428D01*
X122800518Y-66021688D01*
X122682000Y-66057640D01*
X122682000Y-65710000D01*
X126296928Y-65710000D01*
X126300000Y-66024250D01*
X126458750Y-66183000D01*
X127508000Y-66183000D01*
X127508000Y-65233750D01*
X127762000Y-65233750D01*
X127762000Y-66183000D01*
X128811250Y-66183000D01*
X128970000Y-66024250D01*
X128973072Y-65710000D01*
X130106928Y-65710000D01*
X130110000Y-66024250D01*
X130268750Y-66183000D01*
X131318000Y-66183000D01*
X131318000Y-65233750D01*
X131572000Y-65233750D01*
X131572000Y-66183000D01*
X132621250Y-66183000D01*
X132780000Y-66024250D01*
X132783072Y-65710000D01*
X132770812Y-65585518D01*
X132734502Y-65465820D01*
X132675537Y-65355506D01*
X132596185Y-65258815D01*
X132499494Y-65179463D01*
X132389180Y-65120498D01*
X132269482Y-65084188D01*
X132145000Y-65071928D01*
X131730750Y-65075000D01*
X131572000Y-65233750D01*
X131318000Y-65233750D01*
X131159250Y-65075000D01*
X130745000Y-65071928D01*
X130620518Y-65084188D01*
X130500820Y-65120498D01*
X130390506Y-65179463D01*
X130293815Y-65258815D01*
X130214463Y-65355506D01*
X130155498Y-65465820D01*
X130119188Y-65585518D01*
X130106928Y-65710000D01*
X128973072Y-65710000D01*
X128960812Y-65585518D01*
X128924502Y-65465820D01*
X128865537Y-65355506D01*
X128786185Y-65258815D01*
X128689494Y-65179463D01*
X128579180Y-65120498D01*
X128459482Y-65084188D01*
X128335000Y-65071928D01*
X127920750Y-65075000D01*
X127762000Y-65233750D01*
X127508000Y-65233750D01*
X127349250Y-65075000D01*
X126935000Y-65071928D01*
X126810518Y-65084188D01*
X126690820Y-65120498D01*
X126580506Y-65179463D01*
X126483815Y-65258815D01*
X126404463Y-65355506D01*
X126345498Y-65465820D01*
X126309188Y-65585518D01*
X126296928Y-65710000D01*
X122682000Y-65710000D01*
X122682000Y-59055000D01*
X122679560Y-59030224D01*
X122672333Y-59006399D01*
X122660597Y-58984443D01*
X122644803Y-58965197D01*
X122625557Y-58949403D01*
X122603601Y-58937667D01*
X122579776Y-58930440D01*
X122555000Y-58928000D01*
X110617000Y-58928000D01*
X110617000Y-50495000D01*
X129406928Y-50495000D01*
X129410000Y-50514250D01*
X129568750Y-50673000D01*
X130124512Y-50673000D01*
X130116928Y-50750000D01*
X130117254Y-50927000D01*
X129568750Y-50927000D01*
X129410000Y-51085750D01*
X129406928Y-51105000D01*
X129419188Y-51229482D01*
X129455498Y-51349180D01*
X129501370Y-51435000D01*
X129455498Y-51520820D01*
X129419188Y-51640518D01*
X129406928Y-51765000D01*
X129410000Y-51784250D01*
X129568750Y-51943000D01*
X130119124Y-51943000D01*
X130119591Y-52197000D01*
X129568750Y-52197000D01*
X129410000Y-52355750D01*
X129406928Y-52375000D01*
X129419188Y-52499482D01*
X129455498Y-52619180D01*
X129501370Y-52705000D01*
X129455498Y-52790820D01*
X129419188Y-52910518D01*
X129406928Y-53035000D01*
X129410000Y-53054250D01*
X129568750Y-53213000D01*
X130119591Y-53213000D01*
X130119124Y-53467000D01*
X129568750Y-53467000D01*
X129410000Y-53625750D01*
X129406928Y-53645000D01*
X129419188Y-53769482D01*
X129455498Y-53889180D01*
X129501370Y-53975000D01*
X129455498Y-54060820D01*
X129419188Y-54180518D01*
X129406928Y-54305000D01*
X129410000Y-54324250D01*
X129568750Y-54483000D01*
X130117254Y-54483000D01*
X130116928Y-54660000D01*
X130124512Y-54737000D01*
X129568750Y-54737000D01*
X129410000Y-54895750D01*
X129406928Y-54915000D01*
X129419188Y-55039482D01*
X129455498Y-55159180D01*
X129514463Y-55269494D01*
X129593815Y-55366185D01*
X129690506Y-55445537D01*
X129800820Y-55504502D01*
X129920518Y-55540812D01*
X130045000Y-55553072D01*
X130114250Y-55550000D01*
X130273000Y-55391250D01*
X130273000Y-55073637D01*
X130303815Y-55111185D01*
X130400506Y-55190537D01*
X130510820Y-55249502D01*
X130527000Y-55254410D01*
X130527000Y-55391250D01*
X130685750Y-55550000D01*
X130755000Y-55553072D01*
X130879482Y-55540812D01*
X130999180Y-55504502D01*
X131109494Y-55445537D01*
X131206185Y-55366185D01*
X131262874Y-55297108D01*
X132374250Y-55295000D01*
X132533000Y-55136250D01*
X132533000Y-52832000D01*
X132513000Y-52832000D01*
X132513000Y-52578000D01*
X132533000Y-52578000D01*
X132533000Y-50273750D01*
X132374250Y-50115000D01*
X131262874Y-50112892D01*
X131206185Y-50043815D01*
X131109494Y-49964463D01*
X130999180Y-49905498D01*
X130879482Y-49869188D01*
X130755000Y-49856928D01*
X130685750Y-49860000D01*
X130527000Y-50018750D01*
X130527000Y-50155590D01*
X130510820Y-50160498D01*
X130400506Y-50219463D01*
X130303815Y-50298815D01*
X130273000Y-50336363D01*
X130273000Y-50018750D01*
X130114250Y-49860000D01*
X130045000Y-49856928D01*
X129920518Y-49869188D01*
X129800820Y-49905498D01*
X129690506Y-49964463D01*
X129593815Y-50043815D01*
X129514463Y-50140506D01*
X129455498Y-50250820D01*
X129419188Y-50370518D01*
X129406928Y-50495000D01*
X110617000Y-50495000D01*
X110617000Y-42037000D01*
X134493000Y-42037000D01*
X134493000Y-50112065D01*
%TA.AperFunction,Conductor*%
D20*
G36*
X134493000Y-50112065D02*
G01*
X132945750Y-50115000D01*
X132787000Y-50273750D01*
X132787000Y-52578000D01*
X132807000Y-52578000D01*
X132807000Y-52832000D01*
X132787000Y-52832000D01*
X132787000Y-55136250D01*
X132945750Y-55295000D01*
X134493000Y-55297935D01*
X134493000Y-67183000D01*
X133005992Y-67183000D01*
X132778582Y-66955591D01*
X132783072Y-66910000D01*
X132780000Y-66595750D01*
X132621250Y-66437000D01*
X131572000Y-66437000D01*
X131572000Y-66457000D01*
X131318000Y-66457000D01*
X131318000Y-66437000D01*
X130268750Y-66437000D01*
X130155750Y-66550000D01*
X128924250Y-66550000D01*
X128811250Y-66437000D01*
X127762000Y-66437000D01*
X127762000Y-66457000D01*
X127508000Y-66457000D01*
X127508000Y-66437000D01*
X126458750Y-66437000D01*
X126300000Y-66595750D01*
X126296928Y-66910000D01*
X126309188Y-67034482D01*
X126345498Y-67154180D01*
X126360903Y-67183000D01*
X125360000Y-67183000D01*
X125360000Y-67182998D01*
X125201252Y-67182998D01*
X125360000Y-67024250D01*
X125363072Y-66647500D01*
X125350812Y-66523018D01*
X125314502Y-66403320D01*
X125255537Y-66293006D01*
X125176185Y-66196315D01*
X125079494Y-66116963D01*
X124969180Y-66057998D01*
X124849482Y-66021688D01*
X124725000Y-66009428D01*
X124110750Y-66012500D01*
X123952000Y-66171250D01*
X123952000Y-67183000D01*
X123698000Y-67183000D01*
X123698000Y-66171250D01*
X123539250Y-66012500D01*
X122925000Y-66009428D01*
X122800518Y-66021688D01*
X122682000Y-66057640D01*
X122682000Y-65710000D01*
X126296928Y-65710000D01*
X126300000Y-66024250D01*
X126458750Y-66183000D01*
X127508000Y-66183000D01*
X127508000Y-65233750D01*
X127762000Y-65233750D01*
X127762000Y-66183000D01*
X128811250Y-66183000D01*
X128970000Y-66024250D01*
X128973072Y-65710000D01*
X130106928Y-65710000D01*
X130110000Y-66024250D01*
X130268750Y-66183000D01*
X131318000Y-66183000D01*
X131318000Y-65233750D01*
X131572000Y-65233750D01*
X131572000Y-66183000D01*
X132621250Y-66183000D01*
X132780000Y-66024250D01*
X132783072Y-65710000D01*
X132770812Y-65585518D01*
X132734502Y-65465820D01*
X132675537Y-65355506D01*
X132596185Y-65258815D01*
X132499494Y-65179463D01*
X132389180Y-65120498D01*
X132269482Y-65084188D01*
X132145000Y-65071928D01*
X131730750Y-65075000D01*
X131572000Y-65233750D01*
X131318000Y-65233750D01*
X131159250Y-65075000D01*
X130745000Y-65071928D01*
X130620518Y-65084188D01*
X130500820Y-65120498D01*
X130390506Y-65179463D01*
X130293815Y-65258815D01*
X130214463Y-65355506D01*
X130155498Y-65465820D01*
X130119188Y-65585518D01*
X130106928Y-65710000D01*
X128973072Y-65710000D01*
X128960812Y-65585518D01*
X128924502Y-65465820D01*
X128865537Y-65355506D01*
X128786185Y-65258815D01*
X128689494Y-65179463D01*
X128579180Y-65120498D01*
X128459482Y-65084188D01*
X128335000Y-65071928D01*
X127920750Y-65075000D01*
X127762000Y-65233750D01*
X127508000Y-65233750D01*
X127349250Y-65075000D01*
X126935000Y-65071928D01*
X126810518Y-65084188D01*
X126690820Y-65120498D01*
X126580506Y-65179463D01*
X126483815Y-65258815D01*
X126404463Y-65355506D01*
X126345498Y-65465820D01*
X126309188Y-65585518D01*
X126296928Y-65710000D01*
X122682000Y-65710000D01*
X122682000Y-59055000D01*
X122679560Y-59030224D01*
X122672333Y-59006399D01*
X122660597Y-58984443D01*
X122644803Y-58965197D01*
X122625557Y-58949403D01*
X122603601Y-58937667D01*
X122579776Y-58930440D01*
X122555000Y-58928000D01*
X110617000Y-58928000D01*
X110617000Y-50495000D01*
X129406928Y-50495000D01*
X129410000Y-50514250D01*
X129568750Y-50673000D01*
X130124512Y-50673000D01*
X130116928Y-50750000D01*
X130117254Y-50927000D01*
X129568750Y-50927000D01*
X129410000Y-51085750D01*
X129406928Y-51105000D01*
X129419188Y-51229482D01*
X129455498Y-51349180D01*
X129501370Y-51435000D01*
X129455498Y-51520820D01*
X129419188Y-51640518D01*
X129406928Y-51765000D01*
X129410000Y-51784250D01*
X129568750Y-51943000D01*
X130119124Y-51943000D01*
X130119591Y-52197000D01*
X129568750Y-52197000D01*
X129410000Y-52355750D01*
X129406928Y-52375000D01*
X129419188Y-52499482D01*
X129455498Y-52619180D01*
X129501370Y-52705000D01*
X129455498Y-52790820D01*
X129419188Y-52910518D01*
X129406928Y-53035000D01*
X129410000Y-53054250D01*
X129568750Y-53213000D01*
X130119591Y-53213000D01*
X130119124Y-53467000D01*
X129568750Y-53467000D01*
X129410000Y-53625750D01*
X129406928Y-53645000D01*
X129419188Y-53769482D01*
X129455498Y-53889180D01*
X129501370Y-53975000D01*
X129455498Y-54060820D01*
X129419188Y-54180518D01*
X129406928Y-54305000D01*
X129410000Y-54324250D01*
X129568750Y-54483000D01*
X130117254Y-54483000D01*
X130116928Y-54660000D01*
X130124512Y-54737000D01*
X129568750Y-54737000D01*
X129410000Y-54895750D01*
X129406928Y-54915000D01*
X129419188Y-55039482D01*
X129455498Y-55159180D01*
X129514463Y-55269494D01*
X129593815Y-55366185D01*
X129690506Y-55445537D01*
X129800820Y-55504502D01*
X129920518Y-55540812D01*
X130045000Y-55553072D01*
X130114250Y-55550000D01*
X130273000Y-55391250D01*
X130273000Y-55073637D01*
X130303815Y-55111185D01*
X130400506Y-55190537D01*
X130510820Y-55249502D01*
X130527000Y-55254410D01*
X130527000Y-55391250D01*
X130685750Y-55550000D01*
X130755000Y-55553072D01*
X130879482Y-55540812D01*
X130999180Y-55504502D01*
X131109494Y-55445537D01*
X131206185Y-55366185D01*
X131262874Y-55297108D01*
X132374250Y-55295000D01*
X132533000Y-55136250D01*
X132533000Y-52832000D01*
X132513000Y-52832000D01*
X132513000Y-52578000D01*
X132533000Y-52578000D01*
X132533000Y-50273750D01*
X132374250Y-50115000D01*
X131262874Y-50112892D01*
X131206185Y-50043815D01*
X131109494Y-49964463D01*
X130999180Y-49905498D01*
X130879482Y-49869188D01*
X130755000Y-49856928D01*
X130685750Y-49860000D01*
X130527000Y-50018750D01*
X130527000Y-50155590D01*
X130510820Y-50160498D01*
X130400506Y-50219463D01*
X130303815Y-50298815D01*
X130273000Y-50336363D01*
X130273000Y-50018750D01*
X130114250Y-49860000D01*
X130045000Y-49856928D01*
X129920518Y-49869188D01*
X129800820Y-49905498D01*
X129690506Y-49964463D01*
X129593815Y-50043815D01*
X129514463Y-50140506D01*
X129455498Y-50250820D01*
X129419188Y-50370518D01*
X129406928Y-50495000D01*
X110617000Y-50495000D01*
X110617000Y-42037000D01*
X134493000Y-42037000D01*
X134493000Y-50112065D01*
G37*
%TD.AperFunction*%
%TD*%
D19*
%TO.N,Net-(Q1-Pad1)*%
X138309188Y-51640518D02*
X138296928Y-51765000D01*
X138300000Y-51784250D01*
X138458750Y-51943000D01*
X139443000Y-51943000D01*
X139443000Y-51923000D01*
X139697000Y-51923000D01*
X139697000Y-51943000D01*
X139717000Y-51943000D01*
X139717000Y-52197000D01*
X139697000Y-52197000D01*
X139697000Y-53213000D01*
X139717000Y-53213000D01*
X139717000Y-53467000D01*
X139697000Y-53467000D01*
X139697000Y-54483000D01*
X139717000Y-54483000D01*
X139717000Y-54737000D01*
X139697000Y-54737000D01*
X139697000Y-54757000D01*
X139443000Y-54757000D01*
X139443000Y-54737000D01*
X138458750Y-54737000D01*
X138300000Y-54895750D01*
X138296928Y-54915000D01*
X138309188Y-55039482D01*
X138333006Y-55118000D01*
X137256994Y-55118000D01*
X137280812Y-55039482D01*
X137293072Y-54915000D01*
X137290000Y-54895750D01*
X137131250Y-54737000D01*
X136147000Y-54737000D01*
X136147000Y-54757000D01*
X135893000Y-54757000D01*
X135893000Y-54737000D01*
X135873000Y-54737000D01*
X135873000Y-54483000D01*
X135893000Y-54483000D01*
X135893000Y-53467000D01*
X136147000Y-53467000D01*
X136147000Y-54483000D01*
X137131250Y-54483000D01*
X137290000Y-54324250D01*
X137293072Y-54305000D01*
X137280812Y-54180518D01*
X137244502Y-54060820D01*
X137198630Y-53975000D01*
X137244502Y-53889180D01*
X137280812Y-53769482D01*
X137293072Y-53645000D01*
X138296928Y-53645000D01*
X138309188Y-53769482D01*
X138345498Y-53889180D01*
X138391370Y-53975000D01*
X138345498Y-54060820D01*
X138309188Y-54180518D01*
X138296928Y-54305000D01*
X138300000Y-54324250D01*
X138458750Y-54483000D01*
X139443000Y-54483000D01*
X139443000Y-53467000D01*
X138458750Y-53467000D01*
X138300000Y-53625750D01*
X138296928Y-53645000D01*
X137293072Y-53645000D01*
X137290000Y-53625750D01*
X137131250Y-53467000D01*
X136147000Y-53467000D01*
X135893000Y-53467000D01*
X135873000Y-53467000D01*
X135873000Y-53213000D01*
X135893000Y-53213000D01*
X135893000Y-52197000D01*
X136147000Y-52197000D01*
X136147000Y-53213000D01*
X137131250Y-53213000D01*
X137290000Y-53054250D01*
X137293072Y-53035000D01*
X137280812Y-52910518D01*
X137244502Y-52790820D01*
X137198630Y-52705000D01*
X137244502Y-52619180D01*
X137280812Y-52499482D01*
X137293072Y-52375000D01*
X138296928Y-52375000D01*
X138309188Y-52499482D01*
X138345498Y-52619180D01*
X138391370Y-52705000D01*
X138345498Y-52790820D01*
X138309188Y-52910518D01*
X138296928Y-53035000D01*
X138300000Y-53054250D01*
X138458750Y-53213000D01*
X139443000Y-53213000D01*
X139443000Y-52197000D01*
X138458750Y-52197000D01*
X138300000Y-52355750D01*
X138296928Y-52375000D01*
X137293072Y-52375000D01*
X137290000Y-52355750D01*
X137131250Y-52197000D01*
X136147000Y-52197000D01*
X135893000Y-52197000D01*
X135873000Y-52197000D01*
X135873000Y-51943000D01*
X135893000Y-51943000D01*
X135893000Y-51923000D01*
X136147000Y-51923000D01*
X136147000Y-51943000D01*
X137131250Y-51943000D01*
X137290000Y-51784250D01*
X137293072Y-51765000D01*
X137280812Y-51640518D01*
X137256994Y-51562000D01*
X138333006Y-51562000D01*
X138309188Y-51640518D01*
%TA.AperFunction,Conductor*%
D20*
G36*
X138309188Y-51640518D02*
G01*
X138296928Y-51765000D01*
X138300000Y-51784250D01*
X138458750Y-51943000D01*
X139443000Y-51943000D01*
X139443000Y-51923000D01*
X139697000Y-51923000D01*
X139697000Y-51943000D01*
X139717000Y-51943000D01*
X139717000Y-52197000D01*
X139697000Y-52197000D01*
X139697000Y-53213000D01*
X139717000Y-53213000D01*
X139717000Y-53467000D01*
X139697000Y-53467000D01*
X139697000Y-54483000D01*
X139717000Y-54483000D01*
X139717000Y-54737000D01*
X139697000Y-54737000D01*
X139697000Y-54757000D01*
X139443000Y-54757000D01*
X139443000Y-54737000D01*
X138458750Y-54737000D01*
X138300000Y-54895750D01*
X138296928Y-54915000D01*
X138309188Y-55039482D01*
X138333006Y-55118000D01*
X137256994Y-55118000D01*
X137280812Y-55039482D01*
X137293072Y-54915000D01*
X137290000Y-54895750D01*
X137131250Y-54737000D01*
X136147000Y-54737000D01*
X136147000Y-54757000D01*
X135893000Y-54757000D01*
X135893000Y-54737000D01*
X135873000Y-54737000D01*
X135873000Y-54483000D01*
X135893000Y-54483000D01*
X135893000Y-53467000D01*
X136147000Y-53467000D01*
X136147000Y-54483000D01*
X137131250Y-54483000D01*
X137290000Y-54324250D01*
X137293072Y-54305000D01*
X137280812Y-54180518D01*
X137244502Y-54060820D01*
X137198630Y-53975000D01*
X137244502Y-53889180D01*
X137280812Y-53769482D01*
X137293072Y-53645000D01*
X138296928Y-53645000D01*
X138309188Y-53769482D01*
X138345498Y-53889180D01*
X138391370Y-53975000D01*
X138345498Y-54060820D01*
X138309188Y-54180518D01*
X138296928Y-54305000D01*
X138300000Y-54324250D01*
X138458750Y-54483000D01*
X139443000Y-54483000D01*
X139443000Y-53467000D01*
X138458750Y-53467000D01*
X138300000Y-53625750D01*
X138296928Y-53645000D01*
X137293072Y-53645000D01*
X137290000Y-53625750D01*
X137131250Y-53467000D01*
X136147000Y-53467000D01*
X135893000Y-53467000D01*
X135873000Y-53467000D01*
X135873000Y-53213000D01*
X135893000Y-53213000D01*
X135893000Y-52197000D01*
X136147000Y-52197000D01*
X136147000Y-53213000D01*
X137131250Y-53213000D01*
X137290000Y-53054250D01*
X137293072Y-53035000D01*
X137280812Y-52910518D01*
X137244502Y-52790820D01*
X137198630Y-52705000D01*
X137244502Y-52619180D01*
X137280812Y-52499482D01*
X137293072Y-52375000D01*
X138296928Y-52375000D01*
X138309188Y-52499482D01*
X138345498Y-52619180D01*
X138391370Y-52705000D01*
X138345498Y-52790820D01*
X138309188Y-52910518D01*
X138296928Y-53035000D01*
X138300000Y-53054250D01*
X138458750Y-53213000D01*
X139443000Y-53213000D01*
X139443000Y-52197000D01*
X138458750Y-52197000D01*
X138300000Y-52355750D01*
X138296928Y-52375000D01*
X137293072Y-52375000D01*
X137290000Y-52355750D01*
X137131250Y-52197000D01*
X136147000Y-52197000D01*
X135893000Y-52197000D01*
X135873000Y-52197000D01*
X135873000Y-51943000D01*
X135893000Y-51943000D01*
X135893000Y-51923000D01*
X136147000Y-51923000D01*
X136147000Y-51943000D01*
X137131250Y-51943000D01*
X137290000Y-51784250D01*
X137293072Y-51765000D01*
X137280812Y-51640518D01*
X137256994Y-51562000D01*
X138333006Y-51562000D01*
X138309188Y-51640518D01*
G37*
%TD.AperFunction*%
%TD*%
D19*
%TO.N,Net-(IC1-Pad9)*%
X158623000Y-67183000D02*
X141097000Y-67183000D01*
X141097000Y-56567935D01*
X142644250Y-56565000D01*
X142803000Y-56406250D01*
X142803000Y-54102000D01*
X142783000Y-54102000D01*
X142783000Y-53848000D01*
X142803000Y-53848000D01*
X142803000Y-51543750D01*
X143057000Y-51543750D01*
X143057000Y-53848000D01*
X143077000Y-53848000D01*
X143077000Y-54102000D01*
X143057000Y-54102000D01*
X143057000Y-56406250D01*
X143215750Y-56565000D01*
X144327126Y-56567108D01*
X144383815Y-56636185D01*
X144480506Y-56715537D01*
X144590820Y-56774502D01*
X144710518Y-56810812D01*
X144835000Y-56823072D01*
X144904250Y-56820000D01*
X145063000Y-56661250D01*
X145063000Y-56524410D01*
X145079180Y-56519502D01*
X145189494Y-56460537D01*
X145286185Y-56381185D01*
X145317000Y-56343637D01*
X145317000Y-56661250D01*
X145475750Y-56820000D01*
X145545000Y-56823072D01*
X145669482Y-56810812D01*
X145789180Y-56774502D01*
X145899494Y-56715537D01*
X145996185Y-56636185D01*
X146075537Y-56539494D01*
X146134502Y-56429180D01*
X146170812Y-56309482D01*
X146183072Y-56185000D01*
X146180000Y-56165750D01*
X146021250Y-56007000D01*
X145465488Y-56007000D01*
X145473072Y-55930000D01*
X145472746Y-55753000D01*
X146021250Y-55753000D01*
X146180000Y-55594250D01*
X146183072Y-55575000D01*
X146170812Y-55450518D01*
X146134502Y-55330820D01*
X146088630Y-55245000D01*
X146134502Y-55159180D01*
X146170812Y-55039482D01*
X146183072Y-54915000D01*
X146180000Y-54895750D01*
X146021250Y-54737000D01*
X145470876Y-54737000D01*
X145470409Y-54483000D01*
X146021250Y-54483000D01*
X146180000Y-54324250D01*
X146183072Y-54305000D01*
X146170812Y-54180518D01*
X146134502Y-54060820D01*
X146088630Y-53975000D01*
X146134502Y-53889180D01*
X146170812Y-53769482D01*
X146183072Y-53645000D01*
X146180000Y-53625750D01*
X146021250Y-53467000D01*
X145470409Y-53467000D01*
X145470876Y-53213000D01*
X146021250Y-53213000D01*
X146180000Y-53054250D01*
X146183072Y-53035000D01*
X146170812Y-52910518D01*
X146134502Y-52790820D01*
X146088630Y-52705000D01*
X146134502Y-52619180D01*
X146170812Y-52499482D01*
X146183072Y-52375000D01*
X146180000Y-52355750D01*
X146021250Y-52197000D01*
X145472746Y-52197000D01*
X145473072Y-52020000D01*
X145465488Y-51943000D01*
X146021250Y-51943000D01*
X146180000Y-51784250D01*
X146183072Y-51765000D01*
X146170812Y-51640518D01*
X146134502Y-51520820D01*
X146075537Y-51410506D01*
X145996185Y-51313815D01*
X145899494Y-51234463D01*
X145789180Y-51175498D01*
X145669482Y-51139188D01*
X145545000Y-51126928D01*
X145475750Y-51130000D01*
X145317000Y-51288750D01*
X145317000Y-51606363D01*
X145286185Y-51568815D01*
X145189494Y-51489463D01*
X145079180Y-51430498D01*
X145063000Y-51425590D01*
X145063000Y-51288750D01*
X144904250Y-51130000D01*
X144835000Y-51126928D01*
X144710518Y-51139188D01*
X144590820Y-51175498D01*
X144480506Y-51234463D01*
X144383815Y-51313815D01*
X144327126Y-51382892D01*
X143215750Y-51385000D01*
X143057000Y-51543750D01*
X142803000Y-51543750D01*
X142644250Y-51385000D01*
X141097000Y-51382065D01*
X141097000Y-42037000D01*
X158623000Y-42037000D01*
X158623000Y-67183000D01*
%TA.AperFunction,Conductor*%
D20*
G36*
X158623000Y-67183000D02*
G01*
X141097000Y-67183000D01*
X141097000Y-56567935D01*
X142644250Y-56565000D01*
X142803000Y-56406250D01*
X142803000Y-54102000D01*
X142783000Y-54102000D01*
X142783000Y-53848000D01*
X142803000Y-53848000D01*
X142803000Y-51543750D01*
X143057000Y-51543750D01*
X143057000Y-53848000D01*
X143077000Y-53848000D01*
X143077000Y-54102000D01*
X143057000Y-54102000D01*
X143057000Y-56406250D01*
X143215750Y-56565000D01*
X144327126Y-56567108D01*
X144383815Y-56636185D01*
X144480506Y-56715537D01*
X144590820Y-56774502D01*
X144710518Y-56810812D01*
X144835000Y-56823072D01*
X144904250Y-56820000D01*
X145063000Y-56661250D01*
X145063000Y-56524410D01*
X145079180Y-56519502D01*
X145189494Y-56460537D01*
X145286185Y-56381185D01*
X145317000Y-56343637D01*
X145317000Y-56661250D01*
X145475750Y-56820000D01*
X145545000Y-56823072D01*
X145669482Y-56810812D01*
X145789180Y-56774502D01*
X145899494Y-56715537D01*
X145996185Y-56636185D01*
X146075537Y-56539494D01*
X146134502Y-56429180D01*
X146170812Y-56309482D01*
X146183072Y-56185000D01*
X146180000Y-56165750D01*
X146021250Y-56007000D01*
X145465488Y-56007000D01*
X145473072Y-55930000D01*
X145472746Y-55753000D01*
X146021250Y-55753000D01*
X146180000Y-55594250D01*
X146183072Y-55575000D01*
X146170812Y-55450518D01*
X146134502Y-55330820D01*
X146088630Y-55245000D01*
X146134502Y-55159180D01*
X146170812Y-55039482D01*
X146183072Y-54915000D01*
X146180000Y-54895750D01*
X146021250Y-54737000D01*
X145470876Y-54737000D01*
X145470409Y-54483000D01*
X146021250Y-54483000D01*
X146180000Y-54324250D01*
X146183072Y-54305000D01*
X146170812Y-54180518D01*
X146134502Y-54060820D01*
X146088630Y-53975000D01*
X146134502Y-53889180D01*
X146170812Y-53769482D01*
X146183072Y-53645000D01*
X146180000Y-53625750D01*
X146021250Y-53467000D01*
X145470409Y-53467000D01*
X145470876Y-53213000D01*
X146021250Y-53213000D01*
X146180000Y-53054250D01*
X146183072Y-53035000D01*
X146170812Y-52910518D01*
X146134502Y-52790820D01*
X146088630Y-52705000D01*
X146134502Y-52619180D01*
X146170812Y-52499482D01*
X146183072Y-52375000D01*
X146180000Y-52355750D01*
X146021250Y-52197000D01*
X145472746Y-52197000D01*
X145473072Y-52020000D01*
X145465488Y-51943000D01*
X146021250Y-51943000D01*
X146180000Y-51784250D01*
X146183072Y-51765000D01*
X146170812Y-51640518D01*
X146134502Y-51520820D01*
X146075537Y-51410506D01*
X145996185Y-51313815D01*
X145899494Y-51234463D01*
X145789180Y-51175498D01*
X145669482Y-51139188D01*
X145545000Y-51126928D01*
X145475750Y-51130000D01*
X145317000Y-51288750D01*
X145317000Y-51606363D01*
X145286185Y-51568815D01*
X145189494Y-51489463D01*
X145079180Y-51430498D01*
X145063000Y-51425590D01*
X145063000Y-51288750D01*
X144904250Y-51130000D01*
X144835000Y-51126928D01*
X144710518Y-51139188D01*
X144590820Y-51175498D01*
X144480506Y-51234463D01*
X144383815Y-51313815D01*
X144327126Y-51382892D01*
X143215750Y-51385000D01*
X143057000Y-51543750D01*
X142803000Y-51543750D01*
X142644250Y-51385000D01*
X141097000Y-51382065D01*
X141097000Y-42037000D01*
X158623000Y-42037000D01*
X158623000Y-67183000D01*
G37*
%TD.AperFunction*%
%TD*%
D19*
%TO.N,Net-(C3-Pad1)*%
X174498000Y-58928000D02*
X163830000Y-58928000D01*
X163805224Y-58930440D01*
X163781399Y-58937667D01*
X163759443Y-58949403D01*
X163740197Y-58965197D01*
X163724403Y-58984443D01*
X163712667Y-59006399D01*
X163705440Y-59030224D01*
X163703000Y-59055000D01*
X163703000Y-67183000D01*
X163461498Y-67183000D01*
X163463072Y-66990000D01*
X163450812Y-66865518D01*
X163414502Y-66745820D01*
X163355537Y-66635506D01*
X163276185Y-66538815D01*
X163179494Y-66459463D01*
X163069180Y-66400498D01*
X162949482Y-66364188D01*
X162825000Y-66351928D01*
X162210750Y-66355000D01*
X162052000Y-66513750D01*
X162052000Y-67183000D01*
X161798000Y-67183000D01*
X161798000Y-66513750D01*
X161639250Y-66355000D01*
X161025000Y-66351928D01*
X160900518Y-66364188D01*
X160780820Y-66400498D01*
X160670506Y-66459463D01*
X160573815Y-66538815D01*
X160494463Y-66635506D01*
X160435498Y-66745820D01*
X160399188Y-66865518D01*
X160386928Y-66990000D01*
X160388502Y-67183000D01*
X159512000Y-67183000D01*
X159512000Y-42037000D01*
X174498000Y-42037000D01*
X174498000Y-58928000D01*
%TA.AperFunction,Conductor*%
D20*
G36*
X174498000Y-58928000D02*
G01*
X163830000Y-58928000D01*
X163805224Y-58930440D01*
X163781399Y-58937667D01*
X163759443Y-58949403D01*
X163740197Y-58965197D01*
X163724403Y-58984443D01*
X163712667Y-59006399D01*
X163705440Y-59030224D01*
X163703000Y-59055000D01*
X163703000Y-67183000D01*
X163461498Y-67183000D01*
X163463072Y-66990000D01*
X163450812Y-66865518D01*
X163414502Y-66745820D01*
X163355537Y-66635506D01*
X163276185Y-66538815D01*
X163179494Y-66459463D01*
X163069180Y-66400498D01*
X162949482Y-66364188D01*
X162825000Y-66351928D01*
X162210750Y-66355000D01*
X162052000Y-66513750D01*
X162052000Y-67183000D01*
X161798000Y-67183000D01*
X161798000Y-66513750D01*
X161639250Y-66355000D01*
X161025000Y-66351928D01*
X160900518Y-66364188D01*
X160780820Y-66400498D01*
X160670506Y-66459463D01*
X160573815Y-66538815D01*
X160494463Y-66635506D01*
X160435498Y-66745820D01*
X160399188Y-66865518D01*
X160386928Y-66990000D01*
X160388502Y-67183000D01*
X159512000Y-67183000D01*
X159512000Y-42037000D01*
X174498000Y-42037000D01*
X174498000Y-58928000D01*
G37*
%TD.AperFunction*%
%TD*%
D19*
%TO.N,GND*%
X121793000Y-67945000D02*
X121795440Y-67969776D01*
X121802667Y-67993601D01*
X121814403Y-68015557D01*
X121830197Y-68034803D01*
X121849443Y-68050597D01*
X121871399Y-68062333D01*
X121895224Y-68069560D01*
X121920000Y-68072000D01*
X122359685Y-68072000D01*
X122436595Y-68215887D01*
X122547038Y-68350462D01*
X122681613Y-68460905D01*
X122835148Y-68542972D01*
X123001744Y-68593508D01*
X123174998Y-68610572D01*
X124475002Y-68610572D01*
X124648256Y-68593508D01*
X124814852Y-68542972D01*
X124968387Y-68460905D01*
X125102962Y-68350462D01*
X125213405Y-68215887D01*
X125290315Y-68072000D01*
X126296928Y-68072000D01*
X126296928Y-68660001D01*
X126313992Y-68833255D01*
X126364528Y-68999851D01*
X126446595Y-69153387D01*
X126557038Y-69287962D01*
X126691613Y-69398405D01*
X126845149Y-69480472D01*
X126875000Y-69489527D01*
X126875001Y-69940473D01*
X126845149Y-69949528D01*
X126691613Y-70031595D01*
X126557038Y-70142038D01*
X126446595Y-70276613D01*
X126364528Y-70430149D01*
X126313992Y-70596745D01*
X126296928Y-70769999D01*
X126296928Y-71470001D01*
X126313992Y-71643255D01*
X126364528Y-71809851D01*
X126446595Y-71963387D01*
X126513276Y-72044637D01*
X126483815Y-72068815D01*
X126404463Y-72165506D01*
X126345498Y-72275820D01*
X126309188Y-72395518D01*
X126296928Y-72520000D01*
X126300000Y-72834250D01*
X126458750Y-72993000D01*
X127508000Y-72993000D01*
X127508000Y-72973000D01*
X127762000Y-72973000D01*
X127762000Y-72993000D01*
X128811250Y-72993000D01*
X128970000Y-72834250D01*
X128973072Y-72520000D01*
X128960812Y-72395518D01*
X128924502Y-72275820D01*
X128865537Y-72165506D01*
X128786185Y-72068815D01*
X128756724Y-72044637D01*
X128823405Y-71963387D01*
X128905472Y-71809851D01*
X128956008Y-71643255D01*
X128973072Y-71470001D01*
X128973072Y-70769999D01*
X128956008Y-70596745D01*
X128905472Y-70430149D01*
X128823405Y-70276613D01*
X128712962Y-70142038D01*
X128578387Y-70031595D01*
X128424851Y-69949528D01*
X128395000Y-69940473D01*
X128395000Y-69489527D01*
X128424851Y-69480472D01*
X128578387Y-69398405D01*
X128712962Y-69287962D01*
X128823405Y-69153387D01*
X128905472Y-68999851D01*
X128956008Y-68833255D01*
X128973072Y-68660001D01*
X128973072Y-68072000D01*
X130106928Y-68072000D01*
X130106928Y-68660001D01*
X130123992Y-68833255D01*
X130174528Y-68999851D01*
X130256595Y-69153387D01*
X130367038Y-69287962D01*
X130501613Y-69398405D01*
X130655149Y-69480472D01*
X130685000Y-69489527D01*
X130685001Y-69940473D01*
X130655149Y-69949528D01*
X130501613Y-70031595D01*
X130367038Y-70142038D01*
X130256595Y-70276613D01*
X130174528Y-70430149D01*
X130123992Y-70596745D01*
X130106928Y-70769999D01*
X130106928Y-71470001D01*
X130123992Y-71643255D01*
X130174528Y-71809851D01*
X130256595Y-71963387D01*
X130323276Y-72044637D01*
X130293815Y-72068815D01*
X130214463Y-72165506D01*
X130155498Y-72275820D01*
X130119188Y-72395518D01*
X130106928Y-72520000D01*
X130110000Y-72834250D01*
X130268750Y-72993000D01*
X131318000Y-72993000D01*
X131318000Y-72973000D01*
X131572000Y-72973000D01*
X131572000Y-72993000D01*
X132621250Y-72993000D01*
X132780000Y-72834250D01*
X132783072Y-72520000D01*
X132770812Y-72395518D01*
X132734502Y-72275820D01*
X132675537Y-72165506D01*
X132596185Y-72068815D01*
X132566724Y-72044637D01*
X132633405Y-71963387D01*
X132715472Y-71809851D01*
X132766008Y-71643255D01*
X132783072Y-71470001D01*
X132783072Y-70769999D01*
X132777923Y-70717725D01*
X133502478Y-71442280D01*
X133406595Y-71559114D01*
X133324528Y-71712650D01*
X133273992Y-71879246D01*
X133256928Y-72052500D01*
X133256928Y-72727500D01*
X133273992Y-72900754D01*
X133324528Y-73067350D01*
X133406595Y-73220886D01*
X133517038Y-73355462D01*
X133523594Y-73360842D01*
X133443815Y-73426315D01*
X133364463Y-73523006D01*
X133305498Y-73633320D01*
X133269188Y-73753018D01*
X133256928Y-73877500D01*
X133260000Y-74179250D01*
X133418750Y-74338000D01*
X134493000Y-74338000D01*
X134493000Y-74318000D01*
X134747000Y-74318000D01*
X134747000Y-74338000D01*
X135821250Y-74338000D01*
X135980000Y-74179250D01*
X135983072Y-73877500D01*
X135970812Y-73753018D01*
X135934502Y-73633320D01*
X135875537Y-73523006D01*
X135796185Y-73426315D01*
X135716406Y-73360842D01*
X135722962Y-73355462D01*
X135833405Y-73220886D01*
X135915472Y-73067350D01*
X135966008Y-72900754D01*
X135983072Y-72727500D01*
X135983072Y-72380000D01*
X136149047Y-72380000D01*
X136151681Y-72404111D01*
X136189831Y-72523235D01*
X136250489Y-72632628D01*
X136331322Y-72728085D01*
X136429224Y-72805938D01*
X136540434Y-72863195D01*
X136660677Y-72897656D01*
X136785333Y-72907996D01*
X137202250Y-72905000D01*
X137361000Y-72746250D01*
X137361000Y-72408072D01*
X137615000Y-72408072D01*
X137615000Y-72746250D01*
X137773750Y-72905000D01*
X138190667Y-72907996D01*
X138315323Y-72897656D01*
X138435566Y-72863195D01*
X138546776Y-72805938D01*
X138644678Y-72728085D01*
X138725511Y-72632628D01*
X138786169Y-72523235D01*
X138824319Y-72404111D01*
X138835500Y-72301750D01*
X138698225Y-72164475D01*
X138731037Y-72124494D01*
X138790002Y-72014180D01*
X138803253Y-71970497D01*
X138835500Y-71938250D01*
X138828402Y-71873265D01*
X138838572Y-71770000D01*
X138838572Y-71470000D01*
X138828723Y-71370000D01*
X138838572Y-71270000D01*
X138838572Y-71083874D01*
X140385701Y-72631003D01*
X140409499Y-72660001D01*
X140525224Y-72754974D01*
X140657253Y-72825546D01*
X140800514Y-72869003D01*
X140912167Y-72880000D01*
X140912175Y-72880000D01*
X140949500Y-72883676D01*
X140986825Y-72880000D01*
X141022893Y-72880000D01*
X141075018Y-72895812D01*
X141199500Y-72908072D01*
X142624500Y-72908072D01*
X142748982Y-72895812D01*
X142868680Y-72859502D01*
X142978994Y-72800537D01*
X143075685Y-72721185D01*
X143155037Y-72624494D01*
X143206992Y-72527294D01*
X143604990Y-72925292D01*
X143604991Y-74430848D01*
X143601314Y-74468180D01*
X143604991Y-74505513D01*
X143615988Y-74617166D01*
X143627237Y-74654250D01*
X143659444Y-74760426D01*
X143730016Y-74892456D01*
X143801191Y-74979182D01*
X143824990Y-75008181D01*
X143853988Y-75031979D01*
X144067293Y-75245284D01*
X144064188Y-75255518D01*
X144051928Y-75380000D01*
X144055000Y-75681750D01*
X144213750Y-75840500D01*
X145288000Y-75840500D01*
X145288000Y-75820500D01*
X145542000Y-75820500D01*
X145542000Y-75840500D01*
X146616250Y-75840500D01*
X146775000Y-75681750D01*
X146778072Y-75380000D01*
X146765812Y-75255518D01*
X146762707Y-75245284D01*
X148642991Y-73365000D01*
X153401928Y-73365000D01*
X153405000Y-74654250D01*
X153563750Y-74813000D01*
X154813000Y-74813000D01*
X154813000Y-72888750D01*
X155067000Y-72888750D01*
X155067000Y-74813000D01*
X156316250Y-74813000D01*
X156475000Y-74654250D01*
X156478072Y-73365000D01*
X156465812Y-73240518D01*
X156429502Y-73120820D01*
X156370537Y-73010506D01*
X156291185Y-72913815D01*
X156194494Y-72834463D01*
X156084180Y-72775498D01*
X155964482Y-72739188D01*
X155840000Y-72726928D01*
X155225750Y-72730000D01*
X155067000Y-72888750D01*
X154813000Y-72888750D01*
X154654250Y-72730000D01*
X154040000Y-72726928D01*
X153915518Y-72739188D01*
X153795820Y-72775498D01*
X153685506Y-72834463D01*
X153588815Y-72913815D01*
X153509463Y-73010506D01*
X153450498Y-73120820D01*
X153414188Y-73240518D01*
X153401928Y-73365000D01*
X148642991Y-73365000D01*
X149101004Y-72906988D01*
X149130001Y-72883191D01*
X149224974Y-72767466D01*
X149295546Y-72635437D01*
X149339003Y-72492176D01*
X149350000Y-72380523D01*
X149350000Y-72380514D01*
X149353676Y-72343191D01*
X149350000Y-72305868D01*
X149350000Y-71245000D01*
X153401928Y-71245000D01*
X153401928Y-71415000D01*
X153414188Y-71539482D01*
X153450498Y-71659180D01*
X153509463Y-71769494D01*
X153588815Y-71866185D01*
X153685506Y-71945537D01*
X153795820Y-72004502D01*
X153915518Y-72040812D01*
X154040000Y-72053072D01*
X155840000Y-72053072D01*
X155964482Y-72040812D01*
X156084180Y-72004502D01*
X156194494Y-71945537D01*
X156291185Y-71866185D01*
X156370537Y-71769494D01*
X156429502Y-71659180D01*
X156465812Y-71539482D01*
X156475609Y-71440000D01*
X160386928Y-71440000D01*
X160399188Y-71564482D01*
X160435498Y-71684180D01*
X160494463Y-71794494D01*
X160573815Y-71891185D01*
X160670506Y-71970537D01*
X160780820Y-72029502D01*
X160900518Y-72065812D01*
X161025000Y-72078072D01*
X161639250Y-72075000D01*
X161798000Y-71916250D01*
X161798000Y-70904500D01*
X162052000Y-70904500D01*
X162052000Y-71916250D01*
X162210750Y-72075000D01*
X162825000Y-72078072D01*
X162949482Y-72065812D01*
X163069180Y-72029502D01*
X163179494Y-71970537D01*
X163276185Y-71891185D01*
X163355537Y-71794494D01*
X163414502Y-71684180D01*
X163450812Y-71564482D01*
X163463072Y-71440000D01*
X163460000Y-71063250D01*
X163301250Y-70904500D01*
X162052000Y-70904500D01*
X161798000Y-70904500D01*
X160548750Y-70904500D01*
X160390000Y-71063250D01*
X160386928Y-71440000D01*
X156475609Y-71440000D01*
X156478072Y-71415000D01*
X156478072Y-70600000D01*
X159700178Y-70600000D01*
X159737500Y-70603676D01*
X159774822Y-70600000D01*
X159774833Y-70600000D01*
X159886486Y-70589003D01*
X160029747Y-70545546D01*
X160161776Y-70474974D01*
X160277501Y-70380001D01*
X160301304Y-70350997D01*
X160388144Y-70264157D01*
X160390000Y-70491750D01*
X160548750Y-70650500D01*
X161798000Y-70650500D01*
X161798000Y-69638750D01*
X162052000Y-69638750D01*
X162052000Y-70650500D01*
X163301250Y-70650500D01*
X163460000Y-70491750D01*
X163463072Y-70115000D01*
X163450812Y-69990518D01*
X163414502Y-69870820D01*
X163355537Y-69760506D01*
X163276185Y-69663815D01*
X163179494Y-69584463D01*
X163069180Y-69525498D01*
X162949482Y-69489188D01*
X162825000Y-69476928D01*
X162210750Y-69480000D01*
X162052000Y-69638750D01*
X161798000Y-69638750D01*
X161639250Y-69480000D01*
X161174625Y-69477676D01*
X161699230Y-68953072D01*
X162575002Y-68953072D01*
X162748256Y-68936008D01*
X162914852Y-68885472D01*
X163068387Y-68803405D01*
X163202962Y-68692962D01*
X163313405Y-68558387D01*
X163395472Y-68404852D01*
X163446008Y-68238256D01*
X163462383Y-68072000D01*
X164465000Y-68072000D01*
X164489776Y-68069560D01*
X164513601Y-68062333D01*
X164535557Y-68050597D01*
X164554803Y-68034803D01*
X164570597Y-68015557D01*
X164582333Y-67993601D01*
X164589560Y-67969776D01*
X164592000Y-67945000D01*
X164592000Y-59817000D01*
X174498000Y-59817000D01*
X174498000Y-77343000D01*
X110617000Y-77343000D01*
X110617000Y-76555000D01*
X144051928Y-76555000D01*
X144064188Y-76679482D01*
X144100498Y-76799180D01*
X144159463Y-76909494D01*
X144238815Y-77006185D01*
X144335506Y-77085537D01*
X144445820Y-77144502D01*
X144565518Y-77180812D01*
X144690000Y-77193072D01*
X145129250Y-77190000D01*
X145288000Y-77031250D01*
X145288000Y-76094500D01*
X145542000Y-76094500D01*
X145542000Y-77031250D01*
X145700750Y-77190000D01*
X146140000Y-77193072D01*
X146264482Y-77180812D01*
X146384180Y-77144502D01*
X146494494Y-77085537D01*
X146591185Y-77006185D01*
X146670537Y-76909494D01*
X146729502Y-76799180D01*
X146765812Y-76679482D01*
X146778072Y-76555000D01*
X146777665Y-76515000D01*
X153401928Y-76515000D01*
X153414188Y-76639482D01*
X153450498Y-76759180D01*
X153509463Y-76869494D01*
X153588815Y-76966185D01*
X153685506Y-77045537D01*
X153795820Y-77104502D01*
X153915518Y-77140812D01*
X154040000Y-77153072D01*
X154654250Y-77150000D01*
X154813000Y-76991250D01*
X154813000Y-75067000D01*
X155067000Y-75067000D01*
X155067000Y-76991250D01*
X155225750Y-77150000D01*
X155840000Y-77153072D01*
X155964482Y-77140812D01*
X156084180Y-77104502D01*
X156194494Y-77045537D01*
X156291185Y-76966185D01*
X156370537Y-76869494D01*
X156429502Y-76759180D01*
X156465812Y-76639482D01*
X156478072Y-76515000D01*
X156475000Y-75225750D01*
X156316250Y-75067000D01*
X155067000Y-75067000D01*
X154813000Y-75067000D01*
X153563750Y-75067000D01*
X153405000Y-75225750D01*
X153401928Y-76515000D01*
X146777665Y-76515000D01*
X146775000Y-76253250D01*
X146616250Y-76094500D01*
X145542000Y-76094500D01*
X145288000Y-76094500D01*
X144213750Y-76094500D01*
X144055000Y-76253250D01*
X144051928Y-76555000D01*
X110617000Y-76555000D01*
X110617000Y-75052500D01*
X133256928Y-75052500D01*
X133269188Y-75176982D01*
X133305498Y-75296680D01*
X133364463Y-75406994D01*
X133443815Y-75503685D01*
X133540506Y-75583037D01*
X133650820Y-75642002D01*
X133770518Y-75678312D01*
X133895000Y-75690572D01*
X134334250Y-75687500D01*
X134493000Y-75528750D01*
X134493000Y-74592000D01*
X134747000Y-74592000D01*
X134747000Y-75528750D01*
X134905750Y-75687500D01*
X135345000Y-75690572D01*
X135469482Y-75678312D01*
X135589180Y-75642002D01*
X135699494Y-75583037D01*
X135796185Y-75503685D01*
X135875537Y-75406994D01*
X135934502Y-75296680D01*
X135970812Y-75176982D01*
X135983072Y-75052500D01*
X135980000Y-74750750D01*
X135821250Y-74592000D01*
X134747000Y-74592000D01*
X134493000Y-74592000D01*
X133418750Y-74592000D01*
X133260000Y-74750750D01*
X133256928Y-75052500D01*
X110617000Y-75052500D01*
X110617000Y-73720000D01*
X126296928Y-73720000D01*
X126309188Y-73844482D01*
X126345498Y-73964180D01*
X126404463Y-74074494D01*
X126483815Y-74171185D01*
X126580506Y-74250537D01*
X126690820Y-74309502D01*
X126810518Y-74345812D01*
X126935000Y-74358072D01*
X127349250Y-74355000D01*
X127508000Y-74196250D01*
X127508000Y-73247000D01*
X127762000Y-73247000D01*
X127762000Y-74196250D01*
X127920750Y-74355000D01*
X128335000Y-74358072D01*
X128459482Y-74345812D01*
X128579180Y-74309502D01*
X128689494Y-74250537D01*
X128786185Y-74171185D01*
X128865537Y-74074494D01*
X128924502Y-73964180D01*
X128960812Y-73844482D01*
X128973072Y-73720000D01*
X130106928Y-73720000D01*
X130119188Y-73844482D01*
X130155498Y-73964180D01*
X130214463Y-74074494D01*
X130293815Y-74171185D01*
X130390506Y-74250537D01*
X130500820Y-74309502D01*
X130620518Y-74345812D01*
X130745000Y-74358072D01*
X131159250Y-74355000D01*
X131318000Y-74196250D01*
X131318000Y-73247000D01*
X131572000Y-73247000D01*
X131572000Y-74196250D01*
X131730750Y-74355000D01*
X132145000Y-74358072D01*
X132269482Y-74345812D01*
X132389180Y-74309502D01*
X132499494Y-74250537D01*
X132596185Y-74171185D01*
X132675537Y-74074494D01*
X132734502Y-73964180D01*
X132770812Y-73844482D01*
X132783072Y-73720000D01*
X132780000Y-73405750D01*
X132621250Y-73247000D01*
X131572000Y-73247000D01*
X131318000Y-73247000D01*
X130268750Y-73247000D01*
X130110000Y-73405750D01*
X130106928Y-73720000D01*
X128973072Y-73720000D01*
X128970000Y-73405750D01*
X128811250Y-73247000D01*
X127762000Y-73247000D01*
X127508000Y-73247000D01*
X126458750Y-73247000D01*
X126300000Y-73405750D01*
X126296928Y-73720000D01*
X110617000Y-73720000D01*
X110617000Y-71097500D01*
X122286928Y-71097500D01*
X122299188Y-71221982D01*
X122335498Y-71341680D01*
X122394463Y-71451994D01*
X122473815Y-71548685D01*
X122570506Y-71628037D01*
X122680820Y-71687002D01*
X122800518Y-71723312D01*
X122925000Y-71735572D01*
X123539250Y-71732500D01*
X123698000Y-71573750D01*
X123698000Y-70562000D01*
X123952000Y-70562000D01*
X123952000Y-71573750D01*
X124110750Y-71732500D01*
X124725000Y-71735572D01*
X124849482Y-71723312D01*
X124969180Y-71687002D01*
X125079494Y-71628037D01*
X125176185Y-71548685D01*
X125255537Y-71451994D01*
X125314502Y-71341680D01*
X125350812Y-71221982D01*
X125363072Y-71097500D01*
X125360000Y-70720750D01*
X125201250Y-70562000D01*
X123952000Y-70562000D01*
X123698000Y-70562000D01*
X122448750Y-70562000D01*
X122290000Y-70720750D01*
X122286928Y-71097500D01*
X110617000Y-71097500D01*
X110617000Y-69772500D01*
X122286928Y-69772500D01*
X122290000Y-70149250D01*
X122448750Y-70308000D01*
X123698000Y-70308000D01*
X123698000Y-69296250D01*
X123952000Y-69296250D01*
X123952000Y-70308000D01*
X125201250Y-70308000D01*
X125360000Y-70149250D01*
X125363072Y-69772500D01*
X125350812Y-69648018D01*
X125314502Y-69528320D01*
X125255537Y-69418006D01*
X125176185Y-69321315D01*
X125079494Y-69241963D01*
X124969180Y-69182998D01*
X124849482Y-69146688D01*
X124725000Y-69134428D01*
X124110750Y-69137500D01*
X123952000Y-69296250D01*
X123698000Y-69296250D01*
X123539250Y-69137500D01*
X122925000Y-69134428D01*
X122800518Y-69146688D01*
X122680820Y-69182998D01*
X122570506Y-69241963D01*
X122473815Y-69321315D01*
X122394463Y-69418006D01*
X122335498Y-69528320D01*
X122299188Y-69648018D01*
X122286928Y-69772500D01*
X110617000Y-69772500D01*
X110617000Y-59817000D01*
X121793000Y-59817000D01*
X121793000Y-67945000D01*
%TA.AperFunction,Conductor*%
D20*
G36*
X121793000Y-67945000D02*
G01*
X121795440Y-67969776D01*
X121802667Y-67993601D01*
X121814403Y-68015557D01*
X121830197Y-68034803D01*
X121849443Y-68050597D01*
X121871399Y-68062333D01*
X121895224Y-68069560D01*
X121920000Y-68072000D01*
X122359685Y-68072000D01*
X122436595Y-68215887D01*
X122547038Y-68350462D01*
X122681613Y-68460905D01*
X122835148Y-68542972D01*
X123001744Y-68593508D01*
X123174998Y-68610572D01*
X124475002Y-68610572D01*
X124648256Y-68593508D01*
X124814852Y-68542972D01*
X124968387Y-68460905D01*
X125102962Y-68350462D01*
X125213405Y-68215887D01*
X125290315Y-68072000D01*
X126296928Y-68072000D01*
X126296928Y-68660001D01*
X126313992Y-68833255D01*
X126364528Y-68999851D01*
X126446595Y-69153387D01*
X126557038Y-69287962D01*
X126691613Y-69398405D01*
X126845149Y-69480472D01*
X126875000Y-69489527D01*
X126875001Y-69940473D01*
X126845149Y-69949528D01*
X126691613Y-70031595D01*
X126557038Y-70142038D01*
X126446595Y-70276613D01*
X126364528Y-70430149D01*
X126313992Y-70596745D01*
X126296928Y-70769999D01*
X126296928Y-71470001D01*
X126313992Y-71643255D01*
X126364528Y-71809851D01*
X126446595Y-71963387D01*
X126513276Y-72044637D01*
X126483815Y-72068815D01*
X126404463Y-72165506D01*
X126345498Y-72275820D01*
X126309188Y-72395518D01*
X126296928Y-72520000D01*
X126300000Y-72834250D01*
X126458750Y-72993000D01*
X127508000Y-72993000D01*
X127508000Y-72973000D01*
X127762000Y-72973000D01*
X127762000Y-72993000D01*
X128811250Y-72993000D01*
X128970000Y-72834250D01*
X128973072Y-72520000D01*
X128960812Y-72395518D01*
X128924502Y-72275820D01*
X128865537Y-72165506D01*
X128786185Y-72068815D01*
X128756724Y-72044637D01*
X128823405Y-71963387D01*
X128905472Y-71809851D01*
X128956008Y-71643255D01*
X128973072Y-71470001D01*
X128973072Y-70769999D01*
X128956008Y-70596745D01*
X128905472Y-70430149D01*
X128823405Y-70276613D01*
X128712962Y-70142038D01*
X128578387Y-70031595D01*
X128424851Y-69949528D01*
X128395000Y-69940473D01*
X128395000Y-69489527D01*
X128424851Y-69480472D01*
X128578387Y-69398405D01*
X128712962Y-69287962D01*
X128823405Y-69153387D01*
X128905472Y-68999851D01*
X128956008Y-68833255D01*
X128973072Y-68660001D01*
X128973072Y-68072000D01*
X130106928Y-68072000D01*
X130106928Y-68660001D01*
X130123992Y-68833255D01*
X130174528Y-68999851D01*
X130256595Y-69153387D01*
X130367038Y-69287962D01*
X130501613Y-69398405D01*
X130655149Y-69480472D01*
X130685000Y-69489527D01*
X130685001Y-69940473D01*
X130655149Y-69949528D01*
X130501613Y-70031595D01*
X130367038Y-70142038D01*
X130256595Y-70276613D01*
X130174528Y-70430149D01*
X130123992Y-70596745D01*
X130106928Y-70769999D01*
X130106928Y-71470001D01*
X130123992Y-71643255D01*
X130174528Y-71809851D01*
X130256595Y-71963387D01*
X130323276Y-72044637D01*
X130293815Y-72068815D01*
X130214463Y-72165506D01*
X130155498Y-72275820D01*
X130119188Y-72395518D01*
X130106928Y-72520000D01*
X130110000Y-72834250D01*
X130268750Y-72993000D01*
X131318000Y-72993000D01*
X131318000Y-72973000D01*
X131572000Y-72973000D01*
X131572000Y-72993000D01*
X132621250Y-72993000D01*
X132780000Y-72834250D01*
X132783072Y-72520000D01*
X132770812Y-72395518D01*
X132734502Y-72275820D01*
X132675537Y-72165506D01*
X132596185Y-72068815D01*
X132566724Y-72044637D01*
X132633405Y-71963387D01*
X132715472Y-71809851D01*
X132766008Y-71643255D01*
X132783072Y-71470001D01*
X132783072Y-70769999D01*
X132777923Y-70717725D01*
X133502478Y-71442280D01*
X133406595Y-71559114D01*
X133324528Y-71712650D01*
X133273992Y-71879246D01*
X133256928Y-72052500D01*
X133256928Y-72727500D01*
X133273992Y-72900754D01*
X133324528Y-73067350D01*
X133406595Y-73220886D01*
X133517038Y-73355462D01*
X133523594Y-73360842D01*
X133443815Y-73426315D01*
X133364463Y-73523006D01*
X133305498Y-73633320D01*
X133269188Y-73753018D01*
X133256928Y-73877500D01*
X133260000Y-74179250D01*
X133418750Y-74338000D01*
X134493000Y-74338000D01*
X134493000Y-74318000D01*
X134747000Y-74318000D01*
X134747000Y-74338000D01*
X135821250Y-74338000D01*
X135980000Y-74179250D01*
X135983072Y-73877500D01*
X135970812Y-73753018D01*
X135934502Y-73633320D01*
X135875537Y-73523006D01*
X135796185Y-73426315D01*
X135716406Y-73360842D01*
X135722962Y-73355462D01*
X135833405Y-73220886D01*
X135915472Y-73067350D01*
X135966008Y-72900754D01*
X135983072Y-72727500D01*
X135983072Y-72380000D01*
X136149047Y-72380000D01*
X136151681Y-72404111D01*
X136189831Y-72523235D01*
X136250489Y-72632628D01*
X136331322Y-72728085D01*
X136429224Y-72805938D01*
X136540434Y-72863195D01*
X136660677Y-72897656D01*
X136785333Y-72907996D01*
X137202250Y-72905000D01*
X137361000Y-72746250D01*
X137361000Y-72408072D01*
X137615000Y-72408072D01*
X137615000Y-72746250D01*
X137773750Y-72905000D01*
X138190667Y-72907996D01*
X138315323Y-72897656D01*
X138435566Y-72863195D01*
X138546776Y-72805938D01*
X138644678Y-72728085D01*
X138725511Y-72632628D01*
X138786169Y-72523235D01*
X138824319Y-72404111D01*
X138835500Y-72301750D01*
X138698225Y-72164475D01*
X138731037Y-72124494D01*
X138790002Y-72014180D01*
X138803253Y-71970497D01*
X138835500Y-71938250D01*
X138828402Y-71873265D01*
X138838572Y-71770000D01*
X138838572Y-71470000D01*
X138828723Y-71370000D01*
X138838572Y-71270000D01*
X138838572Y-71083874D01*
X140385701Y-72631003D01*
X140409499Y-72660001D01*
X140525224Y-72754974D01*
X140657253Y-72825546D01*
X140800514Y-72869003D01*
X140912167Y-72880000D01*
X140912175Y-72880000D01*
X140949500Y-72883676D01*
X140986825Y-72880000D01*
X141022893Y-72880000D01*
X141075018Y-72895812D01*
X141199500Y-72908072D01*
X142624500Y-72908072D01*
X142748982Y-72895812D01*
X142868680Y-72859502D01*
X142978994Y-72800537D01*
X143075685Y-72721185D01*
X143155037Y-72624494D01*
X143206992Y-72527294D01*
X143604990Y-72925292D01*
X143604991Y-74430848D01*
X143601314Y-74468180D01*
X143604991Y-74505513D01*
X143615988Y-74617166D01*
X143627237Y-74654250D01*
X143659444Y-74760426D01*
X143730016Y-74892456D01*
X143801191Y-74979182D01*
X143824990Y-75008181D01*
X143853988Y-75031979D01*
X144067293Y-75245284D01*
X144064188Y-75255518D01*
X144051928Y-75380000D01*
X144055000Y-75681750D01*
X144213750Y-75840500D01*
X145288000Y-75840500D01*
X145288000Y-75820500D01*
X145542000Y-75820500D01*
X145542000Y-75840500D01*
X146616250Y-75840500D01*
X146775000Y-75681750D01*
X146778072Y-75380000D01*
X146765812Y-75255518D01*
X146762707Y-75245284D01*
X148642991Y-73365000D01*
X153401928Y-73365000D01*
X153405000Y-74654250D01*
X153563750Y-74813000D01*
X154813000Y-74813000D01*
X154813000Y-72888750D01*
X155067000Y-72888750D01*
X155067000Y-74813000D01*
X156316250Y-74813000D01*
X156475000Y-74654250D01*
X156478072Y-73365000D01*
X156465812Y-73240518D01*
X156429502Y-73120820D01*
X156370537Y-73010506D01*
X156291185Y-72913815D01*
X156194494Y-72834463D01*
X156084180Y-72775498D01*
X155964482Y-72739188D01*
X155840000Y-72726928D01*
X155225750Y-72730000D01*
X155067000Y-72888750D01*
X154813000Y-72888750D01*
X154654250Y-72730000D01*
X154040000Y-72726928D01*
X153915518Y-72739188D01*
X153795820Y-72775498D01*
X153685506Y-72834463D01*
X153588815Y-72913815D01*
X153509463Y-73010506D01*
X153450498Y-73120820D01*
X153414188Y-73240518D01*
X153401928Y-73365000D01*
X148642991Y-73365000D01*
X149101004Y-72906988D01*
X149130001Y-72883191D01*
X149224974Y-72767466D01*
X149295546Y-72635437D01*
X149339003Y-72492176D01*
X149350000Y-72380523D01*
X149350000Y-72380514D01*
X149353676Y-72343191D01*
X149350000Y-72305868D01*
X149350000Y-71245000D01*
X153401928Y-71245000D01*
X153401928Y-71415000D01*
X153414188Y-71539482D01*
X153450498Y-71659180D01*
X153509463Y-71769494D01*
X153588815Y-71866185D01*
X153685506Y-71945537D01*
X153795820Y-72004502D01*
X153915518Y-72040812D01*
X154040000Y-72053072D01*
X155840000Y-72053072D01*
X155964482Y-72040812D01*
X156084180Y-72004502D01*
X156194494Y-71945537D01*
X156291185Y-71866185D01*
X156370537Y-71769494D01*
X156429502Y-71659180D01*
X156465812Y-71539482D01*
X156475609Y-71440000D01*
X160386928Y-71440000D01*
X160399188Y-71564482D01*
X160435498Y-71684180D01*
X160494463Y-71794494D01*
X160573815Y-71891185D01*
X160670506Y-71970537D01*
X160780820Y-72029502D01*
X160900518Y-72065812D01*
X161025000Y-72078072D01*
X161639250Y-72075000D01*
X161798000Y-71916250D01*
X161798000Y-70904500D01*
X162052000Y-70904500D01*
X162052000Y-71916250D01*
X162210750Y-72075000D01*
X162825000Y-72078072D01*
X162949482Y-72065812D01*
X163069180Y-72029502D01*
X163179494Y-71970537D01*
X163276185Y-71891185D01*
X163355537Y-71794494D01*
X163414502Y-71684180D01*
X163450812Y-71564482D01*
X163463072Y-71440000D01*
X163460000Y-71063250D01*
X163301250Y-70904500D01*
X162052000Y-70904500D01*
X161798000Y-70904500D01*
X160548750Y-70904500D01*
X160390000Y-71063250D01*
X160386928Y-71440000D01*
X156475609Y-71440000D01*
X156478072Y-71415000D01*
X156478072Y-70600000D01*
X159700178Y-70600000D01*
X159737500Y-70603676D01*
X159774822Y-70600000D01*
X159774833Y-70600000D01*
X159886486Y-70589003D01*
X160029747Y-70545546D01*
X160161776Y-70474974D01*
X160277501Y-70380001D01*
X160301304Y-70350997D01*
X160388144Y-70264157D01*
X160390000Y-70491750D01*
X160548750Y-70650500D01*
X161798000Y-70650500D01*
X161798000Y-69638750D01*
X162052000Y-69638750D01*
X162052000Y-70650500D01*
X163301250Y-70650500D01*
X163460000Y-70491750D01*
X163463072Y-70115000D01*
X163450812Y-69990518D01*
X163414502Y-69870820D01*
X163355537Y-69760506D01*
X163276185Y-69663815D01*
X163179494Y-69584463D01*
X163069180Y-69525498D01*
X162949482Y-69489188D01*
X162825000Y-69476928D01*
X162210750Y-69480000D01*
X162052000Y-69638750D01*
X161798000Y-69638750D01*
X161639250Y-69480000D01*
X161174625Y-69477676D01*
X161699230Y-68953072D01*
X162575002Y-68953072D01*
X162748256Y-68936008D01*
X162914852Y-68885472D01*
X163068387Y-68803405D01*
X163202962Y-68692962D01*
X163313405Y-68558387D01*
X163395472Y-68404852D01*
X163446008Y-68238256D01*
X163462383Y-68072000D01*
X164465000Y-68072000D01*
X164489776Y-68069560D01*
X164513601Y-68062333D01*
X164535557Y-68050597D01*
X164554803Y-68034803D01*
X164570597Y-68015557D01*
X164582333Y-67993601D01*
X164589560Y-67969776D01*
X164592000Y-67945000D01*
X164592000Y-59817000D01*
X174498000Y-59817000D01*
X174498000Y-77343000D01*
X110617000Y-77343000D01*
X110617000Y-76555000D01*
X144051928Y-76555000D01*
X144064188Y-76679482D01*
X144100498Y-76799180D01*
X144159463Y-76909494D01*
X144238815Y-77006185D01*
X144335506Y-77085537D01*
X144445820Y-77144502D01*
X144565518Y-77180812D01*
X144690000Y-77193072D01*
X145129250Y-77190000D01*
X145288000Y-77031250D01*
X145288000Y-76094500D01*
X145542000Y-76094500D01*
X145542000Y-77031250D01*
X145700750Y-77190000D01*
X146140000Y-77193072D01*
X146264482Y-77180812D01*
X146384180Y-77144502D01*
X146494494Y-77085537D01*
X146591185Y-77006185D01*
X146670537Y-76909494D01*
X146729502Y-76799180D01*
X146765812Y-76679482D01*
X146778072Y-76555000D01*
X146777665Y-76515000D01*
X153401928Y-76515000D01*
X153414188Y-76639482D01*
X153450498Y-76759180D01*
X153509463Y-76869494D01*
X153588815Y-76966185D01*
X153685506Y-77045537D01*
X153795820Y-77104502D01*
X153915518Y-77140812D01*
X154040000Y-77153072D01*
X154654250Y-77150000D01*
X154813000Y-76991250D01*
X154813000Y-75067000D01*
X155067000Y-75067000D01*
X155067000Y-76991250D01*
X155225750Y-77150000D01*
X155840000Y-77153072D01*
X155964482Y-77140812D01*
X156084180Y-77104502D01*
X156194494Y-77045537D01*
X156291185Y-76966185D01*
X156370537Y-76869494D01*
X156429502Y-76759180D01*
X156465812Y-76639482D01*
X156478072Y-76515000D01*
X156475000Y-75225750D01*
X156316250Y-75067000D01*
X155067000Y-75067000D01*
X154813000Y-75067000D01*
X153563750Y-75067000D01*
X153405000Y-75225750D01*
X153401928Y-76515000D01*
X146777665Y-76515000D01*
X146775000Y-76253250D01*
X146616250Y-76094500D01*
X145542000Y-76094500D01*
X145288000Y-76094500D01*
X144213750Y-76094500D01*
X144055000Y-76253250D01*
X144051928Y-76555000D01*
X110617000Y-76555000D01*
X110617000Y-75052500D01*
X133256928Y-75052500D01*
X133269188Y-75176982D01*
X133305498Y-75296680D01*
X133364463Y-75406994D01*
X133443815Y-75503685D01*
X133540506Y-75583037D01*
X133650820Y-75642002D01*
X133770518Y-75678312D01*
X133895000Y-75690572D01*
X134334250Y-75687500D01*
X134493000Y-75528750D01*
X134493000Y-74592000D01*
X134747000Y-74592000D01*
X134747000Y-75528750D01*
X134905750Y-75687500D01*
X135345000Y-75690572D01*
X135469482Y-75678312D01*
X135589180Y-75642002D01*
X135699494Y-75583037D01*
X135796185Y-75503685D01*
X135875537Y-75406994D01*
X135934502Y-75296680D01*
X135970812Y-75176982D01*
X135983072Y-75052500D01*
X135980000Y-74750750D01*
X135821250Y-74592000D01*
X134747000Y-74592000D01*
X134493000Y-74592000D01*
X133418750Y-74592000D01*
X133260000Y-74750750D01*
X133256928Y-75052500D01*
X110617000Y-75052500D01*
X110617000Y-73720000D01*
X126296928Y-73720000D01*
X126309188Y-73844482D01*
X126345498Y-73964180D01*
X126404463Y-74074494D01*
X126483815Y-74171185D01*
X126580506Y-74250537D01*
X126690820Y-74309502D01*
X126810518Y-74345812D01*
X126935000Y-74358072D01*
X127349250Y-74355000D01*
X127508000Y-74196250D01*
X127508000Y-73247000D01*
X127762000Y-73247000D01*
X127762000Y-74196250D01*
X127920750Y-74355000D01*
X128335000Y-74358072D01*
X128459482Y-74345812D01*
X128579180Y-74309502D01*
X128689494Y-74250537D01*
X128786185Y-74171185D01*
X128865537Y-74074494D01*
X128924502Y-73964180D01*
X128960812Y-73844482D01*
X128973072Y-73720000D01*
X130106928Y-73720000D01*
X130119188Y-73844482D01*
X130155498Y-73964180D01*
X130214463Y-74074494D01*
X130293815Y-74171185D01*
X130390506Y-74250537D01*
X130500820Y-74309502D01*
X130620518Y-74345812D01*
X130745000Y-74358072D01*
X131159250Y-74355000D01*
X131318000Y-74196250D01*
X131318000Y-73247000D01*
X131572000Y-73247000D01*
X131572000Y-74196250D01*
X131730750Y-74355000D01*
X132145000Y-74358072D01*
X132269482Y-74345812D01*
X132389180Y-74309502D01*
X132499494Y-74250537D01*
X132596185Y-74171185D01*
X132675537Y-74074494D01*
X132734502Y-73964180D01*
X132770812Y-73844482D01*
X132783072Y-73720000D01*
X132780000Y-73405750D01*
X132621250Y-73247000D01*
X131572000Y-73247000D01*
X131318000Y-73247000D01*
X130268750Y-73247000D01*
X130110000Y-73405750D01*
X130106928Y-73720000D01*
X128973072Y-73720000D01*
X128970000Y-73405750D01*
X128811250Y-73247000D01*
X127762000Y-73247000D01*
X127508000Y-73247000D01*
X126458750Y-73247000D01*
X126300000Y-73405750D01*
X126296928Y-73720000D01*
X110617000Y-73720000D01*
X110617000Y-71097500D01*
X122286928Y-71097500D01*
X122299188Y-71221982D01*
X122335498Y-71341680D01*
X122394463Y-71451994D01*
X122473815Y-71548685D01*
X122570506Y-71628037D01*
X122680820Y-71687002D01*
X122800518Y-71723312D01*
X122925000Y-71735572D01*
X123539250Y-71732500D01*
X123698000Y-71573750D01*
X123698000Y-70562000D01*
X123952000Y-70562000D01*
X123952000Y-71573750D01*
X124110750Y-71732500D01*
X124725000Y-71735572D01*
X124849482Y-71723312D01*
X124969180Y-71687002D01*
X125079494Y-71628037D01*
X125176185Y-71548685D01*
X125255537Y-71451994D01*
X125314502Y-71341680D01*
X125350812Y-71221982D01*
X125363072Y-71097500D01*
X125360000Y-70720750D01*
X125201250Y-70562000D01*
X123952000Y-70562000D01*
X123698000Y-70562000D01*
X122448750Y-70562000D01*
X122290000Y-70720750D01*
X122286928Y-71097500D01*
X110617000Y-71097500D01*
X110617000Y-69772500D01*
X122286928Y-69772500D01*
X122290000Y-70149250D01*
X122448750Y-70308000D01*
X123698000Y-70308000D01*
X123698000Y-69296250D01*
X123952000Y-69296250D01*
X123952000Y-70308000D01*
X125201250Y-70308000D01*
X125360000Y-70149250D01*
X125363072Y-69772500D01*
X125350812Y-69648018D01*
X125314502Y-69528320D01*
X125255537Y-69418006D01*
X125176185Y-69321315D01*
X125079494Y-69241963D01*
X124969180Y-69182998D01*
X124849482Y-69146688D01*
X124725000Y-69134428D01*
X124110750Y-69137500D01*
X123952000Y-69296250D01*
X123698000Y-69296250D01*
X123539250Y-69137500D01*
X122925000Y-69134428D01*
X122800518Y-69146688D01*
X122680820Y-69182998D01*
X122570506Y-69241963D01*
X122473815Y-69321315D01*
X122394463Y-69418006D01*
X122335498Y-69528320D01*
X122299188Y-69648018D01*
X122286928Y-69772500D01*
X110617000Y-69772500D01*
X110617000Y-59817000D01*
X121793000Y-59817000D01*
X121793000Y-67945000D01*
G37*
%TD.AperFunction*%
%TD*%
M02*
