%TF.GenerationSoftware,KiCad,Pcbnew,(5.1.9)-1*%
%TF.CreationDate,2021-09-21T17:39:54+01:00*%
%TF.ProjectId,InlinePowerpoleBOB,496e6c69-6e65-4506-9f77-6572706f6c65,rev?*%
%TF.SameCoordinates,Original*%
%TF.FileFunction,Copper,L1,Top*%
%TF.FilePolarity,Positive*%
%FSLAX46Y46*%
G04 Gerber Fmt 4.6, Leading zero omitted, Abs format (unit mm)*
G04 Created by KiCad (PCBNEW (5.1.9)-1) date 2021-09-21 17:39:54*
%MOMM*%
%LPD*%
G01*
G04 APERTURE LIST*
%TA.AperFunction,SMDPad,CuDef*%
%ADD10R,1.425000X0.300000*%
%TD*%
%TA.AperFunction,SMDPad,CuDef*%
%ADD11R,1.800000X3.150000*%
%TD*%
%TA.AperFunction,ComponentPad*%
%ADD12O,6.000000X5.500000*%
%TD*%
%TA.AperFunction,SMDPad,CuDef*%
%ADD13R,3.810000X3.910000*%
%TD*%
%TA.AperFunction,SMDPad,CuDef*%
%ADD14R,0.710000X0.610000*%
%TD*%
%TA.AperFunction,SMDPad,CuDef*%
%ADD15R,1.270000X0.610000*%
%TD*%
%TA.AperFunction,ViaPad*%
%ADD16C,0.500000*%
%TD*%
%TA.AperFunction,ViaPad*%
%ADD17C,0.800000*%
%TD*%
%TA.AperFunction,Conductor*%
%ADD18C,0.250000*%
%TD*%
%TA.AperFunction,Conductor*%
%ADD19C,0.254000*%
%TD*%
%TA.AperFunction,Conductor*%
%ADD20C,0.100000*%
%TD*%
G04 APERTURE END LIST*
D10*
%TO.P,IC1,10*%
%TO.N,Net-(IC1-Pad10)*%
X141912000Y-70120000D03*
%TO.P,IC1,9*%
%TO.N,Net-(C3-Pad1)*%
X141912000Y-70620000D03*
%TO.P,IC1,8*%
X141912000Y-71120000D03*
%TO.P,IC1,7*%
%TO.N,Net-(IC1-Pad7)*%
X141912000Y-71620000D03*
%TO.P,IC1,6*%
%TO.N,Net-(IC1-Pad6)*%
X141912000Y-72120000D03*
%TO.P,IC1,5*%
%TO.N,GND*%
X137488000Y-72120000D03*
%TO.P,IC1,4*%
%TO.N,Net-(C1-Pad1)*%
X137488000Y-71620000D03*
%TO.P,IC1,3*%
%TO.N,Net-(IC1-Pad3)*%
X137488000Y-71120000D03*
%TO.P,IC1,2*%
%TO.N,Net-(IC1-Pad2)*%
X137488000Y-70620000D03*
%TO.P,IC1,1*%
%TO.N,Net-(C2-Pad1)*%
X137488000Y-70120000D03*
%TD*%
D11*
%TO.P,C5,2*%
%TO.N,GND*%
X151765000Y-70495000D03*
%TO.P,C5,1*%
%TO.N,Net-(C3-Pad1)*%
X151765000Y-65395000D03*
%TD*%
D12*
%TO.P,J2,2*%
%TO.N,GND*%
X162560000Y-63145000D03*
%TO.P,J2,1*%
%TO.N,Net-(C3-Pad1)*%
X162560000Y-55245000D03*
%TD*%
%TO.P,J1,2*%
%TO.N,GND*%
X117094000Y-63145000D03*
%TO.P,J1,1*%
%TO.N,Net-(C2-Pad1)*%
X117094000Y-55245000D03*
%TD*%
D13*
%TO.P,Q2,3*%
%TO.N,Net-(C3-Pad1)*%
X142930000Y-53975000D03*
D14*
X145190000Y-52070000D03*
X145190000Y-53340000D03*
X145190000Y-54610000D03*
X145190000Y-55880000D03*
D15*
%TO.P,Q2,2*%
%TO.N,Net-(IC1-Pad10)*%
X139570000Y-55880000D03*
%TO.P,Q2,1*%
%TO.N,Net-(Q1-Pad1)*%
X139570000Y-54610000D03*
X139570000Y-53340000D03*
X139570000Y-52070000D03*
%TD*%
D13*
%TO.P,Q1,3*%
%TO.N,Net-(C2-Pad1)*%
X132660000Y-52705000D03*
D14*
X130400000Y-54610000D03*
X130400000Y-53340000D03*
X130400000Y-52070000D03*
X130400000Y-50800000D03*
D15*
%TO.P,Q1,2*%
%TO.N,Net-(IC1-Pad10)*%
X136020000Y-50800000D03*
%TO.P,Q1,1*%
%TO.N,Net-(Q1-Pad1)*%
X136020000Y-52070000D03*
X136020000Y-53340000D03*
X136020000Y-54610000D03*
%TD*%
%TO.P,R6,2*%
%TO.N,Net-(C4-Pad1)*%
%TA.AperFunction,SMDPad,CuDef*%
G36*
G01*
X144964999Y-71250000D02*
X145865001Y-71250000D01*
G75*
G02*
X146115000Y-71499999I0J-249999D01*
G01*
X146115000Y-72200001D01*
G75*
G02*
X145865001Y-72450000I-249999J0D01*
G01*
X144964999Y-72450000D01*
G75*
G02*
X144715000Y-72200001I0J249999D01*
G01*
X144715000Y-71499999D01*
G75*
G02*
X144964999Y-71250000I249999J0D01*
G01*
G37*
%TD.AperFunction*%
%TO.P,R6,1*%
%TO.N,Net-(IC1-Pad10)*%
%TA.AperFunction,SMDPad,CuDef*%
G36*
G01*
X144964999Y-69250000D02*
X145865001Y-69250000D01*
G75*
G02*
X146115000Y-69499999I0J-249999D01*
G01*
X146115000Y-70200001D01*
G75*
G02*
X145865001Y-70450000I-249999J0D01*
G01*
X144964999Y-70450000D01*
G75*
G02*
X144715000Y-70200001I0J249999D01*
G01*
X144715000Y-69499999D01*
G75*
G02*
X144964999Y-69250000I249999J0D01*
G01*
G37*
%TD.AperFunction*%
%TD*%
%TO.P,R5,2*%
%TO.N,Net-(IC1-Pad2)*%
%TA.AperFunction,SMDPad,CuDef*%
G36*
G01*
X127184999Y-67710000D02*
X128085001Y-67710000D01*
G75*
G02*
X128335000Y-67959999I0J-249999D01*
G01*
X128335000Y-68660001D01*
G75*
G02*
X128085001Y-68910000I-249999J0D01*
G01*
X127184999Y-68910000D01*
G75*
G02*
X126935000Y-68660001I0J249999D01*
G01*
X126935000Y-67959999D01*
G75*
G02*
X127184999Y-67710000I249999J0D01*
G01*
G37*
%TD.AperFunction*%
%TO.P,R5,1*%
%TO.N,Net-(C2-Pad1)*%
%TA.AperFunction,SMDPad,CuDef*%
G36*
G01*
X127184999Y-65710000D02*
X128085001Y-65710000D01*
G75*
G02*
X128335000Y-65959999I0J-249999D01*
G01*
X128335000Y-66660001D01*
G75*
G02*
X128085001Y-66910000I-249999J0D01*
G01*
X127184999Y-66910000D01*
G75*
G02*
X126935000Y-66660001I0J249999D01*
G01*
X126935000Y-65959999D01*
G75*
G02*
X127184999Y-65710000I249999J0D01*
G01*
G37*
%TD.AperFunction*%
%TD*%
%TO.P,R4,2*%
%TO.N,GND*%
%TA.AperFunction,SMDPad,CuDef*%
G36*
G01*
X127184999Y-72520000D02*
X128085001Y-72520000D01*
G75*
G02*
X128335000Y-72769999I0J-249999D01*
G01*
X128335000Y-73470001D01*
G75*
G02*
X128085001Y-73720000I-249999J0D01*
G01*
X127184999Y-73720000D01*
G75*
G02*
X126935000Y-73470001I0J249999D01*
G01*
X126935000Y-72769999D01*
G75*
G02*
X127184999Y-72520000I249999J0D01*
G01*
G37*
%TD.AperFunction*%
%TO.P,R4,1*%
%TO.N,Net-(IC1-Pad2)*%
%TA.AperFunction,SMDPad,CuDef*%
G36*
G01*
X127184999Y-70520000D02*
X128085001Y-70520000D01*
G75*
G02*
X128335000Y-70769999I0J-249999D01*
G01*
X128335000Y-71470001D01*
G75*
G02*
X128085001Y-71720000I-249999J0D01*
G01*
X127184999Y-71720000D01*
G75*
G02*
X126935000Y-71470001I0J249999D01*
G01*
X126935000Y-70769999D01*
G75*
G02*
X127184999Y-70520000I249999J0D01*
G01*
G37*
%TD.AperFunction*%
%TD*%
%TO.P,R3,2*%
%TO.N,Net-(IC1-Pad3)*%
%TA.AperFunction,SMDPad,CuDef*%
G36*
G01*
X130994999Y-67710000D02*
X131895001Y-67710000D01*
G75*
G02*
X132145000Y-67959999I0J-249999D01*
G01*
X132145000Y-68660001D01*
G75*
G02*
X131895001Y-68910000I-249999J0D01*
G01*
X130994999Y-68910000D01*
G75*
G02*
X130745000Y-68660001I0J249999D01*
G01*
X130745000Y-67959999D01*
G75*
G02*
X130994999Y-67710000I249999J0D01*
G01*
G37*
%TD.AperFunction*%
%TO.P,R3,1*%
%TO.N,Net-(C2-Pad1)*%
%TA.AperFunction,SMDPad,CuDef*%
G36*
G01*
X130994999Y-65710000D02*
X131895001Y-65710000D01*
G75*
G02*
X132145000Y-65959999I0J-249999D01*
G01*
X132145000Y-66660001D01*
G75*
G02*
X131895001Y-66910000I-249999J0D01*
G01*
X130994999Y-66910000D01*
G75*
G02*
X130745000Y-66660001I0J249999D01*
G01*
X130745000Y-65959999D01*
G75*
G02*
X130994999Y-65710000I249999J0D01*
G01*
G37*
%TD.AperFunction*%
%TD*%
%TO.P,R2,2*%
%TO.N,GND*%
%TA.AperFunction,SMDPad,CuDef*%
G36*
G01*
X130994999Y-72520000D02*
X131895001Y-72520000D01*
G75*
G02*
X132145000Y-72769999I0J-249999D01*
G01*
X132145000Y-73470001D01*
G75*
G02*
X131895001Y-73720000I-249999J0D01*
G01*
X130994999Y-73720000D01*
G75*
G02*
X130745000Y-73470001I0J249999D01*
G01*
X130745000Y-72769999D01*
G75*
G02*
X130994999Y-72520000I249999J0D01*
G01*
G37*
%TD.AperFunction*%
%TO.P,R2,1*%
%TO.N,Net-(IC1-Pad3)*%
%TA.AperFunction,SMDPad,CuDef*%
G36*
G01*
X130994999Y-70520000D02*
X131895001Y-70520000D01*
G75*
G02*
X132145000Y-70769999I0J-249999D01*
G01*
X132145000Y-71470001D01*
G75*
G02*
X131895001Y-71720000I-249999J0D01*
G01*
X130994999Y-71720000D01*
G75*
G02*
X130745000Y-71470001I0J249999D01*
G01*
X130745000Y-70769999D01*
G75*
G02*
X130994999Y-70520000I249999J0D01*
G01*
G37*
%TD.AperFunction*%
%TD*%
%TO.P,R1,2*%
%TO.N,Net-(IC1-Pad6)*%
%TA.AperFunction,SMDPad,CuDef*%
G36*
G01*
X136074999Y-67710000D02*
X136975001Y-67710000D01*
G75*
G02*
X137225000Y-67959999I0J-249999D01*
G01*
X137225000Y-68660001D01*
G75*
G02*
X136975001Y-68910000I-249999J0D01*
G01*
X136074999Y-68910000D01*
G75*
G02*
X135825000Y-68660001I0J249999D01*
G01*
X135825000Y-67959999D01*
G75*
G02*
X136074999Y-67710000I249999J0D01*
G01*
G37*
%TD.AperFunction*%
%TO.P,R1,1*%
%TO.N,Net-(C2-Pad1)*%
%TA.AperFunction,SMDPad,CuDef*%
G36*
G01*
X136074999Y-65710000D02*
X136975001Y-65710000D01*
G75*
G02*
X137225000Y-65959999I0J-249999D01*
G01*
X137225000Y-66660001D01*
G75*
G02*
X136975001Y-66910000I-249999J0D01*
G01*
X136074999Y-66910000D01*
G75*
G02*
X135825000Y-66660001I0J249999D01*
G01*
X135825000Y-65959999D01*
G75*
G02*
X136074999Y-65710000I249999J0D01*
G01*
G37*
%TD.AperFunction*%
%TD*%
%TO.P,C4,2*%
%TO.N,GND*%
%TA.AperFunction,SMDPad,CuDef*%
G36*
G01*
X144940000Y-75380000D02*
X145890000Y-75380000D01*
G75*
G02*
X146140000Y-75630000I0J-250000D01*
G01*
X146140000Y-76305000D01*
G75*
G02*
X145890000Y-76555000I-250000J0D01*
G01*
X144940000Y-76555000D01*
G75*
G02*
X144690000Y-76305000I0J250000D01*
G01*
X144690000Y-75630000D01*
G75*
G02*
X144940000Y-75380000I250000J0D01*
G01*
G37*
%TD.AperFunction*%
%TO.P,C4,1*%
%TO.N,Net-(C4-Pad1)*%
%TA.AperFunction,SMDPad,CuDef*%
G36*
G01*
X144940000Y-73305000D02*
X145890000Y-73305000D01*
G75*
G02*
X146140000Y-73555000I0J-250000D01*
G01*
X146140000Y-74230000D01*
G75*
G02*
X145890000Y-74480000I-250000J0D01*
G01*
X144940000Y-74480000D01*
G75*
G02*
X144690000Y-74230000I0J250000D01*
G01*
X144690000Y-73555000D01*
G75*
G02*
X144940000Y-73305000I250000J0D01*
G01*
G37*
%TD.AperFunction*%
%TD*%
%TO.P,C3,2*%
%TO.N,GND*%
%TA.AperFunction,SMDPad,CuDef*%
G36*
G01*
X156829998Y-60882500D02*
X158130002Y-60882500D01*
G75*
G02*
X158380000Y-61132498I0J-249998D01*
G01*
X158380000Y-61957502D01*
G75*
G02*
X158130002Y-62207500I-249998J0D01*
G01*
X156829998Y-62207500D01*
G75*
G02*
X156580000Y-61957502I0J249998D01*
G01*
X156580000Y-61132498D01*
G75*
G02*
X156829998Y-60882500I249998J0D01*
G01*
G37*
%TD.AperFunction*%
%TO.P,C3,1*%
%TO.N,Net-(C3-Pad1)*%
%TA.AperFunction,SMDPad,CuDef*%
G36*
G01*
X156829998Y-57757500D02*
X158130002Y-57757500D01*
G75*
G02*
X158380000Y-58007498I0J-249998D01*
G01*
X158380000Y-58832502D01*
G75*
G02*
X158130002Y-59082500I-249998J0D01*
G01*
X156829998Y-59082500D01*
G75*
G02*
X156580000Y-58832502I0J249998D01*
G01*
X156580000Y-58007498D01*
G75*
G02*
X156829998Y-57757500I249998J0D01*
G01*
G37*
%TD.AperFunction*%
%TD*%
%TO.P,C2,2*%
%TO.N,GND*%
%TA.AperFunction,SMDPad,CuDef*%
G36*
G01*
X123174998Y-68718000D02*
X124475002Y-68718000D01*
G75*
G02*
X124725000Y-68967998I0J-249998D01*
G01*
X124725000Y-69793002D01*
G75*
G02*
X124475002Y-70043000I-249998J0D01*
G01*
X123174998Y-70043000D01*
G75*
G02*
X122925000Y-69793002I0J249998D01*
G01*
X122925000Y-68967998D01*
G75*
G02*
X123174998Y-68718000I249998J0D01*
G01*
G37*
%TD.AperFunction*%
%TO.P,C2,1*%
%TO.N,Net-(C2-Pad1)*%
%TA.AperFunction,SMDPad,CuDef*%
G36*
G01*
X123174998Y-65593000D02*
X124475002Y-65593000D01*
G75*
G02*
X124725000Y-65842998I0J-249998D01*
G01*
X124725000Y-66668002D01*
G75*
G02*
X124475002Y-66918000I-249998J0D01*
G01*
X123174998Y-66918000D01*
G75*
G02*
X122925000Y-66668002I0J249998D01*
G01*
X122925000Y-65842998D01*
G75*
G02*
X123174998Y-65593000I249998J0D01*
G01*
G37*
%TD.AperFunction*%
%TD*%
%TO.P,C1,2*%
%TO.N,GND*%
%TA.AperFunction,SMDPad,CuDef*%
G36*
G01*
X134145000Y-73877500D02*
X135095000Y-73877500D01*
G75*
G02*
X135345000Y-74127500I0J-250000D01*
G01*
X135345000Y-74802500D01*
G75*
G02*
X135095000Y-75052500I-250000J0D01*
G01*
X134145000Y-75052500D01*
G75*
G02*
X133895000Y-74802500I0J250000D01*
G01*
X133895000Y-74127500D01*
G75*
G02*
X134145000Y-73877500I250000J0D01*
G01*
G37*
%TD.AperFunction*%
%TO.P,C1,1*%
%TO.N,Net-(C1-Pad1)*%
%TA.AperFunction,SMDPad,CuDef*%
G36*
G01*
X134145000Y-71802500D02*
X135095000Y-71802500D01*
G75*
G02*
X135345000Y-72052500I0J-250000D01*
G01*
X135345000Y-72727500D01*
G75*
G02*
X135095000Y-72977500I-250000J0D01*
G01*
X134145000Y-72977500D01*
G75*
G02*
X133895000Y-72727500I0J250000D01*
G01*
X133895000Y-72052500D01*
G75*
G02*
X134145000Y-71802500I250000J0D01*
G01*
G37*
%TD.AperFunction*%
%TD*%
D16*
%TO.N,GND*%
X131445000Y-74295000D03*
X127635000Y-74295000D03*
X134620000Y-75565000D03*
X136144000Y-73660000D03*
X143510000Y-76200000D03*
X147320000Y-76200000D03*
X123825000Y-71755000D03*
X149860000Y-70358000D03*
X153670000Y-70358000D03*
X157226000Y-63246000D03*
X129540000Y-69215000D03*
X139700000Y-73025000D03*
X148590000Y-70612000D03*
%TO.N,Net-(C2-Pad1)*%
X121920000Y-47625000D03*
X124460000Y-47625000D03*
X127000000Y-47625000D03*
X129540000Y-47625000D03*
X132080000Y-47625000D03*
X121920000Y-50165000D03*
X124460000Y-50165000D03*
X127000000Y-50165000D03*
X121920000Y-52705000D03*
X124460000Y-52705000D03*
X127000000Y-52705000D03*
X132080000Y-52705000D03*
X121920000Y-55245000D03*
X124460000Y-55245000D03*
X127000000Y-55245000D03*
X121920000Y-57785000D03*
X124460000Y-57785000D03*
X127000000Y-57785000D03*
X129540000Y-57785000D03*
X132080000Y-57785000D03*
X132080000Y-51435000D03*
X132080000Y-53975000D03*
X133350000Y-51435000D03*
X133350000Y-52705000D03*
X133350000Y-53975000D03*
%TO.N,Net-(C3-Pad1)*%
X143510000Y-48895000D03*
X146050000Y-48895000D03*
X148590000Y-48895000D03*
X151130000Y-48895000D03*
X153670000Y-48895000D03*
X148590000Y-51435000D03*
X151130000Y-51435000D03*
X153670000Y-51435000D03*
X148590000Y-53975000D03*
X151130000Y-53975000D03*
X148590000Y-56515000D03*
X151130000Y-56515000D03*
X153670000Y-56515000D03*
X143510000Y-59055000D03*
X146050000Y-59055000D03*
X148590000Y-59055000D03*
X151130000Y-59055000D03*
X153670000Y-59055000D03*
X143510000Y-53975000D03*
X143510000Y-52705000D03*
X143510000Y-55245000D03*
X142240000Y-55245000D03*
X142240000Y-53975000D03*
X142240000Y-52705000D03*
D17*
%TO.N,Net-(IC1-Pad10)*%
X137795000Y-48260000D03*
X137795000Y-58420000D03*
%TD*%
D18*
%TO.N,GND*%
X137488000Y-72120000D02*
X136540498Y-72120000D01*
X136144000Y-72516498D02*
X136144000Y-73660000D01*
X136540498Y-72120000D02*
X136144000Y-72516498D01*
%TO.N,Net-(C1-Pad1)*%
X135390000Y-71620000D02*
X134620000Y-72390000D01*
X137488000Y-71620000D02*
X135390000Y-71620000D01*
%TO.N,Net-(C2-Pad1)*%
X131694600Y-66310000D02*
X131445000Y-66310000D01*
X133715000Y-68330400D02*
X133715000Y-66310000D01*
X137488000Y-70120000D02*
X135504600Y-70120000D01*
X135504600Y-70120000D02*
X133715000Y-68330400D01*
X133715000Y-66310000D02*
X136525000Y-66310000D01*
X131445000Y-66310000D02*
X133715000Y-66310000D01*
%TO.N,Net-(C3-Pad1)*%
X146384990Y-70775010D02*
X151765000Y-65395000D01*
X144526000Y-71120000D02*
X144870990Y-70775010D01*
X141912000Y-71120000D02*
X144526000Y-71120000D01*
X141912000Y-70620000D02*
X144280000Y-70620000D01*
X144726820Y-70775010D02*
X145832010Y-70775010D01*
X144563810Y-70612000D02*
X144726820Y-70775010D01*
X144288000Y-70612000D02*
X144563810Y-70612000D01*
X145832010Y-70775010D02*
X146384990Y-70775010D01*
X144280000Y-70620000D02*
X144288000Y-70612000D01*
X144870990Y-70775010D02*
X145832010Y-70775010D01*
%TO.N,Net-(C4-Pad1)*%
X145415000Y-71850000D02*
X145415000Y-73892500D01*
%TO.N,Net-(IC1-Pad10)*%
X139970000Y-70120000D02*
X141912000Y-70120000D01*
X139570000Y-69720000D02*
X139970000Y-70120000D01*
X136020000Y-50800000D02*
X137160000Y-50800000D01*
X137795000Y-50165000D02*
X137795000Y-48260000D01*
X137160000Y-50800000D02*
X137795000Y-50165000D01*
X139440000Y-58420000D02*
X139570000Y-58550000D01*
X137795000Y-58420000D02*
X139440000Y-58420000D01*
X139570000Y-58550000D02*
X139570000Y-69720000D01*
X139570000Y-55880000D02*
X139570000Y-58550000D01*
X143144500Y-69850000D02*
X145415000Y-69850000D01*
X142874500Y-70120000D02*
X143144500Y-69850000D01*
X141912000Y-70120000D02*
X142874500Y-70120000D01*
%TO.N,Net-(IC1-Pad6)*%
X137139500Y-68310000D02*
X136525000Y-68310000D01*
X140949500Y-72120000D02*
X137139500Y-68310000D01*
X141912000Y-72120000D02*
X140949500Y-72120000D01*
%TO.N,Net-(IC1-Pad3)*%
X134255000Y-71120000D02*
X131445000Y-68310000D01*
X137488000Y-71120000D02*
X134255000Y-71120000D01*
X131445000Y-68310000D02*
X131445000Y-71120000D01*
%TO.N,Net-(IC1-Pad2)*%
X127635000Y-68310000D02*
X128635000Y-67310000D01*
X128635000Y-67310000D02*
X132058190Y-67310000D01*
X132058190Y-67310000D02*
X132715000Y-67966810D01*
X132715000Y-67966810D02*
X132715000Y-68580000D01*
X134755000Y-70620000D02*
X137488000Y-70620000D01*
X132715000Y-68580000D02*
X134755000Y-70620000D01*
X127635000Y-68310000D02*
X127635000Y-71120000D01*
%TD*%
D19*
%TO.N,Net-(C2-Pad1)*%
X134493000Y-50112065D02*
X132945750Y-50115000D01*
X132787000Y-50273750D01*
X132787000Y-52578000D01*
X132807000Y-52578000D01*
X132807000Y-52832000D01*
X132787000Y-52832000D01*
X132787000Y-55136250D01*
X132945750Y-55295000D01*
X134493000Y-55297935D01*
X134493000Y-67183000D01*
X133005992Y-67183000D01*
X132778582Y-66955591D01*
X132783072Y-66910000D01*
X132780000Y-66595750D01*
X132621250Y-66437000D01*
X131572000Y-66437000D01*
X131572000Y-66457000D01*
X131318000Y-66457000D01*
X131318000Y-66437000D01*
X130268750Y-66437000D01*
X130155750Y-66550000D01*
X128924250Y-66550000D01*
X128811250Y-66437000D01*
X127762000Y-66437000D01*
X127762000Y-66457000D01*
X127508000Y-66457000D01*
X127508000Y-66437000D01*
X126458750Y-66437000D01*
X126300000Y-66595750D01*
X126296928Y-66910000D01*
X126309188Y-67034482D01*
X126345498Y-67154180D01*
X126360903Y-67183000D01*
X125303373Y-67183000D01*
X125314502Y-67162180D01*
X125350812Y-67042482D01*
X125363072Y-66918000D01*
X125360000Y-66541250D01*
X125201250Y-66382500D01*
X123952000Y-66382500D01*
X123952000Y-66402500D01*
X123698000Y-66402500D01*
X123698000Y-66382500D01*
X123678000Y-66382500D01*
X123678000Y-66128500D01*
X123698000Y-66128500D01*
X123698000Y-65116750D01*
X123952000Y-65116750D01*
X123952000Y-66128500D01*
X125201250Y-66128500D01*
X125360000Y-65969750D01*
X125362117Y-65710000D01*
X126296928Y-65710000D01*
X126300000Y-66024250D01*
X126458750Y-66183000D01*
X127508000Y-66183000D01*
X127508000Y-65233750D01*
X127762000Y-65233750D01*
X127762000Y-66183000D01*
X128811250Y-66183000D01*
X128970000Y-66024250D01*
X128973072Y-65710000D01*
X130106928Y-65710000D01*
X130110000Y-66024250D01*
X130268750Y-66183000D01*
X131318000Y-66183000D01*
X131318000Y-65233750D01*
X131572000Y-65233750D01*
X131572000Y-66183000D01*
X132621250Y-66183000D01*
X132780000Y-66024250D01*
X132783072Y-65710000D01*
X132770812Y-65585518D01*
X132734502Y-65465820D01*
X132675537Y-65355506D01*
X132596185Y-65258815D01*
X132499494Y-65179463D01*
X132389180Y-65120498D01*
X132269482Y-65084188D01*
X132145000Y-65071928D01*
X131730750Y-65075000D01*
X131572000Y-65233750D01*
X131318000Y-65233750D01*
X131159250Y-65075000D01*
X130745000Y-65071928D01*
X130620518Y-65084188D01*
X130500820Y-65120498D01*
X130390506Y-65179463D01*
X130293815Y-65258815D01*
X130214463Y-65355506D01*
X130155498Y-65465820D01*
X130119188Y-65585518D01*
X130106928Y-65710000D01*
X128973072Y-65710000D01*
X128960812Y-65585518D01*
X128924502Y-65465820D01*
X128865537Y-65355506D01*
X128786185Y-65258815D01*
X128689494Y-65179463D01*
X128579180Y-65120498D01*
X128459482Y-65084188D01*
X128335000Y-65071928D01*
X127920750Y-65075000D01*
X127762000Y-65233750D01*
X127508000Y-65233750D01*
X127349250Y-65075000D01*
X126935000Y-65071928D01*
X126810518Y-65084188D01*
X126690820Y-65120498D01*
X126580506Y-65179463D01*
X126483815Y-65258815D01*
X126404463Y-65355506D01*
X126345498Y-65465820D01*
X126309188Y-65585518D01*
X126296928Y-65710000D01*
X125362117Y-65710000D01*
X125363072Y-65593000D01*
X125350812Y-65468518D01*
X125314502Y-65348820D01*
X125255537Y-65238506D01*
X125176185Y-65141815D01*
X125079494Y-65062463D01*
X124969180Y-65003498D01*
X124849482Y-64967188D01*
X124725000Y-64954928D01*
X124110750Y-64958000D01*
X123952000Y-65116750D01*
X123698000Y-65116750D01*
X123539250Y-64958000D01*
X122925000Y-64954928D01*
X122800518Y-64967188D01*
X122682000Y-65003140D01*
X122682000Y-59055000D01*
X122679560Y-59030224D01*
X122672333Y-59006399D01*
X122660597Y-58984443D01*
X122644803Y-58965197D01*
X122625557Y-58949403D01*
X122603601Y-58937667D01*
X122579776Y-58930440D01*
X122555000Y-58928000D01*
X110617000Y-58928000D01*
X110617000Y-50495000D01*
X129406928Y-50495000D01*
X129410000Y-50514250D01*
X129568750Y-50673000D01*
X130124512Y-50673000D01*
X130116928Y-50750000D01*
X130117254Y-50927000D01*
X129568750Y-50927000D01*
X129410000Y-51085750D01*
X129406928Y-51105000D01*
X129419188Y-51229482D01*
X129455498Y-51349180D01*
X129501370Y-51435000D01*
X129455498Y-51520820D01*
X129419188Y-51640518D01*
X129406928Y-51765000D01*
X129410000Y-51784250D01*
X129568750Y-51943000D01*
X130119124Y-51943000D01*
X130119591Y-52197000D01*
X129568750Y-52197000D01*
X129410000Y-52355750D01*
X129406928Y-52375000D01*
X129419188Y-52499482D01*
X129455498Y-52619180D01*
X129501370Y-52705000D01*
X129455498Y-52790820D01*
X129419188Y-52910518D01*
X129406928Y-53035000D01*
X129410000Y-53054250D01*
X129568750Y-53213000D01*
X130119591Y-53213000D01*
X130119124Y-53467000D01*
X129568750Y-53467000D01*
X129410000Y-53625750D01*
X129406928Y-53645000D01*
X129419188Y-53769482D01*
X129455498Y-53889180D01*
X129501370Y-53975000D01*
X129455498Y-54060820D01*
X129419188Y-54180518D01*
X129406928Y-54305000D01*
X129410000Y-54324250D01*
X129568750Y-54483000D01*
X130117254Y-54483000D01*
X130116928Y-54660000D01*
X130124512Y-54737000D01*
X129568750Y-54737000D01*
X129410000Y-54895750D01*
X129406928Y-54915000D01*
X129419188Y-55039482D01*
X129455498Y-55159180D01*
X129514463Y-55269494D01*
X129593815Y-55366185D01*
X129690506Y-55445537D01*
X129800820Y-55504502D01*
X129920518Y-55540812D01*
X130045000Y-55553072D01*
X130114250Y-55550000D01*
X130273000Y-55391250D01*
X130273000Y-55073637D01*
X130303815Y-55111185D01*
X130400506Y-55190537D01*
X130510820Y-55249502D01*
X130527000Y-55254410D01*
X130527000Y-55391250D01*
X130685750Y-55550000D01*
X130755000Y-55553072D01*
X130879482Y-55540812D01*
X130999180Y-55504502D01*
X131109494Y-55445537D01*
X131206185Y-55366185D01*
X131262874Y-55297108D01*
X132374250Y-55295000D01*
X132533000Y-55136250D01*
X132533000Y-52832000D01*
X132513000Y-52832000D01*
X132513000Y-52578000D01*
X132533000Y-52578000D01*
X132533000Y-50273750D01*
X132374250Y-50115000D01*
X131262874Y-50112892D01*
X131206185Y-50043815D01*
X131109494Y-49964463D01*
X130999180Y-49905498D01*
X130879482Y-49869188D01*
X130755000Y-49856928D01*
X130685750Y-49860000D01*
X130527000Y-50018750D01*
X130527000Y-50155590D01*
X130510820Y-50160498D01*
X130400506Y-50219463D01*
X130303815Y-50298815D01*
X130273000Y-50336363D01*
X130273000Y-50018750D01*
X130114250Y-49860000D01*
X130045000Y-49856928D01*
X129920518Y-49869188D01*
X129800820Y-49905498D01*
X129690506Y-49964463D01*
X129593815Y-50043815D01*
X129514463Y-50140506D01*
X129455498Y-50250820D01*
X129419188Y-50370518D01*
X129406928Y-50495000D01*
X110617000Y-50495000D01*
X110617000Y-42037000D01*
X134493000Y-42037000D01*
X134493000Y-50112065D01*
%TA.AperFunction,Conductor*%
D20*
G36*
X134493000Y-50112065D02*
G01*
X132945750Y-50115000D01*
X132787000Y-50273750D01*
X132787000Y-52578000D01*
X132807000Y-52578000D01*
X132807000Y-52832000D01*
X132787000Y-52832000D01*
X132787000Y-55136250D01*
X132945750Y-55295000D01*
X134493000Y-55297935D01*
X134493000Y-67183000D01*
X133005992Y-67183000D01*
X132778582Y-66955591D01*
X132783072Y-66910000D01*
X132780000Y-66595750D01*
X132621250Y-66437000D01*
X131572000Y-66437000D01*
X131572000Y-66457000D01*
X131318000Y-66457000D01*
X131318000Y-66437000D01*
X130268750Y-66437000D01*
X130155750Y-66550000D01*
X128924250Y-66550000D01*
X128811250Y-66437000D01*
X127762000Y-66437000D01*
X127762000Y-66457000D01*
X127508000Y-66457000D01*
X127508000Y-66437000D01*
X126458750Y-66437000D01*
X126300000Y-66595750D01*
X126296928Y-66910000D01*
X126309188Y-67034482D01*
X126345498Y-67154180D01*
X126360903Y-67183000D01*
X125303373Y-67183000D01*
X125314502Y-67162180D01*
X125350812Y-67042482D01*
X125363072Y-66918000D01*
X125360000Y-66541250D01*
X125201250Y-66382500D01*
X123952000Y-66382500D01*
X123952000Y-66402500D01*
X123698000Y-66402500D01*
X123698000Y-66382500D01*
X123678000Y-66382500D01*
X123678000Y-66128500D01*
X123698000Y-66128500D01*
X123698000Y-65116750D01*
X123952000Y-65116750D01*
X123952000Y-66128500D01*
X125201250Y-66128500D01*
X125360000Y-65969750D01*
X125362117Y-65710000D01*
X126296928Y-65710000D01*
X126300000Y-66024250D01*
X126458750Y-66183000D01*
X127508000Y-66183000D01*
X127508000Y-65233750D01*
X127762000Y-65233750D01*
X127762000Y-66183000D01*
X128811250Y-66183000D01*
X128970000Y-66024250D01*
X128973072Y-65710000D01*
X130106928Y-65710000D01*
X130110000Y-66024250D01*
X130268750Y-66183000D01*
X131318000Y-66183000D01*
X131318000Y-65233750D01*
X131572000Y-65233750D01*
X131572000Y-66183000D01*
X132621250Y-66183000D01*
X132780000Y-66024250D01*
X132783072Y-65710000D01*
X132770812Y-65585518D01*
X132734502Y-65465820D01*
X132675537Y-65355506D01*
X132596185Y-65258815D01*
X132499494Y-65179463D01*
X132389180Y-65120498D01*
X132269482Y-65084188D01*
X132145000Y-65071928D01*
X131730750Y-65075000D01*
X131572000Y-65233750D01*
X131318000Y-65233750D01*
X131159250Y-65075000D01*
X130745000Y-65071928D01*
X130620518Y-65084188D01*
X130500820Y-65120498D01*
X130390506Y-65179463D01*
X130293815Y-65258815D01*
X130214463Y-65355506D01*
X130155498Y-65465820D01*
X130119188Y-65585518D01*
X130106928Y-65710000D01*
X128973072Y-65710000D01*
X128960812Y-65585518D01*
X128924502Y-65465820D01*
X128865537Y-65355506D01*
X128786185Y-65258815D01*
X128689494Y-65179463D01*
X128579180Y-65120498D01*
X128459482Y-65084188D01*
X128335000Y-65071928D01*
X127920750Y-65075000D01*
X127762000Y-65233750D01*
X127508000Y-65233750D01*
X127349250Y-65075000D01*
X126935000Y-65071928D01*
X126810518Y-65084188D01*
X126690820Y-65120498D01*
X126580506Y-65179463D01*
X126483815Y-65258815D01*
X126404463Y-65355506D01*
X126345498Y-65465820D01*
X126309188Y-65585518D01*
X126296928Y-65710000D01*
X125362117Y-65710000D01*
X125363072Y-65593000D01*
X125350812Y-65468518D01*
X125314502Y-65348820D01*
X125255537Y-65238506D01*
X125176185Y-65141815D01*
X125079494Y-65062463D01*
X124969180Y-65003498D01*
X124849482Y-64967188D01*
X124725000Y-64954928D01*
X124110750Y-64958000D01*
X123952000Y-65116750D01*
X123698000Y-65116750D01*
X123539250Y-64958000D01*
X122925000Y-64954928D01*
X122800518Y-64967188D01*
X122682000Y-65003140D01*
X122682000Y-59055000D01*
X122679560Y-59030224D01*
X122672333Y-59006399D01*
X122660597Y-58984443D01*
X122644803Y-58965197D01*
X122625557Y-58949403D01*
X122603601Y-58937667D01*
X122579776Y-58930440D01*
X122555000Y-58928000D01*
X110617000Y-58928000D01*
X110617000Y-50495000D01*
X129406928Y-50495000D01*
X129410000Y-50514250D01*
X129568750Y-50673000D01*
X130124512Y-50673000D01*
X130116928Y-50750000D01*
X130117254Y-50927000D01*
X129568750Y-50927000D01*
X129410000Y-51085750D01*
X129406928Y-51105000D01*
X129419188Y-51229482D01*
X129455498Y-51349180D01*
X129501370Y-51435000D01*
X129455498Y-51520820D01*
X129419188Y-51640518D01*
X129406928Y-51765000D01*
X129410000Y-51784250D01*
X129568750Y-51943000D01*
X130119124Y-51943000D01*
X130119591Y-52197000D01*
X129568750Y-52197000D01*
X129410000Y-52355750D01*
X129406928Y-52375000D01*
X129419188Y-52499482D01*
X129455498Y-52619180D01*
X129501370Y-52705000D01*
X129455498Y-52790820D01*
X129419188Y-52910518D01*
X129406928Y-53035000D01*
X129410000Y-53054250D01*
X129568750Y-53213000D01*
X130119591Y-53213000D01*
X130119124Y-53467000D01*
X129568750Y-53467000D01*
X129410000Y-53625750D01*
X129406928Y-53645000D01*
X129419188Y-53769482D01*
X129455498Y-53889180D01*
X129501370Y-53975000D01*
X129455498Y-54060820D01*
X129419188Y-54180518D01*
X129406928Y-54305000D01*
X129410000Y-54324250D01*
X129568750Y-54483000D01*
X130117254Y-54483000D01*
X130116928Y-54660000D01*
X130124512Y-54737000D01*
X129568750Y-54737000D01*
X129410000Y-54895750D01*
X129406928Y-54915000D01*
X129419188Y-55039482D01*
X129455498Y-55159180D01*
X129514463Y-55269494D01*
X129593815Y-55366185D01*
X129690506Y-55445537D01*
X129800820Y-55504502D01*
X129920518Y-55540812D01*
X130045000Y-55553072D01*
X130114250Y-55550000D01*
X130273000Y-55391250D01*
X130273000Y-55073637D01*
X130303815Y-55111185D01*
X130400506Y-55190537D01*
X130510820Y-55249502D01*
X130527000Y-55254410D01*
X130527000Y-55391250D01*
X130685750Y-55550000D01*
X130755000Y-55553072D01*
X130879482Y-55540812D01*
X130999180Y-55504502D01*
X131109494Y-55445537D01*
X131206185Y-55366185D01*
X131262874Y-55297108D01*
X132374250Y-55295000D01*
X132533000Y-55136250D01*
X132533000Y-52832000D01*
X132513000Y-52832000D01*
X132513000Y-52578000D01*
X132533000Y-52578000D01*
X132533000Y-50273750D01*
X132374250Y-50115000D01*
X131262874Y-50112892D01*
X131206185Y-50043815D01*
X131109494Y-49964463D01*
X130999180Y-49905498D01*
X130879482Y-49869188D01*
X130755000Y-49856928D01*
X130685750Y-49860000D01*
X130527000Y-50018750D01*
X130527000Y-50155590D01*
X130510820Y-50160498D01*
X130400506Y-50219463D01*
X130303815Y-50298815D01*
X130273000Y-50336363D01*
X130273000Y-50018750D01*
X130114250Y-49860000D01*
X130045000Y-49856928D01*
X129920518Y-49869188D01*
X129800820Y-49905498D01*
X129690506Y-49964463D01*
X129593815Y-50043815D01*
X129514463Y-50140506D01*
X129455498Y-50250820D01*
X129419188Y-50370518D01*
X129406928Y-50495000D01*
X110617000Y-50495000D01*
X110617000Y-42037000D01*
X134493000Y-42037000D01*
X134493000Y-50112065D01*
G37*
%TD.AperFunction*%
%TD*%
D19*
%TO.N,Net-(Q1-Pad1)*%
X138309188Y-51640518D02*
X138296928Y-51765000D01*
X138300000Y-51784250D01*
X138458750Y-51943000D01*
X139443000Y-51943000D01*
X139443000Y-51923000D01*
X139697000Y-51923000D01*
X139697000Y-51943000D01*
X139717000Y-51943000D01*
X139717000Y-52197000D01*
X139697000Y-52197000D01*
X139697000Y-53213000D01*
X139717000Y-53213000D01*
X139717000Y-53467000D01*
X139697000Y-53467000D01*
X139697000Y-54483000D01*
X139717000Y-54483000D01*
X139717000Y-54737000D01*
X139697000Y-54737000D01*
X139697000Y-54757000D01*
X139443000Y-54757000D01*
X139443000Y-54737000D01*
X138458750Y-54737000D01*
X138300000Y-54895750D01*
X138296928Y-54915000D01*
X138309188Y-55039482D01*
X138333006Y-55118000D01*
X137256994Y-55118000D01*
X137280812Y-55039482D01*
X137293072Y-54915000D01*
X137290000Y-54895750D01*
X137131250Y-54737000D01*
X136147000Y-54737000D01*
X136147000Y-54757000D01*
X135893000Y-54757000D01*
X135893000Y-54737000D01*
X135873000Y-54737000D01*
X135873000Y-54483000D01*
X135893000Y-54483000D01*
X135893000Y-53467000D01*
X136147000Y-53467000D01*
X136147000Y-54483000D01*
X137131250Y-54483000D01*
X137290000Y-54324250D01*
X137293072Y-54305000D01*
X137280812Y-54180518D01*
X137244502Y-54060820D01*
X137198630Y-53975000D01*
X137244502Y-53889180D01*
X137280812Y-53769482D01*
X137293072Y-53645000D01*
X138296928Y-53645000D01*
X138309188Y-53769482D01*
X138345498Y-53889180D01*
X138391370Y-53975000D01*
X138345498Y-54060820D01*
X138309188Y-54180518D01*
X138296928Y-54305000D01*
X138300000Y-54324250D01*
X138458750Y-54483000D01*
X139443000Y-54483000D01*
X139443000Y-53467000D01*
X138458750Y-53467000D01*
X138300000Y-53625750D01*
X138296928Y-53645000D01*
X137293072Y-53645000D01*
X137290000Y-53625750D01*
X137131250Y-53467000D01*
X136147000Y-53467000D01*
X135893000Y-53467000D01*
X135873000Y-53467000D01*
X135873000Y-53213000D01*
X135893000Y-53213000D01*
X135893000Y-52197000D01*
X136147000Y-52197000D01*
X136147000Y-53213000D01*
X137131250Y-53213000D01*
X137290000Y-53054250D01*
X137293072Y-53035000D01*
X137280812Y-52910518D01*
X137244502Y-52790820D01*
X137198630Y-52705000D01*
X137244502Y-52619180D01*
X137280812Y-52499482D01*
X137293072Y-52375000D01*
X138296928Y-52375000D01*
X138309188Y-52499482D01*
X138345498Y-52619180D01*
X138391370Y-52705000D01*
X138345498Y-52790820D01*
X138309188Y-52910518D01*
X138296928Y-53035000D01*
X138300000Y-53054250D01*
X138458750Y-53213000D01*
X139443000Y-53213000D01*
X139443000Y-52197000D01*
X138458750Y-52197000D01*
X138300000Y-52355750D01*
X138296928Y-52375000D01*
X137293072Y-52375000D01*
X137290000Y-52355750D01*
X137131250Y-52197000D01*
X136147000Y-52197000D01*
X135893000Y-52197000D01*
X135873000Y-52197000D01*
X135873000Y-51943000D01*
X135893000Y-51943000D01*
X135893000Y-51923000D01*
X136147000Y-51923000D01*
X136147000Y-51943000D01*
X137131250Y-51943000D01*
X137290000Y-51784250D01*
X137293072Y-51765000D01*
X137280812Y-51640518D01*
X137256994Y-51562000D01*
X138333006Y-51562000D01*
X138309188Y-51640518D01*
%TA.AperFunction,Conductor*%
D20*
G36*
X138309188Y-51640518D02*
G01*
X138296928Y-51765000D01*
X138300000Y-51784250D01*
X138458750Y-51943000D01*
X139443000Y-51943000D01*
X139443000Y-51923000D01*
X139697000Y-51923000D01*
X139697000Y-51943000D01*
X139717000Y-51943000D01*
X139717000Y-52197000D01*
X139697000Y-52197000D01*
X139697000Y-53213000D01*
X139717000Y-53213000D01*
X139717000Y-53467000D01*
X139697000Y-53467000D01*
X139697000Y-54483000D01*
X139717000Y-54483000D01*
X139717000Y-54737000D01*
X139697000Y-54737000D01*
X139697000Y-54757000D01*
X139443000Y-54757000D01*
X139443000Y-54737000D01*
X138458750Y-54737000D01*
X138300000Y-54895750D01*
X138296928Y-54915000D01*
X138309188Y-55039482D01*
X138333006Y-55118000D01*
X137256994Y-55118000D01*
X137280812Y-55039482D01*
X137293072Y-54915000D01*
X137290000Y-54895750D01*
X137131250Y-54737000D01*
X136147000Y-54737000D01*
X136147000Y-54757000D01*
X135893000Y-54757000D01*
X135893000Y-54737000D01*
X135873000Y-54737000D01*
X135873000Y-54483000D01*
X135893000Y-54483000D01*
X135893000Y-53467000D01*
X136147000Y-53467000D01*
X136147000Y-54483000D01*
X137131250Y-54483000D01*
X137290000Y-54324250D01*
X137293072Y-54305000D01*
X137280812Y-54180518D01*
X137244502Y-54060820D01*
X137198630Y-53975000D01*
X137244502Y-53889180D01*
X137280812Y-53769482D01*
X137293072Y-53645000D01*
X138296928Y-53645000D01*
X138309188Y-53769482D01*
X138345498Y-53889180D01*
X138391370Y-53975000D01*
X138345498Y-54060820D01*
X138309188Y-54180518D01*
X138296928Y-54305000D01*
X138300000Y-54324250D01*
X138458750Y-54483000D01*
X139443000Y-54483000D01*
X139443000Y-53467000D01*
X138458750Y-53467000D01*
X138300000Y-53625750D01*
X138296928Y-53645000D01*
X137293072Y-53645000D01*
X137290000Y-53625750D01*
X137131250Y-53467000D01*
X136147000Y-53467000D01*
X135893000Y-53467000D01*
X135873000Y-53467000D01*
X135873000Y-53213000D01*
X135893000Y-53213000D01*
X135893000Y-52197000D01*
X136147000Y-52197000D01*
X136147000Y-53213000D01*
X137131250Y-53213000D01*
X137290000Y-53054250D01*
X137293072Y-53035000D01*
X137280812Y-52910518D01*
X137244502Y-52790820D01*
X137198630Y-52705000D01*
X137244502Y-52619180D01*
X137280812Y-52499482D01*
X137293072Y-52375000D01*
X138296928Y-52375000D01*
X138309188Y-52499482D01*
X138345498Y-52619180D01*
X138391370Y-52705000D01*
X138345498Y-52790820D01*
X138309188Y-52910518D01*
X138296928Y-53035000D01*
X138300000Y-53054250D01*
X138458750Y-53213000D01*
X139443000Y-53213000D01*
X139443000Y-52197000D01*
X138458750Y-52197000D01*
X138300000Y-52355750D01*
X138296928Y-52375000D01*
X137293072Y-52375000D01*
X137290000Y-52355750D01*
X137131250Y-52197000D01*
X136147000Y-52197000D01*
X135893000Y-52197000D01*
X135873000Y-52197000D01*
X135873000Y-51943000D01*
X135893000Y-51943000D01*
X135893000Y-51923000D01*
X136147000Y-51923000D01*
X136147000Y-51943000D01*
X137131250Y-51943000D01*
X137290000Y-51784250D01*
X137293072Y-51765000D01*
X137280812Y-51640518D01*
X137256994Y-51562000D01*
X138333006Y-51562000D01*
X138309188Y-51640518D01*
G37*
%TD.AperFunction*%
%TD*%
D19*
%TO.N,Net-(C3-Pad1)*%
X169418000Y-58928000D02*
X159016812Y-58928000D01*
X159015000Y-58705750D01*
X158856250Y-58547000D01*
X157607000Y-58547000D01*
X157607000Y-58567000D01*
X157353000Y-58567000D01*
X157353000Y-58547000D01*
X156103750Y-58547000D01*
X155945000Y-58705750D01*
X155941928Y-59082500D01*
X155954188Y-59206982D01*
X155990498Y-59326680D01*
X156049463Y-59436994D01*
X156083000Y-59477859D01*
X156083000Y-60655193D01*
X156009528Y-60792648D01*
X155958992Y-60959244D01*
X155941928Y-61132498D01*
X155941928Y-61957502D01*
X155958992Y-62130756D01*
X156009528Y-62297352D01*
X156083000Y-62434807D01*
X156083000Y-67183000D01*
X153263960Y-67183000D01*
X153290812Y-67094482D01*
X153303072Y-66970000D01*
X153300000Y-65680750D01*
X153141250Y-65522000D01*
X151892000Y-65522000D01*
X151892000Y-65542000D01*
X151638000Y-65542000D01*
X151638000Y-65522000D01*
X150388750Y-65522000D01*
X150230000Y-65680750D01*
X150226928Y-66970000D01*
X150239188Y-67094482D01*
X150266040Y-67183000D01*
X141097000Y-67183000D01*
X141097000Y-63820000D01*
X150226928Y-63820000D01*
X150230000Y-65109250D01*
X150388750Y-65268000D01*
X151638000Y-65268000D01*
X151638000Y-63343750D01*
X151892000Y-63343750D01*
X151892000Y-65268000D01*
X153141250Y-65268000D01*
X153300000Y-65109250D01*
X153303072Y-63820000D01*
X153290812Y-63695518D01*
X153254502Y-63575820D01*
X153195537Y-63465506D01*
X153116185Y-63368815D01*
X153019494Y-63289463D01*
X152909180Y-63230498D01*
X152789482Y-63194188D01*
X152665000Y-63181928D01*
X152050750Y-63185000D01*
X151892000Y-63343750D01*
X151638000Y-63343750D01*
X151479250Y-63185000D01*
X150865000Y-63181928D01*
X150740518Y-63194188D01*
X150620820Y-63230498D01*
X150510506Y-63289463D01*
X150413815Y-63368815D01*
X150334463Y-63465506D01*
X150275498Y-63575820D01*
X150239188Y-63695518D01*
X150226928Y-63820000D01*
X141097000Y-63820000D01*
X141097000Y-57757500D01*
X155941928Y-57757500D01*
X155945000Y-58134250D01*
X156103750Y-58293000D01*
X157353000Y-58293000D01*
X157353000Y-57281250D01*
X157607000Y-57281250D01*
X157607000Y-58293000D01*
X158856250Y-58293000D01*
X159015000Y-58134250D01*
X159018072Y-57757500D01*
X159005812Y-57633018D01*
X158969502Y-57513320D01*
X158910537Y-57403006D01*
X158831185Y-57306315D01*
X158734494Y-57226963D01*
X158624180Y-57167998D01*
X158504482Y-57131688D01*
X158380000Y-57119428D01*
X157765750Y-57122500D01*
X157607000Y-57281250D01*
X157353000Y-57281250D01*
X157194250Y-57122500D01*
X156580000Y-57119428D01*
X156455518Y-57131688D01*
X156335820Y-57167998D01*
X156225506Y-57226963D01*
X156128815Y-57306315D01*
X156049463Y-57403006D01*
X155990498Y-57513320D01*
X155954188Y-57633018D01*
X155941928Y-57757500D01*
X141097000Y-57757500D01*
X141097000Y-56567935D01*
X142644250Y-56565000D01*
X142803000Y-56406250D01*
X142803000Y-54102000D01*
X142783000Y-54102000D01*
X142783000Y-53848000D01*
X142803000Y-53848000D01*
X142803000Y-51543750D01*
X143057000Y-51543750D01*
X143057000Y-53848000D01*
X143077000Y-53848000D01*
X143077000Y-54102000D01*
X143057000Y-54102000D01*
X143057000Y-56406250D01*
X143215750Y-56565000D01*
X144327126Y-56567108D01*
X144383815Y-56636185D01*
X144480506Y-56715537D01*
X144590820Y-56774502D01*
X144710518Y-56810812D01*
X144835000Y-56823072D01*
X144904250Y-56820000D01*
X145063000Y-56661250D01*
X145063000Y-56524410D01*
X145079180Y-56519502D01*
X145189494Y-56460537D01*
X145286185Y-56381185D01*
X145317000Y-56343637D01*
X145317000Y-56661250D01*
X145475750Y-56820000D01*
X145545000Y-56823072D01*
X145669482Y-56810812D01*
X145789180Y-56774502D01*
X145899494Y-56715537D01*
X145996185Y-56636185D01*
X146075537Y-56539494D01*
X146134502Y-56429180D01*
X146170812Y-56309482D01*
X146183072Y-56185000D01*
X146180000Y-56165750D01*
X146021250Y-56007000D01*
X145465488Y-56007000D01*
X145473072Y-55930000D01*
X145472746Y-55753000D01*
X146021250Y-55753000D01*
X146180000Y-55594250D01*
X146183072Y-55575000D01*
X146170812Y-55450518D01*
X146134502Y-55330820D01*
X146088630Y-55245000D01*
X146134502Y-55159180D01*
X146170812Y-55039482D01*
X146183072Y-54915000D01*
X146180000Y-54895750D01*
X146021250Y-54737000D01*
X145470876Y-54737000D01*
X145470409Y-54483000D01*
X146021250Y-54483000D01*
X146180000Y-54324250D01*
X146183072Y-54305000D01*
X146170812Y-54180518D01*
X146134502Y-54060820D01*
X146088630Y-53975000D01*
X146134502Y-53889180D01*
X146170812Y-53769482D01*
X146183072Y-53645000D01*
X146180000Y-53625750D01*
X146021250Y-53467000D01*
X145470409Y-53467000D01*
X145470876Y-53213000D01*
X146021250Y-53213000D01*
X146180000Y-53054250D01*
X146183072Y-53035000D01*
X146170812Y-52910518D01*
X146134502Y-52790820D01*
X146088630Y-52705000D01*
X146134502Y-52619180D01*
X146170812Y-52499482D01*
X146183072Y-52375000D01*
X146180000Y-52355750D01*
X146021250Y-52197000D01*
X145472746Y-52197000D01*
X145473072Y-52020000D01*
X145465488Y-51943000D01*
X146021250Y-51943000D01*
X146180000Y-51784250D01*
X146183072Y-51765000D01*
X146170812Y-51640518D01*
X146134502Y-51520820D01*
X146075537Y-51410506D01*
X145996185Y-51313815D01*
X145899494Y-51234463D01*
X145789180Y-51175498D01*
X145669482Y-51139188D01*
X145545000Y-51126928D01*
X145475750Y-51130000D01*
X145317000Y-51288750D01*
X145317000Y-51606363D01*
X145286185Y-51568815D01*
X145189494Y-51489463D01*
X145079180Y-51430498D01*
X145063000Y-51425590D01*
X145063000Y-51288750D01*
X144904250Y-51130000D01*
X144835000Y-51126928D01*
X144710518Y-51139188D01*
X144590820Y-51175498D01*
X144480506Y-51234463D01*
X144383815Y-51313815D01*
X144327126Y-51382892D01*
X143215750Y-51385000D01*
X143057000Y-51543750D01*
X142803000Y-51543750D01*
X142644250Y-51385000D01*
X141097000Y-51382065D01*
X141097000Y-42037000D01*
X169418000Y-42037000D01*
X169418000Y-58928000D01*
%TA.AperFunction,Conductor*%
D20*
G36*
X169418000Y-58928000D02*
G01*
X159016812Y-58928000D01*
X159015000Y-58705750D01*
X158856250Y-58547000D01*
X157607000Y-58547000D01*
X157607000Y-58567000D01*
X157353000Y-58567000D01*
X157353000Y-58547000D01*
X156103750Y-58547000D01*
X155945000Y-58705750D01*
X155941928Y-59082500D01*
X155954188Y-59206982D01*
X155990498Y-59326680D01*
X156049463Y-59436994D01*
X156083000Y-59477859D01*
X156083000Y-60655193D01*
X156009528Y-60792648D01*
X155958992Y-60959244D01*
X155941928Y-61132498D01*
X155941928Y-61957502D01*
X155958992Y-62130756D01*
X156009528Y-62297352D01*
X156083000Y-62434807D01*
X156083000Y-67183000D01*
X153263960Y-67183000D01*
X153290812Y-67094482D01*
X153303072Y-66970000D01*
X153300000Y-65680750D01*
X153141250Y-65522000D01*
X151892000Y-65522000D01*
X151892000Y-65542000D01*
X151638000Y-65542000D01*
X151638000Y-65522000D01*
X150388750Y-65522000D01*
X150230000Y-65680750D01*
X150226928Y-66970000D01*
X150239188Y-67094482D01*
X150266040Y-67183000D01*
X141097000Y-67183000D01*
X141097000Y-63820000D01*
X150226928Y-63820000D01*
X150230000Y-65109250D01*
X150388750Y-65268000D01*
X151638000Y-65268000D01*
X151638000Y-63343750D01*
X151892000Y-63343750D01*
X151892000Y-65268000D01*
X153141250Y-65268000D01*
X153300000Y-65109250D01*
X153303072Y-63820000D01*
X153290812Y-63695518D01*
X153254502Y-63575820D01*
X153195537Y-63465506D01*
X153116185Y-63368815D01*
X153019494Y-63289463D01*
X152909180Y-63230498D01*
X152789482Y-63194188D01*
X152665000Y-63181928D01*
X152050750Y-63185000D01*
X151892000Y-63343750D01*
X151638000Y-63343750D01*
X151479250Y-63185000D01*
X150865000Y-63181928D01*
X150740518Y-63194188D01*
X150620820Y-63230498D01*
X150510506Y-63289463D01*
X150413815Y-63368815D01*
X150334463Y-63465506D01*
X150275498Y-63575820D01*
X150239188Y-63695518D01*
X150226928Y-63820000D01*
X141097000Y-63820000D01*
X141097000Y-57757500D01*
X155941928Y-57757500D01*
X155945000Y-58134250D01*
X156103750Y-58293000D01*
X157353000Y-58293000D01*
X157353000Y-57281250D01*
X157607000Y-57281250D01*
X157607000Y-58293000D01*
X158856250Y-58293000D01*
X159015000Y-58134250D01*
X159018072Y-57757500D01*
X159005812Y-57633018D01*
X158969502Y-57513320D01*
X158910537Y-57403006D01*
X158831185Y-57306315D01*
X158734494Y-57226963D01*
X158624180Y-57167998D01*
X158504482Y-57131688D01*
X158380000Y-57119428D01*
X157765750Y-57122500D01*
X157607000Y-57281250D01*
X157353000Y-57281250D01*
X157194250Y-57122500D01*
X156580000Y-57119428D01*
X156455518Y-57131688D01*
X156335820Y-57167998D01*
X156225506Y-57226963D01*
X156128815Y-57306315D01*
X156049463Y-57403006D01*
X155990498Y-57513320D01*
X155954188Y-57633018D01*
X155941928Y-57757500D01*
X141097000Y-57757500D01*
X141097000Y-56567935D01*
X142644250Y-56565000D01*
X142803000Y-56406250D01*
X142803000Y-54102000D01*
X142783000Y-54102000D01*
X142783000Y-53848000D01*
X142803000Y-53848000D01*
X142803000Y-51543750D01*
X143057000Y-51543750D01*
X143057000Y-53848000D01*
X143077000Y-53848000D01*
X143077000Y-54102000D01*
X143057000Y-54102000D01*
X143057000Y-56406250D01*
X143215750Y-56565000D01*
X144327126Y-56567108D01*
X144383815Y-56636185D01*
X144480506Y-56715537D01*
X144590820Y-56774502D01*
X144710518Y-56810812D01*
X144835000Y-56823072D01*
X144904250Y-56820000D01*
X145063000Y-56661250D01*
X145063000Y-56524410D01*
X145079180Y-56519502D01*
X145189494Y-56460537D01*
X145286185Y-56381185D01*
X145317000Y-56343637D01*
X145317000Y-56661250D01*
X145475750Y-56820000D01*
X145545000Y-56823072D01*
X145669482Y-56810812D01*
X145789180Y-56774502D01*
X145899494Y-56715537D01*
X145996185Y-56636185D01*
X146075537Y-56539494D01*
X146134502Y-56429180D01*
X146170812Y-56309482D01*
X146183072Y-56185000D01*
X146180000Y-56165750D01*
X146021250Y-56007000D01*
X145465488Y-56007000D01*
X145473072Y-55930000D01*
X145472746Y-55753000D01*
X146021250Y-55753000D01*
X146180000Y-55594250D01*
X146183072Y-55575000D01*
X146170812Y-55450518D01*
X146134502Y-55330820D01*
X146088630Y-55245000D01*
X146134502Y-55159180D01*
X146170812Y-55039482D01*
X146183072Y-54915000D01*
X146180000Y-54895750D01*
X146021250Y-54737000D01*
X145470876Y-54737000D01*
X145470409Y-54483000D01*
X146021250Y-54483000D01*
X146180000Y-54324250D01*
X146183072Y-54305000D01*
X146170812Y-54180518D01*
X146134502Y-54060820D01*
X146088630Y-53975000D01*
X146134502Y-53889180D01*
X146170812Y-53769482D01*
X146183072Y-53645000D01*
X146180000Y-53625750D01*
X146021250Y-53467000D01*
X145470409Y-53467000D01*
X145470876Y-53213000D01*
X146021250Y-53213000D01*
X146180000Y-53054250D01*
X146183072Y-53035000D01*
X146170812Y-52910518D01*
X146134502Y-52790820D01*
X146088630Y-52705000D01*
X146134502Y-52619180D01*
X146170812Y-52499482D01*
X146183072Y-52375000D01*
X146180000Y-52355750D01*
X146021250Y-52197000D01*
X145472746Y-52197000D01*
X145473072Y-52020000D01*
X145465488Y-51943000D01*
X146021250Y-51943000D01*
X146180000Y-51784250D01*
X146183072Y-51765000D01*
X146170812Y-51640518D01*
X146134502Y-51520820D01*
X146075537Y-51410506D01*
X145996185Y-51313815D01*
X145899494Y-51234463D01*
X145789180Y-51175498D01*
X145669482Y-51139188D01*
X145545000Y-51126928D01*
X145475750Y-51130000D01*
X145317000Y-51288750D01*
X145317000Y-51606363D01*
X145286185Y-51568815D01*
X145189494Y-51489463D01*
X145079180Y-51430498D01*
X145063000Y-51425590D01*
X145063000Y-51288750D01*
X144904250Y-51130000D01*
X144835000Y-51126928D01*
X144710518Y-51139188D01*
X144590820Y-51175498D01*
X144480506Y-51234463D01*
X144383815Y-51313815D01*
X144327126Y-51382892D01*
X143215750Y-51385000D01*
X143057000Y-51543750D01*
X142803000Y-51543750D01*
X142644250Y-51385000D01*
X141097000Y-51382065D01*
X141097000Y-42037000D01*
X169418000Y-42037000D01*
X169418000Y-58928000D01*
G37*
%TD.AperFunction*%
%TD*%
D19*
%TO.N,GND*%
X121793000Y-67945000D02*
X121795440Y-67969776D01*
X121802667Y-67993601D01*
X121814403Y-68015557D01*
X121830197Y-68034803D01*
X121849443Y-68050597D01*
X121871399Y-68062333D01*
X121895224Y-68069560D01*
X121920000Y-68072000D01*
X126296928Y-68072000D01*
X126296928Y-68660001D01*
X126313992Y-68833255D01*
X126364528Y-68999851D01*
X126446595Y-69153387D01*
X126557038Y-69287962D01*
X126691613Y-69398405D01*
X126845149Y-69480472D01*
X126875000Y-69489527D01*
X126875001Y-69940473D01*
X126845149Y-69949528D01*
X126691613Y-70031595D01*
X126557038Y-70142038D01*
X126446595Y-70276613D01*
X126364528Y-70430149D01*
X126313992Y-70596745D01*
X126296928Y-70769999D01*
X126296928Y-71470001D01*
X126313992Y-71643255D01*
X126364528Y-71809851D01*
X126446595Y-71963387D01*
X126513276Y-72044637D01*
X126483815Y-72068815D01*
X126404463Y-72165506D01*
X126345498Y-72275820D01*
X126309188Y-72395518D01*
X126296928Y-72520000D01*
X126300000Y-72834250D01*
X126458750Y-72993000D01*
X127508000Y-72993000D01*
X127508000Y-72973000D01*
X127762000Y-72973000D01*
X127762000Y-72993000D01*
X128811250Y-72993000D01*
X128970000Y-72834250D01*
X128973072Y-72520000D01*
X128960812Y-72395518D01*
X128924502Y-72275820D01*
X128865537Y-72165506D01*
X128786185Y-72068815D01*
X128756724Y-72044637D01*
X128823405Y-71963387D01*
X128905472Y-71809851D01*
X128956008Y-71643255D01*
X128973072Y-71470001D01*
X128973072Y-70769999D01*
X128956008Y-70596745D01*
X128905472Y-70430149D01*
X128823405Y-70276613D01*
X128712962Y-70142038D01*
X128578387Y-70031595D01*
X128424851Y-69949528D01*
X128395000Y-69940473D01*
X128395000Y-69489527D01*
X128424851Y-69480472D01*
X128578387Y-69398405D01*
X128712962Y-69287962D01*
X128823405Y-69153387D01*
X128905472Y-68999851D01*
X128956008Y-68833255D01*
X128973072Y-68660001D01*
X128973072Y-68072000D01*
X130106928Y-68072000D01*
X130106928Y-68660001D01*
X130123992Y-68833255D01*
X130174528Y-68999851D01*
X130256595Y-69153387D01*
X130367038Y-69287962D01*
X130501613Y-69398405D01*
X130655149Y-69480472D01*
X130685000Y-69489527D01*
X130685001Y-69940473D01*
X130655149Y-69949528D01*
X130501613Y-70031595D01*
X130367038Y-70142038D01*
X130256595Y-70276613D01*
X130174528Y-70430149D01*
X130123992Y-70596745D01*
X130106928Y-70769999D01*
X130106928Y-71470001D01*
X130123992Y-71643255D01*
X130174528Y-71809851D01*
X130256595Y-71963387D01*
X130323276Y-72044637D01*
X130293815Y-72068815D01*
X130214463Y-72165506D01*
X130155498Y-72275820D01*
X130119188Y-72395518D01*
X130106928Y-72520000D01*
X130110000Y-72834250D01*
X130268750Y-72993000D01*
X131318000Y-72993000D01*
X131318000Y-72973000D01*
X131572000Y-72973000D01*
X131572000Y-72993000D01*
X132621250Y-72993000D01*
X132780000Y-72834250D01*
X132783072Y-72520000D01*
X132770812Y-72395518D01*
X132734502Y-72275820D01*
X132675537Y-72165506D01*
X132596185Y-72068815D01*
X132566724Y-72044637D01*
X132633405Y-71963387D01*
X132715472Y-71809851D01*
X132766008Y-71643255D01*
X132783072Y-71470001D01*
X132783072Y-70769999D01*
X132777923Y-70717725D01*
X133502478Y-71442280D01*
X133406595Y-71559114D01*
X133324528Y-71712650D01*
X133273992Y-71879246D01*
X133256928Y-72052500D01*
X133256928Y-72727500D01*
X133273992Y-72900754D01*
X133324528Y-73067350D01*
X133406595Y-73220886D01*
X133517038Y-73355462D01*
X133523594Y-73360842D01*
X133443815Y-73426315D01*
X133364463Y-73523006D01*
X133305498Y-73633320D01*
X133269188Y-73753018D01*
X133256928Y-73877500D01*
X133260000Y-74179250D01*
X133418750Y-74338000D01*
X134493000Y-74338000D01*
X134493000Y-74318000D01*
X134747000Y-74318000D01*
X134747000Y-74338000D01*
X135821250Y-74338000D01*
X135980000Y-74179250D01*
X135983072Y-73877500D01*
X135970812Y-73753018D01*
X135934502Y-73633320D01*
X135875537Y-73523006D01*
X135796185Y-73426315D01*
X135716406Y-73360842D01*
X135722962Y-73355462D01*
X135833405Y-73220886D01*
X135915472Y-73067350D01*
X135966008Y-72900754D01*
X135983072Y-72727500D01*
X135983072Y-72380000D01*
X136149047Y-72380000D01*
X136151681Y-72404111D01*
X136189831Y-72523235D01*
X136250489Y-72632628D01*
X136331322Y-72728085D01*
X136429224Y-72805938D01*
X136540434Y-72863195D01*
X136660677Y-72897656D01*
X136785333Y-72907996D01*
X137202250Y-72905000D01*
X137361000Y-72746250D01*
X137361000Y-72408072D01*
X137615000Y-72408072D01*
X137615000Y-72746250D01*
X137773750Y-72905000D01*
X138190667Y-72907996D01*
X138315323Y-72897656D01*
X138435566Y-72863195D01*
X138546776Y-72805938D01*
X138644678Y-72728085D01*
X138725511Y-72632628D01*
X138786169Y-72523235D01*
X138824319Y-72404111D01*
X138835500Y-72301750D01*
X138698225Y-72164475D01*
X138731037Y-72124494D01*
X138790002Y-72014180D01*
X138803253Y-71970497D01*
X138835500Y-71938250D01*
X138828402Y-71873265D01*
X138838572Y-71770000D01*
X138838572Y-71470000D01*
X138828723Y-71370000D01*
X138838572Y-71270000D01*
X138838572Y-71083874D01*
X140385701Y-72631003D01*
X140409499Y-72660001D01*
X140525224Y-72754974D01*
X140657253Y-72825546D01*
X140800514Y-72869003D01*
X140912167Y-72880000D01*
X140912175Y-72880000D01*
X140949500Y-72883676D01*
X140986825Y-72880000D01*
X141022893Y-72880000D01*
X141075018Y-72895812D01*
X141199500Y-72908072D01*
X142624500Y-72908072D01*
X142748982Y-72895812D01*
X142868680Y-72859502D01*
X142978994Y-72800537D01*
X143075685Y-72721185D01*
X143155037Y-72624494D01*
X143214002Y-72514180D01*
X143250312Y-72394482D01*
X143262572Y-72270000D01*
X143262572Y-71970000D01*
X143253708Y-71880000D01*
X144076928Y-71880000D01*
X144076928Y-72200001D01*
X144093992Y-72373255D01*
X144144528Y-72539851D01*
X144226595Y-72693387D01*
X144337038Y-72827962D01*
X144384900Y-72867242D01*
X144312038Y-72927038D01*
X144201595Y-73061614D01*
X144119528Y-73215150D01*
X144068992Y-73381746D01*
X144051928Y-73555000D01*
X144051928Y-74230000D01*
X144068992Y-74403254D01*
X144119528Y-74569850D01*
X144201595Y-74723386D01*
X144312038Y-74857962D01*
X144318594Y-74863342D01*
X144238815Y-74928815D01*
X144159463Y-75025506D01*
X144100498Y-75135820D01*
X144064188Y-75255518D01*
X144051928Y-75380000D01*
X144055000Y-75681750D01*
X144213750Y-75840500D01*
X145288000Y-75840500D01*
X145288000Y-75820500D01*
X145542000Y-75820500D01*
X145542000Y-75840500D01*
X146616250Y-75840500D01*
X146775000Y-75681750D01*
X146778072Y-75380000D01*
X146765812Y-75255518D01*
X146729502Y-75135820D01*
X146670537Y-75025506D01*
X146591185Y-74928815D01*
X146511406Y-74863342D01*
X146517962Y-74857962D01*
X146628405Y-74723386D01*
X146710472Y-74569850D01*
X146761008Y-74403254D01*
X146778072Y-74230000D01*
X146778072Y-73555000D01*
X146761008Y-73381746D01*
X146710472Y-73215150D01*
X146628405Y-73061614D01*
X146517962Y-72927038D01*
X146445100Y-72867242D01*
X146492962Y-72827962D01*
X146603405Y-72693387D01*
X146685472Y-72539851D01*
X146736008Y-72373255D01*
X146753072Y-72200001D01*
X146753072Y-72070000D01*
X150226928Y-72070000D01*
X150239188Y-72194482D01*
X150275498Y-72314180D01*
X150334463Y-72424494D01*
X150413815Y-72521185D01*
X150510506Y-72600537D01*
X150620820Y-72659502D01*
X150740518Y-72695812D01*
X150865000Y-72708072D01*
X151479250Y-72705000D01*
X151638000Y-72546250D01*
X151638000Y-70622000D01*
X151892000Y-70622000D01*
X151892000Y-72546250D01*
X152050750Y-72705000D01*
X152665000Y-72708072D01*
X152789482Y-72695812D01*
X152909180Y-72659502D01*
X153019494Y-72600537D01*
X153116185Y-72521185D01*
X153195537Y-72424494D01*
X153254502Y-72314180D01*
X153290812Y-72194482D01*
X153303072Y-72070000D01*
X153300000Y-70780750D01*
X153141250Y-70622000D01*
X151892000Y-70622000D01*
X151638000Y-70622000D01*
X150388750Y-70622000D01*
X150230000Y-70780750D01*
X150226928Y-72070000D01*
X146753072Y-72070000D01*
X146753072Y-71499999D01*
X146747460Y-71443020D01*
X146809266Y-71409984D01*
X146924991Y-71315011D01*
X146948794Y-71286007D01*
X149314801Y-68920000D01*
X150226928Y-68920000D01*
X150230000Y-70209250D01*
X150388750Y-70368000D01*
X151638000Y-70368000D01*
X151638000Y-68443750D01*
X151892000Y-68443750D01*
X151892000Y-70368000D01*
X153141250Y-70368000D01*
X153300000Y-70209250D01*
X153303072Y-68920000D01*
X153290812Y-68795518D01*
X153254502Y-68675820D01*
X153195537Y-68565506D01*
X153116185Y-68468815D01*
X153019494Y-68389463D01*
X152909180Y-68330498D01*
X152789482Y-68294188D01*
X152665000Y-68281928D01*
X152050750Y-68285000D01*
X151892000Y-68443750D01*
X151638000Y-68443750D01*
X151479250Y-68285000D01*
X150865000Y-68281928D01*
X150740518Y-68294188D01*
X150620820Y-68330498D01*
X150510506Y-68389463D01*
X150413815Y-68468815D01*
X150334463Y-68565506D01*
X150275498Y-68675820D01*
X150239188Y-68795518D01*
X150226928Y-68920000D01*
X149314801Y-68920000D01*
X150162802Y-68072000D01*
X156845000Y-68072000D01*
X156869776Y-68069560D01*
X156893601Y-68062333D01*
X156915557Y-68050597D01*
X156934803Y-68034803D01*
X156950597Y-68015557D01*
X156962333Y-67993601D01*
X156969560Y-67969776D01*
X156972000Y-67945000D01*
X156972000Y-62843612D01*
X157194250Y-62842500D01*
X157353000Y-62683750D01*
X157353000Y-61672000D01*
X157607000Y-61672000D01*
X157607000Y-62683750D01*
X157765750Y-62842500D01*
X158380000Y-62845572D01*
X158504482Y-62833312D01*
X158624180Y-62797002D01*
X158734494Y-62738037D01*
X158831185Y-62658685D01*
X158910537Y-62561994D01*
X158969502Y-62451680D01*
X159005812Y-62331982D01*
X159018072Y-62207500D01*
X159015000Y-61830750D01*
X158856250Y-61672000D01*
X157607000Y-61672000D01*
X157353000Y-61672000D01*
X157333000Y-61672000D01*
X157333000Y-61418000D01*
X157353000Y-61418000D01*
X157353000Y-60406250D01*
X157607000Y-60406250D01*
X157607000Y-61418000D01*
X158856250Y-61418000D01*
X159015000Y-61259250D01*
X159018072Y-60882500D01*
X159005812Y-60758018D01*
X158969502Y-60638320D01*
X158910537Y-60528006D01*
X158831185Y-60431315D01*
X158734494Y-60351963D01*
X158624180Y-60292998D01*
X158504482Y-60256688D01*
X158380000Y-60244428D01*
X157765750Y-60247500D01*
X157607000Y-60406250D01*
X157353000Y-60406250D01*
X157194250Y-60247500D01*
X156972000Y-60246388D01*
X156972000Y-59817000D01*
X169418000Y-59817000D01*
X169418000Y-77343000D01*
X110617000Y-77343000D01*
X110617000Y-76555000D01*
X144051928Y-76555000D01*
X144064188Y-76679482D01*
X144100498Y-76799180D01*
X144159463Y-76909494D01*
X144238815Y-77006185D01*
X144335506Y-77085537D01*
X144445820Y-77144502D01*
X144565518Y-77180812D01*
X144690000Y-77193072D01*
X145129250Y-77190000D01*
X145288000Y-77031250D01*
X145288000Y-76094500D01*
X145542000Y-76094500D01*
X145542000Y-77031250D01*
X145700750Y-77190000D01*
X146140000Y-77193072D01*
X146264482Y-77180812D01*
X146384180Y-77144502D01*
X146494494Y-77085537D01*
X146591185Y-77006185D01*
X146670537Y-76909494D01*
X146729502Y-76799180D01*
X146765812Y-76679482D01*
X146778072Y-76555000D01*
X146775000Y-76253250D01*
X146616250Y-76094500D01*
X145542000Y-76094500D01*
X145288000Y-76094500D01*
X144213750Y-76094500D01*
X144055000Y-76253250D01*
X144051928Y-76555000D01*
X110617000Y-76555000D01*
X110617000Y-75052500D01*
X133256928Y-75052500D01*
X133269188Y-75176982D01*
X133305498Y-75296680D01*
X133364463Y-75406994D01*
X133443815Y-75503685D01*
X133540506Y-75583037D01*
X133650820Y-75642002D01*
X133770518Y-75678312D01*
X133895000Y-75690572D01*
X134334250Y-75687500D01*
X134493000Y-75528750D01*
X134493000Y-74592000D01*
X134747000Y-74592000D01*
X134747000Y-75528750D01*
X134905750Y-75687500D01*
X135345000Y-75690572D01*
X135469482Y-75678312D01*
X135589180Y-75642002D01*
X135699494Y-75583037D01*
X135796185Y-75503685D01*
X135875537Y-75406994D01*
X135934502Y-75296680D01*
X135970812Y-75176982D01*
X135983072Y-75052500D01*
X135980000Y-74750750D01*
X135821250Y-74592000D01*
X134747000Y-74592000D01*
X134493000Y-74592000D01*
X133418750Y-74592000D01*
X133260000Y-74750750D01*
X133256928Y-75052500D01*
X110617000Y-75052500D01*
X110617000Y-73720000D01*
X126296928Y-73720000D01*
X126309188Y-73844482D01*
X126345498Y-73964180D01*
X126404463Y-74074494D01*
X126483815Y-74171185D01*
X126580506Y-74250537D01*
X126690820Y-74309502D01*
X126810518Y-74345812D01*
X126935000Y-74358072D01*
X127349250Y-74355000D01*
X127508000Y-74196250D01*
X127508000Y-73247000D01*
X127762000Y-73247000D01*
X127762000Y-74196250D01*
X127920750Y-74355000D01*
X128335000Y-74358072D01*
X128459482Y-74345812D01*
X128579180Y-74309502D01*
X128689494Y-74250537D01*
X128786185Y-74171185D01*
X128865537Y-74074494D01*
X128924502Y-73964180D01*
X128960812Y-73844482D01*
X128973072Y-73720000D01*
X130106928Y-73720000D01*
X130119188Y-73844482D01*
X130155498Y-73964180D01*
X130214463Y-74074494D01*
X130293815Y-74171185D01*
X130390506Y-74250537D01*
X130500820Y-74309502D01*
X130620518Y-74345812D01*
X130745000Y-74358072D01*
X131159250Y-74355000D01*
X131318000Y-74196250D01*
X131318000Y-73247000D01*
X131572000Y-73247000D01*
X131572000Y-74196250D01*
X131730750Y-74355000D01*
X132145000Y-74358072D01*
X132269482Y-74345812D01*
X132389180Y-74309502D01*
X132499494Y-74250537D01*
X132596185Y-74171185D01*
X132675537Y-74074494D01*
X132734502Y-73964180D01*
X132770812Y-73844482D01*
X132783072Y-73720000D01*
X132780000Y-73405750D01*
X132621250Y-73247000D01*
X131572000Y-73247000D01*
X131318000Y-73247000D01*
X130268750Y-73247000D01*
X130110000Y-73405750D01*
X130106928Y-73720000D01*
X128973072Y-73720000D01*
X128970000Y-73405750D01*
X128811250Y-73247000D01*
X127762000Y-73247000D01*
X127508000Y-73247000D01*
X126458750Y-73247000D01*
X126300000Y-73405750D01*
X126296928Y-73720000D01*
X110617000Y-73720000D01*
X110617000Y-70043000D01*
X122286928Y-70043000D01*
X122299188Y-70167482D01*
X122335498Y-70287180D01*
X122394463Y-70397494D01*
X122473815Y-70494185D01*
X122570506Y-70573537D01*
X122680820Y-70632502D01*
X122800518Y-70668812D01*
X122925000Y-70681072D01*
X123539250Y-70678000D01*
X123698000Y-70519250D01*
X123698000Y-69507500D01*
X123952000Y-69507500D01*
X123952000Y-70519250D01*
X124110750Y-70678000D01*
X124725000Y-70681072D01*
X124849482Y-70668812D01*
X124969180Y-70632502D01*
X125079494Y-70573537D01*
X125176185Y-70494185D01*
X125255537Y-70397494D01*
X125314502Y-70287180D01*
X125350812Y-70167482D01*
X125363072Y-70043000D01*
X125360000Y-69666250D01*
X125201250Y-69507500D01*
X123952000Y-69507500D01*
X123698000Y-69507500D01*
X122448750Y-69507500D01*
X122290000Y-69666250D01*
X122286928Y-70043000D01*
X110617000Y-70043000D01*
X110617000Y-68718000D01*
X122286928Y-68718000D01*
X122290000Y-69094750D01*
X122448750Y-69253500D01*
X123698000Y-69253500D01*
X123698000Y-68241750D01*
X123952000Y-68241750D01*
X123952000Y-69253500D01*
X125201250Y-69253500D01*
X125360000Y-69094750D01*
X125363072Y-68718000D01*
X125350812Y-68593518D01*
X125314502Y-68473820D01*
X125255537Y-68363506D01*
X125176185Y-68266815D01*
X125079494Y-68187463D01*
X124969180Y-68128498D01*
X124849482Y-68092188D01*
X124725000Y-68079928D01*
X124110750Y-68083000D01*
X123952000Y-68241750D01*
X123698000Y-68241750D01*
X123539250Y-68083000D01*
X122925000Y-68079928D01*
X122800518Y-68092188D01*
X122680820Y-68128498D01*
X122570506Y-68187463D01*
X122473815Y-68266815D01*
X122394463Y-68363506D01*
X122335498Y-68473820D01*
X122299188Y-68593518D01*
X122286928Y-68718000D01*
X110617000Y-68718000D01*
X110617000Y-59817000D01*
X121793000Y-59817000D01*
X121793000Y-67945000D01*
%TA.AperFunction,Conductor*%
D20*
G36*
X121793000Y-67945000D02*
G01*
X121795440Y-67969776D01*
X121802667Y-67993601D01*
X121814403Y-68015557D01*
X121830197Y-68034803D01*
X121849443Y-68050597D01*
X121871399Y-68062333D01*
X121895224Y-68069560D01*
X121920000Y-68072000D01*
X126296928Y-68072000D01*
X126296928Y-68660001D01*
X126313992Y-68833255D01*
X126364528Y-68999851D01*
X126446595Y-69153387D01*
X126557038Y-69287962D01*
X126691613Y-69398405D01*
X126845149Y-69480472D01*
X126875000Y-69489527D01*
X126875001Y-69940473D01*
X126845149Y-69949528D01*
X126691613Y-70031595D01*
X126557038Y-70142038D01*
X126446595Y-70276613D01*
X126364528Y-70430149D01*
X126313992Y-70596745D01*
X126296928Y-70769999D01*
X126296928Y-71470001D01*
X126313992Y-71643255D01*
X126364528Y-71809851D01*
X126446595Y-71963387D01*
X126513276Y-72044637D01*
X126483815Y-72068815D01*
X126404463Y-72165506D01*
X126345498Y-72275820D01*
X126309188Y-72395518D01*
X126296928Y-72520000D01*
X126300000Y-72834250D01*
X126458750Y-72993000D01*
X127508000Y-72993000D01*
X127508000Y-72973000D01*
X127762000Y-72973000D01*
X127762000Y-72993000D01*
X128811250Y-72993000D01*
X128970000Y-72834250D01*
X128973072Y-72520000D01*
X128960812Y-72395518D01*
X128924502Y-72275820D01*
X128865537Y-72165506D01*
X128786185Y-72068815D01*
X128756724Y-72044637D01*
X128823405Y-71963387D01*
X128905472Y-71809851D01*
X128956008Y-71643255D01*
X128973072Y-71470001D01*
X128973072Y-70769999D01*
X128956008Y-70596745D01*
X128905472Y-70430149D01*
X128823405Y-70276613D01*
X128712962Y-70142038D01*
X128578387Y-70031595D01*
X128424851Y-69949528D01*
X128395000Y-69940473D01*
X128395000Y-69489527D01*
X128424851Y-69480472D01*
X128578387Y-69398405D01*
X128712962Y-69287962D01*
X128823405Y-69153387D01*
X128905472Y-68999851D01*
X128956008Y-68833255D01*
X128973072Y-68660001D01*
X128973072Y-68072000D01*
X130106928Y-68072000D01*
X130106928Y-68660001D01*
X130123992Y-68833255D01*
X130174528Y-68999851D01*
X130256595Y-69153387D01*
X130367038Y-69287962D01*
X130501613Y-69398405D01*
X130655149Y-69480472D01*
X130685000Y-69489527D01*
X130685001Y-69940473D01*
X130655149Y-69949528D01*
X130501613Y-70031595D01*
X130367038Y-70142038D01*
X130256595Y-70276613D01*
X130174528Y-70430149D01*
X130123992Y-70596745D01*
X130106928Y-70769999D01*
X130106928Y-71470001D01*
X130123992Y-71643255D01*
X130174528Y-71809851D01*
X130256595Y-71963387D01*
X130323276Y-72044637D01*
X130293815Y-72068815D01*
X130214463Y-72165506D01*
X130155498Y-72275820D01*
X130119188Y-72395518D01*
X130106928Y-72520000D01*
X130110000Y-72834250D01*
X130268750Y-72993000D01*
X131318000Y-72993000D01*
X131318000Y-72973000D01*
X131572000Y-72973000D01*
X131572000Y-72993000D01*
X132621250Y-72993000D01*
X132780000Y-72834250D01*
X132783072Y-72520000D01*
X132770812Y-72395518D01*
X132734502Y-72275820D01*
X132675537Y-72165506D01*
X132596185Y-72068815D01*
X132566724Y-72044637D01*
X132633405Y-71963387D01*
X132715472Y-71809851D01*
X132766008Y-71643255D01*
X132783072Y-71470001D01*
X132783072Y-70769999D01*
X132777923Y-70717725D01*
X133502478Y-71442280D01*
X133406595Y-71559114D01*
X133324528Y-71712650D01*
X133273992Y-71879246D01*
X133256928Y-72052500D01*
X133256928Y-72727500D01*
X133273992Y-72900754D01*
X133324528Y-73067350D01*
X133406595Y-73220886D01*
X133517038Y-73355462D01*
X133523594Y-73360842D01*
X133443815Y-73426315D01*
X133364463Y-73523006D01*
X133305498Y-73633320D01*
X133269188Y-73753018D01*
X133256928Y-73877500D01*
X133260000Y-74179250D01*
X133418750Y-74338000D01*
X134493000Y-74338000D01*
X134493000Y-74318000D01*
X134747000Y-74318000D01*
X134747000Y-74338000D01*
X135821250Y-74338000D01*
X135980000Y-74179250D01*
X135983072Y-73877500D01*
X135970812Y-73753018D01*
X135934502Y-73633320D01*
X135875537Y-73523006D01*
X135796185Y-73426315D01*
X135716406Y-73360842D01*
X135722962Y-73355462D01*
X135833405Y-73220886D01*
X135915472Y-73067350D01*
X135966008Y-72900754D01*
X135983072Y-72727500D01*
X135983072Y-72380000D01*
X136149047Y-72380000D01*
X136151681Y-72404111D01*
X136189831Y-72523235D01*
X136250489Y-72632628D01*
X136331322Y-72728085D01*
X136429224Y-72805938D01*
X136540434Y-72863195D01*
X136660677Y-72897656D01*
X136785333Y-72907996D01*
X137202250Y-72905000D01*
X137361000Y-72746250D01*
X137361000Y-72408072D01*
X137615000Y-72408072D01*
X137615000Y-72746250D01*
X137773750Y-72905000D01*
X138190667Y-72907996D01*
X138315323Y-72897656D01*
X138435566Y-72863195D01*
X138546776Y-72805938D01*
X138644678Y-72728085D01*
X138725511Y-72632628D01*
X138786169Y-72523235D01*
X138824319Y-72404111D01*
X138835500Y-72301750D01*
X138698225Y-72164475D01*
X138731037Y-72124494D01*
X138790002Y-72014180D01*
X138803253Y-71970497D01*
X138835500Y-71938250D01*
X138828402Y-71873265D01*
X138838572Y-71770000D01*
X138838572Y-71470000D01*
X138828723Y-71370000D01*
X138838572Y-71270000D01*
X138838572Y-71083874D01*
X140385701Y-72631003D01*
X140409499Y-72660001D01*
X140525224Y-72754974D01*
X140657253Y-72825546D01*
X140800514Y-72869003D01*
X140912167Y-72880000D01*
X140912175Y-72880000D01*
X140949500Y-72883676D01*
X140986825Y-72880000D01*
X141022893Y-72880000D01*
X141075018Y-72895812D01*
X141199500Y-72908072D01*
X142624500Y-72908072D01*
X142748982Y-72895812D01*
X142868680Y-72859502D01*
X142978994Y-72800537D01*
X143075685Y-72721185D01*
X143155037Y-72624494D01*
X143214002Y-72514180D01*
X143250312Y-72394482D01*
X143262572Y-72270000D01*
X143262572Y-71970000D01*
X143253708Y-71880000D01*
X144076928Y-71880000D01*
X144076928Y-72200001D01*
X144093992Y-72373255D01*
X144144528Y-72539851D01*
X144226595Y-72693387D01*
X144337038Y-72827962D01*
X144384900Y-72867242D01*
X144312038Y-72927038D01*
X144201595Y-73061614D01*
X144119528Y-73215150D01*
X144068992Y-73381746D01*
X144051928Y-73555000D01*
X144051928Y-74230000D01*
X144068992Y-74403254D01*
X144119528Y-74569850D01*
X144201595Y-74723386D01*
X144312038Y-74857962D01*
X144318594Y-74863342D01*
X144238815Y-74928815D01*
X144159463Y-75025506D01*
X144100498Y-75135820D01*
X144064188Y-75255518D01*
X144051928Y-75380000D01*
X144055000Y-75681750D01*
X144213750Y-75840500D01*
X145288000Y-75840500D01*
X145288000Y-75820500D01*
X145542000Y-75820500D01*
X145542000Y-75840500D01*
X146616250Y-75840500D01*
X146775000Y-75681750D01*
X146778072Y-75380000D01*
X146765812Y-75255518D01*
X146729502Y-75135820D01*
X146670537Y-75025506D01*
X146591185Y-74928815D01*
X146511406Y-74863342D01*
X146517962Y-74857962D01*
X146628405Y-74723386D01*
X146710472Y-74569850D01*
X146761008Y-74403254D01*
X146778072Y-74230000D01*
X146778072Y-73555000D01*
X146761008Y-73381746D01*
X146710472Y-73215150D01*
X146628405Y-73061614D01*
X146517962Y-72927038D01*
X146445100Y-72867242D01*
X146492962Y-72827962D01*
X146603405Y-72693387D01*
X146685472Y-72539851D01*
X146736008Y-72373255D01*
X146753072Y-72200001D01*
X146753072Y-72070000D01*
X150226928Y-72070000D01*
X150239188Y-72194482D01*
X150275498Y-72314180D01*
X150334463Y-72424494D01*
X150413815Y-72521185D01*
X150510506Y-72600537D01*
X150620820Y-72659502D01*
X150740518Y-72695812D01*
X150865000Y-72708072D01*
X151479250Y-72705000D01*
X151638000Y-72546250D01*
X151638000Y-70622000D01*
X151892000Y-70622000D01*
X151892000Y-72546250D01*
X152050750Y-72705000D01*
X152665000Y-72708072D01*
X152789482Y-72695812D01*
X152909180Y-72659502D01*
X153019494Y-72600537D01*
X153116185Y-72521185D01*
X153195537Y-72424494D01*
X153254502Y-72314180D01*
X153290812Y-72194482D01*
X153303072Y-72070000D01*
X153300000Y-70780750D01*
X153141250Y-70622000D01*
X151892000Y-70622000D01*
X151638000Y-70622000D01*
X150388750Y-70622000D01*
X150230000Y-70780750D01*
X150226928Y-72070000D01*
X146753072Y-72070000D01*
X146753072Y-71499999D01*
X146747460Y-71443020D01*
X146809266Y-71409984D01*
X146924991Y-71315011D01*
X146948794Y-71286007D01*
X149314801Y-68920000D01*
X150226928Y-68920000D01*
X150230000Y-70209250D01*
X150388750Y-70368000D01*
X151638000Y-70368000D01*
X151638000Y-68443750D01*
X151892000Y-68443750D01*
X151892000Y-70368000D01*
X153141250Y-70368000D01*
X153300000Y-70209250D01*
X153303072Y-68920000D01*
X153290812Y-68795518D01*
X153254502Y-68675820D01*
X153195537Y-68565506D01*
X153116185Y-68468815D01*
X153019494Y-68389463D01*
X152909180Y-68330498D01*
X152789482Y-68294188D01*
X152665000Y-68281928D01*
X152050750Y-68285000D01*
X151892000Y-68443750D01*
X151638000Y-68443750D01*
X151479250Y-68285000D01*
X150865000Y-68281928D01*
X150740518Y-68294188D01*
X150620820Y-68330498D01*
X150510506Y-68389463D01*
X150413815Y-68468815D01*
X150334463Y-68565506D01*
X150275498Y-68675820D01*
X150239188Y-68795518D01*
X150226928Y-68920000D01*
X149314801Y-68920000D01*
X150162802Y-68072000D01*
X156845000Y-68072000D01*
X156869776Y-68069560D01*
X156893601Y-68062333D01*
X156915557Y-68050597D01*
X156934803Y-68034803D01*
X156950597Y-68015557D01*
X156962333Y-67993601D01*
X156969560Y-67969776D01*
X156972000Y-67945000D01*
X156972000Y-62843612D01*
X157194250Y-62842500D01*
X157353000Y-62683750D01*
X157353000Y-61672000D01*
X157607000Y-61672000D01*
X157607000Y-62683750D01*
X157765750Y-62842500D01*
X158380000Y-62845572D01*
X158504482Y-62833312D01*
X158624180Y-62797002D01*
X158734494Y-62738037D01*
X158831185Y-62658685D01*
X158910537Y-62561994D01*
X158969502Y-62451680D01*
X159005812Y-62331982D01*
X159018072Y-62207500D01*
X159015000Y-61830750D01*
X158856250Y-61672000D01*
X157607000Y-61672000D01*
X157353000Y-61672000D01*
X157333000Y-61672000D01*
X157333000Y-61418000D01*
X157353000Y-61418000D01*
X157353000Y-60406250D01*
X157607000Y-60406250D01*
X157607000Y-61418000D01*
X158856250Y-61418000D01*
X159015000Y-61259250D01*
X159018072Y-60882500D01*
X159005812Y-60758018D01*
X158969502Y-60638320D01*
X158910537Y-60528006D01*
X158831185Y-60431315D01*
X158734494Y-60351963D01*
X158624180Y-60292998D01*
X158504482Y-60256688D01*
X158380000Y-60244428D01*
X157765750Y-60247500D01*
X157607000Y-60406250D01*
X157353000Y-60406250D01*
X157194250Y-60247500D01*
X156972000Y-60246388D01*
X156972000Y-59817000D01*
X169418000Y-59817000D01*
X169418000Y-77343000D01*
X110617000Y-77343000D01*
X110617000Y-76555000D01*
X144051928Y-76555000D01*
X144064188Y-76679482D01*
X144100498Y-76799180D01*
X144159463Y-76909494D01*
X144238815Y-77006185D01*
X144335506Y-77085537D01*
X144445820Y-77144502D01*
X144565518Y-77180812D01*
X144690000Y-77193072D01*
X145129250Y-77190000D01*
X145288000Y-77031250D01*
X145288000Y-76094500D01*
X145542000Y-76094500D01*
X145542000Y-77031250D01*
X145700750Y-77190000D01*
X146140000Y-77193072D01*
X146264482Y-77180812D01*
X146384180Y-77144502D01*
X146494494Y-77085537D01*
X146591185Y-77006185D01*
X146670537Y-76909494D01*
X146729502Y-76799180D01*
X146765812Y-76679482D01*
X146778072Y-76555000D01*
X146775000Y-76253250D01*
X146616250Y-76094500D01*
X145542000Y-76094500D01*
X145288000Y-76094500D01*
X144213750Y-76094500D01*
X144055000Y-76253250D01*
X144051928Y-76555000D01*
X110617000Y-76555000D01*
X110617000Y-75052500D01*
X133256928Y-75052500D01*
X133269188Y-75176982D01*
X133305498Y-75296680D01*
X133364463Y-75406994D01*
X133443815Y-75503685D01*
X133540506Y-75583037D01*
X133650820Y-75642002D01*
X133770518Y-75678312D01*
X133895000Y-75690572D01*
X134334250Y-75687500D01*
X134493000Y-75528750D01*
X134493000Y-74592000D01*
X134747000Y-74592000D01*
X134747000Y-75528750D01*
X134905750Y-75687500D01*
X135345000Y-75690572D01*
X135469482Y-75678312D01*
X135589180Y-75642002D01*
X135699494Y-75583037D01*
X135796185Y-75503685D01*
X135875537Y-75406994D01*
X135934502Y-75296680D01*
X135970812Y-75176982D01*
X135983072Y-75052500D01*
X135980000Y-74750750D01*
X135821250Y-74592000D01*
X134747000Y-74592000D01*
X134493000Y-74592000D01*
X133418750Y-74592000D01*
X133260000Y-74750750D01*
X133256928Y-75052500D01*
X110617000Y-75052500D01*
X110617000Y-73720000D01*
X126296928Y-73720000D01*
X126309188Y-73844482D01*
X126345498Y-73964180D01*
X126404463Y-74074494D01*
X126483815Y-74171185D01*
X126580506Y-74250537D01*
X126690820Y-74309502D01*
X126810518Y-74345812D01*
X126935000Y-74358072D01*
X127349250Y-74355000D01*
X127508000Y-74196250D01*
X127508000Y-73247000D01*
X127762000Y-73247000D01*
X127762000Y-74196250D01*
X127920750Y-74355000D01*
X128335000Y-74358072D01*
X128459482Y-74345812D01*
X128579180Y-74309502D01*
X128689494Y-74250537D01*
X128786185Y-74171185D01*
X128865537Y-74074494D01*
X128924502Y-73964180D01*
X128960812Y-73844482D01*
X128973072Y-73720000D01*
X130106928Y-73720000D01*
X130119188Y-73844482D01*
X130155498Y-73964180D01*
X130214463Y-74074494D01*
X130293815Y-74171185D01*
X130390506Y-74250537D01*
X130500820Y-74309502D01*
X130620518Y-74345812D01*
X130745000Y-74358072D01*
X131159250Y-74355000D01*
X131318000Y-74196250D01*
X131318000Y-73247000D01*
X131572000Y-73247000D01*
X131572000Y-74196250D01*
X131730750Y-74355000D01*
X132145000Y-74358072D01*
X132269482Y-74345812D01*
X132389180Y-74309502D01*
X132499494Y-74250537D01*
X132596185Y-74171185D01*
X132675537Y-74074494D01*
X132734502Y-73964180D01*
X132770812Y-73844482D01*
X132783072Y-73720000D01*
X132780000Y-73405750D01*
X132621250Y-73247000D01*
X131572000Y-73247000D01*
X131318000Y-73247000D01*
X130268750Y-73247000D01*
X130110000Y-73405750D01*
X130106928Y-73720000D01*
X128973072Y-73720000D01*
X128970000Y-73405750D01*
X128811250Y-73247000D01*
X127762000Y-73247000D01*
X127508000Y-73247000D01*
X126458750Y-73247000D01*
X126300000Y-73405750D01*
X126296928Y-73720000D01*
X110617000Y-73720000D01*
X110617000Y-70043000D01*
X122286928Y-70043000D01*
X122299188Y-70167482D01*
X122335498Y-70287180D01*
X122394463Y-70397494D01*
X122473815Y-70494185D01*
X122570506Y-70573537D01*
X122680820Y-70632502D01*
X122800518Y-70668812D01*
X122925000Y-70681072D01*
X123539250Y-70678000D01*
X123698000Y-70519250D01*
X123698000Y-69507500D01*
X123952000Y-69507500D01*
X123952000Y-70519250D01*
X124110750Y-70678000D01*
X124725000Y-70681072D01*
X124849482Y-70668812D01*
X124969180Y-70632502D01*
X125079494Y-70573537D01*
X125176185Y-70494185D01*
X125255537Y-70397494D01*
X125314502Y-70287180D01*
X125350812Y-70167482D01*
X125363072Y-70043000D01*
X125360000Y-69666250D01*
X125201250Y-69507500D01*
X123952000Y-69507500D01*
X123698000Y-69507500D01*
X122448750Y-69507500D01*
X122290000Y-69666250D01*
X122286928Y-70043000D01*
X110617000Y-70043000D01*
X110617000Y-68718000D01*
X122286928Y-68718000D01*
X122290000Y-69094750D01*
X122448750Y-69253500D01*
X123698000Y-69253500D01*
X123698000Y-68241750D01*
X123952000Y-68241750D01*
X123952000Y-69253500D01*
X125201250Y-69253500D01*
X125360000Y-69094750D01*
X125363072Y-68718000D01*
X125350812Y-68593518D01*
X125314502Y-68473820D01*
X125255537Y-68363506D01*
X125176185Y-68266815D01*
X125079494Y-68187463D01*
X124969180Y-68128498D01*
X124849482Y-68092188D01*
X124725000Y-68079928D01*
X124110750Y-68083000D01*
X123952000Y-68241750D01*
X123698000Y-68241750D01*
X123539250Y-68083000D01*
X122925000Y-68079928D01*
X122800518Y-68092188D01*
X122680820Y-68128498D01*
X122570506Y-68187463D01*
X122473815Y-68266815D01*
X122394463Y-68363506D01*
X122335498Y-68473820D01*
X122299188Y-68593518D01*
X122286928Y-68718000D01*
X110617000Y-68718000D01*
X110617000Y-59817000D01*
X121793000Y-59817000D01*
X121793000Y-67945000D01*
G37*
%TD.AperFunction*%
%TD*%
M02*
