%TF.GenerationSoftware,KiCad,Pcbnew,(5.1.9)-1*%
%TF.CreationDate,2021-08-19T20:12:04+01:00*%
%TF.ProjectId,InlinePowerpoleBOB,496e6c69-6e65-4506-9f77-6572706f6c65,rev?*%
%TF.SameCoordinates,Original*%
%TF.FileFunction,Legend,Top*%
%TF.FilePolarity,Positive*%
%FSLAX46Y46*%
G04 Gerber Fmt 4.6, Leading zero omitted, Abs format (unit mm)*
G04 Created by KiCad (PCBNEW (5.1.9)-1) date 2021-08-19 20:12:04*
%MOMM*%
%LPD*%
G01*
G04 APERTURE LIST*
%ADD10C,0.100000*%
%ADD11C,0.120000*%
%ADD12C,0.200000*%
%ADD13C,0.254000*%
%ADD14C,0.150000*%
G04 APERTURE END LIST*
D10*
%TO.C,Q2*%
X138440000Y-52070000D02*
G75*
G02*
X138540000Y-52070000I50000J0D01*
G01*
X138540000Y-52070000D02*
G75*
G02*
X138440000Y-52070000I-50000J0D01*
G01*
X138440000Y-52070000D02*
X138440000Y-52070000D01*
X138540000Y-52070000D02*
X138540000Y-52070000D01*
%TO.C,Q1*%
X137150000Y-54610000D02*
G75*
G02*
X137050000Y-54610000I-50000J0D01*
G01*
X137050000Y-54610000D02*
G75*
G02*
X137150000Y-54610000I50000J0D01*
G01*
X137150000Y-54610000D02*
X137150000Y-54610000D01*
X137050000Y-54610000D02*
X137050000Y-54610000D01*
D11*
%TO.C,R7*%
X160292064Y-52265000D02*
X155937936Y-52265000D01*
X160292064Y-55685000D02*
X155937936Y-55685000D01*
%TO.C,R6*%
X144680000Y-70622936D02*
X144680000Y-71077064D01*
X146150000Y-70622936D02*
X146150000Y-71077064D01*
%TO.C,R5*%
X126900000Y-67082936D02*
X126900000Y-67537064D01*
X128370000Y-67082936D02*
X128370000Y-67537064D01*
%TO.C,R4*%
X126900000Y-75607936D02*
X126900000Y-76062064D01*
X128370000Y-75607936D02*
X128370000Y-76062064D01*
%TO.C,R3*%
X130710000Y-67082936D02*
X130710000Y-67537064D01*
X132180000Y-67082936D02*
X132180000Y-67537064D01*
%TO.C,R2*%
X130710000Y-75607936D02*
X130710000Y-76062064D01*
X132180000Y-75607936D02*
X132180000Y-76062064D01*
%TO.C,R1*%
X135790000Y-67082936D02*
X135790000Y-67537064D01*
X137260000Y-67082936D02*
X137260000Y-67537064D01*
%TO.C,J2*%
X174384000Y-67183000D02*
X164465000Y-67183000D01*
X174384000Y-51295000D02*
X164465000Y-51295000D01*
X164465000Y-51295000D02*
X164465000Y-67183000D01*
X174384000Y-51295000D02*
X174384000Y-67145000D01*
%TO.C,J1*%
X121044000Y-67183000D02*
X111125000Y-67183000D01*
X121044000Y-51295000D02*
X111125000Y-51295000D01*
X111125000Y-51295000D02*
X111125000Y-67183000D01*
X121044000Y-51295000D02*
X121044000Y-67145000D01*
D12*
%TO.C,IC1*%
X136775000Y-69620000D02*
X138200000Y-69620000D01*
X138550000Y-72620000D02*
X138550000Y-69620000D01*
X140850000Y-72620000D02*
X138550000Y-72620000D01*
X140850000Y-69620000D02*
X140850000Y-72620000D01*
X138550000Y-69620000D02*
X140850000Y-69620000D01*
%TO.C,C5*%
X151640000Y-70740000D02*
X151640000Y-75690000D01*
X158240000Y-68265000D02*
X158240000Y-75690000D01*
D11*
%TO.C,C4*%
X144680000Y-74668748D02*
X144680000Y-75191252D01*
X146150000Y-74668748D02*
X146150000Y-75191252D01*
%TO.C,C3*%
X161015000Y-68503748D02*
X161015000Y-69926252D01*
X162835000Y-68503748D02*
X162835000Y-69926252D01*
%TO.C,C2*%
X122915000Y-68161248D02*
X122915000Y-69583752D01*
X124735000Y-68161248D02*
X124735000Y-69583752D01*
%TO.C,C1*%
X134520000Y-75573748D02*
X134520000Y-76096252D01*
X135990000Y-75573748D02*
X135990000Y-76096252D01*
%TO.C,Q2*%
D13*
X146237476Y-59429952D02*
X146177000Y-59550904D01*
X146056047Y-59671857D01*
X145874619Y-59853285D01*
X145814142Y-59974238D01*
X145814142Y-60095190D01*
X146116523Y-60034714D02*
X146056047Y-60155666D01*
X145935095Y-60276619D01*
X145693190Y-60337095D01*
X145269857Y-60337095D01*
X145027952Y-60276619D01*
X144907000Y-60155666D01*
X144846523Y-60034714D01*
X144846523Y-59792809D01*
X144907000Y-59671857D01*
X145027952Y-59550904D01*
X145269857Y-59490428D01*
X145693190Y-59490428D01*
X145935095Y-59550904D01*
X146056047Y-59671857D01*
X146116523Y-59792809D01*
X146116523Y-60034714D01*
X144967476Y-59006619D02*
X144907000Y-58946142D01*
X144846523Y-58825190D01*
X144846523Y-58522809D01*
X144907000Y-58401857D01*
X144967476Y-58341380D01*
X145088428Y-58280904D01*
X145209380Y-58280904D01*
X145390809Y-58341380D01*
X146116523Y-59067095D01*
X146116523Y-58280904D01*
%TO.C,Q1*%
X130743476Y-47491952D02*
X130683000Y-47612904D01*
X130562047Y-47733857D01*
X130380619Y-47915285D01*
X130320142Y-48036238D01*
X130320142Y-48157190D01*
X130622523Y-48096714D02*
X130562047Y-48217666D01*
X130441095Y-48338619D01*
X130199190Y-48399095D01*
X129775857Y-48399095D01*
X129533952Y-48338619D01*
X129413000Y-48217666D01*
X129352523Y-48096714D01*
X129352523Y-47854809D01*
X129413000Y-47733857D01*
X129533952Y-47612904D01*
X129775857Y-47552428D01*
X130199190Y-47552428D01*
X130441095Y-47612904D01*
X130562047Y-47733857D01*
X130622523Y-47854809D01*
X130622523Y-48096714D01*
X130622523Y-46342904D02*
X130622523Y-47068619D01*
X130622523Y-46705761D02*
X129352523Y-46705761D01*
X129533952Y-46826714D01*
X129654904Y-46947666D01*
X129715380Y-47068619D01*
%TO.C,R7*%
D14*
X157948333Y-57047380D02*
X157615000Y-56571190D01*
X157376904Y-57047380D02*
X157376904Y-56047380D01*
X157757857Y-56047380D01*
X157853095Y-56095000D01*
X157900714Y-56142619D01*
X157948333Y-56237857D01*
X157948333Y-56380714D01*
X157900714Y-56475952D01*
X157853095Y-56523571D01*
X157757857Y-56571190D01*
X157376904Y-56571190D01*
X158281666Y-56047380D02*
X158948333Y-56047380D01*
X158519761Y-57047380D01*
%TO.C,R6*%
X147517380Y-71016666D02*
X147041190Y-71350000D01*
X147517380Y-71588095D02*
X146517380Y-71588095D01*
X146517380Y-71207142D01*
X146565000Y-71111904D01*
X146612619Y-71064285D01*
X146707857Y-71016666D01*
X146850714Y-71016666D01*
X146945952Y-71064285D01*
X146993571Y-71111904D01*
X147041190Y-71207142D01*
X147041190Y-71588095D01*
X146517380Y-70159523D02*
X146517380Y-70350000D01*
X146565000Y-70445238D01*
X146612619Y-70492857D01*
X146755476Y-70588095D01*
X146945952Y-70635714D01*
X147326904Y-70635714D01*
X147422142Y-70588095D01*
X147469761Y-70540476D01*
X147517380Y-70445238D01*
X147517380Y-70254761D01*
X147469761Y-70159523D01*
X147422142Y-70111904D01*
X147326904Y-70064285D01*
X147088809Y-70064285D01*
X146993571Y-70111904D01*
X146945952Y-70159523D01*
X146898333Y-70254761D01*
X146898333Y-70445238D01*
X146945952Y-70540476D01*
X146993571Y-70588095D01*
X147088809Y-70635714D01*
%TO.C,R5*%
X129737380Y-67476666D02*
X129261190Y-67810000D01*
X129737380Y-68048095D02*
X128737380Y-68048095D01*
X128737380Y-67667142D01*
X128785000Y-67571904D01*
X128832619Y-67524285D01*
X128927857Y-67476666D01*
X129070714Y-67476666D01*
X129165952Y-67524285D01*
X129213571Y-67571904D01*
X129261190Y-67667142D01*
X129261190Y-68048095D01*
X128737380Y-66571904D02*
X128737380Y-67048095D01*
X129213571Y-67095714D01*
X129165952Y-67048095D01*
X129118333Y-66952857D01*
X129118333Y-66714761D01*
X129165952Y-66619523D01*
X129213571Y-66571904D01*
X129308809Y-66524285D01*
X129546904Y-66524285D01*
X129642142Y-66571904D01*
X129689761Y-66619523D01*
X129737380Y-66714761D01*
X129737380Y-66952857D01*
X129689761Y-67048095D01*
X129642142Y-67095714D01*
%TO.C,R4*%
X129737380Y-76001666D02*
X129261190Y-76335000D01*
X129737380Y-76573095D02*
X128737380Y-76573095D01*
X128737380Y-76192142D01*
X128785000Y-76096904D01*
X128832619Y-76049285D01*
X128927857Y-76001666D01*
X129070714Y-76001666D01*
X129165952Y-76049285D01*
X129213571Y-76096904D01*
X129261190Y-76192142D01*
X129261190Y-76573095D01*
X129070714Y-75144523D02*
X129737380Y-75144523D01*
X128689761Y-75382619D02*
X129404047Y-75620714D01*
X129404047Y-75001666D01*
%TO.C,R3*%
X133547380Y-67476666D02*
X133071190Y-67810000D01*
X133547380Y-68048095D02*
X132547380Y-68048095D01*
X132547380Y-67667142D01*
X132595000Y-67571904D01*
X132642619Y-67524285D01*
X132737857Y-67476666D01*
X132880714Y-67476666D01*
X132975952Y-67524285D01*
X133023571Y-67571904D01*
X133071190Y-67667142D01*
X133071190Y-68048095D01*
X132547380Y-67143333D02*
X132547380Y-66524285D01*
X132928333Y-66857619D01*
X132928333Y-66714761D01*
X132975952Y-66619523D01*
X133023571Y-66571904D01*
X133118809Y-66524285D01*
X133356904Y-66524285D01*
X133452142Y-66571904D01*
X133499761Y-66619523D01*
X133547380Y-66714761D01*
X133547380Y-67000476D01*
X133499761Y-67095714D01*
X133452142Y-67143333D01*
%TO.C,R2*%
X133547380Y-76001666D02*
X133071190Y-76335000D01*
X133547380Y-76573095D02*
X132547380Y-76573095D01*
X132547380Y-76192142D01*
X132595000Y-76096904D01*
X132642619Y-76049285D01*
X132737857Y-76001666D01*
X132880714Y-76001666D01*
X132975952Y-76049285D01*
X133023571Y-76096904D01*
X133071190Y-76192142D01*
X133071190Y-76573095D01*
X132642619Y-75620714D02*
X132595000Y-75573095D01*
X132547380Y-75477857D01*
X132547380Y-75239761D01*
X132595000Y-75144523D01*
X132642619Y-75096904D01*
X132737857Y-75049285D01*
X132833095Y-75049285D01*
X132975952Y-75096904D01*
X133547380Y-75668333D01*
X133547380Y-75049285D01*
%TO.C,R1*%
X138627380Y-67476666D02*
X138151190Y-67810000D01*
X138627380Y-68048095D02*
X137627380Y-68048095D01*
X137627380Y-67667142D01*
X137675000Y-67571904D01*
X137722619Y-67524285D01*
X137817857Y-67476666D01*
X137960714Y-67476666D01*
X138055952Y-67524285D01*
X138103571Y-67571904D01*
X138151190Y-67667142D01*
X138151190Y-68048095D01*
X138627380Y-66524285D02*
X138627380Y-67095714D01*
X138627380Y-66810000D02*
X137627380Y-66810000D01*
X137770238Y-66905238D01*
X137865476Y-67000476D01*
X137913095Y-67095714D01*
%TO.C,J2*%
X173442380Y-50498333D02*
X174156666Y-50498333D01*
X174299523Y-50545952D01*
X174394761Y-50641190D01*
X174442380Y-50784047D01*
X174442380Y-50879285D01*
X173537619Y-50069761D02*
X173490000Y-50022142D01*
X173442380Y-49926904D01*
X173442380Y-49688809D01*
X173490000Y-49593571D01*
X173537619Y-49545952D01*
X173632857Y-49498333D01*
X173728095Y-49498333D01*
X173870952Y-49545952D01*
X174442380Y-50117380D01*
X174442380Y-49498333D01*
X165171428Y-52323952D02*
X165171428Y-51562047D01*
X165552380Y-51943000D02*
X164790476Y-51943000D01*
%TO.C,J1*%
X121372380Y-59515333D02*
X122086666Y-59515333D01*
X122229523Y-59562952D01*
X122324761Y-59658190D01*
X122372380Y-59801047D01*
X122372380Y-59896285D01*
X122372380Y-58515333D02*
X122372380Y-59086761D01*
X122372380Y-58801047D02*
X121372380Y-58801047D01*
X121515238Y-58896285D01*
X121610476Y-58991523D01*
X121658095Y-59086761D01*
X111831428Y-52323952D02*
X111831428Y-51562047D01*
X112212380Y-51943000D02*
X111450476Y-51943000D01*
%TO.C,IC1*%
D13*
X139095238Y-69154523D02*
X139095238Y-67884523D01*
X140425714Y-69033571D02*
X140365238Y-69094047D01*
X140183809Y-69154523D01*
X140062857Y-69154523D01*
X139881428Y-69094047D01*
X139760476Y-68973095D01*
X139700000Y-68852142D01*
X139639523Y-68610238D01*
X139639523Y-68428809D01*
X139700000Y-68186904D01*
X139760476Y-68065952D01*
X139881428Y-67945000D01*
X140062857Y-67884523D01*
X140183809Y-67884523D01*
X140365238Y-67945000D01*
X140425714Y-68005476D01*
X141635238Y-69154523D02*
X140909523Y-69154523D01*
X141272380Y-69154523D02*
X141272380Y-67884523D01*
X141151428Y-68065952D01*
X141030476Y-68186904D01*
X140909523Y-68247380D01*
%TO.C,C5*%
X155393571Y-72601666D02*
X155454047Y-72662142D01*
X155514523Y-72843571D01*
X155514523Y-72964523D01*
X155454047Y-73145952D01*
X155333095Y-73266904D01*
X155212142Y-73327380D01*
X154970238Y-73387857D01*
X154788809Y-73387857D01*
X154546904Y-73327380D01*
X154425952Y-73266904D01*
X154305000Y-73145952D01*
X154244523Y-72964523D01*
X154244523Y-72843571D01*
X154305000Y-72662142D01*
X154365476Y-72601666D01*
X154244523Y-71452619D02*
X154244523Y-72057380D01*
X154849285Y-72117857D01*
X154788809Y-72057380D01*
X154728333Y-71936428D01*
X154728333Y-71634047D01*
X154788809Y-71513095D01*
X154849285Y-71452619D01*
X154970238Y-71392142D01*
X155272619Y-71392142D01*
X155393571Y-71452619D01*
X155454047Y-71513095D01*
X155514523Y-71634047D01*
X155514523Y-71936428D01*
X155454047Y-72057380D01*
X155393571Y-72117857D01*
%TO.C,C4*%
D14*
X147452142Y-75096666D02*
X147499761Y-75144285D01*
X147547380Y-75287142D01*
X147547380Y-75382380D01*
X147499761Y-75525238D01*
X147404523Y-75620476D01*
X147309285Y-75668095D01*
X147118809Y-75715714D01*
X146975952Y-75715714D01*
X146785476Y-75668095D01*
X146690238Y-75620476D01*
X146595000Y-75525238D01*
X146547380Y-75382380D01*
X146547380Y-75287142D01*
X146595000Y-75144285D01*
X146642619Y-75096666D01*
X146880714Y-74239523D02*
X147547380Y-74239523D01*
X146499761Y-74477619D02*
X147214047Y-74715714D01*
X147214047Y-74096666D01*
%TO.C,C3*%
X164132142Y-69381666D02*
X164179761Y-69429285D01*
X164227380Y-69572142D01*
X164227380Y-69667380D01*
X164179761Y-69810238D01*
X164084523Y-69905476D01*
X163989285Y-69953095D01*
X163798809Y-70000714D01*
X163655952Y-70000714D01*
X163465476Y-69953095D01*
X163370238Y-69905476D01*
X163275000Y-69810238D01*
X163227380Y-69667380D01*
X163227380Y-69572142D01*
X163275000Y-69429285D01*
X163322619Y-69381666D01*
X163227380Y-69048333D02*
X163227380Y-68429285D01*
X163608333Y-68762619D01*
X163608333Y-68619761D01*
X163655952Y-68524523D01*
X163703571Y-68476904D01*
X163798809Y-68429285D01*
X164036904Y-68429285D01*
X164132142Y-68476904D01*
X164179761Y-68524523D01*
X164227380Y-68619761D01*
X164227380Y-68905476D01*
X164179761Y-69000714D01*
X164132142Y-69048333D01*
%TO.C,C2*%
X126032142Y-69039166D02*
X126079761Y-69086785D01*
X126127380Y-69229642D01*
X126127380Y-69324880D01*
X126079761Y-69467738D01*
X125984523Y-69562976D01*
X125889285Y-69610595D01*
X125698809Y-69658214D01*
X125555952Y-69658214D01*
X125365476Y-69610595D01*
X125270238Y-69562976D01*
X125175000Y-69467738D01*
X125127380Y-69324880D01*
X125127380Y-69229642D01*
X125175000Y-69086785D01*
X125222619Y-69039166D01*
X125222619Y-68658214D02*
X125175000Y-68610595D01*
X125127380Y-68515357D01*
X125127380Y-68277261D01*
X125175000Y-68182023D01*
X125222619Y-68134404D01*
X125317857Y-68086785D01*
X125413095Y-68086785D01*
X125555952Y-68134404D01*
X126127380Y-68705833D01*
X126127380Y-68086785D01*
%TO.C,C1*%
X137292142Y-76001666D02*
X137339761Y-76049285D01*
X137387380Y-76192142D01*
X137387380Y-76287380D01*
X137339761Y-76430238D01*
X137244523Y-76525476D01*
X137149285Y-76573095D01*
X136958809Y-76620714D01*
X136815952Y-76620714D01*
X136625476Y-76573095D01*
X136530238Y-76525476D01*
X136435000Y-76430238D01*
X136387380Y-76287380D01*
X136387380Y-76192142D01*
X136435000Y-76049285D01*
X136482619Y-76001666D01*
X137387380Y-75049285D02*
X137387380Y-75620714D01*
X137387380Y-75335000D02*
X136387380Y-75335000D01*
X136530238Y-75430238D01*
X136625476Y-75525476D01*
X136673095Y-75620714D01*
%TD*%
M02*
