%TF.GenerationSoftware,KiCad,Pcbnew,(5.1.9)-1*%
%TF.CreationDate,2021-10-12T13:38:10+01:00*%
%TF.ProjectId,InlinePowerpoleBOB,496e6c69-6e65-4506-9f77-6572706f6c65,rev?*%
%TF.SameCoordinates,Original*%
%TF.FileFunction,Legend,Top*%
%TF.FilePolarity,Positive*%
%FSLAX46Y46*%
G04 Gerber Fmt 4.6, Leading zero omitted, Abs format (unit mm)*
G04 Created by KiCad (PCBNEW (5.1.9)-1) date 2021-10-12 13:38:10*
%MOMM*%
%LPD*%
G01*
G04 APERTURE LIST*
%ADD10C,0.200000*%
%ADD11C,0.100000*%
%ADD12C,0.120000*%
%ADD13C,0.254000*%
%ADD14C,0.150000*%
G04 APERTURE END LIST*
D10*
X159524285Y-66869571D02*
X159810000Y-66869571D01*
X159952857Y-66941000D01*
X160095714Y-67083857D01*
X160167142Y-67369571D01*
X160167142Y-67869571D01*
X160095714Y-68155285D01*
X159952857Y-68298142D01*
X159810000Y-68369571D01*
X159524285Y-68369571D01*
X159381428Y-68298142D01*
X159238571Y-68155285D01*
X159167142Y-67869571D01*
X159167142Y-67369571D01*
X159238571Y-67083857D01*
X159381428Y-66941000D01*
X159524285Y-66869571D01*
X161452857Y-67369571D02*
X161452857Y-68369571D01*
X160810000Y-67369571D02*
X160810000Y-68155285D01*
X160881428Y-68298142D01*
X161024285Y-68369571D01*
X161238571Y-68369571D01*
X161381428Y-68298142D01*
X161452857Y-68226714D01*
X161952857Y-67369571D02*
X162524285Y-67369571D01*
X162167142Y-66869571D02*
X162167142Y-68155285D01*
X162238571Y-68298142D01*
X162381428Y-68369571D01*
X162524285Y-68369571D01*
X163024285Y-67369571D02*
X163024285Y-68869571D01*
X163024285Y-67441000D02*
X163167142Y-67369571D01*
X163452857Y-67369571D01*
X163595714Y-67441000D01*
X163667142Y-67512428D01*
X163738571Y-67655285D01*
X163738571Y-68083857D01*
X163667142Y-68226714D01*
X163595714Y-68298142D01*
X163452857Y-68369571D01*
X163167142Y-68369571D01*
X163024285Y-68298142D01*
X165024285Y-67369571D02*
X165024285Y-68369571D01*
X164381428Y-67369571D02*
X164381428Y-68155285D01*
X164452857Y-68298142D01*
X164595714Y-68369571D01*
X164810000Y-68369571D01*
X164952857Y-68298142D01*
X165024285Y-68226714D01*
X165524285Y-67369571D02*
X166095714Y-67369571D01*
X165738571Y-66869571D02*
X165738571Y-68155285D01*
X165810000Y-68298142D01*
X165952857Y-68369571D01*
X166095714Y-68369571D01*
X114502714Y-68369571D02*
X114502714Y-66869571D01*
X115217000Y-67369571D02*
X115217000Y-68369571D01*
X115217000Y-67512428D02*
X115288428Y-67441000D01*
X115431285Y-67369571D01*
X115645571Y-67369571D01*
X115788428Y-67441000D01*
X115859857Y-67583857D01*
X115859857Y-68369571D01*
X116574142Y-67369571D02*
X116574142Y-68869571D01*
X116574142Y-67441000D02*
X116717000Y-67369571D01*
X117002714Y-67369571D01*
X117145571Y-67441000D01*
X117217000Y-67512428D01*
X117288428Y-67655285D01*
X117288428Y-68083857D01*
X117217000Y-68226714D01*
X117145571Y-68298142D01*
X117002714Y-68369571D01*
X116717000Y-68369571D01*
X116574142Y-68298142D01*
X118574142Y-67369571D02*
X118574142Y-68369571D01*
X117931285Y-67369571D02*
X117931285Y-68155285D01*
X118002714Y-68298142D01*
X118145571Y-68369571D01*
X118359857Y-68369571D01*
X118502714Y-68298142D01*
X118574142Y-68226714D01*
X119074142Y-67369571D02*
X119645571Y-67369571D01*
X119288428Y-66869571D02*
X119288428Y-68155285D01*
X119359857Y-68298142D01*
X119502714Y-68369571D01*
X119645571Y-68369571D01*
D11*
%TO.C,Q2*%
X138440000Y-52070000D02*
X138440000Y-52070000D01*
X138540000Y-52070000D02*
X138540000Y-52070000D01*
X138440000Y-52070000D02*
G75*
G02*
X138540000Y-52070000I50000J0D01*
G01*
X138540000Y-52070000D02*
G75*
G02*
X138440000Y-52070000I-50000J0D01*
G01*
D10*
%TO.C,C5*%
X155065000Y-63820000D02*
X155065000Y-71245000D01*
X148465000Y-66295000D02*
X148465000Y-71245000D01*
%TO.C,IC1*%
X138550000Y-69620000D02*
X140850000Y-69620000D01*
X140850000Y-69620000D02*
X140850000Y-72620000D01*
X140850000Y-72620000D02*
X138550000Y-72620000D01*
X138550000Y-72620000D02*
X138550000Y-69620000D01*
X136775000Y-69620000D02*
X138200000Y-69620000D01*
D12*
%TO.C,R2*%
X132180000Y-71892936D02*
X132180000Y-72347064D01*
X130710000Y-71892936D02*
X130710000Y-72347064D01*
%TO.C,D1*%
X128595000Y-73184500D02*
X128595000Y-70499500D01*
X128595000Y-70499500D02*
X126675000Y-70499500D01*
X126675000Y-70499500D02*
X126675000Y-73184500D01*
D11*
%TO.C,Q1*%
X137150000Y-54610000D02*
X137150000Y-54610000D01*
X137050000Y-54610000D02*
X137050000Y-54610000D01*
X137150000Y-54610000D02*
G75*
G02*
X137050000Y-54610000I-50000J0D01*
G01*
X137050000Y-54610000D02*
G75*
G02*
X137150000Y-54610000I50000J0D01*
G01*
D12*
%TO.C,R6*%
X144680000Y-70622936D02*
X144680000Y-71077064D01*
X146150000Y-70622936D02*
X146150000Y-71077064D01*
%TO.C,R5*%
X126900000Y-67082936D02*
X126900000Y-67537064D01*
X128370000Y-67082936D02*
X128370000Y-67537064D01*
%TO.C,R3*%
X130710000Y-67082936D02*
X130710000Y-67537064D01*
X132180000Y-67082936D02*
X132180000Y-67537064D01*
%TO.C,R1*%
X135790000Y-67082936D02*
X135790000Y-67537064D01*
X137260000Y-67082936D02*
X137260000Y-67537064D01*
%TO.C,C4*%
X144680000Y-74668748D02*
X144680000Y-75191252D01*
X146150000Y-74668748D02*
X146150000Y-75191252D01*
%TO.C,C3*%
X156570000Y-59271248D02*
X156570000Y-60693752D01*
X158390000Y-59271248D02*
X158390000Y-60693752D01*
%TO.C,C2*%
X122915000Y-67106748D02*
X122915000Y-68529252D01*
X124735000Y-67106748D02*
X124735000Y-68529252D01*
%TO.C,C1*%
X133885000Y-73166248D02*
X133885000Y-73688752D01*
X135355000Y-73166248D02*
X135355000Y-73688752D01*
%TO.C,Q2*%
D13*
X146237476Y-59429952D02*
X146177000Y-59550904D01*
X146056047Y-59671857D01*
X145874619Y-59853285D01*
X145814142Y-59974238D01*
X145814142Y-60095190D01*
X146116523Y-60034714D02*
X146056047Y-60155666D01*
X145935095Y-60276619D01*
X145693190Y-60337095D01*
X145269857Y-60337095D01*
X145027952Y-60276619D01*
X144907000Y-60155666D01*
X144846523Y-60034714D01*
X144846523Y-59792809D01*
X144907000Y-59671857D01*
X145027952Y-59550904D01*
X145269857Y-59490428D01*
X145693190Y-59490428D01*
X145935095Y-59550904D01*
X146056047Y-59671857D01*
X146116523Y-59792809D01*
X146116523Y-60034714D01*
X144967476Y-59006619D02*
X144907000Y-58946142D01*
X144846523Y-58825190D01*
X144846523Y-58522809D01*
X144907000Y-58401857D01*
X144967476Y-58341380D01*
X145088428Y-58280904D01*
X145209380Y-58280904D01*
X145390809Y-58341380D01*
X146116523Y-59067095D01*
X146116523Y-58280904D01*
%TO.C,C5*%
X152218571Y-68156666D02*
X152279047Y-68217142D01*
X152339523Y-68398571D01*
X152339523Y-68519523D01*
X152279047Y-68700952D01*
X152158095Y-68821904D01*
X152037142Y-68882380D01*
X151795238Y-68942857D01*
X151613809Y-68942857D01*
X151371904Y-68882380D01*
X151250952Y-68821904D01*
X151130000Y-68700952D01*
X151069523Y-68519523D01*
X151069523Y-68398571D01*
X151130000Y-68217142D01*
X151190476Y-68156666D01*
X151069523Y-67007619D02*
X151069523Y-67612380D01*
X151674285Y-67672857D01*
X151613809Y-67612380D01*
X151553333Y-67491428D01*
X151553333Y-67189047D01*
X151613809Y-67068095D01*
X151674285Y-67007619D01*
X151795238Y-66947142D01*
X152097619Y-66947142D01*
X152218571Y-67007619D01*
X152279047Y-67068095D01*
X152339523Y-67189047D01*
X152339523Y-67491428D01*
X152279047Y-67612380D01*
X152218571Y-67672857D01*
%TO.C,IC1*%
X138460238Y-71694523D02*
X138460238Y-70424523D01*
X139790714Y-71573571D02*
X139730238Y-71634047D01*
X139548809Y-71694523D01*
X139427857Y-71694523D01*
X139246428Y-71634047D01*
X139125476Y-71513095D01*
X139065000Y-71392142D01*
X139004523Y-71150238D01*
X139004523Y-70968809D01*
X139065000Y-70726904D01*
X139125476Y-70605952D01*
X139246428Y-70485000D01*
X139427857Y-70424523D01*
X139548809Y-70424523D01*
X139730238Y-70485000D01*
X139790714Y-70545476D01*
X141000238Y-71694523D02*
X140274523Y-71694523D01*
X140637380Y-71694523D02*
X140637380Y-70424523D01*
X140516428Y-70605952D01*
X140395476Y-70726904D01*
X140274523Y-70787380D01*
%TO.C,R2*%
D14*
X133547380Y-72286666D02*
X133071190Y-72620000D01*
X133547380Y-72858095D02*
X132547380Y-72858095D01*
X132547380Y-72477142D01*
X132595000Y-72381904D01*
X132642619Y-72334285D01*
X132737857Y-72286666D01*
X132880714Y-72286666D01*
X132975952Y-72334285D01*
X133023571Y-72381904D01*
X133071190Y-72477142D01*
X133071190Y-72858095D01*
X132642619Y-71905714D02*
X132595000Y-71858095D01*
X132547380Y-71762857D01*
X132547380Y-71524761D01*
X132595000Y-71429523D01*
X132642619Y-71381904D01*
X132737857Y-71334285D01*
X132833095Y-71334285D01*
X132975952Y-71381904D01*
X133547380Y-71953333D01*
X133547380Y-71334285D01*
%TO.C,D1*%
X129737380Y-72922595D02*
X128737380Y-72922595D01*
X128737380Y-72684500D01*
X128785000Y-72541642D01*
X128880238Y-72446404D01*
X128975476Y-72398785D01*
X129165952Y-72351166D01*
X129308809Y-72351166D01*
X129499285Y-72398785D01*
X129594523Y-72446404D01*
X129689761Y-72541642D01*
X129737380Y-72684500D01*
X129737380Y-72922595D01*
X129737380Y-71398785D02*
X129737380Y-71970214D01*
X129737380Y-71684500D02*
X128737380Y-71684500D01*
X128880238Y-71779738D01*
X128975476Y-71874976D01*
X129023095Y-71970214D01*
%TO.C,J2*%
X161986980Y-59616933D02*
X162701266Y-59616933D01*
X162844123Y-59664552D01*
X162939361Y-59759790D01*
X162986980Y-59902647D01*
X162986980Y-59997885D01*
X162082219Y-59188361D02*
X162034600Y-59140742D01*
X161986980Y-59045504D01*
X161986980Y-58807409D01*
X162034600Y-58712171D01*
X162082219Y-58664552D01*
X162177457Y-58616933D01*
X162272695Y-58616933D01*
X162415552Y-58664552D01*
X162986980Y-59235980D01*
X162986980Y-58616933D01*
X160091428Y-52323952D02*
X160091428Y-51562047D01*
X160472380Y-51943000D02*
X159710476Y-51943000D01*
%TO.C,J1*%
X116546380Y-59489933D02*
X117260666Y-59489933D01*
X117403523Y-59537552D01*
X117498761Y-59632790D01*
X117546380Y-59775647D01*
X117546380Y-59870885D01*
X117546380Y-58489933D02*
X117546380Y-59061361D01*
X117546380Y-58775647D02*
X116546380Y-58775647D01*
X116689238Y-58870885D01*
X116784476Y-58966123D01*
X116832095Y-59061361D01*
%TO.C,Q1*%
D13*
X130743476Y-47491952D02*
X130683000Y-47612904D01*
X130562047Y-47733857D01*
X130380619Y-47915285D01*
X130320142Y-48036238D01*
X130320142Y-48157190D01*
X130622523Y-48096714D02*
X130562047Y-48217666D01*
X130441095Y-48338619D01*
X130199190Y-48399095D01*
X129775857Y-48399095D01*
X129533952Y-48338619D01*
X129413000Y-48217666D01*
X129352523Y-48096714D01*
X129352523Y-47854809D01*
X129413000Y-47733857D01*
X129533952Y-47612904D01*
X129775857Y-47552428D01*
X130199190Y-47552428D01*
X130441095Y-47612904D01*
X130562047Y-47733857D01*
X130622523Y-47854809D01*
X130622523Y-48096714D01*
X130622523Y-46342904D02*
X130622523Y-47068619D01*
X130622523Y-46705761D02*
X129352523Y-46705761D01*
X129533952Y-46826714D01*
X129654904Y-46947666D01*
X129715380Y-47068619D01*
%TO.C,R6*%
D14*
X147517380Y-71016666D02*
X147041190Y-71350000D01*
X147517380Y-71588095D02*
X146517380Y-71588095D01*
X146517380Y-71207142D01*
X146565000Y-71111904D01*
X146612619Y-71064285D01*
X146707857Y-71016666D01*
X146850714Y-71016666D01*
X146945952Y-71064285D01*
X146993571Y-71111904D01*
X147041190Y-71207142D01*
X147041190Y-71588095D01*
X146517380Y-70159523D02*
X146517380Y-70350000D01*
X146565000Y-70445238D01*
X146612619Y-70492857D01*
X146755476Y-70588095D01*
X146945952Y-70635714D01*
X147326904Y-70635714D01*
X147422142Y-70588095D01*
X147469761Y-70540476D01*
X147517380Y-70445238D01*
X147517380Y-70254761D01*
X147469761Y-70159523D01*
X147422142Y-70111904D01*
X147326904Y-70064285D01*
X147088809Y-70064285D01*
X146993571Y-70111904D01*
X146945952Y-70159523D01*
X146898333Y-70254761D01*
X146898333Y-70445238D01*
X146945952Y-70540476D01*
X146993571Y-70588095D01*
X147088809Y-70635714D01*
%TO.C,R5*%
X129737380Y-67476666D02*
X129261190Y-67810000D01*
X129737380Y-68048095D02*
X128737380Y-68048095D01*
X128737380Y-67667142D01*
X128785000Y-67571904D01*
X128832619Y-67524285D01*
X128927857Y-67476666D01*
X129070714Y-67476666D01*
X129165952Y-67524285D01*
X129213571Y-67571904D01*
X129261190Y-67667142D01*
X129261190Y-68048095D01*
X128737380Y-66571904D02*
X128737380Y-67048095D01*
X129213571Y-67095714D01*
X129165952Y-67048095D01*
X129118333Y-66952857D01*
X129118333Y-66714761D01*
X129165952Y-66619523D01*
X129213571Y-66571904D01*
X129308809Y-66524285D01*
X129546904Y-66524285D01*
X129642142Y-66571904D01*
X129689761Y-66619523D01*
X129737380Y-66714761D01*
X129737380Y-66952857D01*
X129689761Y-67048095D01*
X129642142Y-67095714D01*
%TO.C,R3*%
X133547380Y-67476666D02*
X133071190Y-67810000D01*
X133547380Y-68048095D02*
X132547380Y-68048095D01*
X132547380Y-67667142D01*
X132595000Y-67571904D01*
X132642619Y-67524285D01*
X132737857Y-67476666D01*
X132880714Y-67476666D01*
X132975952Y-67524285D01*
X133023571Y-67571904D01*
X133071190Y-67667142D01*
X133071190Y-68048095D01*
X132547380Y-67143333D02*
X132547380Y-66524285D01*
X132928333Y-66857619D01*
X132928333Y-66714761D01*
X132975952Y-66619523D01*
X133023571Y-66571904D01*
X133118809Y-66524285D01*
X133356904Y-66524285D01*
X133452142Y-66571904D01*
X133499761Y-66619523D01*
X133547380Y-66714761D01*
X133547380Y-67000476D01*
X133499761Y-67095714D01*
X133452142Y-67143333D01*
%TO.C,R1*%
X138627380Y-67476666D02*
X138151190Y-67810000D01*
X138627380Y-68048095D02*
X137627380Y-68048095D01*
X137627380Y-67667142D01*
X137675000Y-67571904D01*
X137722619Y-67524285D01*
X137817857Y-67476666D01*
X137960714Y-67476666D01*
X138055952Y-67524285D01*
X138103571Y-67571904D01*
X138151190Y-67667142D01*
X138151190Y-68048095D01*
X138627380Y-66524285D02*
X138627380Y-67095714D01*
X138627380Y-66810000D02*
X137627380Y-66810000D01*
X137770238Y-66905238D01*
X137865476Y-67000476D01*
X137913095Y-67095714D01*
%TO.C,C4*%
X147452142Y-75096666D02*
X147499761Y-75144285D01*
X147547380Y-75287142D01*
X147547380Y-75382380D01*
X147499761Y-75525238D01*
X147404523Y-75620476D01*
X147309285Y-75668095D01*
X147118809Y-75715714D01*
X146975952Y-75715714D01*
X146785476Y-75668095D01*
X146690238Y-75620476D01*
X146595000Y-75525238D01*
X146547380Y-75382380D01*
X146547380Y-75287142D01*
X146595000Y-75144285D01*
X146642619Y-75096666D01*
X146880714Y-74239523D02*
X147547380Y-74239523D01*
X146499761Y-74477619D02*
X147214047Y-74715714D01*
X147214047Y-74096666D01*
%TO.C,C3*%
X159687142Y-60149166D02*
X159734761Y-60196785D01*
X159782380Y-60339642D01*
X159782380Y-60434880D01*
X159734761Y-60577738D01*
X159639523Y-60672976D01*
X159544285Y-60720595D01*
X159353809Y-60768214D01*
X159210952Y-60768214D01*
X159020476Y-60720595D01*
X158925238Y-60672976D01*
X158830000Y-60577738D01*
X158782380Y-60434880D01*
X158782380Y-60339642D01*
X158830000Y-60196785D01*
X158877619Y-60149166D01*
X158782380Y-59815833D02*
X158782380Y-59196785D01*
X159163333Y-59530119D01*
X159163333Y-59387261D01*
X159210952Y-59292023D01*
X159258571Y-59244404D01*
X159353809Y-59196785D01*
X159591904Y-59196785D01*
X159687142Y-59244404D01*
X159734761Y-59292023D01*
X159782380Y-59387261D01*
X159782380Y-59672976D01*
X159734761Y-59768214D01*
X159687142Y-59815833D01*
%TO.C,C2*%
X126032142Y-67984666D02*
X126079761Y-68032285D01*
X126127380Y-68175142D01*
X126127380Y-68270380D01*
X126079761Y-68413238D01*
X125984523Y-68508476D01*
X125889285Y-68556095D01*
X125698809Y-68603714D01*
X125555952Y-68603714D01*
X125365476Y-68556095D01*
X125270238Y-68508476D01*
X125175000Y-68413238D01*
X125127380Y-68270380D01*
X125127380Y-68175142D01*
X125175000Y-68032285D01*
X125222619Y-67984666D01*
X125222619Y-67603714D02*
X125175000Y-67556095D01*
X125127380Y-67460857D01*
X125127380Y-67222761D01*
X125175000Y-67127523D01*
X125222619Y-67079904D01*
X125317857Y-67032285D01*
X125413095Y-67032285D01*
X125555952Y-67079904D01*
X126127380Y-67651333D01*
X126127380Y-67032285D01*
%TO.C,C1*%
X136657142Y-73594166D02*
X136704761Y-73641785D01*
X136752380Y-73784642D01*
X136752380Y-73879880D01*
X136704761Y-74022738D01*
X136609523Y-74117976D01*
X136514285Y-74165595D01*
X136323809Y-74213214D01*
X136180952Y-74213214D01*
X135990476Y-74165595D01*
X135895238Y-74117976D01*
X135800000Y-74022738D01*
X135752380Y-73879880D01*
X135752380Y-73784642D01*
X135800000Y-73641785D01*
X135847619Y-73594166D01*
X136752380Y-72641785D02*
X136752380Y-73213214D01*
X136752380Y-72927500D02*
X135752380Y-72927500D01*
X135895238Y-73022738D01*
X135990476Y-73117976D01*
X136038095Y-73213214D01*
%TD*%
M02*
