%TF.GenerationSoftware,KiCad,Pcbnew,(5.1.9)-1*%
%TF.CreationDate,2021-10-12T13:38:10+01:00*%
%TF.ProjectId,InlinePowerpoleBOB,496e6c69-6e65-4506-9f77-6572706f6c65,rev?*%
%TF.SameCoordinates,Original*%
%TF.FileFunction,Copper,L2,Bot*%
%TF.FilePolarity,Positive*%
%FSLAX46Y46*%
G04 Gerber Fmt 4.6, Leading zero omitted, Abs format (unit mm)*
G04 Created by KiCad (PCBNEW (5.1.9)-1) date 2021-10-12 13:38:10*
%MOMM*%
%LPD*%
G01*
G04 APERTURE LIST*
%TA.AperFunction,ComponentPad*%
%ADD10O,6.000000X5.500000*%
%TD*%
%TA.AperFunction,ViaPad*%
%ADD11C,0.500000*%
%TD*%
%TA.AperFunction,ViaPad*%
%ADD12C,0.800000*%
%TD*%
%TA.AperFunction,Conductor*%
%ADD13C,0.250000*%
%TD*%
%TA.AperFunction,Conductor*%
%ADD14C,0.254000*%
%TD*%
%TA.AperFunction,Conductor*%
%ADD15C,0.100000*%
%TD*%
G04 APERTURE END LIST*
D10*
%TO.P,J2,2*%
%TO.N,GND*%
X162560000Y-63145000D03*
%TO.P,J2,1*%
%TO.N,Net-(C3-Pad1)*%
X162560000Y-55245000D03*
%TD*%
%TO.P,J1,2*%
%TO.N,GND*%
X117094000Y-63145000D03*
%TO.P,J1,1*%
%TO.N,Net-(C2-Pad1)*%
X117094000Y-55245000D03*
%TD*%
D11*
%TO.N,GND*%
X131445000Y-74295000D03*
X127635000Y-74295000D03*
X134620000Y-75565000D03*
X136144000Y-73660000D03*
X143510000Y-76200000D03*
X147320000Y-76200000D03*
X123825000Y-71755000D03*
X149860000Y-70358000D03*
X153670000Y-70358000D03*
X157226000Y-63246000D03*
X129540000Y-69215000D03*
X139700000Y-73025000D03*
X148590000Y-70612000D03*
%TO.N,Net-(C2-Pad1)*%
X121920000Y-47625000D03*
X124460000Y-47625000D03*
X127000000Y-47625000D03*
X129540000Y-47625000D03*
X132080000Y-47625000D03*
X121920000Y-50165000D03*
X124460000Y-50165000D03*
X127000000Y-50165000D03*
X121920000Y-52705000D03*
X124460000Y-52705000D03*
X127000000Y-52705000D03*
X132080000Y-52705000D03*
X121920000Y-55245000D03*
X124460000Y-55245000D03*
X127000000Y-55245000D03*
X121920000Y-57785000D03*
X124460000Y-57785000D03*
X127000000Y-57785000D03*
X129540000Y-57785000D03*
X132080000Y-57785000D03*
X132080000Y-51435000D03*
X132080000Y-53975000D03*
X133350000Y-51435000D03*
X133350000Y-52705000D03*
X133350000Y-53975000D03*
%TO.N,Net-(C3-Pad1)*%
X143510000Y-48895000D03*
X146050000Y-48895000D03*
X148590000Y-48895000D03*
X151130000Y-48895000D03*
X153670000Y-48895000D03*
X148590000Y-51435000D03*
X151130000Y-51435000D03*
X153670000Y-51435000D03*
X148590000Y-53975000D03*
X151130000Y-53975000D03*
X148590000Y-56515000D03*
X151130000Y-56515000D03*
X153670000Y-56515000D03*
X143510000Y-59055000D03*
X146050000Y-59055000D03*
X148590000Y-59055000D03*
X151130000Y-59055000D03*
X153670000Y-59055000D03*
X143510000Y-53975000D03*
X143510000Y-52705000D03*
X143510000Y-55245000D03*
X142240000Y-55245000D03*
X142240000Y-53975000D03*
X142240000Y-52705000D03*
D12*
%TO.N,Net-(IC1-Pad10)*%
X137795000Y-48260000D03*
X137795000Y-58420000D03*
%TD*%
D13*
%TO.N,Net-(IC1-Pad10)*%
X137795000Y-48260000D02*
X137795000Y-58420000D01*
%TD*%
D14*
%TO.N,Net-(C3-Pad1)*%
X169418000Y-58928000D02*
X156210000Y-58928000D01*
X156185224Y-58930440D01*
X156161399Y-58937667D01*
X156139443Y-58949403D01*
X156120197Y-58965197D01*
X156104403Y-58984443D01*
X156092667Y-59006399D01*
X156085440Y-59030224D01*
X156083000Y-59055000D01*
X156083000Y-67183000D01*
X141097000Y-67183000D01*
X141097000Y-42037000D01*
X169418000Y-42037000D01*
X169418000Y-58928000D01*
%TA.AperFunction,Conductor*%
D15*
G36*
X169418000Y-58928000D02*
G01*
X156210000Y-58928000D01*
X156185224Y-58930440D01*
X156161399Y-58937667D01*
X156139443Y-58949403D01*
X156120197Y-58965197D01*
X156104403Y-58984443D01*
X156092667Y-59006399D01*
X156085440Y-59030224D01*
X156083000Y-59055000D01*
X156083000Y-67183000D01*
X141097000Y-67183000D01*
X141097000Y-42037000D01*
X169418000Y-42037000D01*
X169418000Y-58928000D01*
G37*
%TD.AperFunction*%
%TD*%
D14*
%TO.N,Net-(C2-Pad1)*%
X134493000Y-67183000D02*
X122682000Y-67183000D01*
X122682000Y-59055000D01*
X122679560Y-59030224D01*
X122672333Y-59006399D01*
X122660597Y-58984443D01*
X122644803Y-58965197D01*
X122625557Y-58949403D01*
X122603601Y-58937667D01*
X122579776Y-58930440D01*
X122555000Y-58928000D01*
X110617000Y-58928000D01*
X110617000Y-42037000D01*
X134493000Y-42037000D01*
X134493000Y-67183000D01*
%TA.AperFunction,Conductor*%
D15*
G36*
X134493000Y-67183000D02*
G01*
X122682000Y-67183000D01*
X122682000Y-59055000D01*
X122679560Y-59030224D01*
X122672333Y-59006399D01*
X122660597Y-58984443D01*
X122644803Y-58965197D01*
X122625557Y-58949403D01*
X122603601Y-58937667D01*
X122579776Y-58930440D01*
X122555000Y-58928000D01*
X110617000Y-58928000D01*
X110617000Y-42037000D01*
X134493000Y-42037000D01*
X134493000Y-67183000D01*
G37*
%TD.AperFunction*%
%TD*%
D14*
%TO.N,GND*%
X121793000Y-67945000D02*
X121795440Y-67969776D01*
X121802667Y-67993601D01*
X121814403Y-68015557D01*
X121830197Y-68034803D01*
X121849443Y-68050597D01*
X121871399Y-68062333D01*
X121895224Y-68069560D01*
X121920000Y-68072000D01*
X156845000Y-68072000D01*
X156869776Y-68069560D01*
X156893601Y-68062333D01*
X156915557Y-68050597D01*
X156934803Y-68034803D01*
X156950597Y-68015557D01*
X156962333Y-67993601D01*
X156969560Y-67969776D01*
X156972000Y-67945000D01*
X156972000Y-59817000D01*
X169418000Y-59817000D01*
X169418000Y-77343000D01*
X110617000Y-77343000D01*
X110617000Y-59817000D01*
X121793000Y-59817000D01*
X121793000Y-67945000D01*
%TA.AperFunction,Conductor*%
D15*
G36*
X121793000Y-67945000D02*
G01*
X121795440Y-67969776D01*
X121802667Y-67993601D01*
X121814403Y-68015557D01*
X121830197Y-68034803D01*
X121849443Y-68050597D01*
X121871399Y-68062333D01*
X121895224Y-68069560D01*
X121920000Y-68072000D01*
X156845000Y-68072000D01*
X156869776Y-68069560D01*
X156893601Y-68062333D01*
X156915557Y-68050597D01*
X156934803Y-68034803D01*
X156950597Y-68015557D01*
X156962333Y-67993601D01*
X156969560Y-67969776D01*
X156972000Y-67945000D01*
X156972000Y-59817000D01*
X169418000Y-59817000D01*
X169418000Y-77343000D01*
X110617000Y-77343000D01*
X110617000Y-59817000D01*
X121793000Y-59817000D01*
X121793000Y-67945000D01*
G37*
%TD.AperFunction*%
%TD*%
M02*
