%TF.GenerationSoftware,KiCad,Pcbnew,(5.1.9)-1*%
%TF.CreationDate,2021-09-21T17:39:54+01:00*%
%TF.ProjectId,InlinePowerpoleBOB,496e6c69-6e65-4506-9f77-6572706f6c65,rev?*%
%TF.SameCoordinates,Original*%
%TF.FileFunction,Paste,Top*%
%TF.FilePolarity,Positive*%
%FSLAX46Y46*%
G04 Gerber Fmt 4.6, Leading zero omitted, Abs format (unit mm)*
G04 Created by KiCad (PCBNEW (5.1.9)-1) date 2021-09-21 17:39:54*
%MOMM*%
%LPD*%
G01*
G04 APERTURE LIST*
%ADD10R,1.425000X0.300000*%
%ADD11R,1.800000X3.150000*%
%ADD12R,3.810000X3.910000*%
%ADD13R,0.710000X0.610000*%
%ADD14R,1.270000X0.610000*%
G04 APERTURE END LIST*
D10*
%TO.C,IC1*%
X141912000Y-70120000D03*
X141912000Y-70620000D03*
X141912000Y-71120000D03*
X141912000Y-71620000D03*
X141912000Y-72120000D03*
X137488000Y-72120000D03*
X137488000Y-71620000D03*
X137488000Y-71120000D03*
X137488000Y-70620000D03*
X137488000Y-70120000D03*
%TD*%
D11*
%TO.C,C5*%
X151765000Y-70495000D03*
X151765000Y-65395000D03*
%TD*%
D12*
%TO.C,Q2*%
X142930000Y-53975000D03*
D13*
X145190000Y-52070000D03*
X145190000Y-53340000D03*
X145190000Y-54610000D03*
X145190000Y-55880000D03*
D14*
X139570000Y-55880000D03*
X139570000Y-54610000D03*
X139570000Y-53340000D03*
X139570000Y-52070000D03*
%TD*%
D12*
%TO.C,Q1*%
X132660000Y-52705000D03*
D13*
X130400000Y-54610000D03*
X130400000Y-53340000D03*
X130400000Y-52070000D03*
X130400000Y-50800000D03*
D14*
X136020000Y-50800000D03*
X136020000Y-52070000D03*
X136020000Y-53340000D03*
X136020000Y-54610000D03*
%TD*%
%TO.C,R6*%
G36*
G01*
X144964999Y-71250000D02*
X145865001Y-71250000D01*
G75*
G02*
X146115000Y-71499999I0J-249999D01*
G01*
X146115000Y-72200001D01*
G75*
G02*
X145865001Y-72450000I-249999J0D01*
G01*
X144964999Y-72450000D01*
G75*
G02*
X144715000Y-72200001I0J249999D01*
G01*
X144715000Y-71499999D01*
G75*
G02*
X144964999Y-71250000I249999J0D01*
G01*
G37*
G36*
G01*
X144964999Y-69250000D02*
X145865001Y-69250000D01*
G75*
G02*
X146115000Y-69499999I0J-249999D01*
G01*
X146115000Y-70200001D01*
G75*
G02*
X145865001Y-70450000I-249999J0D01*
G01*
X144964999Y-70450000D01*
G75*
G02*
X144715000Y-70200001I0J249999D01*
G01*
X144715000Y-69499999D01*
G75*
G02*
X144964999Y-69250000I249999J0D01*
G01*
G37*
%TD*%
%TO.C,R5*%
G36*
G01*
X127184999Y-67710000D02*
X128085001Y-67710000D01*
G75*
G02*
X128335000Y-67959999I0J-249999D01*
G01*
X128335000Y-68660001D01*
G75*
G02*
X128085001Y-68910000I-249999J0D01*
G01*
X127184999Y-68910000D01*
G75*
G02*
X126935000Y-68660001I0J249999D01*
G01*
X126935000Y-67959999D01*
G75*
G02*
X127184999Y-67710000I249999J0D01*
G01*
G37*
G36*
G01*
X127184999Y-65710000D02*
X128085001Y-65710000D01*
G75*
G02*
X128335000Y-65959999I0J-249999D01*
G01*
X128335000Y-66660001D01*
G75*
G02*
X128085001Y-66910000I-249999J0D01*
G01*
X127184999Y-66910000D01*
G75*
G02*
X126935000Y-66660001I0J249999D01*
G01*
X126935000Y-65959999D01*
G75*
G02*
X127184999Y-65710000I249999J0D01*
G01*
G37*
%TD*%
%TO.C,R4*%
G36*
G01*
X127184999Y-72520000D02*
X128085001Y-72520000D01*
G75*
G02*
X128335000Y-72769999I0J-249999D01*
G01*
X128335000Y-73470001D01*
G75*
G02*
X128085001Y-73720000I-249999J0D01*
G01*
X127184999Y-73720000D01*
G75*
G02*
X126935000Y-73470001I0J249999D01*
G01*
X126935000Y-72769999D01*
G75*
G02*
X127184999Y-72520000I249999J0D01*
G01*
G37*
G36*
G01*
X127184999Y-70520000D02*
X128085001Y-70520000D01*
G75*
G02*
X128335000Y-70769999I0J-249999D01*
G01*
X128335000Y-71470001D01*
G75*
G02*
X128085001Y-71720000I-249999J0D01*
G01*
X127184999Y-71720000D01*
G75*
G02*
X126935000Y-71470001I0J249999D01*
G01*
X126935000Y-70769999D01*
G75*
G02*
X127184999Y-70520000I249999J0D01*
G01*
G37*
%TD*%
%TO.C,R3*%
G36*
G01*
X130994999Y-67710000D02*
X131895001Y-67710000D01*
G75*
G02*
X132145000Y-67959999I0J-249999D01*
G01*
X132145000Y-68660001D01*
G75*
G02*
X131895001Y-68910000I-249999J0D01*
G01*
X130994999Y-68910000D01*
G75*
G02*
X130745000Y-68660001I0J249999D01*
G01*
X130745000Y-67959999D01*
G75*
G02*
X130994999Y-67710000I249999J0D01*
G01*
G37*
G36*
G01*
X130994999Y-65710000D02*
X131895001Y-65710000D01*
G75*
G02*
X132145000Y-65959999I0J-249999D01*
G01*
X132145000Y-66660001D01*
G75*
G02*
X131895001Y-66910000I-249999J0D01*
G01*
X130994999Y-66910000D01*
G75*
G02*
X130745000Y-66660001I0J249999D01*
G01*
X130745000Y-65959999D01*
G75*
G02*
X130994999Y-65710000I249999J0D01*
G01*
G37*
%TD*%
%TO.C,R2*%
G36*
G01*
X130994999Y-72520000D02*
X131895001Y-72520000D01*
G75*
G02*
X132145000Y-72769999I0J-249999D01*
G01*
X132145000Y-73470001D01*
G75*
G02*
X131895001Y-73720000I-249999J0D01*
G01*
X130994999Y-73720000D01*
G75*
G02*
X130745000Y-73470001I0J249999D01*
G01*
X130745000Y-72769999D01*
G75*
G02*
X130994999Y-72520000I249999J0D01*
G01*
G37*
G36*
G01*
X130994999Y-70520000D02*
X131895001Y-70520000D01*
G75*
G02*
X132145000Y-70769999I0J-249999D01*
G01*
X132145000Y-71470001D01*
G75*
G02*
X131895001Y-71720000I-249999J0D01*
G01*
X130994999Y-71720000D01*
G75*
G02*
X130745000Y-71470001I0J249999D01*
G01*
X130745000Y-70769999D01*
G75*
G02*
X130994999Y-70520000I249999J0D01*
G01*
G37*
%TD*%
%TO.C,R1*%
G36*
G01*
X136074999Y-67710000D02*
X136975001Y-67710000D01*
G75*
G02*
X137225000Y-67959999I0J-249999D01*
G01*
X137225000Y-68660001D01*
G75*
G02*
X136975001Y-68910000I-249999J0D01*
G01*
X136074999Y-68910000D01*
G75*
G02*
X135825000Y-68660001I0J249999D01*
G01*
X135825000Y-67959999D01*
G75*
G02*
X136074999Y-67710000I249999J0D01*
G01*
G37*
G36*
G01*
X136074999Y-65710000D02*
X136975001Y-65710000D01*
G75*
G02*
X137225000Y-65959999I0J-249999D01*
G01*
X137225000Y-66660001D01*
G75*
G02*
X136975001Y-66910000I-249999J0D01*
G01*
X136074999Y-66910000D01*
G75*
G02*
X135825000Y-66660001I0J249999D01*
G01*
X135825000Y-65959999D01*
G75*
G02*
X136074999Y-65710000I249999J0D01*
G01*
G37*
%TD*%
%TO.C,C4*%
G36*
G01*
X144940000Y-75380000D02*
X145890000Y-75380000D01*
G75*
G02*
X146140000Y-75630000I0J-250000D01*
G01*
X146140000Y-76305000D01*
G75*
G02*
X145890000Y-76555000I-250000J0D01*
G01*
X144940000Y-76555000D01*
G75*
G02*
X144690000Y-76305000I0J250000D01*
G01*
X144690000Y-75630000D01*
G75*
G02*
X144940000Y-75380000I250000J0D01*
G01*
G37*
G36*
G01*
X144940000Y-73305000D02*
X145890000Y-73305000D01*
G75*
G02*
X146140000Y-73555000I0J-250000D01*
G01*
X146140000Y-74230000D01*
G75*
G02*
X145890000Y-74480000I-250000J0D01*
G01*
X144940000Y-74480000D01*
G75*
G02*
X144690000Y-74230000I0J250000D01*
G01*
X144690000Y-73555000D01*
G75*
G02*
X144940000Y-73305000I250000J0D01*
G01*
G37*
%TD*%
%TO.C,C3*%
G36*
G01*
X156829998Y-60882500D02*
X158130002Y-60882500D01*
G75*
G02*
X158380000Y-61132498I0J-249998D01*
G01*
X158380000Y-61957502D01*
G75*
G02*
X158130002Y-62207500I-249998J0D01*
G01*
X156829998Y-62207500D01*
G75*
G02*
X156580000Y-61957502I0J249998D01*
G01*
X156580000Y-61132498D01*
G75*
G02*
X156829998Y-60882500I249998J0D01*
G01*
G37*
G36*
G01*
X156829998Y-57757500D02*
X158130002Y-57757500D01*
G75*
G02*
X158380000Y-58007498I0J-249998D01*
G01*
X158380000Y-58832502D01*
G75*
G02*
X158130002Y-59082500I-249998J0D01*
G01*
X156829998Y-59082500D01*
G75*
G02*
X156580000Y-58832502I0J249998D01*
G01*
X156580000Y-58007498D01*
G75*
G02*
X156829998Y-57757500I249998J0D01*
G01*
G37*
%TD*%
%TO.C,C2*%
G36*
G01*
X123174998Y-68718000D02*
X124475002Y-68718000D01*
G75*
G02*
X124725000Y-68967998I0J-249998D01*
G01*
X124725000Y-69793002D01*
G75*
G02*
X124475002Y-70043000I-249998J0D01*
G01*
X123174998Y-70043000D01*
G75*
G02*
X122925000Y-69793002I0J249998D01*
G01*
X122925000Y-68967998D01*
G75*
G02*
X123174998Y-68718000I249998J0D01*
G01*
G37*
G36*
G01*
X123174998Y-65593000D02*
X124475002Y-65593000D01*
G75*
G02*
X124725000Y-65842998I0J-249998D01*
G01*
X124725000Y-66668002D01*
G75*
G02*
X124475002Y-66918000I-249998J0D01*
G01*
X123174998Y-66918000D01*
G75*
G02*
X122925000Y-66668002I0J249998D01*
G01*
X122925000Y-65842998D01*
G75*
G02*
X123174998Y-65593000I249998J0D01*
G01*
G37*
%TD*%
%TO.C,C1*%
G36*
G01*
X134145000Y-73877500D02*
X135095000Y-73877500D01*
G75*
G02*
X135345000Y-74127500I0J-250000D01*
G01*
X135345000Y-74802500D01*
G75*
G02*
X135095000Y-75052500I-250000J0D01*
G01*
X134145000Y-75052500D01*
G75*
G02*
X133895000Y-74802500I0J250000D01*
G01*
X133895000Y-74127500D01*
G75*
G02*
X134145000Y-73877500I250000J0D01*
G01*
G37*
G36*
G01*
X134145000Y-71802500D02*
X135095000Y-71802500D01*
G75*
G02*
X135345000Y-72052500I0J-250000D01*
G01*
X135345000Y-72727500D01*
G75*
G02*
X135095000Y-72977500I-250000J0D01*
G01*
X134145000Y-72977500D01*
G75*
G02*
X133895000Y-72727500I0J250000D01*
G01*
X133895000Y-72052500D01*
G75*
G02*
X134145000Y-71802500I250000J0D01*
G01*
G37*
%TD*%
M02*
