%TF.GenerationSoftware,KiCad,Pcbnew,(5.1.9)-1*%
%TF.CreationDate,2021-09-02T18:26:23+01:00*%
%TF.ProjectId,InlinePowerpoleBOB,496e6c69-6e65-4506-9f77-6572706f6c65,rev?*%
%TF.SameCoordinates,Original*%
%TF.FileFunction,Legend,Top*%
%TF.FilePolarity,Positive*%
%FSLAX46Y46*%
G04 Gerber Fmt 4.6, Leading zero omitted, Abs format (unit mm)*
G04 Created by KiCad (PCBNEW (5.1.9)-1) date 2021-09-02 18:26:23*
%MOMM*%
%LPD*%
G01*
G04 APERTURE LIST*
%ADD10C,0.200000*%
%ADD11C,0.100000*%
%ADD12C,0.120000*%
%ADD13C,0.150000*%
%ADD14C,0.254000*%
G04 APERTURE END LIST*
D10*
X165239285Y-66869571D02*
X165525000Y-66869571D01*
X165667857Y-66941000D01*
X165810714Y-67083857D01*
X165882142Y-67369571D01*
X165882142Y-67869571D01*
X165810714Y-68155285D01*
X165667857Y-68298142D01*
X165525000Y-68369571D01*
X165239285Y-68369571D01*
X165096428Y-68298142D01*
X164953571Y-68155285D01*
X164882142Y-67869571D01*
X164882142Y-67369571D01*
X164953571Y-67083857D01*
X165096428Y-66941000D01*
X165239285Y-66869571D01*
X167167857Y-67369571D02*
X167167857Y-68369571D01*
X166525000Y-67369571D02*
X166525000Y-68155285D01*
X166596428Y-68298142D01*
X166739285Y-68369571D01*
X166953571Y-68369571D01*
X167096428Y-68298142D01*
X167167857Y-68226714D01*
X167667857Y-67369571D02*
X168239285Y-67369571D01*
X167882142Y-66869571D02*
X167882142Y-68155285D01*
X167953571Y-68298142D01*
X168096428Y-68369571D01*
X168239285Y-68369571D01*
X168739285Y-67369571D02*
X168739285Y-68869571D01*
X168739285Y-67441000D02*
X168882142Y-67369571D01*
X169167857Y-67369571D01*
X169310714Y-67441000D01*
X169382142Y-67512428D01*
X169453571Y-67655285D01*
X169453571Y-68083857D01*
X169382142Y-68226714D01*
X169310714Y-68298142D01*
X169167857Y-68369571D01*
X168882142Y-68369571D01*
X168739285Y-68298142D01*
X170739285Y-67369571D02*
X170739285Y-68369571D01*
X170096428Y-67369571D02*
X170096428Y-68155285D01*
X170167857Y-68298142D01*
X170310714Y-68369571D01*
X170525000Y-68369571D01*
X170667857Y-68298142D01*
X170739285Y-68226714D01*
X171239285Y-67369571D02*
X171810714Y-67369571D01*
X171453571Y-66869571D02*
X171453571Y-68155285D01*
X171525000Y-68298142D01*
X171667857Y-68369571D01*
X171810714Y-68369571D01*
X114502714Y-68369571D02*
X114502714Y-66869571D01*
X115217000Y-67369571D02*
X115217000Y-68369571D01*
X115217000Y-67512428D02*
X115288428Y-67441000D01*
X115431285Y-67369571D01*
X115645571Y-67369571D01*
X115788428Y-67441000D01*
X115859857Y-67583857D01*
X115859857Y-68369571D01*
X116574142Y-67369571D02*
X116574142Y-68869571D01*
X116574142Y-67441000D02*
X116717000Y-67369571D01*
X117002714Y-67369571D01*
X117145571Y-67441000D01*
X117217000Y-67512428D01*
X117288428Y-67655285D01*
X117288428Y-68083857D01*
X117217000Y-68226714D01*
X117145571Y-68298142D01*
X117002714Y-68369571D01*
X116717000Y-68369571D01*
X116574142Y-68298142D01*
X118574142Y-67369571D02*
X118574142Y-68369571D01*
X117931285Y-67369571D02*
X117931285Y-68155285D01*
X118002714Y-68298142D01*
X118145571Y-68369571D01*
X118359857Y-68369571D01*
X118502714Y-68298142D01*
X118574142Y-68226714D01*
X119074142Y-67369571D02*
X119645571Y-67369571D01*
X119288428Y-66869571D02*
X119288428Y-68155285D01*
X119359857Y-68298142D01*
X119502714Y-68369571D01*
X119645571Y-68369571D01*
%TO.C,IC1*%
X136775000Y-69620000D02*
X138200000Y-69620000D01*
X138550000Y-72620000D02*
X138550000Y-69620000D01*
X140850000Y-72620000D02*
X138550000Y-72620000D01*
X140850000Y-69620000D02*
X140850000Y-72620000D01*
X138550000Y-69620000D02*
X140850000Y-69620000D01*
%TO.C,C5*%
X151640000Y-70740000D02*
X151640000Y-75690000D01*
X158240000Y-68265000D02*
X158240000Y-75690000D01*
D11*
%TO.C,Q2*%
X138540000Y-52070000D02*
X138540000Y-52070000D01*
X138440000Y-52070000D02*
X138440000Y-52070000D01*
X138440000Y-52070000D02*
G75*
G02*
X138540000Y-52070000I50000J0D01*
G01*
X138540000Y-52070000D02*
G75*
G02*
X138440000Y-52070000I-50000J0D01*
G01*
%TO.C,Q1*%
X137050000Y-54610000D02*
X137050000Y-54610000D01*
X137150000Y-54610000D02*
X137150000Y-54610000D01*
X137150000Y-54610000D02*
G75*
G02*
X137050000Y-54610000I-50000J0D01*
G01*
X137050000Y-54610000D02*
G75*
G02*
X137150000Y-54610000I50000J0D01*
G01*
D12*
%TO.C,R7*%
X160292064Y-55685000D02*
X155937936Y-55685000D01*
X160292064Y-52265000D02*
X155937936Y-52265000D01*
%TO.C,R6*%
X146150000Y-70622936D02*
X146150000Y-71077064D01*
X144680000Y-70622936D02*
X144680000Y-71077064D01*
%TO.C,R5*%
X128370000Y-67082936D02*
X128370000Y-67537064D01*
X126900000Y-67082936D02*
X126900000Y-67537064D01*
%TO.C,R4*%
X128370000Y-71892936D02*
X128370000Y-72347064D01*
X126900000Y-71892936D02*
X126900000Y-72347064D01*
%TO.C,R3*%
X132180000Y-67082936D02*
X132180000Y-67537064D01*
X130710000Y-67082936D02*
X130710000Y-67537064D01*
%TO.C,R2*%
X132180000Y-71892936D02*
X132180000Y-72347064D01*
X130710000Y-71892936D02*
X130710000Y-72347064D01*
%TO.C,R1*%
X137260000Y-67082936D02*
X137260000Y-67537064D01*
X135790000Y-67082936D02*
X135790000Y-67537064D01*
%TO.C,C4*%
X146150000Y-74668748D02*
X146150000Y-75191252D01*
X144680000Y-74668748D02*
X144680000Y-75191252D01*
%TO.C,C3*%
X162835000Y-68503748D02*
X162835000Y-69926252D01*
X161015000Y-68503748D02*
X161015000Y-69926252D01*
%TO.C,C2*%
X124735000Y-68161248D02*
X124735000Y-69583752D01*
X122915000Y-68161248D02*
X122915000Y-69583752D01*
%TO.C,C1*%
X135355000Y-73166248D02*
X135355000Y-73688752D01*
X133885000Y-73166248D02*
X133885000Y-73688752D01*
%TO.C,J2*%
D13*
X167066980Y-59616933D02*
X167781266Y-59616933D01*
X167924123Y-59664552D01*
X168019361Y-59759790D01*
X168066980Y-59902647D01*
X168066980Y-59997885D01*
X167162219Y-59188361D02*
X167114600Y-59140742D01*
X167066980Y-59045504D01*
X167066980Y-58807409D01*
X167114600Y-58712171D01*
X167162219Y-58664552D01*
X167257457Y-58616933D01*
X167352695Y-58616933D01*
X167495552Y-58664552D01*
X168066980Y-59235980D01*
X168066980Y-58616933D01*
X165171428Y-52323952D02*
X165171428Y-51562047D01*
X165552380Y-51943000D02*
X164790476Y-51943000D01*
%TO.C,J1*%
X116546380Y-59489933D02*
X117260666Y-59489933D01*
X117403523Y-59537552D01*
X117498761Y-59632790D01*
X117546380Y-59775647D01*
X117546380Y-59870885D01*
X117546380Y-58489933D02*
X117546380Y-59061361D01*
X117546380Y-58775647D02*
X116546380Y-58775647D01*
X116689238Y-58870885D01*
X116784476Y-58966123D01*
X116832095Y-59061361D01*
%TO.C,IC1*%
D14*
X139476238Y-68900523D02*
X139476238Y-67630523D01*
X140806714Y-68779571D02*
X140746238Y-68840047D01*
X140564809Y-68900523D01*
X140443857Y-68900523D01*
X140262428Y-68840047D01*
X140141476Y-68719095D01*
X140081000Y-68598142D01*
X140020523Y-68356238D01*
X140020523Y-68174809D01*
X140081000Y-67932904D01*
X140141476Y-67811952D01*
X140262428Y-67691000D01*
X140443857Y-67630523D01*
X140564809Y-67630523D01*
X140746238Y-67691000D01*
X140806714Y-67751476D01*
X142016238Y-68900523D02*
X141290523Y-68900523D01*
X141653380Y-68900523D02*
X141653380Y-67630523D01*
X141532428Y-67811952D01*
X141411476Y-67932904D01*
X141290523Y-67993380D01*
%TO.C,C5*%
X159711571Y-72779466D02*
X159772047Y-72839942D01*
X159832523Y-73021371D01*
X159832523Y-73142323D01*
X159772047Y-73323752D01*
X159651095Y-73444704D01*
X159530142Y-73505180D01*
X159288238Y-73565657D01*
X159106809Y-73565657D01*
X158864904Y-73505180D01*
X158743952Y-73444704D01*
X158623000Y-73323752D01*
X158562523Y-73142323D01*
X158562523Y-73021371D01*
X158623000Y-72839942D01*
X158683476Y-72779466D01*
X158562523Y-71630419D02*
X158562523Y-72235180D01*
X159167285Y-72295657D01*
X159106809Y-72235180D01*
X159046333Y-72114228D01*
X159046333Y-71811847D01*
X159106809Y-71690895D01*
X159167285Y-71630419D01*
X159288238Y-71569942D01*
X159590619Y-71569942D01*
X159711571Y-71630419D01*
X159772047Y-71690895D01*
X159832523Y-71811847D01*
X159832523Y-72114228D01*
X159772047Y-72235180D01*
X159711571Y-72295657D01*
%TO.C,Q2*%
X146237476Y-59429952D02*
X146177000Y-59550904D01*
X146056047Y-59671857D01*
X145874619Y-59853285D01*
X145814142Y-59974238D01*
X145814142Y-60095190D01*
X146116523Y-60034714D02*
X146056047Y-60155666D01*
X145935095Y-60276619D01*
X145693190Y-60337095D01*
X145269857Y-60337095D01*
X145027952Y-60276619D01*
X144907000Y-60155666D01*
X144846523Y-60034714D01*
X144846523Y-59792809D01*
X144907000Y-59671857D01*
X145027952Y-59550904D01*
X145269857Y-59490428D01*
X145693190Y-59490428D01*
X145935095Y-59550904D01*
X146056047Y-59671857D01*
X146116523Y-59792809D01*
X146116523Y-60034714D01*
X144967476Y-59006619D02*
X144907000Y-58946142D01*
X144846523Y-58825190D01*
X144846523Y-58522809D01*
X144907000Y-58401857D01*
X144967476Y-58341380D01*
X145088428Y-58280904D01*
X145209380Y-58280904D01*
X145390809Y-58341380D01*
X146116523Y-59067095D01*
X146116523Y-58280904D01*
%TO.C,Q1*%
X130743476Y-47491952D02*
X130683000Y-47612904D01*
X130562047Y-47733857D01*
X130380619Y-47915285D01*
X130320142Y-48036238D01*
X130320142Y-48157190D01*
X130622523Y-48096714D02*
X130562047Y-48217666D01*
X130441095Y-48338619D01*
X130199190Y-48399095D01*
X129775857Y-48399095D01*
X129533952Y-48338619D01*
X129413000Y-48217666D01*
X129352523Y-48096714D01*
X129352523Y-47854809D01*
X129413000Y-47733857D01*
X129533952Y-47612904D01*
X129775857Y-47552428D01*
X130199190Y-47552428D01*
X130441095Y-47612904D01*
X130562047Y-47733857D01*
X130622523Y-47854809D01*
X130622523Y-48096714D01*
X130622523Y-46342904D02*
X130622523Y-47068619D01*
X130622523Y-46705761D02*
X129352523Y-46705761D01*
X129533952Y-46826714D01*
X129654904Y-46947666D01*
X129715380Y-47068619D01*
%TO.C,R7*%
D13*
X157948333Y-57047380D02*
X157615000Y-56571190D01*
X157376904Y-57047380D02*
X157376904Y-56047380D01*
X157757857Y-56047380D01*
X157853095Y-56095000D01*
X157900714Y-56142619D01*
X157948333Y-56237857D01*
X157948333Y-56380714D01*
X157900714Y-56475952D01*
X157853095Y-56523571D01*
X157757857Y-56571190D01*
X157376904Y-56571190D01*
X158281666Y-56047380D02*
X158948333Y-56047380D01*
X158519761Y-57047380D01*
%TO.C,R6*%
X147517380Y-71016666D02*
X147041190Y-71350000D01*
X147517380Y-71588095D02*
X146517380Y-71588095D01*
X146517380Y-71207142D01*
X146565000Y-71111904D01*
X146612619Y-71064285D01*
X146707857Y-71016666D01*
X146850714Y-71016666D01*
X146945952Y-71064285D01*
X146993571Y-71111904D01*
X147041190Y-71207142D01*
X147041190Y-71588095D01*
X146517380Y-70159523D02*
X146517380Y-70350000D01*
X146565000Y-70445238D01*
X146612619Y-70492857D01*
X146755476Y-70588095D01*
X146945952Y-70635714D01*
X147326904Y-70635714D01*
X147422142Y-70588095D01*
X147469761Y-70540476D01*
X147517380Y-70445238D01*
X147517380Y-70254761D01*
X147469761Y-70159523D01*
X147422142Y-70111904D01*
X147326904Y-70064285D01*
X147088809Y-70064285D01*
X146993571Y-70111904D01*
X146945952Y-70159523D01*
X146898333Y-70254761D01*
X146898333Y-70445238D01*
X146945952Y-70540476D01*
X146993571Y-70588095D01*
X147088809Y-70635714D01*
%TO.C,R5*%
X129737380Y-67476666D02*
X129261190Y-67810000D01*
X129737380Y-68048095D02*
X128737380Y-68048095D01*
X128737380Y-67667142D01*
X128785000Y-67571904D01*
X128832619Y-67524285D01*
X128927857Y-67476666D01*
X129070714Y-67476666D01*
X129165952Y-67524285D01*
X129213571Y-67571904D01*
X129261190Y-67667142D01*
X129261190Y-68048095D01*
X128737380Y-66571904D02*
X128737380Y-67048095D01*
X129213571Y-67095714D01*
X129165952Y-67048095D01*
X129118333Y-66952857D01*
X129118333Y-66714761D01*
X129165952Y-66619523D01*
X129213571Y-66571904D01*
X129308809Y-66524285D01*
X129546904Y-66524285D01*
X129642142Y-66571904D01*
X129689761Y-66619523D01*
X129737380Y-66714761D01*
X129737380Y-66952857D01*
X129689761Y-67048095D01*
X129642142Y-67095714D01*
%TO.C,R4*%
X129737380Y-72286666D02*
X129261190Y-72620000D01*
X129737380Y-72858095D02*
X128737380Y-72858095D01*
X128737380Y-72477142D01*
X128785000Y-72381904D01*
X128832619Y-72334285D01*
X128927857Y-72286666D01*
X129070714Y-72286666D01*
X129165952Y-72334285D01*
X129213571Y-72381904D01*
X129261190Y-72477142D01*
X129261190Y-72858095D01*
X129070714Y-71429523D02*
X129737380Y-71429523D01*
X128689761Y-71667619D02*
X129404047Y-71905714D01*
X129404047Y-71286666D01*
%TO.C,R3*%
X133547380Y-67476666D02*
X133071190Y-67810000D01*
X133547380Y-68048095D02*
X132547380Y-68048095D01*
X132547380Y-67667142D01*
X132595000Y-67571904D01*
X132642619Y-67524285D01*
X132737857Y-67476666D01*
X132880714Y-67476666D01*
X132975952Y-67524285D01*
X133023571Y-67571904D01*
X133071190Y-67667142D01*
X133071190Y-68048095D01*
X132547380Y-67143333D02*
X132547380Y-66524285D01*
X132928333Y-66857619D01*
X132928333Y-66714761D01*
X132975952Y-66619523D01*
X133023571Y-66571904D01*
X133118809Y-66524285D01*
X133356904Y-66524285D01*
X133452142Y-66571904D01*
X133499761Y-66619523D01*
X133547380Y-66714761D01*
X133547380Y-67000476D01*
X133499761Y-67095714D01*
X133452142Y-67143333D01*
%TO.C,R2*%
X133547380Y-72286666D02*
X133071190Y-72620000D01*
X133547380Y-72858095D02*
X132547380Y-72858095D01*
X132547380Y-72477142D01*
X132595000Y-72381904D01*
X132642619Y-72334285D01*
X132737857Y-72286666D01*
X132880714Y-72286666D01*
X132975952Y-72334285D01*
X133023571Y-72381904D01*
X133071190Y-72477142D01*
X133071190Y-72858095D01*
X132642619Y-71905714D02*
X132595000Y-71858095D01*
X132547380Y-71762857D01*
X132547380Y-71524761D01*
X132595000Y-71429523D01*
X132642619Y-71381904D01*
X132737857Y-71334285D01*
X132833095Y-71334285D01*
X132975952Y-71381904D01*
X133547380Y-71953333D01*
X133547380Y-71334285D01*
%TO.C,R1*%
X138627380Y-67476666D02*
X138151190Y-67810000D01*
X138627380Y-68048095D02*
X137627380Y-68048095D01*
X137627380Y-67667142D01*
X137675000Y-67571904D01*
X137722619Y-67524285D01*
X137817857Y-67476666D01*
X137960714Y-67476666D01*
X138055952Y-67524285D01*
X138103571Y-67571904D01*
X138151190Y-67667142D01*
X138151190Y-68048095D01*
X138627380Y-66524285D02*
X138627380Y-67095714D01*
X138627380Y-66810000D02*
X137627380Y-66810000D01*
X137770238Y-66905238D01*
X137865476Y-67000476D01*
X137913095Y-67095714D01*
%TO.C,C4*%
X147452142Y-75096666D02*
X147499761Y-75144285D01*
X147547380Y-75287142D01*
X147547380Y-75382380D01*
X147499761Y-75525238D01*
X147404523Y-75620476D01*
X147309285Y-75668095D01*
X147118809Y-75715714D01*
X146975952Y-75715714D01*
X146785476Y-75668095D01*
X146690238Y-75620476D01*
X146595000Y-75525238D01*
X146547380Y-75382380D01*
X146547380Y-75287142D01*
X146595000Y-75144285D01*
X146642619Y-75096666D01*
X146880714Y-74239523D02*
X147547380Y-74239523D01*
X146499761Y-74477619D02*
X147214047Y-74715714D01*
X147214047Y-74096666D01*
%TO.C,C3*%
X164132142Y-69381666D02*
X164179761Y-69429285D01*
X164227380Y-69572142D01*
X164227380Y-69667380D01*
X164179761Y-69810238D01*
X164084523Y-69905476D01*
X163989285Y-69953095D01*
X163798809Y-70000714D01*
X163655952Y-70000714D01*
X163465476Y-69953095D01*
X163370238Y-69905476D01*
X163275000Y-69810238D01*
X163227380Y-69667380D01*
X163227380Y-69572142D01*
X163275000Y-69429285D01*
X163322619Y-69381666D01*
X163227380Y-69048333D02*
X163227380Y-68429285D01*
X163608333Y-68762619D01*
X163608333Y-68619761D01*
X163655952Y-68524523D01*
X163703571Y-68476904D01*
X163798809Y-68429285D01*
X164036904Y-68429285D01*
X164132142Y-68476904D01*
X164179761Y-68524523D01*
X164227380Y-68619761D01*
X164227380Y-68905476D01*
X164179761Y-69000714D01*
X164132142Y-69048333D01*
%TO.C,C2*%
X126032142Y-69039166D02*
X126079761Y-69086785D01*
X126127380Y-69229642D01*
X126127380Y-69324880D01*
X126079761Y-69467738D01*
X125984523Y-69562976D01*
X125889285Y-69610595D01*
X125698809Y-69658214D01*
X125555952Y-69658214D01*
X125365476Y-69610595D01*
X125270238Y-69562976D01*
X125175000Y-69467738D01*
X125127380Y-69324880D01*
X125127380Y-69229642D01*
X125175000Y-69086785D01*
X125222619Y-69039166D01*
X125222619Y-68658214D02*
X125175000Y-68610595D01*
X125127380Y-68515357D01*
X125127380Y-68277261D01*
X125175000Y-68182023D01*
X125222619Y-68134404D01*
X125317857Y-68086785D01*
X125413095Y-68086785D01*
X125555952Y-68134404D01*
X126127380Y-68705833D01*
X126127380Y-68086785D01*
%TO.C,C1*%
X136657142Y-73594166D02*
X136704761Y-73641785D01*
X136752380Y-73784642D01*
X136752380Y-73879880D01*
X136704761Y-74022738D01*
X136609523Y-74117976D01*
X136514285Y-74165595D01*
X136323809Y-74213214D01*
X136180952Y-74213214D01*
X135990476Y-74165595D01*
X135895238Y-74117976D01*
X135800000Y-74022738D01*
X135752380Y-73879880D01*
X135752380Y-73784642D01*
X135800000Y-73641785D01*
X135847619Y-73594166D01*
X136752380Y-72641785D02*
X136752380Y-73213214D01*
X136752380Y-72927500D02*
X135752380Y-72927500D01*
X135895238Y-73022738D01*
X135990476Y-73117976D01*
X136038095Y-73213214D01*
%TD*%
M02*
